<?xml version="1.0" encoding="UTF-8"?>
<svg id="Layer_1" data-name="Layer 1" xmlns="http://www.w3.org/2000/svg" viewBox="0 0 566.93 566.93">
  <defs>
    <style>
      .cls-1 {
        fill: none;
        stroke: #000;
        stroke-linecap: round;
        stroke-linejoin: round;
      }
    </style>
  </defs>
  <polyline class="cls-1" points="331.26 424.47 330.67 424.47 328.87 424.47 325.89 424.47 322 424.47 316.92 424.47 310.95 424.47 304.38 424.47 297.21 424.47 289.74 424.47 281.97 424.47 274.5 424.47 267.03 424.47 260.16 424.47 253.89 424.47 253.89 425.37 253.89 425.97 260.46 425.97 267.63 425.97 275.1 425.97 282.87 425.97 290.63 425.97 298.1 425.97 305.57 425.97 312.14 425.97 318.12 425.97 323.2 425.97 327.38 425.97 330.37 425.97 332.16 425.97 332.76 425.97"/>
  <polyline class="cls-1" points="253.89 425.97 253.89 444.19 260.46 444.19 267.63 444.19 275.1 444.19 282.87 444.19 290.63 444.19 298.1 444.19 305.57 444.19 312.14 444.19 318.12 444.19 323.2 444.19 327.38 444.19 330.37 444.19 332.16 444.19 332.76 444.19"/>
  <polyline class="cls-1" points="332.76 310.35 332.16 310.35 330.37 310.35 327.38 310.35 323.5 310.35 318.42 310.35 312.44 310.35 305.87 310.35 298.7 310.35 291.23 310.35 283.46 310.35 275.7 310.35 268.23 310.35 261.06 310.35 254.49 310.35 248.51 310.35 243.43 310.35 239.25 310.35 236.26 310.35 234.47 310.35 233.87 310.35"/>
  <polyline class="cls-1" points="235.37 311.55 235.96 311.55 237.76 311.55 240.74 311.55 244.63 311.55 249.41 311.55 255.08 311.55 261.66 311.55 268.53 311.55 276 311.55 283.46 311.55 290.93 311.55 298.1 311.55 305.27 311.55 311.55 311.55 317.22 311.55 322.3 311.55 326.19 311.55 329.17 311.55 330.67 311.55 331.26 311.55"/>
  <polyline class="cls-1" points="233.87 284.66 234.47 284.66 236.26 284.66 239.25 284.66 243.43 284.66 248.51 284.66 254.49 284.66 261.06 284.66 268.23 284.66 275.7 284.66 283.46 284.66 291.23 284.66 298.7 284.66 305.87 284.66 312.44 284.66 318.42 284.66 323.5 284.66 327.38 284.66 330.37 284.66 332.16 284.66 332.76 284.66"/>
  <polyline class="cls-1" points="331.26 283.46 330.67 283.46 329.17 283.46 326.19 283.46 322.3 283.46 317.22 283.46 311.55 283.46 305.27 283.46 298.1 283.46 290.93 283.46 283.46 283.46 276 283.46 268.53 283.46 261.66 283.46 255.08 283.46 249.41 283.46 244.63 283.46 240.74 283.46 237.76 283.46 235.96 283.46 235.37 283.46"/>
  <polyline class="cls-1" points="332.76 253.59 332.16 253.59 330.37 253.59 327.38 253.59 323.5 253.59 318.42 253.59 312.44 253.59 305.87 253.59 298.7 253.59 291.23 253.59 283.46 253.59 275.7 253.59 268.23 253.59 261.06 253.59 254.49 253.59 248.51 253.59 243.43 253.59 239.25 253.59 236.26 253.59 234.47 253.59 233.87 253.59"/>
  <polyline class="cls-1" points="235.37 255.08 235.96 255.08 237.76 255.08 240.74 255.08 244.63 255.08 249.41 255.08 255.08 255.08 261.66 255.08 268.53 255.08 276 255.08 283.46 255.08 290.93 255.08 298.1 255.08 305.27 255.08 311.55 255.08 317.22 255.08 322.3 255.08 326.19 255.08 329.17 255.08 330.67 255.08 331.26 255.08"/>
  <polyline class="cls-1" points="233.87 228.2 234.47 228.2 236.26 228.2 239.25 228.2 243.43 228.2 248.51 228.2 254.49 228.2 261.06 228.2 268.23 228.2 275.7 228.2 283.46 228.2 291.23 228.2 298.7 228.2 305.87 228.2 312.44 228.2 318.42 228.2 323.5 228.2 327.38 228.2 330.37 228.2 332.16 228.2 332.76 228.2"/>
  <polyline class="cls-1" points="331.26 227 330.67 227 329.17 227 326.19 227 322.3 227 317.22 227 311.55 227 305.27 227 298.1 227 290.93 227 283.46 227 276 227 268.53 227 261.66 227 255.08 227 249.41 227 244.63 227 240.74 227 237.76 227 235.96 227 235.37 227"/>
  <polyline class="cls-1" points="334.25 197.13 333.65 197.13 331.86 197.13 328.58 197.13 324.39 197.13 319.31 197.13 313.34 197.13 306.47 197.13 299 197.13 291.23 197.13 283.46 197.13 275.4 197.13 267.63 197.13 260.46 197.13 253.59 197.13 247.32 197.13 242.24 197.13 238.06 197.13 235.07 197.13 233.28 197.13 232.68 197.13"/>
  <polyline class="cls-1" points="233.87 198.62 234.47 198.62 236.26 198.62 239.25 198.62 243.43 198.62 248.51 198.62 254.49 198.62 261.06 198.62 268.23 198.62 275.7 198.62 283.46 198.62 291.23 198.62 298.7 198.62 305.87 198.62 312.44 198.62 318.42 198.62 323.5 198.62 327.38 198.62 330.37 198.62 332.16 198.62 332.76 198.62"/>
  <polyline class="cls-1" points="334.25 114.08 333.65 114.08 331.86 114.08 328.58 114.08 324.39 114.08 319.31 114.08 313.34 114.08 306.47 114.08 299 114.08 291.23 114.08 283.46 114.08 275.4 114.08 267.63 114.08 260.46 114.08 253.59 114.08 247.32 114.08 242.24 114.08 238.06 114.08 235.07 114.08 233.28 114.08 232.68 114.08"/>
  <polyline class="cls-1" points="253.89 444.19 253.89 445.68 253.89 446.88 253.89 448.07 253.89 448.97 253.89 450.16 253.89 451.06 253.89 451.96 253.89 452.85 258.97 452.85 264.94 452.85 271.22 452.85 278.09 452.85 284.96 452.85 291.83 452.85 298.7 452.85 304.68 452.85 310.35 452.85 315.13 452.85 319.02 452.85 322 452.85 323.8 452.85 324.39 452.85"/>
  <line class="cls-1" x1="253.89" y1="311.55" x2="253.89" y2="424.47"/>
  <polyline class="cls-1" points="331.26 424.47 332.76 425.97 332.76 444.19"/>
  <line class="cls-1" x1="235.37" y1="311.55" x2="233.87" y2="310.35"/>
  <polyline class="cls-1" points="331.26 311.55 332.76 310.35 332.76 284.66"/>
  <line class="cls-1" x1="233.87" y1="284.66" x2="233.87" y2="310.35"/>
  <line class="cls-1" x1="331.26" y1="283.46" x2="332.76" y2="284.66"/>
  <line class="cls-1" x1="235.37" y1="283.46" x2="233.87" y2="284.66"/>
  <line class="cls-1" x1="235.37" y1="255.08" x2="233.87" y2="253.59"/>
  <polyline class="cls-1" points="331.26 255.08 332.76 253.59 332.76 228.2"/>
  <line class="cls-1" x1="233.87" y1="228.2" x2="233.87" y2="253.59"/>
  <line class="cls-1" x1="331.26" y1="227" x2="332.76" y2="228.2"/>
  <line class="cls-1" x1="235.37" y1="227" x2="233.87" y2="228.2"/>
  <line class="cls-1" x1="233.87" y1="198.62" x2="232.68" y2="197.13"/>
  <polyline class="cls-1" points="332.76 198.62 334.25 197.13 334.25 114.08"/>
  <line class="cls-1" x1="232.68" y1="114.08" x2="232.68" y2="197.13"/>
  <line class="cls-1" x1="324.39" y1="452.85" x2="332.76" y2="444.19"/>
  <line class="cls-1" x1="318.72" y1="311.55" x2="318.72" y2="424.47"/>
  <line class="cls-1" x1="321.41" y1="198.62" x2="321.41" y2="227"/>
  <line class="cls-1" x1="245.23" y1="198.62" x2="245.23" y2="227"/>
  <line class="cls-1" x1="321.41" y1="255.08" x2="321.41" y2="283.46"/>
  <line class="cls-1" x1="245.23" y1="255.08" x2="245.23" y2="283.46"/>
</svg>