<?xml version="1.0" encoding="UTF-8"?>
<svg id="Layer_1" data-name="Layer 1" xmlns="http://www.w3.org/2000/svg" viewBox="0 0 566.93 566.93">
  <defs>
    <style>
      .cls-1 {
        fill: none;
        stroke: #000;
        stroke-linecap: round;
        stroke-linejoin: round;
      }
    </style>
  </defs>
  <polyline class="cls-1" points="248.96 406.25 248.96 392.21 215.8 392.21 214.3 390.71 214.3 351.28 215.8 349.79 248.96 349.79 248.96 293.32"/>
  <polyline class="cls-1" points="248.96 293.32 254.64 293.32 261.21 293.32 268.38 293.32 275.85 293.32 283.61 293.32 291.08 293.32 298.55 293.32 305.72 293.32 312.29 293.32 317.97 293.32 317.97 349.79 351.13 349.79 352.62 351.28 352.62 390.71 351.13 392.21 317.97 392.21 317.97 406.25 312.29 406.25 305.72 406.25 298.55 406.25 291.08 406.25 283.61 406.25 275.85 406.25 268.38 406.25 261.21 406.25 254.64 406.25 248.96 406.25"/>
  <polyline class="cls-1" points="351.13 392.21 354.72 392.21 357.4 392.21 359.2 392.21 359.79 392.21"/>
  <polyline class="cls-1" points="207.13 392.21 207.73 392.21 209.52 392.21 212.21 392.21 215.8 392.21"/>
  <polyline class="cls-1" points="360.99 390.71 360.69 390.71 358.9 390.71 356.21 390.71 352.62 390.71"/>
  <polyline class="cls-1" points="214.3 390.71 210.72 390.71 208.03 390.71 206.24 390.71 205.94 390.71"/>
  <polyline class="cls-1" points="352.62 351.28 356.21 351.28 358.9 351.28 360.69 351.28 360.99 351.28"/>
  <polyline class="cls-1" points="205.94 351.28 206.24 351.28 208.03 351.28 210.72 351.28 214.3 351.28"/>
  <polyline class="cls-1" points="332.91 104.22 332.31 104.22 330.52 104.22 327.53 104.22 323.35 104.22 318.27 104.22 312.59 104.22 306.02 104.22 298.85 104.22 291.08 104.22 283.61 104.22 275.85 104.22 268.08 104.22 260.91 104.22 254.34 104.22 248.66 104.22 243.58 104.22 239.4 104.22 236.41 104.22 234.62 104.22 234.02 104.22"/>
  <polyline class="cls-1" points="359.79 349.79 359.2 349.79 357.4 349.79 354.72 349.79 351.13 349.79"/>
  <polyline class="cls-1" points="215.8 349.79 212.21 349.79 209.52 349.79 207.73 349.79 207.13 349.79"/>
  <polyline class="cls-1" points="332.91 461.22 332.31 461.22 330.52 461.22 327.53 461.22 323.35 461.22 318.27 461.22 312.59 461.22 306.02 461.22 298.85 461.22 291.08 461.22 283.61 461.22 275.85 461.22 268.08 461.22 260.91 461.22 254.34 461.22 248.66 461.22 243.58 461.22 239.4 461.22 236.41 461.22 234.62 461.22 234.02 461.22"/>
  <polyline class="cls-1" points="235.52 462.71 236.11 462.71 237.91 462.71 240.59 462.71 244.78 462.71 249.56 462.71 255.23 462.71 261.81 462.71 268.68 462.71 275.85 462.71 283.61 462.71 291.08 462.71 298.25 462.71 305.12 462.71 311.7 462.71 317.37 462.71 322.45 462.71 326.33 462.71 329.02 462.71 330.82 462.71 331.41 462.71"/>
  <line class="cls-1" x1="359.79" y1="392.21" x2="360.99" y2="390.71"/>
  <line class="cls-1" x1="207.13" y1="392.21" x2="205.94" y2="390.71"/>
  <line class="cls-1" x1="360.99" y1="351.28" x2="360.99" y2="390.71"/>
  <line class="cls-1" x1="205.94" y1="351.28" x2="205.94" y2="390.71"/>
  <line class="cls-1" x1="332.91" y1="104.22" x2="332.91" y2="349.79"/>
  <line class="cls-1" x1="234.02" y1="104.22" x2="234.02" y2="349.79"/>
  <line class="cls-1" x1="359.79" y1="349.79" x2="360.99" y2="351.28"/>
  <line class="cls-1" x1="207.13" y1="349.79" x2="205.94" y2="351.28"/>
  <line class="cls-1" x1="332.91" y1="392.21" x2="332.91" y2="461.22"/>
  <polyline class="cls-1" points="234.02 392.21 234.02 461.22 235.52 462.71"/>
  <line class="cls-1" x1="331.41" y1="462.71" x2="332.91" y2="461.22"/>
</svg>