<?xml version="1.0" encoding="UTF-8"?>
<svg id="Layer_1" data-name="Layer 1" xmlns="http://www.w3.org/2000/svg" viewBox="0 0 566.93 566.93">
  <defs>
    <style>
      .cls-1 {
        fill: none;
        stroke: #000;
        stroke-linecap: round;
        stroke-linejoin: round;
      }
    </style>
  </defs>
  <polyline class="cls-1" points="253.74 286.9 233.72 286.9 228.94 286.9 225.06 286.9 222.07 286.9 220.58 286.9 219.98 286.9"/>
  <polyline class="cls-1" points="219.98 407 220.58 407 222.07 407 225.06 407 228.94 407 233.72 407 233.72 286.9"/>
  <polyline class="cls-1" points="346.95 286.9 346.35 286.9 344.56 286.9 341.87 286.9 337.99 286.9 333.21 286.9 333.21 407 337.99 407 341.87 407 344.56 407 346.35 407 346.95 407"/>
  <polyline class="cls-1" points="313.19 223.27 313.19 286.9 333.21 286.9"/>
  <line class="cls-1" x1="253.74" y1="286.9" x2="253.74" y2="223.27"/>
  <line class="cls-1" x1="333.21" y1="407" x2="233.72" y2="407"/>
  <polyline class="cls-1" points="332.91 124.68 332.31 124.68 330.52 124.68 327.53 124.68 323.35 124.68 318.27 124.68 312.29 124.68 305.72 124.68 298.55 124.68 291.08 124.68 283.32 124.68 275.55 124.68 268.08 124.68 260.91 124.68 254.34 124.68 248.36 124.68 243.58 124.68 239.4 124.68 236.41 124.68 234.62 124.68 234.02 124.68"/>
  <polyline class="cls-1" points="253.74 223.27 260.61 223.27 267.78 223.27 275.55 223.27 283.32 223.27 291.38 223.27 299.15 223.27 306.32 223.27 313.19 223.27"/>
  <line class="cls-1" x1="219.98" y1="286.9" x2="219.98" y2="407"/>
  <line class="cls-1" x1="346.95" y1="286.9" x2="346.95" y2="407"/>
  <line class="cls-1" x1="332.91" y1="124.68" x2="332.91" y2="286.9"/>
  <line class="cls-1" x1="234.02" y1="124.68" x2="234.02" y2="286.9"/>
  <polyline class="cls-1" points="221.18 442.25 221.77 442.25 223.57 442.25 226.55 442.25 230.44 442.25 235.52 442.25 233.72 440.75 228.94 440.75 225.06 440.75 222.07 440.75 220.58 440.75 219.98 440.75"/>
  <polyline class="cls-1" points="233.72 440.75 233.72 407 333.21 407 333.21 440.75 331.41 442.25 235.52 442.25"/>
  <polyline class="cls-1" points="331.41 442.25 336.19 442.25 340.38 442.25 343.06 442.25 344.86 442.25 345.45 442.25"/>
  <polyline class="cls-1" points="346.95 440.75 346.35 440.75 344.56 440.75 341.87 440.75 337.99 440.75 333.21 440.75"/>
  <polyline class="cls-1" points="219.98 407 220.58 407 222.07 407 225.06 407 228.94 407 233.72 407"/>
  <polyline class="cls-1" points="333.21 407 337.99 407 341.87 407 344.56 407 346.35 407 346.95 407"/>
  <line class="cls-1" x1="221.18" y1="442.25" x2="219.98" y2="440.75"/>
  <line class="cls-1" x1="345.45" y1="442.25" x2="346.95" y2="440.75"/>
  <line class="cls-1" x1="219.98" y1="407" x2="219.98" y2="440.75"/>
  <line class="cls-1" x1="346.95" y1="407" x2="346.95" y2="440.75"/>
</svg>