<?xml version="1.0" encoding="UTF-8"?>
<svg id="Layer_1" data-name="Layer 1" xmlns="http://www.w3.org/2000/svg" viewBox="0 0 566.93 566.93">
  <defs>
    <style>
      .cls-1 {
        fill: none;
        stroke: #000;
        stroke-linecap: round;
        stroke-linejoin: round;
      }
    </style>
  </defs>
  <polyline class="cls-1" points="239.55 399.53 241.04 399.53 243.73 399.53 247.62 399.53 252.1 399.53 257.17 399.53 263.15 399.53 269.72 399.53 276.29 399.53 283.17 399.53 290.34 399.53 296.91 399.53 303.48 399.53 309.46 399.53 314.53 399.53 319.02 399.53 322.9 399.53 325.59 399.53 327.08 399.53"/>
  <polyline class="cls-1" points="327.08 398.93 325.59 398.93 322.9 398.93 319.02 398.93 314.53 398.93 309.46 398.93 303.48 398.93 296.91 398.93 290.34 398.93 283.17 398.93 276.29 398.93 269.72 398.93 263.15 398.93 257.17 398.93 252.1 398.93 247.62 398.93 243.73 398.93 241.04 398.93 239.55 398.93"/>
  <polyline class="cls-1" points="332.76 402.81 332.16 402.81 330.37 402.81 327.38 402.81 323.2 402.81 318.12 402.81 312.44 402.81 305.87 402.81 298.7 402.81 290.93 402.81 283.17 402.81 275.7 402.81 267.93 402.81 260.76 402.81 254.19 402.81 248.51 402.81 243.43 402.81 239.25 402.81 236.26 402.81 234.47 402.81 233.87 402.81"/>
  <polyline class="cls-1" points="233.87 395.64 234.47 395.64 236.26 395.64 239.25 395.64 243.43 395.64 248.51 395.64 254.19 395.64 260.76 395.64 267.93 395.64 275.7 395.64 283.17 395.64 290.93 395.64 298.7 395.64 305.87 395.64 312.44 395.64 318.12 395.64 323.2 395.64 327.38 395.64 330.37 395.64 332.16 395.64 332.76 395.64"/>
  <polyline class="cls-1" points="239.55 382.5 241.04 382.5 243.73 382.5 247.62 382.5 252.1 382.5 257.17 382.5 263.15 382.5 269.72 382.5 276.29 382.5 283.17 382.5 290.34 382.5 296.91 382.5 303.48 382.5 309.46 382.5 314.53 382.5 319.02 382.5 322.9 382.5 325.59 382.5 327.08 382.5"/>
  <polyline class="cls-1" points="327.08 381.9 325.59 381.9 322.9 381.9 319.02 381.9 314.53 381.9 309.46 381.9 303.48 381.9 296.91 381.9 290.34 381.9 283.17 381.9 276.29 381.9 269.72 381.9 263.15 381.9 257.17 381.9 252.1 381.9 247.62 381.9 243.73 381.9 241.04 381.9 239.55 381.9"/>
  <polyline class="cls-1" points="332.76 385.79 332.16 385.79 330.37 385.79 327.38 385.79 323.2 385.79 318.12 385.79 312.44 385.79 305.87 385.79 298.7 385.79 290.93 385.79 283.17 385.79 275.7 385.79 267.93 385.79 260.76 385.79 254.19 385.79 248.51 385.79 243.43 385.79 239.25 385.79 236.26 385.79 234.47 385.79 233.87 385.79"/>
  <polyline class="cls-1" points="233.87 378.62 234.47 378.62 236.26 378.62 239.25 378.62 243.43 378.62 248.51 378.62 254.19 378.62 260.76 378.62 267.93 378.62 275.7 378.62 283.17 378.62 290.93 378.62 298.7 378.62 305.87 378.62 312.44 378.62 318.12 378.62 323.2 378.62 327.38 378.62 330.37 378.62 332.16 378.62 332.76 378.62"/>
  <polyline class="cls-1" points="239.55 365.47 241.04 365.47 243.73 365.47 247.62 365.47 252.1 365.47 257.17 365.47 263.15 365.47 269.72 365.47 276.29 365.47 283.17 365.47 290.34 365.47 296.91 365.47 303.48 365.47 309.46 365.47 314.53 365.47 319.02 365.47 322.9 365.47 325.59 365.47 327.08 365.47"/>
  <polyline class="cls-1" points="327.08 365.17 325.59 365.17 322.9 365.17 319.02 365.17 314.53 365.17 309.46 365.17 303.48 365.17 296.91 365.17 290.34 365.17 283.17 365.17 276.29 365.17 269.72 365.17 263.15 365.17 257.17 365.17 252.1 365.17 247.62 365.17 243.73 365.17 241.04 365.17 239.55 365.17"/>
  <polyline class="cls-1" points="332.76 368.76 332.16 368.76 330.37 368.76 327.38 368.76 323.2 368.76 318.12 368.76 312.44 368.76 305.87 368.76 298.7 368.76 290.93 368.76 283.17 368.76 275.7 368.76 267.93 368.76 260.76 368.76 254.19 368.76 248.51 368.76 243.43 368.76 239.25 368.76 236.26 368.76 234.47 368.76 233.87 368.76"/>
  <polyline class="cls-1" points="233.87 361.89 234.47 361.89 236.26 361.89 239.25 361.89 243.43 361.89 248.51 361.89 254.19 361.89 260.76 361.89 267.93 361.89 275.7 361.89 283.17 361.89 290.93 361.89 298.7 361.89 305.87 361.89 312.44 361.89 318.12 361.89 323.2 361.89 327.38 361.89 330.37 361.89 332.16 361.89 332.76 361.89"/>
  <polyline class="cls-1" points="239.55 348.74 241.04 348.74 243.73 348.74 247.62 348.74 252.1 348.74 257.17 348.74 263.15 348.74 269.72 348.74 276.29 348.74 283.17 348.74 290.34 348.74 296.91 348.74 303.48 348.74 309.46 348.74 314.53 348.74 319.02 348.74 322.9 348.74 325.59 348.74 327.08 348.74"/>
  <polyline class="cls-1" points="327.08 348.14 325.59 348.14 322.9 348.14 319.02 348.14 314.53 348.14 309.46 348.14 303.48 348.14 296.91 348.14 290.34 348.14 283.17 348.14 276.29 348.14 269.72 348.14 263.15 348.14 257.17 348.14 252.1 348.14 247.62 348.14 243.73 348.14 241.04 348.14 239.55 348.14"/>
  <polyline class="cls-1" points="332.76 352.03 332.16 352.03 330.37 352.03 327.38 352.03 323.2 352.03 318.12 352.03 312.44 352.03 305.87 352.03 298.7 352.03 290.93 352.03 283.17 352.03 275.7 352.03 267.93 352.03 260.76 352.03 254.19 352.03 248.51 352.03 243.43 352.03 239.25 352.03 236.26 352.03 234.47 352.03 233.87 352.03"/>
  <polyline class="cls-1" points="233.87 344.86 234.47 344.86 236.26 344.86 239.25 344.86 243.43 344.86 248.51 344.86 254.19 344.86 260.76 344.86 267.93 344.86 275.7 344.86 283.17 344.86 290.93 344.86 298.7 344.86 305.87 344.86 312.44 344.86 318.12 344.86 323.2 344.86 327.38 344.86 330.37 344.86 332.16 344.86 332.76 344.86"/>
  <polyline class="cls-1" points="239.55 331.71 241.04 331.71 243.73 331.71 247.62 331.71 252.1 331.71 257.17 331.71 263.15 331.71 269.72 331.71 276.29 331.71 283.17 331.71 290.34 331.71 296.91 331.71 303.48 331.71 309.46 331.71 314.53 331.71 319.02 331.71 322.9 331.71 325.59 331.71 327.08 331.71"/>
  <polyline class="cls-1" points="327.08 331.11 325.59 331.11 322.9 331.11 319.02 331.11 314.53 331.11 309.46 331.11 303.48 331.11 296.91 331.11 290.34 331.11 283.17 331.11 276.29 331.11 269.72 331.11 263.15 331.11 257.17 331.11 252.1 331.11 247.62 331.11 243.73 331.11 241.04 331.11 239.55 331.11"/>
  <polyline class="cls-1" points="332.76 335 332.16 335 330.37 335 327.38 335 323.2 335 318.12 335 312.44 335 305.87 335 298.7 335 290.93 335 283.17 335 275.7 335 267.93 335 260.76 335 254.19 335 248.51 335 243.43 335 239.25 335 236.26 335 234.47 335 233.87 335"/>
  <polyline class="cls-1" points="233.87 327.83 234.47 327.83 236.26 327.83 239.25 327.83 243.43 327.83 248.51 327.83 254.19 327.83 260.76 327.83 267.93 327.83 275.7 327.83 283.17 327.83 290.93 327.83 298.7 327.83 305.87 327.83 312.44 327.83 318.12 327.83 323.2 327.83 327.38 327.83 330.37 327.83 332.16 327.83 332.76 327.83"/>
  <polyline class="cls-1" points="239.55 314.68 241.04 314.68 243.73 314.68 247.62 314.68 252.1 314.68 257.17 314.68 263.15 314.68 269.72 314.68 276.29 314.68 283.17 314.68 290.34 314.68 296.91 314.68 303.48 314.68 309.46 314.68 314.53 314.68 319.02 314.68 322.9 314.68 325.59 314.68 327.08 314.68"/>
  <polyline class="cls-1" points="327.08 314.38 325.59 314.38 322.9 314.38 319.02 314.38 314.53 314.38 309.46 314.38 303.48 314.38 296.91 314.38 290.34 314.38 283.17 314.38 276.29 314.38 269.72 314.38 263.15 314.38 257.17 314.38 252.1 314.38 247.62 314.38 243.73 314.38 241.04 314.38 239.55 314.38"/>
  <polyline class="cls-1" points="332.76 317.97 332.16 317.97 330.37 317.97 327.38 317.97 323.2 317.97 318.12 317.97 312.44 317.97 305.87 317.97 298.7 317.97 290.93 317.97 283.17 317.97 275.7 317.97 267.93 317.97 260.76 317.97 254.19 317.97 248.51 317.97 243.43 317.97 239.25 317.97 236.26 317.97 234.47 317.97 233.87 317.97"/>
  <polyline class="cls-1" points="233.87 311.1 234.47 311.1 236.26 311.1 239.25 311.1 243.43 311.1 248.51 311.1 254.19 311.1 260.76 311.1 267.93 311.1 275.7 311.1 283.17 311.1 290.93 311.1 298.7 311.1 305.87 311.1 312.44 311.1 318.12 311.1 323.2 311.1 327.38 311.1 330.37 311.1 332.16 311.1 332.76 311.1"/>
  <polyline class="cls-1" points="239.55 297.65 241.04 297.65 243.73 297.65 247.62 297.65 252.1 297.65 257.17 297.65 263.15 297.65 269.72 297.65 276.29 297.65 283.17 297.65 290.34 297.65 296.91 297.65 303.48 297.65 309.46 297.65 314.53 297.65 319.02 297.65 322.9 297.65 325.59 297.65 327.08 297.65"/>
  <polyline class="cls-1" points="327.08 297.36 325.59 297.36 322.9 297.36 319.02 297.36 314.53 297.36 309.46 297.36 303.48 297.36 296.91 297.36 290.34 297.36 283.17 297.36 276.29 297.36 269.72 297.36 263.15 297.36 257.17 297.36 252.1 297.36 247.62 297.36 243.73 297.36 241.04 297.36 239.55 297.36"/>
  <polyline class="cls-1" points="332.76 300.94 332.16 300.94 330.37 300.94 327.38 300.94 323.2 300.94 318.12 300.94 312.44 300.94 305.87 300.94 298.7 300.94 290.93 300.94 283.17 300.94 275.7 300.94 267.93 300.94 260.76 300.94 254.19 300.94 248.51 300.94 243.43 300.94 239.25 300.94 236.26 300.94 234.47 300.94 233.87 300.94"/>
  <polyline class="cls-1" points="233.87 294.07 234.47 294.07 236.26 294.07 239.25 294.07 243.43 294.07 248.51 294.07 254.19 294.07 260.76 294.07 267.93 294.07 275.7 294.07 283.17 294.07 290.93 294.07 298.7 294.07 305.87 294.07 312.44 294.07 318.12 294.07 323.2 294.07 327.38 294.07 330.37 294.07 332.16 294.07 332.76 294.07"/>
  <polyline class="cls-1" points="239.55 280.93 241.04 280.93 243.73 280.93 247.62 280.93 252.1 280.93 257.17 280.93 263.15 280.93 269.72 280.93 276.29 280.93 283.17 280.93 290.34 280.93 296.91 280.93 303.48 280.93 309.46 280.93 314.53 280.93 319.02 280.93 322.9 280.93 325.59 280.93 327.08 280.93"/>
  <polyline class="cls-1" points="327.08 280.33 325.59 280.33 322.9 280.33 319.02 280.33 314.53 280.33 309.46 280.33 303.48 280.33 296.91 280.33 290.34 280.33 283.17 280.33 276.29 280.33 269.72 280.33 263.15 280.33 257.17 280.33 252.1 280.33 247.62 280.33 243.73 280.33 241.04 280.33 239.55 280.33"/>
  <polyline class="cls-1" points="332.76 284.21 332.16 284.21 330.37 284.21 327.38 284.21 323.2 284.21 318.12 284.21 312.44 284.21 305.87 284.21 298.7 284.21 290.93 284.21 283.17 284.21 275.7 284.21 267.93 284.21 260.76 284.21 254.19 284.21 248.51 284.21 243.43 284.21 239.25 284.21 236.26 284.21 234.47 284.21 233.87 284.21"/>
  <polyline class="cls-1" points="233.87 277.04 234.47 277.04 236.26 277.04 239.25 277.04 243.43 277.04 248.51 277.04 254.19 277.04 260.76 277.04 267.93 277.04 275.7 277.04 283.17 277.04 290.93 277.04 298.7 277.04 305.87 277.04 312.44 277.04 318.12 277.04 323.2 277.04 327.38 277.04 330.37 277.04 332.16 277.04 332.76 277.04"/>
  <polyline class="cls-1" points="239.55 263.9 241.04 263.9 243.73 263.9 247.62 263.9 252.1 263.9 257.17 263.9 263.15 263.9 269.72 263.9 276.29 263.9 283.17 263.9 290.34 263.9 296.91 263.9 303.48 263.9 309.46 263.9 314.53 263.9 319.02 263.9 322.9 263.9 325.59 263.9 327.08 263.9"/>
  <polyline class="cls-1" points="327.08 263.3 325.59 263.3 322.9 263.3 319.02 263.3 314.53 263.3 309.46 263.3 303.48 263.3 296.91 263.3 290.34 263.3 283.17 263.3 276.29 263.3 269.72 263.3 263.15 263.3 257.17 263.3 252.1 263.3 247.62 263.3 243.73 263.3 241.04 263.3 239.55 263.3"/>
  <polyline class="cls-1" points="332.76 267.18 332.16 267.18 330.37 267.18 327.38 267.18 323.2 267.18 318.12 267.18 312.44 267.18 305.87 267.18 298.7 267.18 290.93 267.18 283.17 267.18 275.7 267.18 267.93 267.18 260.76 267.18 254.19 267.18 248.51 267.18 243.43 267.18 239.25 267.18 236.26 267.18 234.47 267.18 233.87 267.18"/>
  <polyline class="cls-1" points="233.87 260.01 234.47 260.01 236.26 260.01 239.25 260.01 243.43 260.01 248.51 260.01 254.19 260.01 260.76 260.01 267.93 260.01 275.7 260.01 283.17 260.01 290.93 260.01 298.7 260.01 305.87 260.01 312.44 260.01 318.12 260.01 323.2 260.01 327.38 260.01 330.37 260.01 332.16 260.01 332.76 260.01"/>
  <polyline class="cls-1" points="239.55 246.87 241.04 246.87 243.73 246.87 247.62 246.87 252.1 246.87 257.17 246.87 263.15 246.87 269.72 246.87 276.29 246.87 283.17 246.87 290.34 246.87 296.91 246.87 303.48 246.87 309.46 246.87 314.53 246.87 319.02 246.87 322.9 246.87 325.59 246.87 327.08 246.87"/>
  <polyline class="cls-1" points="327.08 246.57 325.59 246.57 322.9 246.57 319.02 246.57 314.53 246.57 309.46 246.57 303.48 246.57 296.91 246.57 290.34 246.57 283.17 246.57 276.29 246.57 269.72 246.57 263.15 246.57 257.17 246.57 252.1 246.57 247.62 246.57 243.73 246.57 241.04 246.57 239.55 246.57"/>
  <polyline class="cls-1" points="332.76 250.15 332.16 250.15 330.37 250.15 327.38 250.15 323.2 250.15 318.12 250.15 312.44 250.15 305.87 250.15 298.7 250.15 290.93 250.15 283.17 250.15 275.7 250.15 267.93 250.15 260.76 250.15 254.19 250.15 248.51 250.15 243.43 250.15 239.25 250.15 236.26 250.15 234.47 250.15 233.87 250.15"/>
  <polyline class="cls-1" points="233.87 243.28 234.47 243.28 236.26 243.28 239.25 243.28 243.43 243.28 248.51 243.28 254.19 243.28 260.76 243.28 267.93 243.28 275.7 243.28 283.17 243.28 290.93 243.28 298.7 243.28 305.87 243.28 312.44 243.28 318.12 243.28 323.2 243.28 327.38 243.28 330.37 243.28 332.16 243.28 332.76 243.28"/>
  <polyline class="cls-1" points="239.55 230.14 241.04 230.14 243.73 230.14 247.62 230.14 252.1 230.14 257.17 230.14 263.15 230.14 269.72 230.14 276.29 230.14 283.17 230.14 290.34 230.14 296.91 230.14 303.48 230.14 309.46 230.14 314.53 230.14 319.02 230.14 322.9 230.14 325.59 230.14 327.08 230.14"/>
  <polyline class="cls-1" points="327.08 229.54 325.59 229.54 322.9 229.54 319.02 229.54 314.53 229.54 309.46 229.54 303.48 229.54 296.91 229.54 290.34 229.54 283.17 229.54 276.29 229.54 269.72 229.54 263.15 229.54 257.17 229.54 252.1 229.54 247.62 229.54 243.73 229.54 241.04 229.54 239.55 229.54"/>
  <polyline class="cls-1" points="332.76 233.42 332.16 233.42 330.37 233.42 327.38 233.42 323.2 233.42 318.12 233.42 312.44 233.42 305.87 233.42 298.7 233.42 290.93 233.42 283.17 233.42 275.7 233.42 267.93 233.42 260.76 233.42 254.19 233.42 248.51 233.42 243.43 233.42 239.25 233.42 236.26 233.42 234.47 233.42 233.87 233.42"/>
  <polyline class="cls-1" points="233.87 226.25 234.47 226.25 236.26 226.25 239.25 226.25 243.43 226.25 248.51 226.25 254.19 226.25 260.76 226.25 267.93 226.25 275.7 226.25 283.17 226.25 290.93 226.25 298.7 226.25 305.87 226.25 312.44 226.25 318.12 226.25 323.2 226.25 327.38 226.25 330.37 226.25 332.16 226.25 332.76 226.25"/>
  <polyline class="cls-1" points="239.55 213.11 241.04 213.11 243.73 213.11 247.62 213.11 252.1 213.11 257.17 213.11 263.15 213.11 269.72 213.11 276.29 213.11 283.17 213.11 290.34 213.11 296.91 213.11 303.48 213.11 309.46 213.11 314.53 213.11 319.02 213.11 322.9 213.11 325.59 213.11 327.08 213.11"/>
  <polyline class="cls-1" points="327.08 212.51 325.59 212.51 322.9 212.51 319.02 212.51 314.53 212.51 309.46 212.51 303.48 212.51 296.91 212.51 290.34 212.51 283.17 212.51 276.29 212.51 269.72 212.51 263.15 212.51 257.17 212.51 252.1 212.51 247.62 212.51 243.73 212.51 241.04 212.51 239.55 212.51"/>
  <polyline class="cls-1" points="332.76 216.4 332.16 216.4 330.37 216.4 327.38 216.4 323.2 216.4 318.12 216.4 312.44 216.4 305.87 216.4 298.7 216.4 290.93 216.4 283.17 216.4 275.7 216.4 267.93 216.4 260.76 216.4 254.19 216.4 248.51 216.4 243.43 216.4 239.25 216.4 236.26 216.4 234.47 216.4 233.87 216.4"/>
  <polyline class="cls-1" points="233.87 209.23 234.47 209.23 236.26 209.23 239.25 209.23 243.43 209.23 248.51 209.23 254.19 209.23 260.76 209.23 267.93 209.23 275.7 209.23 283.17 209.23 290.93 209.23 298.7 209.23 305.87 209.23 312.44 209.23 318.12 209.23 323.2 209.23 327.38 209.23 330.37 209.23 332.16 209.23 332.76 209.23"/>
  <polyline class="cls-1" points="239.55 196.08 241.04 196.08 243.73 196.08 247.62 196.08 252.1 196.08 257.17 196.08 263.15 196.08 269.72 196.08 276.29 196.08 283.17 196.08 290.34 196.08 296.91 196.08 303.48 196.08 309.46 196.08 314.53 196.08 319.02 196.08 322.9 196.08 325.59 196.08 327.08 196.08"/>
  <polyline class="cls-1" points="327.08 195.78 325.59 195.78 322.9 195.78 319.02 195.78 314.53 195.78 309.46 195.78 303.48 195.78 296.91 195.78 290.34 195.78 283.17 195.78 276.29 195.78 269.72 195.78 263.15 195.78 257.17 195.78 252.1 195.78 247.62 195.78 243.73 195.78 241.04 195.78 239.55 195.78"/>
  <polyline class="cls-1" points="332.76 199.37 332.16 199.37 330.37 199.37 327.38 199.37 323.2 199.37 318.12 199.37 312.44 199.37 305.87 199.37 298.7 199.37 290.93 199.37 283.17 199.37 275.7 199.37 267.93 199.37 260.76 199.37 254.19 199.37 248.51 199.37 243.43 199.37 239.25 199.37 236.26 199.37 234.47 199.37 233.87 199.37"/>
  <polyline class="cls-1" points="233.87 192.5 234.47 192.5 236.26 192.5 239.25 192.5 243.43 192.5 248.51 192.5 254.19 192.5 260.76 192.5 267.93 192.5 275.7 192.5 283.17 192.5 290.93 192.5 298.7 192.5 305.87 192.5 312.44 192.5 318.12 192.5 323.2 192.5 327.38 192.5 330.37 192.5 332.16 192.5 332.76 192.5"/>
  <polyline class="cls-1" points="239.55 179.35 241.04 179.35 243.73 179.35 247.62 179.35 252.1 179.35 257.17 179.35 263.15 179.35 269.72 179.35 276.29 179.35 283.17 179.35 290.34 179.35 296.91 179.35 303.48 179.35 309.46 179.35 314.53 179.35 319.02 179.35 322.9 179.35 325.59 179.35 327.08 179.35"/>
  <polyline class="cls-1" points="327.08 178.75 325.59 178.75 322.9 178.75 319.02 178.75 314.53 178.75 309.46 178.75 303.48 178.75 296.91 178.75 290.34 178.75 283.17 178.75 276.29 178.75 269.72 178.75 263.15 178.75 257.17 178.75 252.1 178.75 247.62 178.75 243.73 178.75 241.04 178.75 239.55 178.75"/>
  <polyline class="cls-1" points="332.76 182.34 332.16 182.34 330.37 182.34 327.38 182.34 323.2 182.34 318.12 182.34 312.44 182.34 305.87 182.34 298.7 182.34 290.93 182.34 283.17 182.34 275.7 182.34 267.93 182.34 260.76 182.34 254.19 182.34 248.51 182.34 243.43 182.34 239.25 182.34 236.26 182.34 234.47 182.34 233.87 182.34"/>
  <polyline class="cls-1" points="233.87 175.47 234.47 175.47 236.26 175.47 239.25 175.47 243.43 175.47 248.51 175.47 254.19 175.47 260.76 175.47 267.93 175.47 275.7 175.47 283.17 175.47 290.93 175.47 298.7 175.47 305.87 175.47 312.44 175.47 318.12 175.47 323.2 175.47 327.38 175.47 330.37 175.47 332.16 175.47 332.76 175.47"/>
  <polyline class="cls-1" points="239.55 162.32 241.04 162.32 243.73 162.32 247.62 162.32 252.1 162.32 257.17 162.32 263.15 162.32 269.72 162.32 276.29 162.32 283.17 162.32 290.34 162.32 296.91 162.32 303.48 162.32 309.46 162.32 314.53 162.32 319.02 162.32 322.9 162.32 325.59 162.32 327.08 162.32"/>
  <polyline class="cls-1" points="327.08 161.73 325.59 161.73 322.9 161.73 319.02 161.73 314.53 161.73 309.46 161.73 303.48 161.73 296.91 161.73 290.34 161.73 283.17 161.73 276.29 161.73 269.72 161.73 263.15 161.73 257.17 161.73 252.1 161.73 247.62 161.73 243.73 161.73 241.04 161.73 239.55 161.73"/>
  <polyline class="cls-1" points="332.76 165.61 332.16 165.61 330.37 165.61 327.38 165.61 323.2 165.61 318.12 165.61 312.44 165.61 305.87 165.61 298.7 165.61 290.93 165.61 283.17 165.61 275.7 165.61 267.93 165.61 260.76 165.61 254.19 165.61 248.51 165.61 243.43 165.61 239.25 165.61 236.26 165.61 234.47 165.61 233.87 165.61"/>
  <polyline class="cls-1" points="233.87 158.44 234.47 158.44 236.26 158.44 239.25 158.44 243.43 158.44 248.51 158.44 254.19 158.44 260.76 158.44 267.93 158.44 275.7 158.44 283.17 158.44 290.93 158.44 298.7 158.44 305.87 158.44 312.44 158.44 318.12 158.44 323.2 158.44 327.38 158.44 330.37 158.44 332.16 158.44 332.76 158.44"/>
  <polyline class="cls-1" points="239.55 145.29 241.04 145.29 243.73 145.29 247.62 145.29 252.1 145.29 257.17 145.29 263.15 145.29 269.72 145.29 276.29 145.29 283.17 145.29 290.34 145.29 296.91 145.29 303.48 145.29 309.46 145.29 314.53 145.29 319.02 145.29 322.9 145.29 325.59 145.29 327.08 145.29"/>
  <polyline class="cls-1" points="327.08 145 325.59 145 322.9 145 319.02 145 314.53 145 309.46 145 303.48 145 296.91 145 290.34 145 283.17 145 276.29 145 269.72 145 263.15 145 257.17 145 252.1 145 247.62 145 243.73 145 241.04 145 239.55 145"/>
  <polyline class="cls-1" points="332.76 148.58 332.16 148.58 330.37 148.58 327.38 148.58 323.2 148.58 318.12 148.58 312.44 148.58 305.87 148.58 298.7 148.58 290.93 148.58 283.17 148.58 275.7 148.58 267.93 148.58 260.76 148.58 254.19 148.58 248.51 148.58 243.43 148.58 239.25 148.58 236.26 148.58 234.47 148.58 233.87 148.58"/>
  <polyline class="cls-1" points="233.87 141.71 234.47 141.71 236.26 141.71 239.25 141.71 243.43 141.71 248.51 141.71 254.19 141.71 260.76 141.71 267.93 141.71 275.7 141.71 283.17 141.71 290.93 141.71 298.7 141.71 305.87 141.71 312.44 141.71 318.12 141.71 323.2 141.71 327.38 141.71 330.37 141.71 332.16 141.71 332.76 141.71"/>
  <polyline class="cls-1" points="239.55 128.27 241.04 128.27 243.73 128.27 247.62 128.27 252.1 128.27 257.17 128.27 263.15 128.27 269.72 128.27 276.29 128.27 283.17 128.27 290.34 128.27 296.91 128.27 303.48 128.27 309.46 128.27 314.53 128.27 319.02 128.27 322.9 128.27 325.59 128.27 327.08 128.27"/>
  <polyline class="cls-1" points="327.08 127.97 325.59 127.97 322.9 127.97 319.02 127.97 314.53 127.97 309.46 127.97 303.48 127.97 296.91 127.97 290.34 127.97 283.17 127.97 276.29 127.97 269.72 127.97 263.15 127.97 257.17 127.97 252.1 127.97 247.62 127.97 243.73 127.97 241.04 127.97 239.55 127.97"/>
  <polyline class="cls-1" points="332.76 131.55 332.16 131.55 330.37 131.55 327.38 131.55 323.2 131.55 318.12 131.55 312.44 131.55 305.87 131.55 298.7 131.55 290.93 131.55 283.17 131.55 275.7 131.55 267.93 131.55 260.76 131.55 254.19 131.55 248.51 131.55 243.43 131.55 239.25 131.55 236.26 131.55 234.47 131.55 233.87 131.55"/>
  <polyline class="cls-1" points="233.87 124.68 234.47 124.68 236.26 124.68 239.25 124.68 243.43 124.68 248.51 124.68 254.19 124.68 260.76 124.68 267.93 124.68 275.7 124.68 283.17 124.68 290.93 124.68 298.7 124.68 305.87 124.68 312.44 124.68 318.12 124.68 323.2 124.68 327.38 124.68 330.37 124.68 332.16 124.68 332.76 124.68"/>
  <polyline class="cls-1" points="239.55 111.54 241.04 111.54 243.73 111.54 247.62 111.54 252.1 111.54 257.17 111.54 263.15 111.54 269.72 111.54 276.29 111.54 283.17 111.54 290.34 111.54 296.91 111.54 303.48 111.54 309.46 111.54 314.53 111.54 319.02 111.54 322.9 111.54 325.59 111.54 327.08 111.54"/>
  <polyline class="cls-1" points="327.08 110.94 325.59 110.94 322.9 110.94 319.02 110.94 314.53 110.94 309.46 110.94 303.48 110.94 296.91 110.94 290.34 110.94 283.17 110.94 276.29 110.94 269.72 110.94 263.15 110.94 257.17 110.94 252.1 110.94 247.62 110.94 243.73 110.94 241.04 110.94 239.55 110.94"/>
  <polyline class="cls-1" points="332.76 114.82 332.16 114.82 330.37 114.82 327.38 114.82 323.2 114.82 318.12 114.82 312.44 114.82 305.87 114.82 298.7 114.82 290.93 114.82 283.17 114.82 275.7 114.82 267.93 114.82 260.76 114.82 254.19 114.82 248.51 114.82 243.43 114.82 239.25 114.82 236.26 114.82 234.47 114.82 233.87 114.82"/>
  <polyline class="cls-1" points="233.87 107.65 234.47 107.65 236.26 107.65 239.25 107.65 243.43 107.65 248.51 107.65 254.19 107.65 260.76 107.65 267.93 107.65 275.7 107.65 283.17 107.65 290.93 107.65 298.7 107.65 305.87 107.65 312.44 107.65 318.12 107.65 323.2 107.65 327.38 107.65 330.37 107.65 332.16 107.65 332.76 107.65"/>
  <polyline class="cls-1" points="239.55 94.51 241.04 94.51 243.73 94.51 247.62 94.51 252.1 94.51 257.17 94.51 263.15 94.51 269.72 94.51 276.29 94.51 283.17 94.51 290.34 94.51 296.91 94.51 303.48 94.51 309.46 94.51 314.53 94.51 319.02 94.51 322.9 94.51 325.59 94.51 327.08 94.51"/>
  <polyline class="cls-1" points="327.08 93.91 325.59 93.91 322.9 93.91 319.02 93.91 314.53 93.91 309.46 93.91 303.48 93.91 296.91 93.91 290.34 93.91 283.17 93.91 276.29 93.91 269.72 93.91 263.15 93.91 257.17 93.91 252.1 93.91 247.62 93.91 243.73 93.91 241.04 93.91 239.55 93.91"/>
  <polyline class="cls-1" points="332.76 97.79 332.16 97.79 330.37 97.79 327.38 97.79 323.2 97.79 318.12 97.79 312.44 97.79 305.87 97.79 298.7 97.79 290.93 97.79 283.17 97.79 275.7 97.79 267.93 97.79 260.76 97.79 254.19 97.79 248.51 97.79 243.43 97.79 239.25 97.79 236.26 97.79 234.47 97.79 233.87 97.79"/>
  <polyline class="cls-1" points="233.87 90.62 234.47 90.62 236.26 90.62 239.25 90.62 243.43 90.62 248.51 90.62 254.19 90.62 260.76 90.62 267.93 90.62 275.7 90.62 283.17 90.62 290.93 90.62 298.7 90.62 305.87 90.62 312.44 90.62 318.12 90.62 323.2 90.62 327.38 90.62 330.37 90.62 332.16 90.62 332.76 90.62"/>
  <polyline class="cls-1" points="239.55 77.48 241.04 77.48 243.73 77.48 247.62 77.48 252.1 77.48 257.17 77.48 263.15 77.48 269.72 77.48 276.29 77.48 283.17 77.48 290.34 77.48 296.91 77.48 303.48 77.48 309.46 77.48 314.53 77.48 319.02 77.48 322.9 77.48 325.59 77.48 327.08 77.48"/>
  <polyline class="cls-1" points="327.08 77.18 325.59 77.18 322.9 77.18 319.02 77.18 314.53 77.18 309.46 77.18 303.48 77.18 296.91 77.18 290.34 77.18 283.17 77.18 276.29 77.18 269.72 77.18 263.15 77.18 257.17 77.18 252.1 77.18 247.62 77.18 243.73 77.18 241.04 77.18 239.55 77.18"/>
  <polyline class="cls-1" points="332.76 80.77 332.16 80.77 330.37 80.77 327.38 80.77 323.2 80.77 318.12 80.77 312.44 80.77 305.87 80.77 298.7 80.77 290.93 80.77 283.17 80.77 275.7 80.77 267.93 80.77 260.76 80.77 254.19 80.77 248.51 80.77 243.43 80.77 239.25 80.77 236.26 80.77 234.47 80.77 233.87 80.77"/>
  <polyline class="cls-1" points="233.87 73.89 234.47 73.89 236.26 73.89 239.25 73.89 243.43 73.89 248.51 73.89 254.19 73.89 260.76 73.89 267.93 73.89 275.7 73.89 283.17 73.89 290.93 73.89 298.7 73.89 305.87 73.89 312.44 73.89 318.12 73.89 323.2 73.89 327.38 73.89 330.37 73.89 332.16 73.89 332.76 73.89"/>
  <polyline class="cls-1" points="239.55 60.75 241.04 60.75 243.73 60.75 247.62 60.75 252.1 60.75 257.17 60.75 263.15 60.75 269.72 60.75 276.29 60.75 283.17 60.75 290.34 60.75 296.91 60.75 303.48 60.75 309.46 60.75 314.53 60.75 319.02 60.75 322.9 60.75 325.59 60.75 327.08 60.75"/>
  <polyline class="cls-1" points="327.08 60.15 325.59 60.15 322.9 60.15 319.02 60.15 314.53 60.15 309.46 60.15 303.48 60.15 296.91 60.15 290.34 60.15 283.17 60.15 276.29 60.15 269.72 60.15 263.15 60.15 257.17 60.15 252.1 60.15 247.62 60.15 243.73 60.15 241.04 60.15 239.55 60.15"/>
  <polyline class="cls-1" points="332.76 64.04 332.16 64.04 330.37 64.04 327.38 64.04 323.2 64.04 318.12 64.04 312.44 64.04 305.87 64.04 298.7 64.04 290.93 64.04 283.17 64.04 275.7 64.04 267.93 64.04 260.76 64.04 254.19 64.04 248.51 64.04 243.43 64.04 239.25 64.04 236.26 64.04 234.47 64.04 233.87 64.04"/>
  <polyline class="cls-1" points="233.87 56.87 234.47 56.87 236.26 56.87 239.25 56.87 243.43 56.87 248.51 56.87 254.19 56.87 260.76 56.87 267.93 56.87 275.7 56.87 283.17 56.87 290.93 56.87 298.7 56.87 305.87 56.87 312.44 56.87 318.12 56.87 323.2 56.87 327.38 56.87 330.37 56.87 332.16 56.87 332.76 56.87"/>
  <polyline class="cls-1" points="324.39 473.62 323.8 473.62 322 473.62 319.02 473.62 314.83 473.62 309.75 473.62 303.78 473.62 297.51 473.62 290.34 473.62 283.17 473.62 276.29 473.62 269.12 473.62 262.55 473.62 256.88 473.62 251.8 473.62 247.62 473.62 244.63 473.62 242.84 473.62 242.24 473.62"/>
  <polyline class="cls-1" points="235.96 467.04 237.76 467.04 240.45 467.04 244.63 467.04 249.41 467.04 255.08 467.04 261.66 467.04 268.53 467.04 275.7 467.04 283.17 467.04 290.93 467.04 298.1 467.04 304.97 467.04 311.55 467.04 317.22 467.04 322 467.04 326.19 467.04 328.87 467.04 330.67 467.04"/>
  <polyline class="cls-1" points="338.43 459.87 337.84 459.87 336.04 459.87 333.36 459.87 329.47 459.87 324.99 459.87 319.31 459.87 313.04 459.87 306.17 459.87 298.7 459.87 291.23 459.87 283.17 459.87 275.4 459.87 267.93 459.87 260.46 459.87 253.59 459.87 247.32 459.87 241.64 459.87 236.86 459.87 233.28 459.87 230.59 459.87 228.79 459.87 228.2 459.87"/>
  <polyline class="cls-1" points="219.83 430.3 220.43 430.3 221.92 430.3 224.61 430.3 228.2 430.3 232.98 430.3 238.35 430.3 244.63 430.3 251.5 430.3 258.97 430.3 266.73 430.3 275.1 430.3 283.17 430.3 291.53 430.3 299.9 430.3 307.66 430.3 315.13 430.3 322 430.3 328.28 430.3 333.65 430.3 338.43 430.3 342.02 430.3 344.71 430.3 346.2 430.3 346.8 430.3"/>
  <polyline class="cls-1" points="346.8 424.62 346.2 424.62 344.71 424.62 342.02 424.62 338.43 424.62 333.65 424.62 328.28 424.62 322 424.62 315.13 424.62 307.66 424.62 299.9 424.62 291.53 424.62 283.17 424.62 275.1 424.62 266.73 424.62 258.97 424.62 251.5 424.62 244.63 424.62 238.35 424.62 232.98 424.62 228.2 424.62 224.61 424.62 221.92 424.62 220.43 424.62 219.83 424.62"/>
  <polyline class="cls-1" points="233.87 47.6 234.47 47.6 236.26 47.6 239.25 47.6 243.43 47.6 248.51 47.6 254.19 47.6 260.76 47.6 267.93 47.6 275.7 47.6 283.17 47.6 290.93 47.6 298.7 47.6 305.87 47.6 312.44 47.6 318.12 47.6 323.2 47.6 327.38 47.6 330.37 47.6 332.16 47.6 332.76 47.6"/>
  <polyline class="cls-1" points="325.59 43.42 324.99 43.42 323.5 43.42 321.11 43.42 317.52 43.42 313.34 43.42 308.26 43.42 302.58 43.42 296.31 43.42 290.04 43.42 283.17 43.42 276.59 43.42 270.32 43.42 264.05 43.42 258.37 43.42 253.29 43.42 249.11 43.42 245.52 43.42 243.13 43.42 241.64 43.42 241.04 43.42"/>
  <polyline class="cls-1" points="284.66 474.51 290.93 474.51 296.91 474.51 302.58 474.51 307.96 474.51 312.44 474.51 316.33 474.51"/>
  <polyline class="cls-1" points="317.52 474.51 319.91 474.51 321.41 474.51 322 474.51"/>
  <polyline class="cls-1" points="244.63 474.51 245.23 474.51 246.72 474.51 249.11 474.51"/>
  <polyline class="cls-1" points="281.97 518.43 281.07 519.03 279.88 519.62 278.68 520.22 277.79 520.52 276.59 520.82 275.7 521.42 274.8 521.71 273.9 522.01 272.71 522.31 271.81 522.31 270.92 522.61 270.02 522.91 269.12 522.91 268.23 522.91 267.03 522.91 266.14 522.91 265.24 522.91 264.34 522.91 263.45 522.91 262.55 522.91 261.66 522.61 260.76 522.31 259.57 522.31 258.67 522.01 257.77 521.71 256.88 521.42 255.68 520.82 254.79 520.52 253.59 520.22 252.69 519.62 251.5 519.03 250.3 518.43 250.3 474.51 254.19 474.51 258.67 474.51 264.05 474.51 269.72 474.51 275.7 474.51 281.97 474.51 281.97 518.43"/>
  <polyline class="cls-1" points="249.11 474.51 249.11 518.43 249.11 519.03 249.11 519.62 249.11 520.22 249.11 520.52 249.11 520.82 249.11 521.42 249.11 521.71 249.11 522.01 249.11 522.31 249.11 522.61 249.11 522.91"/>
  <polyline class="cls-1" points="317.52 522.91 317.52 522.61 317.52 522.31 317.52 522.01 317.52 521.71 317.52 521.42 317.52 520.82 317.52 520.52 317.52 520.22 317.52 519.62 317.52 519.03 317.52 518.43 317.52 474.51"/>
  <polyline class="cls-1" points="316.33 474.51 316.33 518.43 315.13 519.03 313.94 519.62 313.04 520.22 311.85 520.52 310.95 520.82 309.75 521.42 308.86 521.71 307.96 522.01 307.07 522.31 305.87 522.31 304.97 522.61 304.08 522.91 303.18 522.91 302.29 522.91 301.39 522.91 300.49 522.91 299.6 522.91 298.4 522.91 297.51 522.91 296.61 522.91 295.71 522.61 294.82 522.31 293.92 522.31 292.73 522.01 291.83 521.71 290.93 521.42 289.74 520.82 288.84 520.52 287.95 520.22 286.75 519.62 285.56 519.03 284.66 518.43 284.66 474.51"/>
  <line class="cls-1" x1="284.66" y1="518.43" x2="281.97" y2="518.43"/>
  <line class="cls-1" x1="317.52" y1="518.43" x2="316.33" y2="518.43"/>
  <line class="cls-1" x1="250.3" y1="518.43" x2="249.11" y2="518.43"/>
  <polyline class="cls-1" points="249.41 523.51 250.01 523.51 251.5 523.51 254.19 523.51 257.47 523.51 261.66 523.51 266.44 523.51 271.81 523.51 277.49 523.51 283.17 523.51 289.14 523.51 294.82 523.51 300.19 523.51 304.97 523.51 309.16 523.51 312.44 523.51 315.13 523.51 316.63 523.51 317.22 523.51"/>
  <line class="cls-1" x1="327.68" y1="399.23" x2="327.68" y2="399.23"/>
  <line class="cls-1" x1="238.95" y1="399.23" x2="238.95" y2="399.23"/>
  <line class="cls-1" x1="327.68" y1="399.53" x2="332.76" y2="402.81"/>
  <line class="cls-1" x1="238.95" y1="399.53" x2="233.87" y2="402.81"/>
  <line class="cls-1" x1="238.95" y1="398.93" x2="233.87" y2="395.64"/>
  <line class="cls-1" x1="327.68" y1="398.93" x2="332.76" y2="395.64"/>
  <line class="cls-1" x1="327.68" y1="382.2" x2="327.68" y2="382.2"/>
  <line class="cls-1" x1="238.95" y1="382.2" x2="238.95" y2="382.2"/>
  <line class="cls-1" x1="327.68" y1="382.5" x2="332.76" y2="385.79"/>
  <line class="cls-1" x1="238.95" y1="382.5" x2="233.87" y2="385.79"/>
  <line class="cls-1" x1="238.95" y1="381.9" x2="233.87" y2="378.62"/>
  <line class="cls-1" x1="327.68" y1="381.9" x2="332.76" y2="378.62"/>
  <line class="cls-1" x1="327.68" y1="365.17" x2="327.68" y2="365.17"/>
  <line class="cls-1" x1="238.95" y1="365.17" x2="238.95" y2="365.17"/>
  <line class="cls-1" x1="327.68" y1="365.47" x2="332.76" y2="368.76"/>
  <line class="cls-1" x1="238.95" y1="365.47" x2="233.87" y2="368.76"/>
  <line class="cls-1" x1="238.95" y1="365.17" x2="233.87" y2="361.89"/>
  <line class="cls-1" x1="327.68" y1="365.17" x2="332.76" y2="361.89"/>
  <line class="cls-1" x1="327.68" y1="348.44" x2="327.68" y2="348.44"/>
  <line class="cls-1" x1="238.95" y1="348.44" x2="238.95" y2="348.44"/>
  <line class="cls-1" x1="327.68" y1="348.74" x2="332.76" y2="352.03"/>
  <line class="cls-1" x1="238.95" y1="348.74" x2="233.87" y2="352.03"/>
  <line class="cls-1" x1="238.95" y1="348.14" x2="233.87" y2="344.86"/>
  <line class="cls-1" x1="327.68" y1="348.14" x2="332.76" y2="344.86"/>
  <line class="cls-1" x1="327.68" y1="331.41" x2="327.68" y2="331.41"/>
  <line class="cls-1" x1="238.95" y1="331.41" x2="238.95" y2="331.41"/>
  <line class="cls-1" x1="327.68" y1="331.71" x2="332.76" y2="335"/>
  <line class="cls-1" x1="238.95" y1="331.71" x2="233.87" y2="335"/>
  <line class="cls-1" x1="238.95" y1="331.11" x2="233.87" y2="327.83"/>
  <line class="cls-1" x1="327.68" y1="331.11" x2="332.76" y2="327.83"/>
  <line class="cls-1" x1="327.68" y1="314.38" x2="327.68" y2="314.38"/>
  <line class="cls-1" x1="238.95" y1="314.38" x2="238.95" y2="314.38"/>
  <line class="cls-1" x1="327.68" y1="314.68" x2="332.76" y2="317.97"/>
  <line class="cls-1" x1="238.95" y1="314.68" x2="233.87" y2="317.97"/>
  <line class="cls-1" x1="238.95" y1="314.38" x2="233.87" y2="311.1"/>
  <line class="cls-1" x1="327.68" y1="314.38" x2="332.76" y2="311.1"/>
  <line class="cls-1" x1="327.68" y1="297.65" x2="327.68" y2="297.65"/>
  <line class="cls-1" x1="238.95" y1="297.65" x2="238.95" y2="297.65"/>
  <line class="cls-1" x1="327.68" y1="297.65" x2="332.76" y2="300.94"/>
  <line class="cls-1" x1="238.95" y1="297.65" x2="233.87" y2="300.94"/>
  <line class="cls-1" x1="238.95" y1="297.36" x2="233.87" y2="294.07"/>
  <line class="cls-1" x1="327.68" y1="297.36" x2="332.76" y2="294.07"/>
  <line class="cls-1" x1="327.68" y1="280.63" x2="327.68" y2="280.63"/>
  <line class="cls-1" x1="238.95" y1="280.63" x2="238.95" y2="280.63"/>
  <line class="cls-1" x1="327.68" y1="280.93" x2="332.76" y2="284.21"/>
  <line class="cls-1" x1="238.95" y1="280.93" x2="233.87" y2="284.21"/>
  <line class="cls-1" x1="238.95" y1="280.33" x2="233.87" y2="277.04"/>
  <line class="cls-1" x1="327.68" y1="280.33" x2="332.76" y2="277.04"/>
  <line class="cls-1" x1="327.68" y1="263.6" x2="327.68" y2="263.6"/>
  <line class="cls-1" x1="238.95" y1="263.6" x2="238.95" y2="263.6"/>
  <line class="cls-1" x1="327.68" y1="263.9" x2="332.76" y2="267.18"/>
  <line class="cls-1" x1="238.95" y1="263.9" x2="233.87" y2="267.18"/>
  <line class="cls-1" x1="238.95" y1="263.3" x2="233.87" y2="260.01"/>
  <line class="cls-1" x1="327.68" y1="263.3" x2="332.76" y2="260.01"/>
  <line class="cls-1" x1="327.68" y1="246.87" x2="327.68" y2="246.87"/>
  <line class="cls-1" x1="238.95" y1="246.87" x2="238.95" y2="246.87"/>
  <line class="cls-1" x1="327.68" y1="246.87" x2="332.76" y2="250.15"/>
  <line class="cls-1" x1="238.95" y1="246.87" x2="233.87" y2="250.15"/>
  <line class="cls-1" x1="238.95" y1="246.57" x2="233.87" y2="243.28"/>
  <line class="cls-1" x1="327.68" y1="246.57" x2="332.76" y2="243.28"/>
  <line class="cls-1" x1="327.68" y1="229.84" x2="327.68" y2="229.84"/>
  <line class="cls-1" x1="238.95" y1="229.84" x2="238.95" y2="229.84"/>
  <line class="cls-1" x1="327.68" y1="230.14" x2="332.76" y2="233.42"/>
  <line class="cls-1" x1="238.95" y1="230.14" x2="233.87" y2="233.42"/>
  <line class="cls-1" x1="238.95" y1="229.54" x2="233.87" y2="226.25"/>
  <line class="cls-1" x1="327.68" y1="229.54" x2="332.76" y2="226.25"/>
  <line class="cls-1" x1="327.68" y1="212.81" x2="327.68" y2="212.81"/>
  <line class="cls-1" x1="238.95" y1="212.81" x2="238.95" y2="212.81"/>
  <line class="cls-1" x1="327.68" y1="213.11" x2="332.76" y2="216.4"/>
  <line class="cls-1" x1="238.95" y1="213.11" x2="233.87" y2="216.4"/>
  <line class="cls-1" x1="238.95" y1="212.51" x2="233.87" y2="209.23"/>
  <line class="cls-1" x1="327.68" y1="212.51" x2="332.76" y2="209.23"/>
  <line class="cls-1" x1="327.68" y1="195.78" x2="327.68" y2="195.78"/>
  <line class="cls-1" x1="238.95" y1="195.78" x2="238.95" y2="195.78"/>
  <line class="cls-1" x1="327.68" y1="196.08" x2="332.76" y2="199.37"/>
  <line class="cls-1" x1="238.95" y1="196.08" x2="233.87" y2="199.37"/>
  <line class="cls-1" x1="238.95" y1="195.78" x2="233.87" y2="192.5"/>
  <line class="cls-1" x1="327.68" y1="195.78" x2="332.76" y2="192.5"/>
  <line class="cls-1" x1="327.68" y1="179.05" x2="327.68" y2="179.05"/>
  <line class="cls-1" x1="238.95" y1="179.05" x2="238.95" y2="179.05"/>
  <line class="cls-1" x1="327.68" y1="179.35" x2="332.76" y2="182.34"/>
  <line class="cls-1" x1="238.95" y1="179.35" x2="233.87" y2="182.34"/>
  <line class="cls-1" x1="238.95" y1="178.75" x2="233.87" y2="175.47"/>
  <line class="cls-1" x1="327.68" y1="178.75" x2="332.76" y2="175.47"/>
  <line class="cls-1" x1="327.68" y1="162.02" x2="327.68" y2="162.02"/>
  <line class="cls-1" x1="238.95" y1="162.02" x2="238.95" y2="162.02"/>
  <line class="cls-1" x1="327.68" y1="162.32" x2="332.76" y2="165.61"/>
  <line class="cls-1" x1="238.95" y1="162.32" x2="233.87" y2="165.61"/>
  <line class="cls-1" x1="238.95" y1="161.73" x2="233.87" y2="158.44"/>
  <line class="cls-1" x1="327.68" y1="161.73" x2="332.76" y2="158.44"/>
  <line class="cls-1" x1="327.68" y1="145" x2="327.68" y2="145"/>
  <line class="cls-1" x1="238.95" y1="145" x2="238.95" y2="145"/>
  <line class="cls-1" x1="327.68" y1="145.29" x2="332.76" y2="148.58"/>
  <line class="cls-1" x1="238.95" y1="145.29" x2="233.87" y2="148.58"/>
  <line class="cls-1" x1="238.95" y1="145" x2="233.87" y2="141.71"/>
  <line class="cls-1" x1="327.68" y1="145" x2="332.76" y2="141.71"/>
  <line class="cls-1" x1="327.68" y1="128.27" x2="327.68" y2="128.27"/>
  <line class="cls-1" x1="238.95" y1="128.27" x2="238.95" y2="128.27"/>
  <line class="cls-1" x1="327.68" y1="128.27" x2="332.76" y2="131.55"/>
  <line class="cls-1" x1="238.95" y1="128.27" x2="233.87" y2="131.55"/>
  <line class="cls-1" x1="238.95" y1="127.97" x2="233.87" y2="124.68"/>
  <line class="cls-1" x1="327.68" y1="127.97" x2="332.76" y2="124.68"/>
  <line class="cls-1" x1="327.68" y1="111.24" x2="327.68" y2="111.24"/>
  <line class="cls-1" x1="238.95" y1="111.24" x2="238.95" y2="111.24"/>
  <line class="cls-1" x1="327.68" y1="111.54" x2="332.76" y2="114.82"/>
  <line class="cls-1" x1="238.95" y1="111.54" x2="233.87" y2="114.82"/>
  <line class="cls-1" x1="238.95" y1="110.94" x2="233.87" y2="107.65"/>
  <line class="cls-1" x1="327.68" y1="110.94" x2="332.76" y2="107.65"/>
  <line class="cls-1" x1="327.68" y1="94.21" x2="327.68" y2="94.21"/>
  <line class="cls-1" x1="238.95" y1="94.21" x2="238.95" y2="94.21"/>
  <line class="cls-1" x1="327.68" y1="94.51" x2="332.76" y2="97.79"/>
  <line class="cls-1" x1="238.95" y1="94.51" x2="233.87" y2="97.79"/>
  <line class="cls-1" x1="238.95" y1="93.91" x2="233.87" y2="90.62"/>
  <line class="cls-1" x1="327.68" y1="93.91" x2="332.76" y2="90.62"/>
  <line class="cls-1" x1="327.68" y1="77.18" x2="327.68" y2="77.18"/>
  <line class="cls-1" x1="238.95" y1="77.18" x2="238.95" y2="77.18"/>
  <line class="cls-1" x1="327.68" y1="77.48" x2="332.76" y2="80.77"/>
  <line class="cls-1" x1="238.95" y1="77.48" x2="233.87" y2="80.77"/>
  <line class="cls-1" x1="238.95" y1="77.18" x2="233.87" y2="73.89"/>
  <line class="cls-1" x1="327.68" y1="77.18" x2="332.76" y2="73.89"/>
  <line class="cls-1" x1="327.68" y1="60.45" x2="327.68" y2="60.45"/>
  <line class="cls-1" x1="238.95" y1="60.45" x2="238.95" y2="60.45"/>
  <line class="cls-1" x1="327.68" y1="60.75" x2="332.76" y2="64.04"/>
  <line class="cls-1" x1="238.95" y1="60.75" x2="233.87" y2="64.04"/>
  <line class="cls-1" x1="238.95" y1="60.15" x2="233.87" y2="56.87"/>
  <line class="cls-1" x1="327.68" y1="60.15" x2="332.76" y2="56.87"/>
  <line class="cls-1" x1="242.24" y1="473.62" x2="235.37" y2="467.04"/>
  <line class="cls-1" x1="324.39" y1="473.62" x2="331.26" y2="467.04"/>
  <path class="cls-1" d="m228.2,459.72c0-10.46-2.93-20.71-8.46-29.59"/>
  <path class="cls-1" d="m347.19,430.13c-5.53,8.88-8.46,19.13-8.46,29.59"/>
  <line class="cls-1" x1="332.76" y1="385.79" x2="332.76" y2="395.64"/>
  <line class="cls-1" x1="233.87" y1="385.79" x2="233.87" y2="395.64"/>
  <line class="cls-1" x1="332.76" y1="368.76" x2="332.76" y2="378.62"/>
  <line class="cls-1" x1="233.87" y1="368.76" x2="233.87" y2="378.62"/>
  <line class="cls-1" x1="332.76" y1="352.03" x2="332.76" y2="361.89"/>
  <line class="cls-1" x1="233.87" y1="352.03" x2="233.87" y2="361.89"/>
  <line class="cls-1" x1="332.76" y1="335" x2="332.76" y2="344.86"/>
  <line class="cls-1" x1="233.87" y1="335" x2="233.87" y2="344.86"/>
  <line class="cls-1" x1="332.76" y1="317.97" x2="332.76" y2="327.83"/>
  <line class="cls-1" x1="233.87" y1="317.97" x2="233.87" y2="327.83"/>
  <line class="cls-1" x1="332.76" y1="300.94" x2="332.76" y2="311.1"/>
  <line class="cls-1" x1="233.87" y1="300.94" x2="233.87" y2="311.1"/>
  <line class="cls-1" x1="332.76" y1="284.21" x2="332.76" y2="294.07"/>
  <line class="cls-1" x1="233.87" y1="284.21" x2="233.87" y2="294.07"/>
  <line class="cls-1" x1="332.76" y1="267.18" x2="332.76" y2="277.04"/>
  <line class="cls-1" x1="233.87" y1="267.18" x2="233.87" y2="277.04"/>
  <line class="cls-1" x1="332.76" y1="250.15" x2="332.76" y2="260.01"/>
  <line class="cls-1" x1="233.87" y1="250.15" x2="233.87" y2="260.01"/>
  <line class="cls-1" x1="332.76" y1="233.42" x2="332.76" y2="243.28"/>
  <line class="cls-1" x1="233.87" y1="233.42" x2="233.87" y2="243.28"/>
  <line class="cls-1" x1="332.76" y1="216.4" x2="332.76" y2="226.25"/>
  <line class="cls-1" x1="233.87" y1="216.4" x2="233.87" y2="226.25"/>
  <line class="cls-1" x1="332.76" y1="199.37" x2="332.76" y2="209.23"/>
  <line class="cls-1" x1="233.87" y1="199.37" x2="233.87" y2="209.23"/>
  <line class="cls-1" x1="332.76" y1="182.34" x2="332.76" y2="192.5"/>
  <line class="cls-1" x1="233.87" y1="182.34" x2="233.87" y2="192.5"/>
  <line class="cls-1" x1="332.76" y1="165.61" x2="332.76" y2="175.47"/>
  <line class="cls-1" x1="233.87" y1="165.61" x2="233.87" y2="175.47"/>
  <line class="cls-1" x1="332.76" y1="148.58" x2="332.76" y2="158.44"/>
  <line class="cls-1" x1="233.87" y1="148.58" x2="233.87" y2="158.44"/>
  <line class="cls-1" x1="332.76" y1="131.55" x2="332.76" y2="141.71"/>
  <line class="cls-1" x1="233.87" y1="131.55" x2="233.87" y2="141.71"/>
  <line class="cls-1" x1="332.76" y1="114.82" x2="332.76" y2="124.68"/>
  <line class="cls-1" x1="233.87" y1="114.82" x2="233.87" y2="124.68"/>
  <line class="cls-1" x1="332.76" y1="97.79" x2="332.76" y2="107.65"/>
  <line class="cls-1" x1="233.87" y1="97.79" x2="233.87" y2="107.65"/>
  <line class="cls-1" x1="332.76" y1="80.77" x2="332.76" y2="90.62"/>
  <line class="cls-1" x1="233.87" y1="80.77" x2="233.87" y2="90.62"/>
  <line class="cls-1" x1="332.76" y1="64.04" x2="332.76" y2="73.89"/>
  <line class="cls-1" x1="233.87" y1="64.04" x2="233.87" y2="73.89"/>
  <line class="cls-1" x1="332.76" y1="47.6" x2="332.76" y2="56.87"/>
  <line class="cls-1" x1="233.87" y1="47.6" x2="233.87" y2="56.87"/>
  <line class="cls-1" x1="325.59" y1="43.42" x2="332.76" y2="47.6"/>
  <line class="cls-1" x1="241.04" y1="43.42" x2="233.87" y2="47.6"/>
  <line class="cls-1" x1="332.76" y1="402.81" x2="332.76" y2="424.62"/>
  <line class="cls-1" x1="233.87" y1="402.81" x2="233.87" y2="424.62"/>
  <line class="cls-1" x1="346.8" y1="424.62" x2="346.8" y2="430.3"/>
  <line class="cls-1" x1="219.83" y1="424.62" x2="219.83" y2="430.3"/>
  <line class="cls-1" x1="322" y1="473.62" x2="322" y2="474.51"/>
  <line class="cls-1" x1="244.63" y1="473.62" x2="244.63" y2="474.51"/>
  <line class="cls-1" x1="249.41" y1="523.51" x2="249.11" y2="522.91"/>
  <line class="cls-1" x1="317.22" y1="523.51" x2="317.52" y2="522.91"/>
  <line class="cls-1" x1="235.37" y1="467.04" x2="228.2" y2="459.87"/>
  <line class="cls-1" x1="331.26" y1="467.04" x2="338.43" y2="459.87"/>
</svg>