<?xml version="1.0" encoding="UTF-8"?>
<svg id="Layer_1" data-name="Layer 1" xmlns="http://www.w3.org/2000/svg" viewBox="0 0 566.93 566.93">
  <defs>
    <style>
      .cls-1 {
        fill: none;
        stroke: #000;
        stroke-linecap: round;
        stroke-linejoin: round;
      }
    </style>
  </defs>
  <line class="cls-1" x1="258.97" y1="407" x2="258.97" y2="407.29"/>
  <polyline class="cls-1" points="304.68 410.28 304.38 410.28 304.38 410.58 304.08 410.58 303.78 410.58 303.48 410.58 303.18 410.58 302.88 410.58 302.58 410.58 302.29 410.58 301.99 410.88 301.39 410.88 301.09 410.88 300.49 410.88 300.19 410.88 299.6 410.88 299 410.88 298.4 411.18 297.8 411.18 297.21 411.18 296.61 411.18 296.01 411.18 295.41 411.18 294.82 411.18 293.92 411.18 293.32 411.48 292.73 411.48 291.83 411.48 291.23 411.48 290.34 411.48 289.74 411.48 288.84 411.48 287.95 411.48 287.35 411.78 286.45 411.78 285.85 411.78 284.96 411.78 284.06 411.78 283.46 411.78 282.57 411.78 281.67 412.07 281.07 412.07 280.18 412.07 279.28 412.07 278.68 412.07 277.79 412.07 277.19 412.07 276.29 412.07 275.7 412.37 275.1 412.37 274.2 412.37 273.61 412.37 273.01 412.37 272.41 412.37 271.81 412.37 271.22 412.67 270.62 412.67 270.02 412.67 269.42 412.67"/>
  <polyline class="cls-1" points="307.66 323.05 307.96 323.35 307.66 323.35 307.36 323.65 306.77 323.65 306.47 323.65 306.17 323.94 305.57 323.94 304.97 323.94 304.38 323.94 303.48 324.24 302.88 324.24 301.99 324.24 301.09 324.54 300.19 324.54 299.3 324.54 298.4 324.54 297.51 324.84 296.31 324.84 295.41 324.84 294.22 324.84 293.02 325.14 292.13 325.14 290.93 325.14 289.74 325.44 288.54 325.44 287.35 325.44 285.85 325.44 284.66 325.74 283.46 325.74 282.27 325.74 281.07 325.74 279.88 326.04 278.68 326.04 277.49 326.04 276.29 326.04 275.1 326.33 273.9 326.33 272.71 326.33 271.81 326.63 270.62 326.63 269.72 326.63 268.53 326.63 267.63 326.93 266.73 326.93 265.84 326.93 264.94 326.93 264.34 327.23 263.45 327.23 262.85 327.23 262.25 327.23 261.66 327.53 261.06 327.53 260.46 327.53 260.16 327.83 259.86 327.83 259.56 327.83 259.27 327.83 258.97 328.13"/>
  <polyline class="cls-1" points="307.66 332.91 307.96 333.21 307.66 333.21 307.36 333.5 307.07 333.5 306.77 333.5 306.17 333.8 305.87 333.8 305.27 333.8 304.68 333.8 304.08 334.1 303.48 334.1 302.88 334.1 301.99 334.1 301.39 334.4 300.49 334.4 299.6 334.4 298.7 334.4 297.51 334.7 296.61 334.7 295.41 334.7 294.22 335 293.32 335 292.13 335 290.93 335 289.74 335.3 288.54 335.3 287.35 335.3 286.15 335.3 284.96 335.6 283.46 335.6 282.27 335.6 281.07 335.6 279.88 335.89 278.68 335.89 277.49 335.89 276.29 336.19 275.1 336.19 273.9 336.19 272.71 336.19 271.51 336.49 270.62 336.49 269.42 336.49 268.53 336.49 267.63 336.79 266.44 336.79 265.54 336.79 264.94 336.79 264.05 337.09 263.45 337.09 262.55 337.09 261.95 337.39 261.36 337.39 261.06 337.39 260.46 337.39 260.16 337.69 259.86 337.69 259.56 337.69 259.27 337.99"/>
  <polyline class="cls-1" points="307.66 342.77 307.66 343.06 307.66 343.36 307.36 343.36 307.07 343.36 306.77 343.36 306.47 343.66 306.17 343.66 305.57 343.66 304.97 343.66 304.38 343.96 303.78 343.96 302.88 343.96 301.99 343.96 301.39 344.26 300.49 344.26 299.6 344.26 298.4 344.56 297.51 344.56 296.31 344.56 295.41 344.56 294.22 344.86 293.02 344.86 292.13 344.86 290.93 344.86 289.74 345.16 288.54 345.16 287.35 345.16 285.85 345.16 284.66 345.45 283.46 345.45 282.27 345.45 281.07 345.75 279.88 345.75 278.68 345.75 277.49 345.75 276.29 346.05 275.1 346.05 273.9 346.05 272.71 346.05 271.51 346.35 270.62 346.35 269.42 346.35 268.53 346.35 267.63 346.65 266.73 346.65 265.84 346.65 264.94 346.95 264.34 346.95 263.45 346.95 262.85 346.95 262.25 347.25 261.66 347.25 261.06 347.25 260.76 347.25 260.16 347.55 259.86 347.55 259.56 347.55 259.27 347.55 259.27 347.84 258.97 347.84"/>
  <polyline class="cls-1" points="307.96 352.62 307.96 352.92 307.66 353.22 307.36 353.22 307.07 353.22 306.77 353.22 306.47 353.52 305.87 353.52 305.27 353.52 304.68 353.52 304.08 353.82 303.48 353.82 302.88 353.82 301.99 354.12 301.09 354.12 300.19 354.12 299.3 354.12 298.4 354.42 297.51 354.42 296.31 354.42 295.41 354.42 294.22 354.72 293.32 354.72 292.13 354.72 290.93 354.72 289.74 355.01 288.54 355.01 287.35 355.01 286.15 355.31 284.66 355.31 283.46 355.31 282.27 355.31 281.07 355.61 279.88 355.61 278.68 355.61 277.49 355.61 276.29 355.91 275.1 355.91 273.9 355.91 272.71 355.91 271.81 356.21 270.62 356.21 269.72 356.21 268.53 356.51 267.63 356.51 266.73 356.51 265.84 356.51 264.94 356.81 264.05 356.81 263.45 356.81 262.55 356.81 261.95 357.11 261.36 357.11 260.76 357.11 260.46 357.11 260.16 357.4 259.56 357.4 259.27 357.7 258.97 357.7"/>
  <polyline class="cls-1" points="307.66 362.48 307.66 362.78 307.36 363.08 307.07 363.08 306.77 363.08 306.47 363.38 305.87 363.38 305.57 363.38 304.97 363.68 304.38 363.68 303.78 363.68 302.88 363.68 302.29 363.98 301.39 363.98 300.49 363.98 299.6 363.98 298.7 364.28 297.51 364.28 296.61 364.28 295.41 364.28 294.22 364.57 293.32 364.57 292.13 364.57 290.93 364.87 289.74 364.87 288.54 364.87 287.35 364.87 285.85 365.17 284.66 365.17 283.46 365.17 282.27 365.17 281.07 365.47 279.88 365.47 278.68 365.47 277.49 365.47 276.29 365.77 275.1 365.77 273.9 365.77 272.71 366.07 271.51 366.07 270.62 366.07 269.42 366.07 268.53 366.37 267.63 366.37 266.73 366.37 265.84 366.37 264.94 366.67 264.05 366.67 263.45 366.67 262.85 366.96 262.25 366.96 261.66 366.96 261.06 366.96 260.76 367.26 260.16 367.26 259.86 367.26 259.56 367.26 259.27 367.56 258.97 367.56"/>
  <polyline class="cls-1" points="307.66 372.34 307.96 372.64 307.66 372.94 307.36 372.94 307.07 372.94 306.77 373.24 306.47 373.24 305.87 373.24 305.57 373.24 304.97 373.54 304.08 373.54 303.48 373.54 302.88 373.54 301.99 373.84 301.09 373.84 300.19 373.84 299.3 373.84 298.4 374.13 297.51 374.13 296.31 374.13 295.41 374.43 294.22 374.43 293.02 374.43 292.13 374.43 290.93 374.73 289.74 374.73 288.54 374.73 287.35 374.73 286.15 375.03 284.66 375.03 283.46 375.03 282.27 375.33 281.07 375.33 279.88 375.33 278.68 375.33 277.49 375.63 276.29 375.63 275.1 375.63 273.9 375.63 272.71 375.93 271.81 375.93 270.62 375.93 269.72 375.93 268.53 376.23 267.63 376.23 266.73 376.23 265.84 376.52 264.94 376.52 264.05 376.52 263.45 376.52 262.85 376.82 261.95 376.82 261.36 376.82 261.06 376.82 260.46 377.12 260.16 377.12 259.56 377.12 259.27 377.12 259.27 377.42 258.97 377.42 258.97 377.72"/>
  <polyline class="cls-1" points="307.66 382.2 307.66 382.5 307.66 382.8 307.36 382.8 307.07 382.8 306.77 383.1 306.17 383.1 305.87 383.1 305.27 383.1 304.97 383.4 304.08 383.4 303.48 383.4 302.88 383.4 301.99 383.69 301.39 383.69 300.49 383.69 299.6 383.99 298.7 383.99 297.51 383.99 296.61 383.99 295.41 384.29 294.22 384.29 293.32 384.29 292.13 384.29 290.93 384.59 289.74 384.59 288.54 384.59 287.35 384.89 286.15 384.89 284.66 384.89 283.46 384.89 282.27 385.19 281.07 385.19 279.88 385.19 278.68 385.19 277.49 385.49 276.29 385.49 275.1 385.49 273.9 385.49 272.71 385.79 271.51 385.79 270.62 385.79 269.42 386.08 268.53 386.08 267.63 386.08 266.44 386.08 265.84 386.38 264.94 386.38 264.05 386.38 263.45 386.38 262.85 386.68 262.25 386.68 261.66 386.68 261.06 386.68 260.76 386.98 260.16 386.98 259.86 386.98 259.56 387.28 259.27 387.28 258.97 387.58"/>
  <polyline class="cls-1" points="307.66 392.36 307.96 392.36 307.96 392.66 307.66 392.66 307.36 392.66 306.77 392.96 306.47 392.96 306.17 392.96 305.57 393.25 304.97 393.25 304.38 393.25 303.48 393.25 302.88 393.55 301.99 393.55 301.09 393.55 300.19 393.55 299.3 393.85 298.4 393.85 297.51 393.85 296.31 393.85 295.41 394.15 294.22 394.15 293.02 394.15 291.83 394.45 290.93 394.45 289.74 394.45 288.54 394.45 287.35 394.75 285.85 394.75 284.66 394.75 283.46 394.75 282.27 395.05 281.07 395.05 279.88 395.05 278.68 395.05 277.49 395.35 276.29 395.35 275.1 395.35 273.9 395.64 272.71 395.64 271.81 395.64 270.62 395.64 269.72 395.94 268.53 395.94 267.63 395.94 266.73 395.94 265.84 396.24 264.94 396.24 264.34 396.24 263.45 396.24 262.85 396.54 262.25 396.54 261.66 396.54 261.06 396.84 260.46 396.84 260.16 396.84 259.86 396.84 259.56 397.14 259.27 397.14 258.97 397.14 258.97 397.44"/>
  <polyline class="cls-1" points="307.66 402.22 307.96 402.22 307.66 402.22 307.66 402.51 307.36 402.51 307.07 402.51 306.77 402.81 306.47 402.81 305.87 402.81 305.57 402.81 304.97 403.11 304.38 403.11 303.78 403.11 303.18 403.41 302.58 403.41 301.69 403.41 301.09 403.41 300.19 403.71 299.3 403.71 298.4 403.71 297.51 403.71 296.31 404.01 295.41 404.01 294.22 404.01 293.32 404.01 292.13 404.31 290.93 404.31 289.74 404.31 288.54 404.31 287.35 404.61 286.15 404.61 284.96 404.61 283.76 404.61 282.57 404.9 281.37 404.9 280.18 404.9 278.98 404.9 278.09 405.2 276.89 405.2 275.7 405.2 274.5 405.2 273.31 405.5 272.41 405.5 271.22 405.5 270.32 405.5 269.12 405.8 268.23 405.8 267.33 405.8 266.44 406.1 265.54 406.1 264.64 406.1 264.05 406.1 263.45 406.4 262.55 406.4 261.95 406.4 261.36 406.4 261.06 406.7 260.46 406.7 260.16 406.7 259.86 406.7 259.56 407 259.27 407 258.97 407"/>
  <polyline class="cls-1" points="294.52 321.55 293.32 321.55 292.43 321.55 291.23 321.85 290.04 321.85 289.14 321.85 287.95 322.15 286.75 322.15 285.56 322.15 284.36 322.45 283.17 322.45 281.97 322.45 280.78 322.75 279.58 322.75 278.39 322.75 277.19 323.05 276 323.05 274.8 323.05 273.9 323.35 272.71 323.35 271.81 323.35 270.92 323.65 270.02 323.65 269.12 323.65 268.53 323.94 267.63 323.94 267.03 323.94 266.73 324.24 266.14 324.24 265.84 324.24 265.24 324.54 264.94 324.54"/>
  <polyline class="cls-1" points="301.99 329.92 301.99 330.22 301.69 330.22 301.39 330.22 301.09 330.22 300.79 330.52 300.49 330.52 300.19 330.52 299.9 330.52 299.3 330.82 299 330.82 298.4 330.82 297.8 330.82 297.21 331.11 296.61 331.11 296.01 331.11 295.41 331.11 294.52 331.41 293.92 331.41 293.02 331.41 292.43 331.41 291.53 331.71 290.63 331.71 290.04 331.71 289.14 331.71 288.24 332.01 287.35 332.01 286.45 332.01 285.56 332.01 284.66 332.31 283.76 332.31 282.87 332.31 281.97 332.31 281.37 332.61 280.48 332.61 279.58 332.61 278.68 332.61 277.79 332.91 276.89 332.91 276 332.91 275.4 332.91 274.5 333.21 273.9 333.21 273.01 333.21 272.41 333.21 271.51 333.5 270.92 333.5 270.32 333.5 269.72 333.5 269.12 333.8 268.53 333.8 268.23 333.8 267.63 333.8 267.33 334.1 266.73 334.1 266.44 334.1 266.14 334.1 265.84 334.4 265.54 334.4 265.24 334.4 264.94 334.7"/>
  <polyline class="cls-1" points="301.99 339.78 301.99 340.08 301.69 340.08 301.39 340.08 301.39 340.38 301.09 340.38 300.79 340.38 300.19 340.38 299.9 340.67 299.3 340.67 299 340.67 298.4 340.67 297.8 340.97 297.21 340.97 296.61 340.97 296.01 340.97 295.12 341.27 294.52 341.27 293.92 341.27 293.02 341.27 292.43 341.57 291.53 341.57 290.63 341.57 289.74 341.57 289.14 341.87 288.24 341.87 287.35 341.87 286.45 341.87 285.56 341.87 284.66 342.17 283.76 342.17 282.87 342.17 281.97 342.17 281.07 342.47 280.48 342.47 279.58 342.47 278.68 342.47 277.79 342.77 276.89 342.77 276 342.77 275.4 342.77 274.5 343.06 273.9 343.06 273.01 343.06 272.41 343.06 271.51 343.36 270.92 343.36 270.32 343.36 269.72 343.36 269.12 343.66 268.53 343.66 268.23 343.66 267.63 343.66 267.33 343.96 266.73 343.96 266.44 343.96 266.14 343.96 265.84 344.26 265.54 344.26 265.24 344.26 264.94 344.56"/>
  <polyline class="cls-1" points="302.29 349.64 301.99 349.94 301.69 349.94 301.39 350.23 301.09 350.23 300.79 350.23 300.19 350.23 299.9 350.53 299.3 350.53 299 350.53 298.4 350.53 297.8 350.83 297.21 350.83 296.61 350.83 296.01 350.83 295.12 351.13 294.52 351.13 293.92 351.13 293.02 351.13 292.13 351.43 291.53 351.43 290.63 351.43 289.74 351.43 289.14 351.73 288.24 351.73 287.35 351.73 286.45 351.73 285.56 352.03 284.66 352.03 283.76 352.03 282.87 352.03 281.97 352.33 281.37 352.33 280.48 352.33 279.58 352.33 278.68 352.62 277.79 352.62 276.89 352.62 276 352.62 275.4 352.92 274.5 352.92 273.9 352.92 273.01 352.92 272.41 353.22 271.81 353.22 270.92 353.22 270.32 353.22 269.72 353.52 269.12 353.52 268.83 353.52 268.23 353.52 267.63 353.52 267.33 353.82 266.73 353.82 266.44 353.82 266.14 353.82 265.84 354.12 265.54 354.12 265.24 354.12 264.94 354.12 264.94 354.42"/>
  <polyline class="cls-1" points="302.29 359.5 302.29 359.79 301.99 359.79 301.69 359.79 301.39 360.09 301.09 360.09 300.49 360.09 300.19 360.09 299.9 360.39 299.3 360.39 298.7 360.39 298.4 360.39 297.8 360.69 297.21 360.69 296.61 360.69 295.71 360.69 295.12 360.99 294.52 360.99 293.62 360.99 293.02 360.99 292.13 361.29 291.53 361.29 290.63 361.29 289.74 361.29 289.14 361.59 288.24 361.59 287.35 361.59 286.45 361.59 285.56 361.89 284.66 361.89 283.76 361.89 282.87 361.89 282.27 362.18 281.37 362.18 280.48 362.18 279.58 362.18 278.68 362.48 277.79 362.48 276.89 362.48 276.29 362.48 275.4 362.78 274.5 362.78 273.9 362.78 273.01 362.78 272.41 363.08 271.81 363.08 271.22 363.08 270.32 363.08 269.72 363.38 269.12 363.38 268.83 363.38 268.23 363.38 267.63 363.68 267.33 363.68 266.73 363.68 266.44 363.68 266.14 363.98 265.54 363.98 265.24 363.98 264.94 364.28 264.64 364.28"/>
  <polyline class="cls-1" points="302.29 369.35 302.29 369.65 301.99 369.65 301.69 369.65 301.39 369.95 301.09 369.95 300.79 369.95 300.49 369.95 300.19 370.25 299.6 370.25 299.3 370.25 298.7 370.25 298.1 370.55 297.8 370.55 297.21 370.55 296.61 370.55 295.71 370.85 295.12 370.85 294.52 370.85 293.92 370.85 293.02 371.15 292.43 371.15 291.53 371.15 290.63 371.15 290.04 371.15 289.14 371.45 288.24 371.45 287.35 371.45 286.45 371.45 285.56 371.74 284.66 371.74 283.76 371.74 283.17 371.74 282.27 372.04 281.37 372.04 280.48 372.04 279.58 372.04 278.68 372.34 277.79 372.34 277.19 372.34 276.29 372.34 275.4 372.64 274.8 372.64 273.9 372.64 273.01 372.64 272.41 372.94 271.81 372.94 270.92 372.94 270.32 372.94 269.72 373.24 269.12 373.24 268.53 373.24 267.93 373.24 267.63 373.54 267.03 373.54 266.73 373.54 266.14 373.54 265.84 373.84 265.54 373.84 265.24 373.84 264.94 373.84 264.94 374.13 264.64 374.13"/>
  <polyline class="cls-1" points="302.29 379.21 301.99 379.51 301.69 379.51 301.39 379.81 301.09 379.81 300.79 379.81 300.49 379.81 300.19 380.11 299.6 380.11 299.3 380.11 298.7 380.11 298.1 380.41 297.51 380.41 297.21 380.41 296.61 380.41 295.71 380.71 295.12 380.71 294.52 380.71 293.92 380.71 293.02 381.01 292.43 381.01 291.53 381.01 290.63 381.01 290.04 381.3 289.14 381.3 288.24 381.3 287.35 381.3 286.45 381.6 285.56 381.6 284.66 381.6 284.06 381.6 283.17 381.9 282.27 381.9 281.37 381.9 280.48 381.9 279.58 382.2 278.68 382.2 277.79 382.2 277.19 382.2 276.29 382.5 275.4 382.5 274.8 382.5 273.9 382.5 273.01 382.5 272.41 382.8 271.81 382.8 270.92 382.8 270.32 382.8 269.72 383.1 269.12 383.1 268.53 383.1 267.93 383.1 267.63 383.4 267.03 383.4 266.73 383.4 266.14 383.4 265.84 383.69 265.54 383.69 265.24 383.69 264.94 383.69 264.94 383.99 264.64 383.99"/>
  <polyline class="cls-1" points="302.29 389.07 301.99 389.07 301.99 389.37 301.69 389.37 301.39 389.67 301.09 389.67 300.79 389.67 300.49 389.67 300.19 389.97 299.6 389.97 299.3 389.97 298.7 389.97 298.4 390.27 297.8 390.27 297.21 390.27 296.61 390.27 296.01 390.57 295.41 390.57 294.52 390.57 293.92 390.57 293.02 390.86 292.43 390.86 291.53 390.86 290.93 390.86 290.04 391.16 289.14 391.16 288.24 391.16 287.35 391.16 286.45 391.46 285.56 391.46 284.96 391.46 284.06 391.46 283.17 391.76 282.27 391.76 281.37 391.76 280.48 391.76 279.58 392.06 278.68 392.06 277.79 392.06 276.89 392.06 276.29 392.36 275.4 392.36 274.5 392.36 273.9 392.36 273.01 392.66 272.41 392.66 271.51 392.66 270.92 392.66 270.32 392.96 269.72 392.96 269.12 392.96 268.53 392.96 267.93 393.25 267.33 393.25 267.03 393.25 266.73 393.25 266.14 393.55 265.84 393.55 265.54 393.55 265.24 393.55 265.24 393.85 264.94 393.85"/>
  <polyline class="cls-1" points="301.99 398.93 301.99 399.23 301.69 399.23 301.69 399.53 301.39 399.53 301.09 399.53 300.79 399.53 300.49 399.83 300.19 399.83 299.9 399.83 299.3 399.83 299 400.12 298.4 400.12 297.8 400.12 297.21 400.12 296.61 400.42 296.01 400.42 295.41 400.42 294.52 400.42 293.92 400.42 293.02 400.72 292.43 400.72 291.53 400.72 290.63 400.72 290.04 401.02 289.14 401.02 288.24 401.02 287.35 401.02 286.45 401.32 285.56 401.32 284.66 401.32 283.76 401.32 283.17 401.62 282.27 401.62 281.37 401.62 280.48 401.62 279.58 401.92 278.68 401.92 277.79 401.92 276.89 401.92 276 402.22 275.4 402.22 274.5 402.22 273.9 402.22 273.01 402.51 272.41 402.51 271.51 402.51 270.92 402.51 270.32 402.81 269.72 402.81 269.12 402.81 268.53 402.81 267.93 403.11 267.63 403.11 267.03 403.11 266.73 403.11 266.44 403.41 266.14 403.41 265.84 403.41 265.54 403.41 265.24 403.71 264.94 403.71"/>
  <polyline class="cls-1" points="301.99 408.79 301.99 409.09 301.69 409.39 301.39 409.39 301.09 409.39 300.49 409.68 300.19 409.68 299.9 409.68 299.3 409.68 299 409.98 298.7 409.98 298.1 409.98 297.21 409.98 296.31 410.28 295.12 410.28 293.92 410.58 292.73 410.58 291.53 410.58 290.34 410.88 288.84 410.88 287.65 410.88 286.15 411.18 284.66 411.18 283.46 411.48 281.97 411.48 280.48 411.48 278.98 411.78 277.79 411.78 276.29 412.07 275.7 412.07 275.1 412.07 274.5 412.07 273.9 412.07 272.71 412.37 271.51 412.37 270.62 412.67 269.42 412.67"/>
  <polyline class="cls-1" points="264.64 323.05 264.64 322.75 264.94 322.75 265.24 322.45 265.54 322.45 265.84 322.45 266.14 322.45 266.73 322.15 267.33 322.15 267.93 322.15 268.53 321.85 269.12 321.85 270.02 321.85 270.62 321.55 271.51 321.55 272.41 321.55"/>
  <polyline class="cls-1" points="264.64 332.91 264.94 332.91 264.94 332.61 265.24 332.61 265.54 332.31 265.84 332.31 266.14 332.31 266.44 332.31 266.73 332.01 267.03 332.01 267.63 332.01 267.93 332.01 268.53 331.71 269.12 331.71 269.72 331.71 270.32 331.71 270.92 331.41 271.51 331.41 272.11 331.41 273.01 331.41 273.61 331.11 274.5 331.11 275.4 331.11 276 331.11 276.89 330.82 277.79 330.82 278.68 330.82 279.58 330.82 280.18 330.52 281.07 330.52 281.97 330.52 282.87 330.52 283.76 330.22 284.66 330.22 285.56 330.22 286.45 330.22 287.35 329.92 288.24 329.92 289.14 329.92 290.04 329.92 290.63 329.62 291.53 329.62 292.43 329.62 293.02 329.62 293.92 329.32 294.52 329.32 295.41 329.32 296.01 329.32 296.61 329.02 297.21 329.02 297.8 329.02 298.4 329.02 299 328.72 299.3 328.72 299.9 328.72 300.19 328.72 300.49 328.43 300.79 328.43 301.09 328.43 301.39 328.43 301.69 328.13 301.99 328.13"/>
  <polyline class="cls-1" points="264.64 342.77 264.64 342.47 264.94 342.47 265.24 342.47 265.54 342.17 265.84 342.17 266.14 342.17 266.44 342.17 266.73 341.87 267.33 341.87 267.63 341.87 268.23 341.87 268.53 341.57 269.12 341.57 269.72 341.57 270.32 341.57 270.92 341.27 271.51 341.27 272.41 341.27 273.01 341.27 273.61 340.97 274.5 340.97 275.4 340.97 276 340.97 276.89 340.67 277.79 340.67 278.68 340.67 279.58 340.67 280.18 340.38 281.07 340.38 281.97 340.38 282.87 340.38 283.76 340.08 284.66 340.08 285.56 340.08 286.45 340.08 287.35 339.78 288.24 339.78 289.14 339.78 289.74 339.78 290.63 339.78 291.53 339.48 292.13 339.48 293.02 339.48 293.92 339.48 294.52 339.18 295.12 339.18 296.01 339.18 296.61 339.18 297.21 338.88 297.8 338.88 298.4 338.88 299 338.88 299.3 338.58 299.9 338.58 300.19 338.58 300.49 338.58 301.09 338.28 301.39 338.28 301.69 338.28 301.99 337.99"/>
  <polyline class="cls-1" points="264.64 352.62 264.64 352.33 264.94 352.33 265.24 352.33 265.54 352.03 265.84 352.03 266.14 352.03 266.44 352.03 266.73 351.73 267.33 351.73 267.63 351.73 268.23 351.73 268.53 351.43 269.12 351.43 269.72 351.43 270.32 351.43 270.92 351.43 271.81 351.13 272.41 351.13 273.01 351.13 273.9 351.13 274.5 350.83 275.4 350.83 276 350.83 276.89 350.83 277.79 350.53 278.68 350.53 279.58 350.53 280.18 350.53 281.07 350.23 281.97 350.23 282.87 350.23 283.76 350.23 284.66 349.94 285.56 349.94 286.45 349.94 287.35 349.94 288.24 349.64 288.84 349.64 289.74 349.64 290.63 349.64 291.53 349.34 292.13 349.34 293.02 349.34 293.62 349.34 294.52 349.04 295.12 349.04 295.71 349.04 296.61 349.04 297.21 348.74 297.8 348.74 298.4 348.74 298.7 348.74 299.3 348.44 299.9 348.44 300.19 348.44 300.49 348.44 301.09 348.14 301.39 348.14 301.69 348.14 301.99 347.84"/>
  <polyline class="cls-1" points="264.64 362.48 264.64 362.18 264.94 362.18 265.24 362.18 265.54 361.89 265.84 361.89 266.44 361.89 266.73 361.89 267.03 361.59 267.63 361.59 268.23 361.59 268.53 361.59 269.12 361.29 269.72 361.29 270.32 361.29 270.92 361.29 271.81 360.99 272.41 360.99 273.01 360.99 273.9 360.99 274.5 360.69 275.4 360.69 276.29 360.69 276.89 360.69 277.79 360.39 278.68 360.39 279.58 360.39 280.48 360.39 281.07 360.09 281.97 360.09 282.87 360.09 283.76 360.09 284.66 359.79 285.56 359.79 286.45 359.79 287.35 359.79 288.24 359.5 288.84 359.5 289.74 359.5 290.63 359.5 291.53 359.2 292.13 359.2 293.02 359.2 293.62 359.2 294.52 358.9 295.12 358.9 295.71 358.9 296.31 358.9 297.21 358.6 297.51 358.6 298.1 358.6 298.7 358.6 299.3 358.3 299.6 358.3 300.19 358.3 300.49 358.3 300.79 358 301.39 358 301.69 358 301.99 357.7"/>
  <polyline class="cls-1" points="264.64 372.34 264.64 372.04 264.94 372.04 265.24 372.04 265.54 371.74 265.84 371.74 266.14 371.74 266.73 371.74 267.03 371.45 267.63 371.45 267.93 371.45 268.53 371.45 269.12 371.15 269.72 371.15 270.32 371.15 270.92 371.15 271.81 370.85 272.41 370.85 273.01 370.85 273.9 370.85 274.5 370.55 275.4 370.55 276.29 370.55 276.89 370.55 277.79 370.25 278.68 370.25 279.58 370.25 280.48 370.25 281.37 369.95 281.97 369.95 282.87 369.95 283.76 369.95 284.66 369.65 285.56 369.65 286.45 369.65 287.35 369.65 288.24 369.35 289.14 369.35 289.74 369.35 290.63 369.35 291.53 369.06 292.13 369.06 293.02 369.06 293.62 369.06 294.52 369.06 295.12 368.76 295.71 368.76 296.31 368.76 296.91 368.76 297.51 368.46 298.1 368.46 298.7 368.46 299.3 368.46 299.6 368.16 300.19 368.16 300.49 368.16 300.79 368.16 301.09 367.86 301.39 367.86 301.69 367.86 301.99 367.86 301.99 367.56"/>
  <polyline class="cls-1" points="264.64 382.2 264.94 381.9 265.24 381.9 265.54 381.6 265.84 381.6 266.14 381.6 266.44 381.6 267.03 381.3 267.33 381.3 267.93 381.3 268.53 381.3 269.12 381.01 269.72 381.01 270.32 381.01 270.92 381.01 271.51 380.71 272.41 380.71 273.01 380.71 273.9 380.71 274.5 380.41 275.4 380.41 276.29 380.41 276.89 380.41 277.79 380.41 278.68 380.11 279.58 380.11 280.48 380.11 281.37 380.11 282.27 379.81 282.87 379.81 283.76 379.81 284.66 379.81 285.56 379.51 286.45 379.51 287.35 379.51 288.24 379.51 289.14 379.21 290.04 379.21 290.63 379.21 291.53 379.21 292.43 378.91 293.02 378.91 293.92 378.91 294.52 378.91 295.12 378.62 296.01 378.62 296.61 378.62 297.21 378.62 297.8 378.32 298.1 378.32 298.7 378.32 299.3 378.32 299.6 378.02 299.9 378.02 300.49 378.02 300.79 378.02 301.09 377.72 301.39 377.72 301.69 377.72 301.99 377.42"/>
  <polyline class="cls-1" points="264.64 392.06 264.94 392.06 264.94 391.76 265.24 391.76 265.54 391.76 265.84 391.46 266.14 391.46 266.73 391.46 267.03 391.46 267.33 391.16 267.93 391.16 268.53 391.16 269.12 391.16 269.72 390.86 270.32 390.86 270.92 390.86 271.51 390.86 272.41 390.57 273.01 390.57 273.9 390.57 274.5 390.57 275.4 390.27 276 390.27 276.89 390.27 277.79 390.27 278.68 389.97 279.58 389.97 280.48 389.97 281.37 389.97 282.27 389.67 282.87 389.67 283.76 389.67 284.66 389.67 285.56 389.37 286.45 389.37 287.35 389.37 288.24 389.37 289.14 389.07 290.04 389.07 290.63 389.07 291.53 389.07 292.43 388.77 293.02 388.77 293.92 388.77 294.52 388.77 295.41 388.47 296.01 388.47 296.61 388.47 297.21 388.47 297.8 388.18 298.4 388.18 298.7 388.18 299.3 388.18 299.6 387.88 300.19 387.88 300.49 387.88 300.79 387.88 301.09 387.58 301.39 387.58 301.69 387.58 301.99 387.28"/>
  <polyline class="cls-1" points="264.64 401.92 264.94 401.92 264.94 401.62 265.24 401.62 265.54 401.62 265.84 401.32 266.14 401.32 266.73 401.32 267.03 401.32 267.33 401.02 267.93 401.02 268.53 401.02 269.12 401.02 269.72 400.72 270.32 400.72 270.92 400.72 271.51 400.72 272.11 400.42 273.01 400.42 273.61 400.42 274.5 400.42 275.4 400.12 276 400.12 276.89 400.12 277.79 400.12 278.68 399.83 279.58 399.83 280.48 399.83 281.37 399.83 281.97 399.53 282.87 399.53 283.76 399.53 284.66 399.53 285.56 399.23 286.45 399.23 287.35 399.23 288.24 399.23 289.14 398.93 290.04 398.93 290.63 398.93 291.53 398.93 292.43 398.63 293.02 398.63 293.92 398.63 294.52 398.63 295.41 398.33 296.01 398.33 296.61 398.33 297.21 398.33 297.8 398.33 298.4 398.03 298.7 398.03 299.3 398.03 299.6 398.03 300.19 397.74 300.49 397.74 300.79 397.74 301.09 397.74 301.39 397.44 301.69 397.44 301.99 397.44"/>
  <polyline class="cls-1" points="264.64 411.78 264.94 411.78 265.24 411.48 265.54 411.48 265.84 411.48 266.14 411.18 266.44 411.18 266.73 411.18 267.03 411.18 267.63 410.88 267.93 410.88 268.53 410.88 269.12 410.88 269.72 410.58 270.32 410.58 270.92 410.58 271.51 410.58 272.11 410.28 273.01 410.28 273.61 410.28 274.5 410.28 275.4 409.98 276 409.98 276.89 409.98 277.79 409.98 278.68 409.68 279.58 409.68 280.18 409.68 281.07 409.68 281.97 409.68 282.87 409.39 283.76 409.39 284.66 409.39 285.56 409.39 286.45 409.09 287.35 409.09 288.24 409.09 289.14 409.09 289.74 408.79 290.63 408.79 291.53 408.79 292.43 408.79 293.02 408.49 293.92 408.49 294.52 408.49 295.12 408.49 296.01 408.19 296.61 408.19 297.21 408.19 297.8 408.19 298.4 407.89 299 407.89 299.3 407.89 299.9 407.89 300.19 407.59 300.49 407.59 300.79 407.59 301.09 407.59 301.39 407.29 301.69 407.29 301.99 407.29"/>
  <polyline class="cls-1" points="264.64 412.67 265.24 412.67 266.73 412.67 269.42 412.67"/>
  <polyline class="cls-1" points="307.66 403.71 307.66 404.01 307.36 404.01 307.07 404.01 306.47 404.31 305.87 404.31 305.27 404.31 304.68 404.61 303.78 404.61 303.18 404.61 302.88 404.61 302.29 404.9 301.69 404.9 301.09 404.9 300.49 404.9 299.9 404.9 299.3 404.9 298.1 405.2 296.91 405.2 295.41 405.5 293.92 405.5 292.43 405.5 290.93 405.8 289.44 405.8 287.65 405.8 286.15 406.1 284.66 406.1 282.87 406.1 281.37 406.4 279.58 406.4 278.09 406.4 276.59 406.7 275.1 406.7 273.61 406.7 272.71 407 272.11 407 271.22 407 270.62 407 269.42 407.29 268.23 407.59 267.03 407.89 266.14 407.89 265.84 408.19 265.24 408.19 264.94 408.49 264.64 408.49 264.34 408.79 264.05 408.79 263.75 409.09 263.45 409.09 263.15 409.09 262.85 409.39 262.55 409.68 262.55 409.98 262.25 409.98 262.25 410.28 262.55 410.58 262.55 410.88 262.85 410.88 262.85 411.18 263.15 411.18 263.45 411.18"/>
  <polyline class="cls-1" points="259.27 398.93 258.97 398.93 258.97 398.63 259.27 398.63 259.27 398.33 259.56 398.33 259.86 398.33 260.46 398.33 260.76 398.03 261.36 398.03 261.95 398.03 262.55 398.03 263.15 397.74 264.05 397.74 264.64 397.74 265.54 397.44 266.44 397.44 267.33 397.44 268.53 397.44 269.42 397.14 270.32 397.14 271.51 397.14 272.71 397.14 273.61 396.84 274.8 396.84 276 396.84 277.19 396.84 278.39 396.54 279.58 396.54 280.78 396.54 281.97 396.24 283.46 396.24 284.66 396.24 285.85 396.24 287.05 395.94 288.24 395.94 289.44 395.94 290.63 395.94 291.83 395.64 293.02 395.64 294.22 395.64 295.12 395.35 296.31 395.35 297.21 395.35 298.4 395.35 299.3 395.05 300.19 395.05 301.09 395.05 301.99 395.05 302.58 394.75 303.48 394.75 304.08 394.75 304.68 394.75 305.27 394.45 305.87 394.45 306.47 394.45 306.77 394.15 307.07 394.15 307.36 394.15 307.66 394.15 307.96 393.85"/>
  <polyline class="cls-1" points="258.97 389.07 258.97 388.77 259.27 388.77 259.56 388.47 259.86 388.47 260.16 388.47 260.46 388.47 261.06 388.18 261.66 388.18 262.25 388.18 262.85 387.88 263.45 387.88 264.05 387.88 264.94 387.88 265.84 387.58 266.44 387.58 267.33 387.58 268.53 387.58 269.42 387.28 270.32 387.28 271.51 387.28 272.41 387.28 273.61 386.98 274.8 386.98 276 386.98 277.19 386.68 278.39 386.68 279.58 386.68 280.78 386.68 281.97 386.38 283.17 386.38 284.66 386.38 285.85 386.38 287.05 386.08 288.24 386.08 289.44 386.08 290.63 385.79 291.83 385.79 293.02 385.79 294.22 385.79 295.12 385.49 296.31 385.49 297.21 385.49 298.4 385.49 299.3 385.19 300.19 385.19 301.09 385.19 301.99 385.19 302.88 384.89 303.48 384.89 304.38 384.89 304.97 384.59 305.57 384.59 305.87 384.59 306.47 384.59 306.77 384.29 307.07 384.29 307.36 384.29 307.66 384.29 307.66 383.99"/>
  <polyline class="cls-1" points="259.27 379.21 259.27 378.91 259.56 378.62 259.86 378.62 260.16 378.62 260.46 378.32 260.76 378.32 261.36 378.32 261.95 378.32 262.55 378.02 263.15 378.02 264.05 378.02 264.64 378.02 265.54 377.72 266.44 377.72 267.33 377.72 268.23 377.42 269.42 377.42 270.32 377.42 271.51 377.42 272.41 377.12 273.61 377.12 274.8 377.12 276 377.12 277.19 376.82 278.39 376.82 279.58 376.82 280.78 376.82 282.27 376.52 283.46 376.52 284.66 376.52 285.85 376.23 287.05 376.23 288.24 376.23 289.44 376.23 290.63 375.93 291.83 375.93 293.02 375.93 294.22 375.93 295.41 375.63 296.31 375.63 297.51 375.63 298.4 375.63 299.3 375.33 300.19 375.33 301.09 375.33 301.99 375.03 302.58 375.03 303.48 375.03 304.08 375.03 304.68 374.73 305.27 374.73 305.87 374.73 306.17 374.73 306.47 374.43 307.07 374.43 307.36 374.43 307.66 374.13 307.96 374.13"/>
  <polyline class="cls-1" points="258.97 369.35 258.97 369.06 259.27 368.76 259.56 368.76 260.16 368.76 260.46 368.46 261.06 368.46 261.36 368.46 261.95 368.46 262.55 368.16 263.45 368.16 264.05 368.16 264.94 367.86 265.84 367.86 266.73 367.86 267.63 367.86 268.53 367.56 269.42 367.56 270.32 367.56 271.51 367.56 272.71 367.26 273.61 367.26 274.8 367.26 276 367.26 277.19 366.96 278.39 366.96 279.58 366.96 280.78 366.67 281.97 366.67 283.17 366.67 284.66 366.67 285.85 366.37 287.05 366.37 288.24 366.37 289.44 366.37 290.63 366.07 291.83 366.07 293.02 366.07 293.92 366.07 295.12 365.77 296.31 365.77 297.21 365.77 298.4 365.47 299.3 365.47 300.19 365.47 301.09 365.47 301.99 365.17 302.58 365.17 303.48 365.17 304.08 365.17 304.97 364.87 305.57 364.87 305.87 364.87 306.47 364.87 306.77 364.57 307.07 364.57 307.36 364.57 307.66 364.28 307.96 364.28"/>
  <polyline class="cls-1" points="259.27 359.5 259.27 359.2 259.27 358.9 259.56 358.9 259.86 358.9 260.16 358.9 260.46 358.6 261.06 358.6 261.36 358.6 261.95 358.3 262.55 358.3 263.15 358.3 264.05 358.3 264.64 358 265.54 358 266.44 358 267.33 358 268.23 357.7 269.42 357.7 270.32 357.7 271.51 357.7 272.41 357.4 273.61 357.4 274.8 357.4 276 357.11 277.19 357.11 278.39 357.11 279.58 357.11 280.78 356.81 281.97 356.81 283.46 356.81 284.66 356.81 285.85 356.51 287.05 356.51 288.24 356.51 289.44 356.51 290.63 356.21 291.83 356.21 293.02 356.21 294.22 355.91 295.41 355.91 296.31 355.91 297.51 355.91 298.4 355.61 299.3 355.61 300.19 355.61 301.09 355.61 301.99 355.31 302.58 355.31 303.48 355.31 304.08 355.31 304.68 355.01 305.27 355.01 305.87 355.01 306.17 354.72 306.47 354.72 307.07 354.72 307.36 354.72 307.36 354.42 307.66 354.42"/>
  <polyline class="cls-1" points="259.27 349.64 258.97 349.34 259.27 349.04 259.56 349.04 259.86 348.74 260.46 348.74 260.76 348.74 261.36 348.74 261.95 348.44 262.55 348.44 263.45 348.44 264.05 348.44 264.94 348.14 265.54 348.14 266.44 348.14 267.63 348.14 268.53 347.84 269.42 347.84 270.62 347.84 271.51 347.55 272.71 347.55 273.61 347.55 274.8 347.55 276 347.25 277.19 347.25 278.39 347.25 279.58 347.25 280.78 346.95 281.97 346.95 283.46 346.95 284.66 346.95 285.85 346.65 287.05 346.65 288.24 346.65 289.44 346.35 290.63 346.35 291.83 346.35 293.02 346.35 293.92 346.05 295.12 346.05 296.31 346.05 297.21 346.05 298.1 345.75 299.3 345.75 300.19 345.75 301.09 345.75 301.99 345.45 302.58 345.45 303.48 345.45 304.08 345.16 304.68 345.16 305.27 345.16 305.87 345.16 306.47 344.86 306.77 344.86 307.07 344.86 307.36 344.86 307.66 344.56 307.96 344.56 307.96 344.26"/>
  <polyline class="cls-1" points="259.27 339.78 258.97 339.48 259.27 339.18 259.56 339.18 259.86 339.18 260.16 338.88 260.46 338.88 261.06 338.88 261.66 338.88 261.95 338.58 262.55 338.58 263.45 338.58 264.05 338.58 264.64 338.28 265.54 338.28 266.44 338.28 267.33 337.99 268.23 337.99 269.42 337.99 270.32 337.99 271.51 337.69 272.41 337.69 273.61 337.69 274.8 337.69 276 337.39 277.19 337.39 278.39 337.39 279.58 337.39 280.78 337.09 281.97 337.09 283.17 337.09 284.66 336.79 285.85 336.79 287.05 336.79 288.24 336.79 289.44 336.49 290.63 336.49 291.83 336.49 293.02 336.49 294.22 336.19 295.12 336.19 296.31 336.19 297.51 335.89 298.4 335.89 299.3 335.89 300.19 335.89 301.09 335.6 301.99 335.6 302.88 335.6 303.48 335.6 304.08 335.3 304.68 335.3 305.27 335.3 305.87 335.3 306.17 335 306.77 335 307.07 335 307.36 334.7 307.66 334.7 307.66 334.4"/>
  <polyline class="cls-1" points="259.27 329.62 258.97 329.62 258.97 329.32 259.27 329.32 259.56 329.32 259.86 329.02 260.46 329.02 260.76 329.02 261.36 329.02 261.95 328.72 262.55 328.72 263.15 328.72 264.05 328.43 264.64 328.43 265.54 328.43 266.44 328.43 267.33 328.13 268.53 328.13 269.42 328.13 270.32 328.13 271.51 327.83 272.71 327.83 273.61 327.83 274.8 327.83 276 327.53 277.19 327.53 278.39 327.53 279.58 327.23 280.78 327.23 281.97 327.23 283.46 327.23 284.66 326.93 285.85 326.93 287.05 326.93 288.24 326.93 289.44 326.63 290.63 326.63 291.83 326.63 293.02 326.33 294.22 326.33 295.12 326.33 296.31 326.33 297.21 326.04 298.4 326.04 299.3 326.04 300.19 326.04 301.09 325.74 301.69 325.74 302.58 325.74 303.48 325.74 304.08 325.44 304.68 325.44 305.27 325.44 305.87 325.14 306.17 325.14 306.77 325.14 307.07 325.14 307.36 324.84 307.66 324.84 307.96 324.84 307.96 324.54"/>
  <polyline class="cls-1" points="258.97 407 260.46 407 262.85 407 266.14 407 270.62 407"/>
  <polyline class="cls-1" points="319.31 152.17 318.72 152.17 316.92 152.17 314.53 152.17 310.95 152.17 306.47 152.17 301.39 152.17 295.71 152.17 289.74 152.17 283.46 152.17 277.19 152.17 271.22 152.17 265.54 152.17 260.46 152.17 255.98 152.17 252.39 152.17 249.71 152.17 248.21 152.17 247.62 152.17"/>
  <polyline class="cls-1" points="244.03 153.66 245.82 153.66 248.81 153.66 252.69 153.66 257.47 153.66 263.45 153.66 269.72 153.66 276.29 153.66 283.46 153.66 290.34 153.66 297.21 153.66 303.48 153.66 309.16 153.66 314.24 153.66 318.12 153.66 321.11 153.66 322.6 153.66"/>
  <polyline class="cls-1" points="328.87 159.93 327.38 159.93 324.39 159.93 320.81 159.93 316.03 159.93 310.65 159.93 304.38 159.93 297.8 159.93 290.63 159.93 283.46 159.93 276.29 159.93 269.12 159.93 262.55 159.93 256.28 159.93 250.9 159.93 246.12 159.93 242.24 159.93 239.55 159.93 238.06 159.93"/>
  <polyline class="cls-1" points="332.16 168 330.37 168 327.38 168 323.5 168 318.42 168 312.44 168 305.87 168 298.7 168 291.23 168 283.46 168 275.7 168 268.23 168 261.06 168 254.49 168 248.51 168 243.43 168 239.55 168 236.56 168 234.77 168"/>
  <polyline class="cls-1" points="332.76 263.6 332.16 263.6 330.37 263.6 327.38 263.6 323.5 263.6 318.42 263.6 312.44 263.6 305.87 263.6 298.7 263.6 291.23 263.6 283.46 263.6 275.7 263.6 268.23 263.6 261.06 263.6 254.49 263.6 248.51 263.6 243.43 263.6 239.55 263.6 236.56 263.6 234.77 263.6 234.17 263.6"/>
  <polyline class="cls-1" points="266.44 414.76 267.03 414.76 268.83 414.76 271.51 414.76 275.1 414.76 278.98 414.76 283.46 414.76 287.95 414.76 291.83 414.76 295.41 414.76 298.1 414.76 299.9 414.76 300.49 414.76"/>
  <polyline class="cls-1" points="317.22 318.57 316.92 318.57 315.13 318.57 312.74 318.57 309.46 318.57 305.27 318.57 300.49 318.57 295.12 318.57 289.44 318.57 283.46 318.57 277.49 318.57 271.81 318.57 266.44 318.57 261.66 318.57 257.47 318.57 254.19 318.57 251.5 318.57 250.01 318.57 249.71 318.57"/>
  <polyline class="cls-1" points="252.39 321.55 252.99 321.55 254.78 321.55 257.47 321.55 261.36 321.55 266.14 321.55 271.51 321.55 277.49 321.55 283.46 321.55 289.44 321.55 295.41 321.55 300.79 321.55 305.27 321.55 309.16 321.55 312.14 321.55 313.94 321.55 314.53 321.55"/>
  <polyline class="cls-1" points="324.69 271.66 324.09 271.66 322.3 271.66 319.02 271.66 315.13 271.66 310.05 271.66 304.08 271.66 297.51 271.66 290.63 271.66 283.46 271.66 276.29 271.66 269.42 271.66 262.85 271.66 256.88 271.66 251.8 271.66 247.62 271.66 244.63 271.66 242.84 271.66 242.24 271.66"/>
  <polyline class="cls-1" points="235.96 265.09 237.76 265.09 240.74 265.09 244.63 265.09 249.41 265.09 255.08 265.09 261.66 265.09 268.53 265.09 276 265.09 283.46 265.09 290.93 265.09 298.4 265.09 305.27 265.09 311.55 265.09 317.22 265.09 322.3 265.09 326.19 265.09 329.17 265.09 330.97 265.09"/>
  <line class="cls-1" x1="258.97" y1="407" x2="264.64" y2="403.71"/>
  <line class="cls-1" x1="258.97" y1="328.13" x2="264.64" y2="324.54"/>
  <line class="cls-1" x1="258.97" y1="337.99" x2="264.64" y2="334.7"/>
  <line class="cls-1" x1="258.97" y1="347.84" x2="264.64" y2="344.56"/>
  <line class="cls-1" x1="258.97" y1="357.7" x2="264.64" y2="354.42"/>
  <line class="cls-1" x1="258.97" y1="367.56" x2="264.64" y2="364.28"/>
  <line class="cls-1" x1="258.97" y1="377.42" x2="264.64" y2="374.13"/>
  <line class="cls-1" x1="258.97" y1="387.28" x2="264.64" y2="383.99"/>
  <line class="cls-1" x1="258.97" y1="397.14" x2="264.64" y2="393.85"/>
  <line class="cls-1" x1="304.97" y1="321.55" x2="307.96" y2="323.05"/>
  <line class="cls-1" x1="302.29" y1="329.62" x2="307.96" y2="332.91"/>
  <line class="cls-1" x1="302.29" y1="339.48" x2="307.96" y2="342.77"/>
  <line class="cls-1" x1="302.29" y1="349.64" x2="307.96" y2="352.62"/>
  <line class="cls-1" x1="302.29" y1="359.5" x2="307.96" y2="362.48"/>
  <line class="cls-1" x1="302.29" y1="369.35" x2="307.96" y2="372.34"/>
  <line class="cls-1" x1="302.29" y1="379.21" x2="307.96" y2="382.2"/>
  <line class="cls-1" x1="302.29" y1="389.07" x2="307.96" y2="392.36"/>
  <line class="cls-1" x1="302.29" y1="398.93" x2="307.96" y2="402.22"/>
  <line class="cls-1" x1="302.29" y1="408.79" x2="304.68" y2="410.28"/>
  <line class="cls-1" x1="302.29" y1="328.13" x2="302.29" y2="329.92"/>
  <line class="cls-1" x1="302.29" y1="337.99" x2="302.29" y2="339.78"/>
  <line class="cls-1" x1="302.29" y1="347.84" x2="302.29" y2="349.64"/>
  <line class="cls-1" x1="302.29" y1="357.7" x2="302.29" y2="359.5"/>
  <line class="cls-1" x1="302.29" y1="367.56" x2="302.29" y2="369.35"/>
  <line class="cls-1" x1="302.29" y1="377.42" x2="302.29" y2="379.21"/>
  <line class="cls-1" x1="302.29" y1="387.28" x2="302.29" y2="389.07"/>
  <line class="cls-1" x1="302.29" y1="397.14" x2="302.29" y2="398.93"/>
  <line class="cls-1" x1="302.29" y1="407" x2="302.29" y2="408.79"/>
  <line class="cls-1" x1="264.64" y1="323.05" x2="264.64" y2="324.84"/>
  <line class="cls-1" x1="264.64" y1="332.91" x2="264.64" y2="334.7"/>
  <line class="cls-1" x1="264.64" y1="342.77" x2="264.64" y2="344.56"/>
  <line class="cls-1" x1="264.64" y1="352.62" x2="264.64" y2="354.42"/>
  <line class="cls-1" x1="264.64" y1="362.48" x2="264.64" y2="364.28"/>
  <line class="cls-1" x1="264.64" y1="372.34" x2="264.64" y2="374.13"/>
  <line class="cls-1" x1="264.64" y1="382.2" x2="264.64" y2="383.99"/>
  <line class="cls-1" x1="264.64" y1="392.06" x2="264.64" y2="393.85"/>
  <line class="cls-1" x1="264.64" y1="401.92" x2="264.64" y2="403.71"/>
  <line class="cls-1" x1="264.64" y1="411.78" x2="264.64" y2="412.67"/>
  <line class="cls-1" x1="264.64" y1="323.05" x2="261.66" y2="321.55"/>
  <line class="cls-1" x1="264.64" y1="332.91" x2="258.97" y2="329.62"/>
  <line class="cls-1" x1="264.64" y1="342.77" x2="258.97" y2="339.78"/>
  <line class="cls-1" x1="264.64" y1="352.62" x2="258.97" y2="349.64"/>
  <line class="cls-1" x1="264.64" y1="362.48" x2="258.97" y2="359.5"/>
  <line class="cls-1" x1="264.64" y1="372.34" x2="258.97" y2="369.35"/>
  <line class="cls-1" x1="264.64" y1="382.5" x2="258.97" y2="379.21"/>
  <line class="cls-1" x1="264.64" y1="392.36" x2="258.97" y2="389.07"/>
  <line class="cls-1" x1="264.64" y1="402.22" x2="258.97" y2="398.93"/>
  <line class="cls-1" x1="264.64" y1="412.07" x2="263.45" y2="411.18"/>
  <line class="cls-1" x1="307.96" y1="404.01" x2="301.99" y2="407.29"/>
  <line class="cls-1" x1="307.96" y1="393.85" x2="301.99" y2="397.44"/>
  <line class="cls-1" x1="307.96" y1="383.99" x2="301.99" y2="387.28"/>
  <line class="cls-1" x1="307.96" y1="374.13" x2="301.99" y2="377.42"/>
  <line class="cls-1" x1="307.96" y1="364.28" x2="301.99" y2="367.56"/>
  <line class="cls-1" x1="307.96" y1="354.42" x2="301.99" y2="357.7"/>
  <line class="cls-1" x1="307.96" y1="344.56" x2="301.99" y2="347.84"/>
  <line class="cls-1" x1="307.96" y1="334.7" x2="301.99" y2="337.99"/>
  <line class="cls-1" x1="307.96" y1="324.84" x2="301.99" y2="328.13"/>
  <line class="cls-1" x1="307.96" y1="323.35" x2="307.96" y2="324.54"/>
  <line class="cls-1" x1="307.96" y1="333.21" x2="307.96" y2="334.4"/>
  <line class="cls-1" x1="307.96" y1="343.06" x2="307.96" y2="344.26"/>
  <line class="cls-1" x1="307.96" y1="352.92" x2="307.96" y2="354.42"/>
  <line class="cls-1" x1="307.96" y1="362.78" x2="307.96" y2="364.28"/>
  <line class="cls-1" x1="307.96" y1="372.64" x2="307.96" y2="374.13"/>
  <line class="cls-1" x1="307.96" y1="382.5" x2="307.96" y2="383.99"/>
  <line class="cls-1" x1="307.96" y1="392.36" x2="307.96" y2="393.85"/>
  <line class="cls-1" x1="307.96" y1="402.22" x2="307.96" y2="403.71"/>
  <line class="cls-1" x1="258.97" y1="328.13" x2="258.97" y2="329.62"/>
  <line class="cls-1" x1="258.97" y1="337.99" x2="258.97" y2="339.48"/>
  <line class="cls-1" x1="258.97" y1="347.84" x2="258.97" y2="349.34"/>
  <line class="cls-1" x1="258.97" y1="357.7" x2="258.97" y2="359.2"/>
  <line class="cls-1" x1="258.97" y1="367.56" x2="258.97" y2="369.06"/>
  <line class="cls-1" x1="258.97" y1="377.72" x2="258.97" y2="378.91"/>
  <line class="cls-1" x1="258.97" y1="387.58" x2="258.97" y2="388.77"/>
  <line class="cls-1" x1="258.97" y1="397.44" x2="258.97" y2="398.63"/>
  <path class="cls-1" d="m247.76,152.17c-1.47,0-2.87.58-3.91,1.62"/>
  <path class="cls-1" d="m323.37,153.78c-1.04-1.04-2.44-1.62-3.91-1.62"/>
  <line class="cls-1" x1="323.2" y1="153.66" x2="329.47" y2="159.93"/>
  <line class="cls-1" x1="243.73" y1="153.66" x2="237.46" y2="159.93"/>
  <path class="cls-1" d="m332.76,167.85c0-2.97-1.18-5.82-3.28-7.92"/>
  <path class="cls-1" d="m237.45,159.93c-2.1,2.1-3.28,4.95-3.28,7.92"/>
  <line class="cls-1" x1="332.76" y1="168" x2="332.76" y2="263.6"/>
  <line class="cls-1" x1="234.17" y1="168" x2="234.17" y2="263.6"/>
  <line class="cls-1" x1="266.44" y1="414.76" x2="264.64" y2="412.67"/>
  <line class="cls-1" x1="262.55" y1="410.88" x2="258.97" y2="407.29"/>
  <line class="cls-1" x1="300.49" y1="414.76" x2="304.68" y2="410.28"/>
  <line class="cls-1" x1="252.39" y1="321.55" x2="249.71" y2="318.57"/>
  <polyline class="cls-1" points="314.53 321.55 317.22 318.57 317.22 271.66"/>
  <line class="cls-1" x1="249.71" y1="271.66" x2="249.71" y2="318.57"/>
  <line class="cls-1" x1="242.24" y1="271.66" x2="235.37" y2="265.09"/>
  <line class="cls-1" x1="324.69" y1="271.66" x2="331.56" y2="265.09"/>
  <line class="cls-1" x1="235.37" y1="265.09" x2="234.17" y2="263.6"/>
  <line class="cls-1" x1="331.56" y1="265.09" x2="332.76" y2="263.6"/>
</svg>