<?xml version="1.0" encoding="UTF-8"?>
<svg id="Layer_1" data-name="Layer 1" xmlns="http://www.w3.org/2000/svg" viewBox="0 0 566.93 566.93">
  <defs>
    <style>
      .cls-1 {
        stroke-linecap: round;
        stroke-linejoin: round;
      }

      .cls-1, .cls-2 {
        fill: none;
        stroke: #a40931;
        stroke-width: 2.46px;
      }

      .cls-3 {
        fill: #a40931;
      }
    </style>
  </defs>
  <path class="cls-3" d="m146.86,347.93c15.33.32,33.71-7.17,34.77-21.05.08-3.59-.52-4.89-.74-4.86-.22.03.41,2.94,0,4.89-3.16,13.44-17.38,19.86-34.26,19.77-8.63-.04-17.26-2.89-22.45-5.4-3.34-1.61-3.83-1.44-1.08.28,4.92,3.08,13.92,6.16,23.75,6.37"/>
  <path class="cls-2" d="m146.86,347.93c15.33.32,33.71-7.17,34.77-21.05.08-3.59-.52-4.89-.74-4.86-.22.03.41,2.94,0,4.89-3.16,13.44-17.38,19.86-34.26,19.77-8.63-.04-17.26-2.89-22.45-5.4-3.34-1.61-3.83-1.44-1.08.28,4.92,3.08,13.92,6.16,23.75,6.37Z"/>
  <path class="cls-3" d="m168.06,271.54c-.54-.62-8.81-6.2-9.48-7.27-.04-.06-.08-.12-.12-.19,0,0-32.61-76.93-32.7-77.13-2.59-6.1-16.12-6.19-30.23-.2-13.87,5.89-23.12,15.45-20.97,21.57l31.47,73.46c.43,1.55.39,4.28.39,4.28l-.15,13.43.48.86c3.43,6.92,19.64,6.76,36.59-.43,13.62-5.78,23.63-14.37,25.7-21.3l9.79,27.22h0c2.7,6.65-8.4,17.54-24.91,24.53-16.57,7.01-32.34,7.32-35.15.67l-12.2-28.24h0s11.17,29.25,11.17,29.25c3.19,7.05,19.33,6.98,36.22-.19,16.98-7.21,28.08-18.95,25.05-26.13,0,0-10.72-33.95-10.93-34.19m-72.27-83.95c13.1-5.56,25.57-5.71,27.86-.33,2.28,5.38-6.49,14.25-19.59,19.81-13.1,5.56-25.57,5.71-27.86.33-2.28-5.38,6.49-14.25,19.59-19.81m46.68,110.56c-16.24,6.9-31.65,7.29-34.7.94l.12-12.99s.19-2.33-.55-4.48l-29.66-69.94c5.32,2.81,16.09,1.87,27.22-2.86,11.46-4.86,19.77-12.23,21.1-18.1l32.2,75.96c2.06,5.08-6.96,13.84-20.02,19.38-7.94,3.37-16.93,4.44-22.68,4.28-3.71-.1-4.09.26-.87.7,5.75.79,15.22-.09,24.28-3.93,13.4-5.69,22.01-13.78,20.76-19.51.21.17,7.5,5.56,7.5,5.57,2.79,6.58-8.28,17.99-24.7,24.96"/>
  <path class="cls-2" d="m168.06,271.54c-.54-.62-8.81-6.2-9.48-7.27-.04-.06-.08-.12-.12-.19,0,0-32.61-76.93-32.7-77.13-2.59-6.1-16.12-6.19-30.23-.2-13.87,5.89-23.12,15.45-20.97,21.57l31.47,73.46c.43,1.55.39,4.28.39,4.28l-.15,13.43.48.86c3.43,6.92,19.64,6.76,36.59-.43,13.62-5.78,23.63-14.37,25.7-21.3l9.79,27.22h0c2.7,6.65-8.4,17.54-24.91,24.53-16.57,7.01-32.34,7.32-35.15.67l-12.2-28.24h0s11.17,29.25,11.17,29.25c3.19,7.05,19.33,6.98,36.22-.19,16.98-7.21,28.08-18.95,25.05-26.13,0,0-10.72-33.95-10.93-34.19Zm-72.27-83.95c13.1-5.56,25.57-5.71,27.86-.33,2.28,5.38-6.49,14.25-19.59,19.81-13.1,5.56-25.57,5.71-27.86.33-2.28-5.38,6.49-14.25,19.59-19.81Zm46.68,110.56c-16.24,6.9-31.65,7.29-34.7.94l.12-12.99s.19-2.33-.55-4.48l-29.66-69.94c5.32,2.81,16.09,1.87,27.22-2.86,11.46-4.86,19.77-12.23,21.1-18.1l32.2,75.96c2.06,5.08-6.96,13.84-20.02,19.38-7.94,3.37-16.93,4.44-22.68,4.28-3.71-.1-4.09.26-.87.7,5.75.79,15.22-.09,24.28-3.93,13.4-5.69,22.01-13.78,20.76-19.51.21.17,7.5,5.56,7.5,5.57,2.79,6.58-8.28,17.99-24.7,24.96Z"/>
  <path class="cls-3" d="m153.6,366.97c-19.69.74-41.12-9.79-41.17-19.64l-.02,2.2c-.02,10.36,20.29,20.51,41.11,19.96,29.66-.79,44.12-16.07,43.95-26.18,0-.51-.06-1.02-.16-1.52v.02c.16,9.17-17.18,24.16-43.71,25.17"/>
  <path class="cls-1" d="m153.6,366.97c-19.69.74-41.12-9.79-41.17-19.64l-.02,2.2c-.02,10.36,20.29,20.51,41.11,19.96,29.66-.79,44.12-16.07,43.95-26.18,0-.51-.06-1.02-.16-1.52v.02c.16,9.17-17.18,24.16-43.71,25.17Z"/>
  <path class="cls-3" d="m155.25,382.08c-19.69.74-41.12-9.79-41.17-19.64l-.02,2.2c-.02,10.36,20.29,20.51,41.11,19.96,29.66-.79,44.12-16.07,43.95-26.18,0-.51-.06-1.02-.16-1.52v.02c.16,9.17-17.18,24.16-43.71,25.17"/>
  <path class="cls-1" d="m155.25,382.08c-19.69.74-41.12-9.79-41.17-19.64l-.02,2.2c-.02,10.36,20.29,20.51,41.11,19.96,29.66-.79,44.12-16.07,43.95-26.18,0-.51-.06-1.02-.16-1.52v.02c.16,9.17-17.18,24.16-43.71,25.17Z"/>
  <path d="m215.67,293.26v-42.76h14.38c5.32,0,9.59,2.06,12.81,6.18,3.22,4.13,4.83,9.22,4.83,15.27s-1.66,11.12-4.98,15.2c-3.32,4.07-8.06,6.11-14.24,6.11h-12.81Zm7.23-6.3h5.86c3.15,0,5.82-1.29,8.01-3.88,2.19-2.59,3.29-6.44,3.29-11.56,0-4.18-.96-7.71-2.88-10.6-1.92-2.89-4.45-4.34-7.59-4.34h-6.69v30.39Z"/>
  <polygon points="267.63 293.26 260.16 293.26 260.16 275.22 246.87 250.5 255.39 250.5 264.65 268.14 273.52 250.5 280.26 250.5 267.63 275.22 267.63 293.26"/>
  <path d="m313.23,293.26h-6.84l-14.81-27.32c-.23-.42-.6-1.1-1.12-2.04-.23-.42-.58-1.07-1.06-1.97v31.33h-5.66v-42.76h7.78l13.67,25.19c.11.21.94,1.75,2.49,4.61v-29.79h5.55v42.76Z"/>
  <path d="m352.44,293.26h-7.52l-3.12-10.18h-15.01l-3.06,10.18h-6.01l12.95-42.76h8.66l13.1,42.76Zm-12.52-16.35l-5.69-19.08-5.69,19.08h11.38Z"/>
  <polygon points="395.41 293.26 388.23 293.26 388.23 255.83 377.43 293.26 373.74 293.26 362.87 255.83 362.87 293.26 357.13 293.26 357.13 250.5 368.13 250.5 376.31 278.04 384.34 250.5 395.41 250.5 395.41 293.26"/>
  <rect x="404.02" y="250.5" width="7.03" height="42.76"/>
  <path d="m441.45,278.41l6.52.78c-.42,4.28-1.93,7.81-4.53,10.58-2.6,2.77-6.02,4.15-10.25,4.15-3.56,0-6.46-.98-8.68-2.94-2.22-1.96-3.93-4.63-5.13-7.99-1.2-3.36-1.8-7.07-1.8-11.12,0-6.52,1.41-11.81,4.23-15.9,2.82-4.08,6.7-6.12,11.64-6.12,3.87,0,7.09,1.31,9.67,3.91,2.57,2.61,4.19,6.35,4.86,11.22l-6.52.75c-1.2-6.45-3.85-9.68-7.95-9.68-2.63,0-4.68,1.34-6.13,4.03-1.46,2.68-2.19,6.57-2.19,11.67s.78,9.09,2.34,11.73c1.56,2.64,3.63,3.96,6.2,3.96,2.06,0,3.81-.89,5.26-2.66s2.27-3.9,2.46-6.36"/>
  <path class="cls-3" d="m211.96,376.92l4.77-1.02c.57,2.71,2.77,4.06,6.6,4.06,1.75,0,3.08-.35,4.03-1.04.94-.69,1.41-1.55,1.41-2.58,0-.74-.21-1.43-.64-2.07-.42-.64-1.34-1.13-2.74-1.49l-5.22-1.36c-1.79-.47-3.1-.99-3.96-1.59-.85-.59-1.54-1.43-2.05-2.51-.51-1.08-.77-2.23-.77-3.46,0-2.44.9-4.39,2.72-5.86,1.81-1.47,4.13-2.21,6.95-2.21,2.34,0,4.44.51,6.28,1.54,1.84,1.02,3.02,2.47,3.52,4.35l-4.67,1.16c-.72-2.07-2.4-3.1-5.03-3.1-1.53,0-2.7.32-3.51.96-.8.64-1.21,1.45-1.21,2.44,0,1.56,1.27,2.65,3.8,3.28l4.63,1.16c2.81.71,4.7,1.75,5.66,3.13.96,1.38,1.44,2.9,1.44,4.57,0,2.68-1.01,4.79-3.03,6.32-2.02,1.54-4.63,2.31-7.84,2.31-2.7,0-5.07-.57-7.1-1.7-2.03-1.13-3.38-2.9-4.04-5.3"/>
  <path class="cls-3" d="m248.24,383.92c-3.62,0-6.44-1.36-8.46-4.07-2.02-2.72-3.03-6.08-3.03-10.07s1.07-7.29,3.22-9.96c2.14-2.67,4.98-4,8.49-4s6.34,1.34,8.4,4c2.06,2.67,3.09,6.01,3.09,10.02,0,4.21-1.07,7.61-3.21,10.2-2.14,2.59-4.97,3.88-8.5,3.88m.04-3.96c1.77,0,3.27-.73,4.49-2.2,1.23-1.46,1.84-4.12,1.84-7.97,0-3.13-.51-5.59-1.52-7.36s-2.58-2.67-4.71-2.67c-4.21,0-6.31,3.39-6.31,10.17,0,3.29.54,5.79,1.61,7.48,1.07,1.7,2.61,2.55,4.61,2.55"/>
  <polygon class="cls-3" points="281.31 383.5 264.53 383.5 264.53 356.22 269.7 356.22 269.7 379.04 281.31 379.04 281.31 383.5"/>
  <path class="cls-3" d="m303.19,356.22v17.52c0,2.37-.27,4.2-.8,5.48-.53,1.28-1.56,2.38-3.08,3.3-1.53.93-3.39,1.39-5.59,1.39s-4.06-.4-5.48-1.2c-1.43-.8-2.46-1.89-3.09-3.29-.63-1.39-.94-3.17-.94-5.32v-17.88h5.02v17.52c0,2.4.5,3.97,1.51,4.73,1,.76,2.17,1.13,3.51,1.13,1.53,0,2.76-.4,3.68-1.21.92-.81,1.38-2.36,1.38-4.65v-17.52h3.9Z"/>
  <polygon class="cls-3" points="318.34 383.5 313.06 383.5 313.06 360.44 305.81 360.44 305.81 356.22 325.59 356.22 325.59 360.44 318.34 360.44 318.34 383.5"/>
  <rect class="cls-3" x="328.59" y="356.22" width="4.92" height="27.28"/>
  <path class="cls-3" d="m349.55,383.92c-3.62,0-6.44-1.36-8.46-4.07-2.02-2.72-3.03-6.08-3.03-10.07s1.07-7.29,3.22-9.96c2.14-2.67,4.98-4,8.49-4s6.34,1.34,8.4,4c2.06,2.67,3.09,6.01,3.09,10.02,0,4.21-1.07,7.61-3.21,10.2-2.14,2.59-4.97,3.88-8.5,3.88m.04-3.96c1.77,0,3.27-.73,4.49-2.2,1.23-1.46,1.84-4.12,1.84-7.97,0-3.13-.51-5.59-1.52-7.36s-2.59-2.67-4.71-2.67c-4.21,0-6.31,3.39-6.31,10.17,0,3.29.54,5.79,1.61,7.48,1.07,1.7,2.61,2.55,4.61,2.55"/>
  <path class="cls-3" d="m386.44,383.5h-4.77l-10.35-17.43c-.16-.26-.42-.7-.78-1.3-.16-.26-.41-.68-.74-1.26v19.98h-3.96v-27.28h5.43l9.55,16.06c.08.13.66,1.11,1.74,2.94v-19h3.88v27.28Z"/>
  <path class="cls-3" d="m389.57,376.92l4.77-1.02c.57,2.71,2.77,4.06,6.6,4.06,1.75,0,3.08-.35,4.03-1.04.94-.69,1.41-1.55,1.41-2.58,0-.74-.21-1.43-.64-2.07-.42-.64-1.34-1.13-2.74-1.49l-5.22-1.36c-1.79-.47-3.1-.99-3.96-1.59-.85-.59-1.54-1.43-2.05-2.51-.51-1.08-.77-2.23-.77-3.46,0-2.44.9-4.39,2.72-5.86,1.81-1.47,4.13-2.21,6.95-2.21,2.34,0,4.44.51,6.28,1.54,1.84,1.02,3.02,2.47,3.52,4.35l-4.67,1.16c-.72-2.07-2.4-3.1-5.03-3.1-1.53,0-2.7.32-3.51.96-.8.64-1.21,1.45-1.21,2.44,0,1.56,1.27,2.65,3.8,3.28l4.63,1.16c2.81.71,4.7,1.75,5.66,3.13.96,1.38,1.44,2.9,1.44,4.57,0,2.68-1.01,4.79-3.03,6.32-2.02,1.54-4.63,2.31-7.84,2.31-2.7,0-5.07-.57-7.1-1.7-2.03-1.13-3.38-2.9-4.04-5.3"/>
  <path d="m247.46,345.02h-7.68l-3.18-10.55h-15.33l-3.12,10.55h-6.13l13.23-44.31h8.85l13.38,44.31Zm-12.79-16.95l-5.81-19.77-5.81,19.77h11.62Z"/>
  <path d="m252.25,345.01v-44.31h15.54c2.63,0,4.81.31,6.54.91,1.73.61,3.23,1.88,4.5,3.8,1.27,1.93,1.9,4.19,1.9,6.78,0,2.45-.64,4.57-1.93,6.38-1.29,1.8-3.06,2.96-5.32,3.46,2.81.54,4.93,1.81,6.37,3.8,1.44,1.99,2.16,4.35,2.16,7.08,0,3.42-1.01,6.29-3.02,8.62-2.02,2.33-5.12,3.49-9.3,3.49h-17.44Zm6.81-25.71h8.76c1.79,0,3.2-.6,4.25-1.79,1.04-1.19,1.56-2.71,1.56-4.54,0-2.04-.59-3.53-1.78-4.5-1.19-.96-2.58-1.45-4.18-1.45h-8.61v12.27Zm0,19.06h9.29c1.96,0,3.52-.57,4.66-1.72,1.14-1.15,1.71-2.69,1.71-4.64s-.58-3.39-1.74-4.58c-1.16-1.19-2.69-1.79-4.6-1.79h-9.32v12.73Z"/>
  <path d="m315.94,300.7v28.47c0,3.85-.39,6.82-1.17,8.89-.78,2.08-2.28,3.87-4.51,5.37-2.23,1.51-4.95,2.26-8.16,2.26s-5.92-.65-8.02-1.95c-2.09-1.3-3.59-3.08-4.51-5.34s-1.37-5.15-1.37-8.65v-29.05h7.33v28.47c0,3.9.73,6.46,2.2,7.68,1.47,1.22,3.18,1.83,5.13,1.83,2.24,0,4.03-.65,5.37-1.96,1.34-1.31,2.02-3.83,2.02-7.55v-28.47h5.69Z"/>
  <polygon points="338.08 345.02 330.37 345.02 330.37 307.55 319.77 307.55 319.77 300.71 348.68 300.71 348.68 307.55 338.08 307.55 338.08 345.02"/>
  <polygon points="392.17 345.02 384.84 345.02 384.84 306.22 373.8 345.02 370.03 345.02 358.93 306.22 358.93 345.02 353.06 345.02 353.06 300.71 364.3 300.71 372.66 329.24 380.87 300.71 392.17 300.71 392.17 345.02"/>
  <polygon points="426.86 345.02 400.96 345.02 400.96 300.71 426.6 300.71 426.6 307.3 408.14 307.3 408.14 319.3 422.98 319.3 422.98 325.73 408.14 325.73 408.14 338.13 426.86 338.13 426.86 345.02"/>
  <path d="m463.16,345.02h-6.98l-15.13-28.31c-.23-.44-.61-1.14-1.14-2.11-.23-.44-.6-1.12-1.08-2.05v32.46h-5.78v-44.31h7.94l13.96,26.1c.12.22.96,1.8,2.54,4.77v-30.87h5.67v44.31Z"/>
  <polygon points="485.85 345.02 478.14 345.02 478.14 307.55 467.54 307.55 467.54 300.71 496.46 300.71 496.46 307.55 485.85 307.55 485.85 345.02"/>
</svg>