<?xml version="1.0" encoding="UTF-8"?>
<svg id="Layer_1" data-name="Layer 1" xmlns="http://www.w3.org/2000/svg" viewBox="0 0 566.93 566.93">
  <defs>
    <style>
      .cls-1 {
        fill: none;
        stroke: #000;
        stroke-linecap: round;
        stroke-linejoin: round;
      }
    </style>
  </defs>
  <polyline class="cls-1" points="278.09 423.18 279.28 423.18 280.48 423.18 281.67 422.89 283.16 422.89 284.36 422.89 285.55 422.89 286.75 422.89 287.94 422.59 289.14 422.59 290.33 422.59 291.53 422.59 292.72 422.59 293.62 422.29 294.81 422.29 295.71 422.29 296.61 422.29 297.8 422.29 298.4 421.99 299.3 421.99 300.19 421.99 300.79 421.99 301.39 421.99 301.98 421.69 302.58 421.69 302.88 421.69 303.48 421.69 303.78 421.69 303.78 421.39 304.08 421.39"/>
  <polyline class="cls-1" points="259.56 418.11 259.86 418.11 260.16 418.11 260.16 417.81 260.46 417.81 260.76 417.81 261.36 417.81 261.65 417.81 261.95 417.81 262.55 417.81 263.15 417.51 263.75 417.51 264.04 417.51"/>
  <polyline class="cls-1" points="264.04 417.51 267.93 417.51 272.71 417.51 277.79 417.51 283.46 417.51 282.27 417.81 281.37 417.81 280.48 418.11 279.28 418.11 278.38 418.4 277.49 418.4 276.29 418.7 275.4 419 274.5 419 273.6 419.3 272.71 419.3 272.11 419.6 271.21 419.6 270.62 419.9 269.72 420.2 269.12 420.2 268.53 420.5 267.93 420.5 267.33 420.79 266.73 420.79 266.14 421.09 265.84 421.39 265.54 421.39 265.24 421.69 264.94 421.99 264.64 421.99 264.64 422.29 264.34 422.29 264.34 422.59 264.34 422.89 264.64 423.18 265.24 423.18 267.33 423.18 270.32 423.18 273.9 423.18 278.09 423.18"/>
  <polyline class="cls-1" points="299.6 426.17 299 426.17 297.2 426.17 294.81 426.17 291.53 426.17 287.65 426.17 283.46 426.17 279.28 426.17 275.4 426.17 272.11 426.17 269.42 426.17 267.93 426.17 267.33 426.17"/>
  <polyline class="cls-1" points="307.66 334.46 307.96 334.76 307.66 334.76 307.36 335.05 307.06 335.05 306.76 335.05 306.47 335.05 305.87 335.35 305.57 335.35 304.97 335.35 304.37 335.35 303.48 335.65 302.88 335.65 301.98 335.65 301.09 335.95 300.19 335.95 299.3 335.95 298.4 335.95 297.5 336.25 296.31 336.25 295.41 336.25 294.22 336.25 293.02 336.55 291.83 336.55 290.63 336.55 289.44 336.85 288.24 336.85 287.05 336.85 285.85 336.85 284.66 337.15 283.46 337.15 282.27 337.15 281.07 337.15 279.88 337.44 278.68 337.44 277.49 337.44 276.29 337.44 275.1 337.74 273.9 337.74 272.71 337.74 271.51 338.04 270.62 338.04 269.42 338.04 268.53 338.04 267.63 338.34 266.73 338.34 265.84 338.34 264.94 338.34 264.04 338.64 263.45 338.64 262.85 338.64 261.95 338.64 261.36 338.94 261.06 338.94 260.46 338.94 260.16 339.24 259.56 339.24 259.26 339.24 258.97 339.54"/>
  <polyline class="cls-1" points="307.66 344.32 307.66 344.61 307.36 344.61 307.36 344.91 307.06 344.91 306.76 344.91 306.17 345.21 305.87 345.21 305.27 345.21 304.67 345.21 304.08 345.51 303.48 345.51 302.88 345.51 301.98 345.51 301.09 345.81 300.49 345.81 299.6 345.81 298.4 345.81 297.5 346.11 296.61 346.11 295.41 346.11 294.22 346.41 293.32 346.41 292.13 346.41 290.93 346.41 289.74 346.71 288.54 346.71 287.35 346.71 285.85 346.71 284.66 347 283.46 347 282.27 347 281.07 347 279.88 347.3 278.68 347.3 277.49 347.3 276.29 347.6 275.1 347.6 273.9 347.6 272.71 347.6 271.51 347.9 270.62 347.9 269.42 347.9 268.53 347.9 267.33 348.2 266.43 348.2 265.54 348.2 264.94 348.2 264.04 348.5 263.15 348.5 262.55 348.5 261.95 348.8 261.36 348.8 261.06 348.8 260.46 348.8 260.16 349.1 259.86 349.1 259.56 349.1 259.26 349.1 259.26 349.39 258.97 349.39"/>
  <polyline class="cls-1" points="307.66 354.17 307.66 354.47 307.66 354.77 307.36 354.77 307.06 354.77 306.76 354.77 306.47 355.07 305.87 355.07 305.57 355.07 304.97 355.07 304.37 355.37 303.48 355.37 302.88 355.37 301.98 355.37 301.09 355.67 300.49 355.67 299.3 355.67 298.4 355.97 297.5 355.97 296.31 355.97 295.41 355.97 294.22 356.27 293.02 356.27 291.83 356.27 290.63 356.27 289.44 356.56 288.24 356.56 287.05 356.56 285.85 356.56 284.66 356.86 283.46 356.86 282.27 356.86 281.07 357.16 279.88 357.16 278.38 357.16 277.19 357.16 275.99 357.46 274.8 357.46 273.9 357.46 272.71 357.46 271.51 357.76 270.62 357.76 269.42 357.76 268.53 357.76 267.63 358.06 266.73 358.06 265.84 358.06 264.94 358.36 264.34 358.36 263.45 358.36 262.85 358.36 262.25 358.66 261.65 358.66 261.06 358.66 260.46 358.66 260.16 358.95 259.86 358.95 259.56 358.95 259.26 358.95 258.97 359.25"/>
  <polyline class="cls-1" points="307.66 364.03 307.96 364.33 307.66 364.33 307.66 364.63 307.36 364.63 307.06 364.63 306.76 364.63 306.17 364.93 305.87 364.93 305.27 364.93 304.67 364.93 304.08 365.23 303.48 365.23 302.58 365.23 301.98 365.53 301.09 365.53 300.19 365.53 299.3 365.53 298.4 365.83 297.5 365.83 296.31 365.83 295.41 365.83 294.22 366.12 293.02 366.12 292.13 366.12 290.93 366.12 289.74 366.42 288.54 366.42 287.35 366.42 285.85 366.72 284.66 366.72 283.46 366.72 282.27 366.72 281.07 367.02 279.88 367.02 278.68 367.02 277.49 367.02 276.29 367.32 275.1 367.32 273.9 367.32 272.71 367.32 271.51 367.62 270.62 367.62 269.42 367.62 268.53 367.92 267.63 367.92 266.73 367.92 265.84 367.92 264.94 368.22 264.04 368.22 263.15 368.22 262.55 368.22 261.95 368.51 261.36 368.51 260.76 368.51 260.46 368.51 259.86 368.81 259.56 368.81 259.26 368.81 259.26 369.11 258.97 369.11"/>
  <polyline class="cls-1" points="307.66 373.89 307.66 374.19 307.36 374.49 307.06 374.49 306.76 374.49 306.47 374.79 305.87 374.79 305.57 374.79 304.97 375.09 304.37 375.09 303.48 375.09 302.88 375.09 301.98 375.39 301.39 375.39 300.49 375.39 299.6 375.39 298.4 375.68 297.5 375.68 296.31 375.68 295.41 375.68 294.22 375.98 293.02 375.98 292.13 375.98 290.93 376.28 289.74 376.28 288.54 376.28 287.05 376.28 285.85 376.58 284.66 376.58 283.46 376.58 282.27 376.58 281.07 376.88 279.88 376.88 278.38 376.88 277.19 376.88 275.99 377.18 274.8 377.18 273.9 377.18 272.71 377.48 271.51 377.48 270.62 377.48 269.42 377.48 268.53 377.78 267.63 377.78 266.73 377.78 265.84 377.78 264.94 378.07 264.04 378.07 263.45 378.07 262.85 378.37 262.25 378.37 261.65 378.37 261.06 378.37 260.46 378.67 260.16 378.67 259.86 378.67 259.56 378.67 259.26 378.97 258.97 378.97"/>
  <polyline class="cls-1" points="307.66 383.75 307.96 384.05 307.66 384.05 307.66 384.35 307.36 384.35 307.06 384.35 306.76 384.65 306.47 384.65 305.87 384.65 305.27 384.65 304.67 384.95 304.08 384.95 303.48 384.95 302.58 384.95 301.98 385.24 301.09 385.24 300.19 385.24 299.3 385.24 298.4 385.54 297.5 385.54 296.31 385.54 295.41 385.84 294.22 385.84 293.02 385.84 291.83 385.84 290.93 386.14 289.74 386.14 288.54 386.14 287.35 386.14 285.85 386.44 284.66 386.44 283.46 386.44 282.27 386.74 281.07 386.74 279.88 386.74 278.68 386.74 277.49 387.04 276.29 387.04 275.1 387.04 273.9 387.04 272.71 387.34 271.81 387.34 270.62 387.34 269.42 387.34 268.53 387.63 267.63 387.63 266.73 387.63 265.84 387.93 264.94 387.93 264.04 387.93 263.45 387.93 262.55 388.23 261.95 388.23 261.36 388.23 260.76 388.23 260.46 388.53 259.86 388.53 259.56 388.53 259.26 388.53 259.26 388.83 258.97 388.83 258.97 389.13"/>
  <polyline class="cls-1" points="307.66 393.61 307.66 393.91 307.66 394.21 307.36 394.21 307.06 394.21 306.76 394.51 306.17 394.51 305.87 394.51 305.27 394.51 304.67 394.8 304.08 394.8 303.48 394.8 302.88 394.8 301.98 395.1 301.39 395.1 300.49 395.1 299.6 395.4 298.4 395.4 297.5 395.4 296.61 395.4 295.41 395.7 294.22 395.7 293.32 395.7 292.13 395.7 290.93 396 289.74 396 288.54 396 287.35 396.3 285.85 396.3 284.66 396.3 283.46 396.3 282.27 396.6 281.07 396.6 279.88 396.6 278.68 396.6 277.19 396.9 275.99 396.9 275.1 396.9 273.9 396.9 272.71 397.19 271.51 397.19 270.62 397.19 269.42 397.49 268.53 397.49 267.33 397.49 266.43 397.49 265.54 397.79 264.94 397.79 264.04 397.79 263.45 397.79 262.55 398.09 261.95 398.09 261.65 398.09 261.06 398.09 260.46 398.39 260.16 398.39 259.86 398.39 259.56 398.69 259.26 398.69 258.97 398.69 258.97 398.99"/>
  <polyline class="cls-1" points="307.66 403.77 307.96 403.77 307.66 404.06 307.36 404.06 307.06 404.06 306.76 404.36 306.47 404.36 305.87 404.36 305.57 404.66 304.97 404.66 304.37 404.66 303.48 404.66 302.88 404.96 301.98 404.96 301.09 404.96 300.19 404.96 299.3 405.26 298.4 405.26 297.5 405.26 296.31 405.26 295.41 405.56 294.22 405.56 293.02 405.56 291.83 405.86 290.63 405.86 289.44 405.86 288.24 405.86 287.05 406.16 285.85 406.16 284.66 406.16 283.46 406.16 282.27 406.46 281.07 406.46 279.88 406.46 278.68 406.46 277.19 406.75 276.29 406.75 275.1 406.75 273.9 407.05 272.71 407.05 271.51 407.05 270.62 407.05 269.42 407.35 268.53 407.35 267.63 407.35 266.73 407.35 265.84 407.65 264.94 407.65 264.04 407.65 263.45 407.65 262.85 407.95 261.95 407.95 261.36 407.95 261.06 408.25 260.46 408.25 260.16 408.25 259.56 408.25 259.26 408.55 258.97 408.55 258.97 408.85"/>
  <polyline class="cls-1" points="307.66 413.62 307.66 413.92 307.36 413.92 307.06 413.92 307.06 414.22 306.76 414.22 306.47 414.22 305.87 414.22 305.57 414.22 305.27 414.52 304.67 414.52 304.37 414.52 303.78 414.52 303.18 414.52 302.58 414.82 301.98 414.82 301.39 414.82 300.79 414.82 300.19 415.12 299.3 415.12 298.7 415.12 297.8 415.12 297.2 415.12 296.31 415.42 295.41 415.42 294.52 415.42 293.62 415.42 292.72 415.42 291.83 415.72 290.93 415.72 290.03 415.72 288.84 415.72 287.94 415.72 287.05 416.01 286.15 416.01 284.96 416.01 284.06 416.01 283.16 416.31 282.27 416.31 281.07 416.31 280.18 416.31 279.28 416.31 278.09 416.61 277.19 416.61 276.29 416.61 275.4 416.61 274.5 416.61 273.6 416.91 272.71 416.91 271.81 416.91 270.92 416.91 270.02 417.21 269.12 417.21 268.53 417.21 267.63 417.21 267.03 417.21 266.14 417.51 265.54 417.51 264.94 417.51 264.04 417.51"/>
  <polyline class="cls-1" points="294.22 332.96 293.32 332.96 292.43 332.96 291.23 333.26 290.03 333.26 288.84 333.26 287.94 333.56 286.75 333.56 285.55 333.56 284.36 333.86 283.16 333.86 281.97 333.86 280.48 334.16 279.58 334.16 278.38 334.16 277.19 334.46 275.99 334.46 274.8 334.46 273.9 334.76 272.71 334.76 271.81 334.76 270.92 335.05 270.02 335.05 269.12 335.05 268.53 335.35 267.63 335.35 267.03 335.35 266.43 335.65 266.14 335.65 265.54 335.65 265.24 335.95 264.94 335.95"/>
  <polyline class="cls-1" points="301.98 341.33 301.98 341.63 301.69 341.63 301.39 341.63 301.09 341.63 300.79 341.93 300.49 341.93 300.19 341.93 299.89 341.93 299.3 342.22 299 342.22 298.4 342.22 297.8 342.22 297.2 342.52 296.61 342.52 296.01 342.52 295.11 342.52 294.52 342.82 293.92 342.82 293.02 342.82 292.43 342.82 291.53 343.12 290.63 343.12 289.74 343.12 289.14 343.12 288.24 343.42 287.35 343.42 286.45 343.42 285.55 343.42 284.66 343.72 283.76 343.72 282.87 343.72 281.97 343.72 281.07 344.02 280.18 344.02 279.58 344.02 278.68 344.02 277.79 344.32 276.89 344.32 275.99 344.32 275.4 344.32 274.5 344.61 273.6 344.61 273.01 344.61 272.11 344.61 271.51 344.91 270.92 344.91 270.32 344.91 269.72 344.91 269.12 345.21 268.53 345.21 267.93 345.21 267.63 345.21 267.03 345.51 266.73 345.51 266.43 345.51 266.14 345.51 265.84 345.81 265.54 345.81 265.24 345.81 264.94 345.81 264.94 346.11"/>
  <polyline class="cls-1" points="301.98 351.19 301.98 351.49 301.69 351.49 301.39 351.49 301.39 351.78 301.09 351.78 300.49 351.78 300.19 351.78 299.89 352.08 299.3 352.08 299 352.08 298.4 352.08 297.8 352.38 297.2 352.38 296.61 352.38 296.01 352.38 295.11 352.68 294.52 352.68 293.62 352.68 293.02 352.68 292.13 352.98 291.53 352.98 290.63 352.98 289.74 352.98 288.84 353.28 288.24 353.28 287.35 353.28 286.45 353.28 285.55 353.28 284.66 353.58 283.76 353.58 282.87 353.58 281.97 353.58 281.07 353.88 280.18 353.88 279.58 353.88 278.68 353.88 277.79 354.17 276.89 354.17 275.99 354.17 275.4 354.17 274.5 354.47 273.6 354.47 273.01 354.47 272.41 354.47 271.51 354.77 270.92 354.77 270.32 354.77 269.72 354.77 269.12 355.07 268.53 355.07 268.23 355.07 267.63 355.07 267.33 355.37 266.73 355.37 266.43 355.37 266.14 355.37 265.84 355.67 265.54 355.67 265.24 355.67 264.94 355.67 264.94 355.97"/>
  <polyline class="cls-1" points="302.28 361.05 301.98 361.05 301.98 361.34 301.69 361.34 301.39 361.34 301.39 361.64 301.09 361.64 300.49 361.64 300.19 361.64 299.89 361.94 299.3 361.94 298.7 361.94 298.4 361.94 297.8 362.24 297.2 362.24 296.61 362.24 295.71 362.24 295.11 362.54 294.52 362.54 293.62 362.54 293.02 362.54 292.13 362.84 291.53 362.84 290.63 362.84 289.74 362.84 288.84 363.14 288.24 363.14 287.35 363.14 286.45 363.14 285.55 363.44 284.66 363.44 283.76 363.44 282.87 363.44 281.97 363.73 281.07 363.73 280.18 363.73 279.58 363.73 278.68 364.03 277.79 364.03 276.89 364.03 275.99 364.03 275.4 364.33 274.5 364.33 273.9 364.33 273.01 364.33 272.41 364.63 271.51 364.63 270.92 364.63 270.32 364.63 269.72 364.93 269.12 364.93 268.53 364.93 268.23 364.93 267.63 364.93 267.33 365.23 266.73 365.23 266.43 365.23 266.14 365.23 265.84 365.53 265.54 365.53 265.24 365.53 264.94 365.53 264.94 365.83"/>
  <polyline class="cls-1" points="302.28 370.9 301.98 371.2 301.69 371.2 301.39 371.2 301.39 371.5 300.79 371.5 300.49 371.5 300.19 371.5 299.89 371.8 299.3 371.8 298.7 371.8 298.1 371.8 297.8 372.1 297.2 372.1 296.31 372.1 295.71 372.1 295.11 372.4 294.52 372.4 293.62 372.4 293.02 372.4 292.13 372.7 291.53 372.7 290.63 372.7 289.74 372.7 288.84 373 288.24 373 287.35 373 286.45 373 285.55 373.29 284.66 373.29 283.76 373.29 282.87 373.29 281.97 373.59 281.07 373.59 280.18 373.59 279.58 373.59 278.68 373.89 277.79 373.89 276.89 373.89 275.99 373.89 275.4 374.19 274.5 374.19 273.9 374.19 273.01 374.19 272.41 374.49 271.81 374.49 270.92 374.49 270.32 374.49 269.72 374.79 269.12 374.79 268.53 374.79 268.23 374.79 267.63 375.09 267.03 375.09 266.73 375.09 266.43 375.09 265.84 375.39 265.54 375.39 265.24 375.39 264.94 375.68 264.64 375.68"/>
  <polyline class="cls-1" points="302.28 380.76 302.28 381.06 301.98 381.06 301.69 381.06 301.39 381.36 301.09 381.36 300.79 381.36 300.49 381.36 300.19 381.66 299.6 381.66 299.3 381.66 298.7 381.66 298.1 381.96 297.5 381.96 296.91 381.96 296.31 381.96 295.71 382.26 295.11 382.26 294.52 382.26 293.62 382.26 293.02 382.56 292.13 382.56 291.53 382.56 290.63 382.56 289.74 382.56 289.14 382.85 288.24 382.85 287.35 382.85 286.45 382.85 285.55 383.15 284.66 383.15 283.76 383.15 282.87 383.15 281.97 383.45 281.37 383.45 280.48 383.45 279.58 383.45 278.68 383.75 277.79 383.75 276.89 383.75 276.29 383.75 275.4 384.05 274.5 384.05 273.9 384.05 273.01 384.05 272.41 384.35 271.81 384.35 270.92 384.35 270.32 384.35 269.72 384.65 269.12 384.65 268.53 384.65 267.93 384.65 267.63 384.95 267.03 384.95 266.73 384.95 266.14 384.95 265.84 385.24 265.54 385.24 265.24 385.24 264.94 385.24 264.94 385.54 264.64 385.54"/>
  <polyline class="cls-1" points="302.28 390.62 301.98 390.92 301.69 390.92 301.39 391.22 301.09 391.22 300.79 391.22 300.49 391.22 299.89 391.52 299.6 391.52 299 391.52 298.7 391.52 298.1 391.82 297.5 391.82 296.91 391.82 296.31 391.82 295.71 392.12 295.11 392.12 294.52 392.12 293.62 392.12 293.02 392.41 292.43 392.41 291.53 392.41 290.63 392.41 290.03 392.71 289.14 392.71 288.24 392.71 287.35 392.71 286.45 393.01 285.55 393.01 284.66 393.01 283.76 393.01 282.87 393.31 282.27 393.31 281.37 393.31 280.48 393.31 279.58 393.61 278.68 393.61 277.79 393.61 276.89 393.61 276.29 393.91 275.4 393.91 274.5 393.91 273.9 393.91 273.01 393.91 272.41 394.21 271.51 394.21 270.92 394.21 270.32 394.21 269.72 394.51 269.12 394.51 268.53 394.51 267.93 394.51 267.33 394.8 267.03 394.8 266.43 394.8 266.14 394.8 265.84 395.1 265.54 395.1 265.24 395.1 264.94 395.1 264.94 395.4 264.64 395.4"/>
  <polyline class="cls-1" points="301.98 400.48 301.98 400.78 301.69 400.78 301.39 400.78 301.39 401.08 301.09 401.08 300.79 401.08 300.49 401.08 299.89 401.38 299.6 401.38 299.3 401.38 298.7 401.38 298.1 401.68 297.8 401.68 297.2 401.68 296.61 401.68 296.01 401.97 295.11 401.97 294.52 401.97 293.92 401.97 293.02 402.27 292.43 402.27 291.53 402.27 290.63 402.27 290.03 402.57 289.14 402.57 288.24 402.57 287.35 402.57 286.45 402.87 285.55 402.87 284.66 402.87 283.76 402.87 282.87 403.17 282.27 403.17 281.37 403.17 280.48 403.17 279.58 403.47 278.68 403.47 277.79 403.47 276.89 403.47 275.99 403.77 275.4 403.77 274.5 403.77 273.6 403.77 273.01 404.06 272.41 404.06 271.51 404.06 270.92 404.06 270.32 404.36 269.72 404.36 269.12 404.36 268.53 404.36 267.93 404.66 267.33 404.66 267.03 404.66 266.43 404.66 266.14 404.96 265.84 404.96 265.54 404.96 265.24 404.96 265.24 405.26 264.94 405.26"/>
  <polyline class="cls-1" points="301.98 410.34 301.98 410.64 301.69 410.64 301.39 410.94 301.09 410.94 300.79 410.94 300.49 411.23 300.19 411.23 299.6 411.23 299.3 411.23 298.7 411.53 298.4 411.53 297.8 411.53 297.2 411.53 296.61 411.83 296.01 411.83 295.41 411.83 294.52 411.83 293.92 411.83 293.02 412.13 292.43 412.13 291.53 412.13 290.63 412.13 290.03 412.43 289.14 412.43 288.24 412.43 287.35 412.43 286.45 412.73 285.55 412.73 284.66 412.73 283.76 412.73 282.87 413.03 281.97 413.03 281.07 413.03 280.48 413.03 279.58 413.33 278.68 413.33 277.79 413.33 276.89 413.33 275.99 413.62 275.4 413.62 274.5 413.62 273.6 413.62 273.01 413.92 272.11 413.92 271.51 413.92 270.92 413.92 270.32 414.22 269.72 414.22 269.12 414.22 268.53 414.22 267.93 414.52 267.63 414.52 267.03 414.52 266.73 414.52 266.43 414.82 266.14 414.82 265.84 414.82 265.54 414.82 265.24 415.12 264.94 415.12"/>
  <polyline class="cls-1" points="301.98 420.2 301.98 420.5 301.69 420.5 301.69 420.79 301.39 420.79 301.09 420.79 300.79 421.09 300.19 421.09 299.89 421.09 299.3 421.09 298.7 421.39 297.8 421.39 297.2 421.39 296.31 421.69 295.71 421.69 294.81 421.69 293.92 421.99 293.02 421.99 291.83 421.99 290.93 421.99 290.03 422.29 288.84 422.29 287.94 422.29 286.75 422.59 285.85 422.59 284.66 422.59 283.46 422.89 282.57 422.89 281.37 422.89 280.48 423.18 279.28 423.18 278.09 423.18"/>
  <polyline class="cls-1" points="283.46 417.51 284.66 417.51 285.85 417.51 287.05 417.21 288.24 417.21 289.44 417.21 290.33 417.21 291.53 416.91 292.72 416.91 293.92 416.91 294.81 416.91 296.01 416.61 296.91 416.61 297.8 416.61 298.7 416.61 299.6 416.31 300.49 416.31 301.39 416.31 302.28 416.31 302.88 416.01 303.78 416.01 304.37 416.01 304.97 416.01 305.57 415.72 305.87 415.72 306.47 415.72 306.76 415.72 307.06 415.42 307.36 415.42 307.66 415.42 307.66 415.12 307.96 415.12"/>
  <polyline class="cls-1" points="259.26 410.34 258.97 410.34 258.97 410.04 259.26 410.04 259.56 409.74 259.86 409.74 260.16 409.74 260.46 409.74 261.06 409.44 261.36 409.44 261.95 409.44 262.55 409.44 263.15 409.14 264.04 409.14 264.64 409.14 265.54 408.85 266.43 408.85 267.33 408.85 268.23 408.85 269.12 408.55 270.32 408.55 271.21 408.55 272.41 408.55 273.6 408.25 274.8 408.25 275.99 408.25 277.19 408.25 278.38 407.95 279.58 407.95 280.77 407.95 281.97 407.65 283.16 407.65 284.66 407.65 285.85 407.65 287.05 407.35 288.24 407.35 289.44 407.35 290.63 407.35 291.83 407.05 293.02 407.05 294.22 407.05 295.11 406.75 296.31 406.75 297.2 406.75 298.4 406.75 299.3 406.46 300.19 406.46 301.09 406.46 301.98 406.46 302.58 406.16 303.48 406.16 304.08 406.16 304.67 406.16 305.27 405.86 305.87 405.86 306.17 405.86 306.47 405.56 306.76 405.56 307.06 405.56 307.36 405.56 307.66 405.26"/>
  <polyline class="cls-1" points="259.26 400.48 258.97 400.48 258.97 400.18 259.26 400.18 259.26 399.88 259.56 399.88 259.86 399.88 260.16 399.88 260.76 399.58 261.36 399.58 261.95 399.58 262.55 399.29 263.15 399.29 264.04 399.29 264.64 399.29 265.54 398.99 266.43 398.99 267.33 398.99 268.53 398.99 269.42 398.69 270.32 398.69 271.51 398.69 272.71 398.69 273.6 398.39 274.8 398.39 275.99 398.39 277.19 398.09 278.38 398.09 279.58 398.09 280.77 398.09 281.97 397.79 283.16 397.79 284.66 397.79 285.85 397.79 287.05 397.49 288.24 397.49 289.44 397.49 290.63 397.19 291.83 397.19 293.02 397.19 293.92 397.19 295.11 396.9 296.31 396.9 297.2 396.9 298.1 396.9 299 396.6 300.19 396.6 300.79 396.6 301.69 396.6 302.58 396.3 303.18 396.3 304.08 396.3 304.67 396 305.27 396 305.87 396 306.17 396 306.76 395.7 307.06 395.7 307.36 395.7 307.66 395.7 307.66 395.4 307.96 395.4"/>
  <polyline class="cls-1" points="258.97 390.62 258.97 390.32 259.26 390.32 259.56 390.02 259.86 390.02 260.16 390.02 260.46 389.73 261.06 389.73 261.36 389.73 261.95 389.73 262.55 389.43 263.45 389.43 264.04 389.43 264.94 389.43 265.54 389.13 266.43 389.13 267.33 389.13 268.23 388.83 269.42 388.83 270.32 388.83 271.51 388.83 272.41 388.53 273.6 388.53 274.8 388.53 275.99 388.53 277.19 388.23 278.38 388.23 279.58 388.23 280.77 388.23 281.97 387.93 283.16 387.93 284.36 387.93 285.85 387.63 287.05 387.63 288.24 387.63 289.44 387.63 290.63 387.34 291.83 387.34 293.02 387.34 293.92 387.34 295.11 387.04 296.31 387.04 297.2 387.04 298.4 387.04 299.3 386.74 300.19 386.74 301.09 386.74 301.98 386.44 302.88 386.44 303.48 386.44 304.08 386.44 304.67 386.14 305.27 386.14 305.87 386.14 306.47 386.14 306.76 385.84 307.06 385.84 307.36 385.84 307.66 385.54"/>
  <polyline class="cls-1" points="259.26 380.76 259.26 380.46 258.97 380.46 259.26 380.46 259.26 380.17 259.56 380.17 259.86 380.17 260.46 379.87 260.76 379.87 261.36 379.87 261.95 379.87 262.55 379.57 263.15 379.57 263.75 379.57 264.64 379.27 265.54 379.27 266.43 379.27 267.33 379.27 268.23 378.97 269.42 378.97 270.32 378.97 271.51 378.97 272.41 378.67 273.6 378.67 274.8 378.67 275.99 378.67 277.19 378.37 278.38 378.37 279.58 378.37 280.77 378.07 281.97 378.07 283.16 378.07 284.66 378.07 285.85 377.78 287.05 377.78 288.24 377.78 289.44 377.78 290.63 377.48 291.83 377.48 293.02 377.48 294.22 377.48 295.11 377.18 296.31 377.18 297.2 377.18 298.4 376.88 299.3 376.88 300.19 376.88 301.09 376.88 301.69 376.58 302.58 376.58 303.18 376.58 304.08 376.58 304.67 376.28 305.27 376.28 305.57 376.28 306.17 376.28 306.47 375.98 307.06 375.98 307.36 375.98 307.36 375.68 307.66 375.68 307.96 375.68"/>
  <polyline class="cls-1" points="258.97 370.9 258.97 370.61 259.26 370.31 259.56 370.31 260.16 370.31 260.46 370.01 261.06 370.01 261.36 370.01 261.95 369.71 262.55 369.71 263.45 369.71 264.04 369.71 264.94 369.41 265.54 369.41 266.43 369.41 267.33 369.41 268.23 369.11 269.42 369.11 270.32 369.11 271.51 369.11 272.41 368.81 273.6 368.81 274.8 368.81 275.99 368.51 277.19 368.51 278.38 368.51 279.58 368.51 280.77 368.22 281.97 368.22 283.16 368.22 284.36 368.22 285.55 367.92 287.05 367.92 288.24 367.92 289.44 367.92 290.63 367.62 291.83 367.62 292.72 367.62 293.92 367.32 295.11 367.32 296.31 367.32 297.2 367.32 298.1 367.02 299.3 367.02 300.19 367.02 301.09 367.02 301.98 366.72 302.58 366.72 303.48 366.72 304.08 366.72 304.67 366.42 305.27 366.42 305.87 366.42 306.47 366.12 306.76 366.12 307.06 366.12 307.36 366.12 307.66 365.83"/>
  <polyline class="cls-1" points="259.26 361.05 259.26 360.75 258.97 360.75 259.26 360.75 259.26 360.45 259.56 360.45 259.86 360.45 260.16 360.15 260.46 360.15 260.76 360.15 261.36 360.15 261.95 359.85 262.55 359.85 263.15 359.85 263.75 359.85 264.64 359.55 265.54 359.55 266.43 359.55 267.33 359.55 268.23 359.25 269.12 359.25 270.32 359.25 271.51 358.95 272.41 358.95 273.6 358.95 274.8 358.95 275.99 358.66 277.19 358.66 278.38 358.66 279.58 358.66 280.77 358.36 281.97 358.36 283.16 358.36 284.66 358.36 285.85 358.06 287.05 358.06 288.24 358.06 289.44 357.76 290.63 357.76 291.83 357.76 293.02 357.76 294.22 357.46 295.11 357.46 296.31 357.46 297.2 357.46 298.4 357.16 299.3 357.16 300.19 357.16 301.09 357.16 301.98 356.86 302.58 356.86 303.48 356.86 304.08 356.56 304.67 356.56 305.27 356.56 305.57 356.56 306.17 356.27 306.47 356.27 306.76 356.27 307.06 356.27 307.36 355.97 307.66 355.97 307.66 355.67"/>
  <polyline class="cls-1" points="258.97 351.19 258.97 350.89 258.97 350.59 259.26 350.59 259.56 350.59 259.86 350.29 260.46 350.29 260.76 350.29 261.36 350.29 261.95 349.99 262.55 349.99 263.45 349.99 264.04 349.99 264.94 349.69 265.54 349.69 266.43 349.69 267.33 349.39 268.53 349.39 269.42 349.39 270.32 349.39 271.51 349.1 272.71 349.1 273.6 349.1 274.8 349.1 275.99 348.8 277.19 348.8 278.38 348.8 279.58 348.8 280.77 348.5 281.97 348.5 283.16 348.5 284.66 348.2 285.85 348.2 287.05 348.2 288.24 348.2 289.44 347.9 290.63 347.9 291.83 347.9 293.02 347.9 293.92 347.6 295.11 347.6 296.01 347.6 297.2 347.3 298.1 347.3 299.3 347.3 300.19 347.3 301.09 347 301.69 347 302.58 347 303.48 347 304.08 346.71 304.67 346.71 305.27 346.71 305.87 346.71 306.47 346.41 306.76 346.41 307.06 346.41 307.36 346.11 307.66 346.11 307.96 346.11 307.96 345.81"/>
  <polyline class="cls-1" points="259.26 341.03 258.97 341.03 259.26 340.73 259.56 340.73 259.86 340.73 260.16 340.43 260.46 340.43 261.06 340.43 261.36 340.43 261.95 340.13 262.55 340.13 263.15 340.13 264.04 339.83 264.64 339.83 265.54 339.83 266.43 339.83 267.33 339.54 268.23 339.54 269.12 339.54 270.32 339.54 271.21 339.24 272.41 339.24 273.6 339.24 274.8 339.24 275.99 338.94 277.19 338.94 278.38 338.94 279.58 338.64 280.77 338.64 281.97 338.64 283.16 338.64 284.36 338.34 285.85 338.34 287.05 338.34 288.24 338.34 289.44 338.04 290.63 338.04 291.83 338.04 293.02 337.74 294.22 337.74 295.11 337.74 296.31 337.74 297.2 337.44 298.4 337.44 299.3 337.44 300.19 337.44 301.09 337.15 301.98 337.15 302.88 337.15 303.48 337.15 304.08 336.85 304.67 336.85 305.27 336.85 305.87 336.55 306.17 336.55 306.47 336.55 306.76 336.55 307.06 336.25 307.36 336.25 307.66 336.25 307.66 335.95"/>
  <polyline class="cls-1" points="272.41 332.96 271.51 332.96 270.62 332.96 270.02 333.26 269.12 333.26 268.53 333.26 267.93 333.56 267.33 333.56 266.73 333.56 266.43 333.86 265.84 333.86 265.54 333.86 265.24 333.86 264.94 334.16 264.64 334.16 264.64 334.46"/>
  <polyline class="cls-1" points="301.98 339.54 301.69 339.54 301.39 339.83 301.09 339.83 300.49 339.83 300.19 340.13 299.89 340.13 299.3 340.13 298.7 340.13 298.4 340.43 297.8 340.43 297.2 340.43 296.61 340.43 295.71 340.73 295.11 340.73 294.52 340.73 293.62 340.73 293.02 341.03 292.13 341.03 291.53 341.03 290.63 341.03 289.74 341.33 288.84 341.33 287.94 341.33 287.35 341.33 286.45 341.63 285.55 341.63 284.66 341.63 283.76 341.63 282.87 341.93 281.97 341.93 281.07 341.93 280.18 341.93 279.28 342.22 278.68 342.22 277.79 342.22 276.89 342.22 275.99 342.52 275.1 342.52 274.5 342.52 273.6 342.52 273.01 342.82 272.41 342.82 271.51 342.82 270.92 342.82 270.32 343.12 269.72 343.12 269.12 343.12 268.53 343.12 268.23 343.42 267.63 343.42 267.03 343.42 266.73 343.42 266.43 343.72 266.14 343.72 265.54 343.72 265.24 344.02 264.94 344.02 264.64 344.02 264.64 344.32"/>
  <polyline class="cls-1" points="301.98 349.39 301.69 349.69 301.39 349.69 301.09 349.69 300.79 349.69 300.49 349.99 300.19 349.99 299.6 349.99 299.3 349.99 298.7 350.29 298.1 350.29 297.5 350.29 296.91 350.29 296.31 350.59 295.71 350.59 295.11 350.59 294.52 350.59 293.62 350.89 293.02 350.89 292.13 350.89 291.23 350.89 290.63 351.19 289.74 351.19 288.84 351.19 287.94 351.19 287.35 351.19 286.45 351.49 285.55 351.49 284.66 351.49 283.76 351.49 282.87 351.78 281.97 351.78 281.07 351.78 280.18 351.78 279.28 352.08 278.68 352.08 277.79 352.08 276.89 352.08 275.99 352.38 275.4 352.38 274.5 352.38 273.9 352.38 273.01 352.68 272.41 352.68 271.81 352.68 270.92 352.68 270.32 352.98 269.72 352.98 269.12 352.98 268.53 352.98 268.23 353.28 267.63 353.28 267.03 353.28 266.73 353.28 266.43 353.58 265.84 353.58 265.54 353.58 265.24 353.58 265.24 353.88 264.94 353.88 264.64 353.88 264.64 354.17"/>
  <polyline class="cls-1" points="301.98 359.25 301.69 359.55 301.39 359.55 301.09 359.55 300.79 359.55 300.49 359.85 300.19 359.85 299.6 359.85 299.3 359.85 298.7 360.15 298.1 360.15 297.5 360.15 296.91 360.15 296.31 360.45 295.71 360.45 295.11 360.45 294.22 360.45 293.62 360.75 293.02 360.75 292.13 360.75 291.23 360.75 290.63 361.05 289.74 361.05 288.84 361.05 288.24 361.05 287.35 361.34 286.45 361.34 285.55 361.34 284.66 361.34 283.76 361.64 282.87 361.64 281.97 361.64 281.07 361.64 280.18 361.94 279.58 361.94 278.68 361.94 277.79 361.94 276.89 362.24 275.99 362.24 275.4 362.24 274.5 362.24 273.9 362.54 273.01 362.54 272.41 362.54 271.81 362.54 270.92 362.84 270.32 362.84 269.72 362.84 269.12 362.84 268.53 362.84 267.93 363.14 267.63 363.14 267.03 363.14 266.73 363.14 266.14 363.44 265.84 363.44 265.54 363.44 265.24 363.44 264.94 363.73 264.64 363.73 264.64 364.03 264.34 364.03"/>
  <polyline class="cls-1" points="301.98 369.11 301.69 369.41 301.39 369.41 301.09 369.41 300.79 369.41 300.49 369.71 300.19 369.71 299.6 369.71 299.3 369.71 298.7 370.01 298.1 370.01 297.5 370.01 296.91 370.01 296.31 370.31 295.71 370.31 295.11 370.31 294.52 370.31 293.62 370.61 293.02 370.61 292.13 370.61 291.53 370.61 290.63 370.9 289.74 370.9 289.14 370.9 288.24 370.9 287.35 371.2 286.45 371.2 285.55 371.2 284.66 371.2 283.76 371.5 282.87 371.5 281.97 371.5 281.07 371.5 280.18 371.8 279.58 371.8 278.68 371.8 277.79 371.8 276.89 372.1 276.29 372.1 275.4 372.1 274.5 372.1 273.9 372.4 273.01 372.4 272.41 372.4 271.51 372.4 270.92 372.7 270.32 372.7 269.72 372.7 269.12 372.7 268.53 373 267.93 373 267.63 373 267.03 373 266.43 373.29 266.14 373.29 265.84 373.29 265.54 373.29 265.24 373.59 264.94 373.59 264.64 373.59 264.64 373.89"/>
  <polyline class="cls-1" points="301.98 378.97 301.69 379.27 301.39 379.27 301.09 379.27 300.79 379.57 300.49 379.57 299.89 379.57 299.6 379.57 299 379.87 298.7 379.87 298.1 379.87 297.5 379.87 296.91 380.17 296.31 380.17 295.71 380.17 295.11 380.17 294.52 380.46 293.62 380.46 293.02 380.46 292.13 380.46 291.53 380.46 290.63 380.76 289.74 380.76 289.14 380.76 288.24 380.76 287.35 381.06 286.45 381.06 285.55 381.06 284.66 381.06 283.76 381.36 282.87 381.36 281.97 381.36 281.07 381.36 280.48 381.66 279.58 381.66 278.68 381.66 277.79 381.66 276.89 381.96 275.99 381.96 275.4 381.96 274.5 381.96 273.6 382.26 273.01 382.26 272.41 382.26 271.51 382.26 270.92 382.56 270.32 382.56 269.72 382.56 269.12 382.56 268.53 382.85 267.93 382.85 267.33 382.85 267.03 382.85 266.43 383.15 266.14 383.15 265.84 383.15 265.54 383.15 265.24 383.45 264.94 383.45 264.64 383.45 264.64 383.75"/>
  <polyline class="cls-1" points="301.69 388.83 301.69 389.13 301.39 389.13 301.09 389.13 300.79 389.43 300.49 389.43 299.89 389.43 299.6 389.43 299.3 389.73 298.7 389.73 298.1 389.73 297.8 389.73 297.2 390.02 296.61 390.02 296.01 390.02 295.11 390.02 294.52 390.32 293.92 390.32 293.02 390.32 292.43 390.32 291.53 390.62 290.63 390.62 289.74 390.62 289.14 390.62 288.24 390.92 287.35 390.92 286.45 390.92 285.55 390.92 284.66 391.22 283.76 391.22 282.87 391.22 281.97 391.22 281.07 391.52 280.18 391.52 279.58 391.52 278.68 391.52 277.79 391.82 276.89 391.82 275.99 391.82 275.4 391.82 274.5 391.82 273.6 392.12 273.01 392.12 272.11 392.12 271.51 392.12 270.92 392.41 270.32 392.41 269.42 392.41 268.82 392.41 268.53 392.71 267.93 392.71 267.33 392.71 267.03 392.71 266.43 393.01 266.14 393.01 265.84 393.01 265.54 393.01 265.24 393.31 264.94 393.31 264.64 393.61"/>
  <polyline class="cls-1" points="301.98 398.69 301.69 398.99 301.39 398.99 301.09 398.99 300.79 399.29 300.49 399.29 300.19 399.29 299.6 399.29 299.3 399.58 298.7 399.58 298.4 399.58 297.8 399.58 297.2 399.88 296.61 399.88 296.01 399.88 295.11 399.88 294.52 400.18 293.92 400.18 293.02 400.18 292.13 400.18 291.53 400.48 290.63 400.48 289.74 400.48 289.14 400.48 288.24 400.78 287.35 400.78 286.45 400.78 285.55 400.78 284.66 401.08 283.76 401.08 282.87 401.08 281.97 401.08 281.07 401.38 280.18 401.38 279.28 401.38 278.68 401.38 277.79 401.68 276.89 401.68 275.99 401.68 275.1 401.68 274.5 401.97 273.6 401.97 273.01 401.97 272.11 401.97 271.51 402.27 270.92 402.27 270.32 402.27 269.72 402.27 269.12 402.57 268.53 402.57 267.93 402.57 267.63 402.57 267.03 402.87 266.73 402.87 266.43 402.87 266.14 402.87 265.84 403.17 265.54 403.17 265.24 403.17 264.94 403.17 264.94 403.47 264.64 403.47"/>
  <polyline class="cls-1" points="301.98 408.85 301.69 408.85 301.39 408.85 301.09 409.14 300.79 409.14 300.49 409.14 300.19 409.14 299.89 409.44 299.3 409.44 299 409.44 298.4 409.44 297.8 409.74 297.2 409.74 296.61 409.74 296.01 409.74 295.11 409.74 294.52 410.04 293.62 410.04 293.02 410.04 292.13 410.04 291.53 410.34 290.63 410.34 289.74 410.34 288.84 410.34 288.24 410.64 287.35 410.64 286.45 410.64 285.55 410.64 284.66 410.94 283.76 410.94 282.87 410.94 281.97 410.94 281.07 411.23 280.18 411.23 279.28 411.23 278.38 411.23 277.79 411.53 276.89 411.53 275.99 411.53 275.1 411.53 274.5 411.83 273.6 411.83 273.01 411.83 272.11 411.83 271.51 412.13 270.92 412.13 270.32 412.13 269.72 412.13 269.12 412.43 268.53 412.43 267.93 412.43 267.63 412.43 267.03 412.73 266.73 412.73 266.43 412.73 266.14 412.73 265.84 413.03 265.54 413.03 265.24 413.03 264.94 413.03 264.94 413.33 264.64 413.33"/>
  <polyline class="cls-1" points="301.98 418.7 301.69 418.7 301.39 418.7 301.39 419 301.09 419 300.49 419 300.19 419 299.89 419.3 299.3 419.3 299 419.3 298.4 419.3 297.8 419.6 297.2 419.6 296.61 419.6 296.01 419.6 295.41 419.6 294.52 419.9 293.92 419.9 293.32 419.9 292.43 419.9 291.83 420.2 290.93 420.2 290.03 420.2 289.44 420.2 288.54 420.5 287.65 420.5 286.75 420.5 285.85 420.5 284.96 420.79 284.36 420.79 283.46 420.79 282.57 420.79 281.67 421.09 280.77 421.09 279.88 421.09 278.98 421.09 278.38 421.39 277.49 421.39 276.59 421.39 275.7 421.39 275.1 421.69 274.2 421.69 273.6 421.69 272.71 421.69 272.11 421.99 271.51 421.99 270.92 421.99 270.02 421.99 269.42 421.99 269.12 422.29 268.53 422.29 267.93 422.29 267.33 422.29 267.03 422.59 266.73 422.59 266.14 422.59 265.84 422.59 265.54 422.89 265.24 422.89 264.94 422.89 264.64 423.18"/>
  <polyline class="cls-1" points="228.79 156.4 228.79 156.7 229.09 156.7 229.09 157.3 229.09 157.6 229.09 158.2 229.09 158.5 229.39 159.39 229.39 159.99 229.69 160.59 229.69 161.48 229.99 162.08 230.29 162.98 230.58 163.87 230.88 164.47 231.18 165.37 231.18 165.96 231.18 166.26 231.18 166.86 231.18 167.46 230.88 167.76 230.88 168.35 230.88 168.65 230.88 168.95 230.88 169.25 230.88 169.55 230.88 169.85 230.88 170.15 230.88 170.45"/>
  <polyline class="cls-1" points="336.04 165.37 335.44 165.37 333.95 165.37 331.26 165.37 327.68 165.37 323.2 165.37 317.82 165.37 311.54 165.37 304.97 165.37 297.8 165.37 290.63 165.37 283.16 165.37 275.4 165.37 268.23 165.37 261.06 165.37 254.48 165.37 248.51 165.37 243.13 165.37 238.65 165.37 235.36 165.37 232.68 165.37 231.18 165.37"/>
  <polyline class="cls-1" points="327.68 140.87 327.38 140.87 325.59 140.87 322.9 140.87 319.31 140.87 314.83 140.87 309.45 140.87 303.48 140.87 297.2 140.87 290.33 140.87 283.46 140.87 276.29 140.87 269.72 140.87 263.15 140.87 257.17 140.87 252.09 140.87 247.31 140.87 243.73 140.87 241.04 140.87 239.55 140.87 238.95 140.87"/>
  <polyline class="cls-1" points="317.22 329.98 316.62 329.98 315.13 329.98 312.74 329.98 309.45 329.98 305.27 329.98 300.19 329.98 295.11 329.98 289.14 329.98 283.46 329.98 277.49 329.98 271.81 329.98 266.43 329.98 261.65 329.98 257.47 329.98 254.19 329.98 251.5 329.98 250 329.98 249.41 329.98"/>
  <polyline class="cls-1" points="252.39 332.96 252.99 332.96 254.78 332.96 257.47 332.96 261.36 332.96 266.14 332.96 271.51 332.96 277.19 332.96 283.46 332.96 289.44 332.96 295.41 332.96 300.49 332.96 305.27 332.96 309.15 332.96 312.14 332.96 313.93 332.96 314.53 332.96"/>
  <polyline class="cls-1" points="324.69 283.07 324.09 283.07 322 283.07 319.01 283.07 314.83 283.07 309.75 283.07 304.08 283.07 297.5 283.07 290.63 283.07 283.46 283.07 276.29 283.07 269.42 283.07 262.85 283.07 256.87 283.07 251.8 283.07 247.61 283.07 244.63 283.07 242.83 283.07 242.24 283.07"/>
  <polyline class="cls-1" points="235.96 276.5 237.75 276.5 240.74 276.5 244.63 276.5 249.41 276.5 255.08 276.5 261.65 276.5 268.53 276.5 275.99 276.5 283.46 276.5 290.93 276.5 298.1 276.5 305.27 276.5 311.54 276.5 317.22 276.5 322.3 276.5 326.18 276.5 329.17 276.5 330.66 276.5"/>
  <polyline class="cls-1" points="230.88 271.72 231.18 271.72 232.97 271.72 235.36 271.72 238.95 271.72 243.73 271.72 248.81 271.72 254.78 271.72 261.65 271.72 268.53 271.72 275.99 271.72 283.46 271.72 290.93 271.72 298.1 271.72 305.27 271.72 311.84 271.72 317.82 271.72 323.2 271.72 327.68 271.72 331.26 271.72 333.95 271.72 335.44 271.72 336.04 271.72"/>
  <line class="cls-1" x1="267.33" y1="426.17" x2="259.56" y2="418.11"/>
  <line class="cls-1" x1="299.6" y1="426.17" x2="304.08" y2="421.39"/>
  <line class="cls-1" x1="259.56" y1="418.11" x2="264.64" y2="415.12"/>
  <line class="cls-1" x1="258.97" y1="339.54" x2="264.64" y2="335.95"/>
  <line class="cls-1" x1="258.97" y1="349.39" x2="264.64" y2="346.11"/>
  <line class="cls-1" x1="258.97" y1="359.25" x2="264.64" y2="355.97"/>
  <line class="cls-1" x1="258.97" y1="369.11" x2="264.64" y2="365.83"/>
  <line class="cls-1" x1="258.97" y1="378.97" x2="264.64" y2="375.68"/>
  <line class="cls-1" x1="258.97" y1="388.83" x2="264.64" y2="385.54"/>
  <line class="cls-1" x1="258.97" y1="398.69" x2="264.64" y2="395.4"/>
  <line class="cls-1" x1="258.97" y1="408.55" x2="264.64" y2="405.26"/>
  <line class="cls-1" x1="304.97" y1="332.96" x2="307.66" y2="334.46"/>
  <line class="cls-1" x1="302.28" y1="341.03" x2="307.66" y2="344.32"/>
  <line class="cls-1" x1="302.28" y1="350.89" x2="307.66" y2="354.17"/>
  <line class="cls-1" x1="302.28" y1="361.05" x2="307.66" y2="364.03"/>
  <line class="cls-1" x1="302.28" y1="370.9" x2="307.66" y2="373.89"/>
  <line class="cls-1" x1="302.28" y1="380.76" x2="307.66" y2="383.75"/>
  <line class="cls-1" x1="302.28" y1="390.62" x2="307.66" y2="393.61"/>
  <line class="cls-1" x1="302.28" y1="400.48" x2="307.66" y2="403.77"/>
  <line class="cls-1" x1="302.28" y1="410.34" x2="307.66" y2="413.62"/>
  <line class="cls-1" x1="302.28" y1="420.2" x2="304.08" y2="421.39"/>
  <line class="cls-1" x1="307.96" y1="334.76" x2="307.96" y2="335.95"/>
  <line class="cls-1" x1="307.96" y1="344.61" x2="307.96" y2="345.81"/>
  <line class="cls-1" x1="307.96" y1="354.47" x2="307.96" y2="355.67"/>
  <line class="cls-1" x1="307.96" y1="364.33" x2="307.96" y2="365.83"/>
  <line class="cls-1" x1="307.96" y1="374.19" x2="307.96" y2="375.68"/>
  <line class="cls-1" x1="307.96" y1="384.05" x2="307.96" y2="385.54"/>
  <line class="cls-1" x1="307.96" y1="393.91" x2="307.96" y2="395.4"/>
  <line class="cls-1" x1="307.96" y1="403.77" x2="307.96" y2="405.26"/>
  <line class="cls-1" x1="307.96" y1="413.62" x2="307.96" y2="415.12"/>
  <line class="cls-1" x1="258.97" y1="339.54" x2="258.97" y2="341.03"/>
  <line class="cls-1" x1="258.97" y1="349.39" x2="258.97" y2="350.89"/>
  <line class="cls-1" x1="258.97" y1="359.25" x2="258.97" y2="360.75"/>
  <line class="cls-1" x1="258.97" y1="369.11" x2="258.97" y2="370.61"/>
  <line class="cls-1" x1="258.97" y1="378.97" x2="258.97" y2="380.46"/>
  <line class="cls-1" x1="258.97" y1="389.13" x2="258.97" y2="390.32"/>
  <line class="cls-1" x1="258.97" y1="398.99" x2="258.97" y2="400.18"/>
  <line class="cls-1" x1="258.97" y1="408.85" x2="258.97" y2="410.04"/>
  <line class="cls-1" x1="302.28" y1="339.54" x2="302.28" y2="341.33"/>
  <line class="cls-1" x1="302.28" y1="349.39" x2="302.28" y2="351.19"/>
  <line class="cls-1" x1="302.28" y1="359.25" x2="302.28" y2="361.05"/>
  <line class="cls-1" x1="302.28" y1="369.11" x2="302.28" y2="370.9"/>
  <line class="cls-1" x1="302.28" y1="378.97" x2="302.28" y2="380.76"/>
  <line class="cls-1" x1="302.28" y1="388.83" x2="302.28" y2="390.62"/>
  <line class="cls-1" x1="302.28" y1="398.69" x2="302.28" y2="400.48"/>
  <line class="cls-1" x1="302.28" y1="408.55" x2="302.28" y2="410.34"/>
  <line class="cls-1" x1="302.28" y1="418.4" x2="302.28" y2="420.2"/>
  <line class="cls-1" x1="264.34" y1="334.46" x2="264.34" y2="336.25"/>
  <line class="cls-1" x1="264.34" y1="344.32" x2="264.34" y2="346.11"/>
  <line class="cls-1" x1="264.34" y1="354.17" x2="264.34" y2="355.97"/>
  <line class="cls-1" x1="264.34" y1="364.03" x2="264.34" y2="365.83"/>
  <line class="cls-1" x1="264.34" y1="373.89" x2="264.34" y2="375.68"/>
  <line class="cls-1" x1="264.34" y1="383.75" x2="264.34" y2="385.54"/>
  <line class="cls-1" x1="264.34" y1="393.61" x2="264.34" y2="395.4"/>
  <line class="cls-1" x1="264.34" y1="403.47" x2="264.34" y2="405.26"/>
  <line class="cls-1" x1="264.34" y1="413.33" x2="264.34" y2="415.12"/>
  <line class="cls-1" x1="264.34" y1="334.46" x2="261.65" y2="332.96"/>
  <line class="cls-1" x1="264.34" y1="344.32" x2="258.97" y2="341.03"/>
  <line class="cls-1" x1="264.34" y1="354.17" x2="258.97" y2="351.19"/>
  <line class="cls-1" x1="264.34" y1="364.03" x2="258.97" y2="361.05"/>
  <line class="cls-1" x1="264.34" y1="373.89" x2="258.97" y2="370.9"/>
  <line class="cls-1" x1="264.34" y1="383.75" x2="258.97" y2="380.76"/>
  <line class="cls-1" x1="264.34" y1="393.91" x2="258.97" y2="390.62"/>
  <line class="cls-1" x1="264.34" y1="403.77" x2="258.97" y2="400.48"/>
  <line class="cls-1" x1="264.34" y1="413.62" x2="258.97" y2="410.34"/>
  <line class="cls-1" x1="307.66" y1="415.42" x2="301.98" y2="418.7"/>
  <line class="cls-1" x1="307.66" y1="405.26" x2="301.98" y2="408.85"/>
  <line class="cls-1" x1="307.66" y1="395.4" x2="301.98" y2="398.69"/>
  <line class="cls-1" x1="307.66" y1="385.54" x2="301.98" y2="388.83"/>
  <line class="cls-1" x1="307.66" y1="375.68" x2="301.98" y2="378.97"/>
  <line class="cls-1" x1="307.66" y1="365.83" x2="301.98" y2="369.11"/>
  <line class="cls-1" x1="307.66" y1="355.97" x2="301.98" y2="359.25"/>
  <line class="cls-1" x1="307.66" y1="346.11" x2="301.98" y2="349.39"/>
  <line class="cls-1" x1="307.66" y1="336.25" x2="301.98" y2="339.54"/>
  <path class="cls-1" d="m239.17,140.76c-5.91,2.99-9.75,8.93-10.06,15.55"/>
  <path class="cls-1" d="m336.3,165.16c4.37-9.02.7-19.88-8.24-24.4"/>
  <line class="cls-1" x1="252.39" y1="332.96" x2="249.41" y2="329.98"/>
  <polyline class="cls-1" points="314.53 332.96 317.22 329.98 317.22 283.07"/>
  <line class="cls-1" x1="249.41" y1="283.07" x2="249.41" y2="329.98"/>
  <line class="cls-1" x1="242.24" y1="283.07" x2="235.36" y2="276.5"/>
  <line class="cls-1" x1="324.69" y1="283.07" x2="331.26" y2="276.5"/>
  <line class="cls-1" x1="336.04" y1="165.37" x2="336.04" y2="271.72"/>
  <polyline class="cls-1" points="230.88 170.45 230.88 271.72 235.36 276.5"/>
  <line class="cls-1" x1="331.26" y1="276.5" x2="336.04" y2="271.72"/>
</svg>