<?xml version="1.0" encoding="UTF-8"?>
<svg id="Layer_1" data-name="Layer 1" xmlns="http://www.w3.org/2000/svg" viewBox="0 0 566.93 566.93">
  <defs>
    <style>
      .cls-1 {
        fill: none;
        stroke: #000;
        stroke-linecap: round;
        stroke-linejoin: round;
      }
    </style>
  </defs>
  <polyline class="cls-1" points="249.46 410.58 250.05 410.58 251.55 410.58 253.94 410.58 257.52 410.58 261.7 410.58 266.48 410.58 271.86 410.58 277.54 410.58 283.21 410.58 289.19 410.58 294.86 410.58 300.24 410.58 305.02 410.58 309.2 410.58 312.49 410.58 315.18 410.58 316.67 410.58 316.97 410.58"/>
  <polyline class="cls-1" points="242.29 191 242.29 191.3 242.29 191.6 242.29 191.9 242.29 192.2 242.29 192.5 242.29 193.09 242.29 193.39 242.29 193.69 242.29 194.29 242.29 194.89 242.29 195.48 242.29 196.08 242.29 196.68 242.29 197.28 242.29 198.17 242.29 199.07 242.29 199.67 242.29 200.56 242.29 201.46 242.29 202.36 242.29 203.55 242.29 204.45 242.29 205.64 242.29 206.84 242.29 207.73 242.29 208.93 242.29 210.42 242.29 211.62 242.29 212.81 242.29 214.3 242.29 215.8 242.29 217.29 242.29 218.79 242.29 220.28 242.29 222.07 242.29 223.57 242.29 225.36 242.29 227.15 242.29 228.94 242.29 230.74 242.29 232.53 242.29 234.62 242.29 236.41 242.29 238.5 242.29 240.59 242.29 242.98 242.29 245.08 242.29 247.47 242.29 249.56 242.29 251.95 242.29 254.34 242.29 257.03 242.29 259.42 242.29 262.1 242.29 264.79 242.29 267.48 242.29 270.17 242.29 273.16 242.29 275.85 242.29 278.83 242.29 279.43 242.29 279.73 242.29 280.33 242.29 280.63 242.29 280.93 242.29 281.52 242.29 281.82 242.29 282.42 242.29 285.41 242.29 288.39 242.29 291.68 242.29 294.67 242.29 325.44 238.7 325.44 236.01 325.44 234.52 325.44 233.92 325.44"/>
  <polyline class="cls-1" points="332.81 294.67 332.21 294.67 330.12 294.67 327.13 294.67 322.95 294.67 317.87 294.67 311.89 294.67 305.02 294.67 297.85 294.67 290.08 294.67 282.32 294.67 274.55 294.67 266.78 294.67 259.61 294.67 253.04 294.67 247.36 294.67 242.29 294.67"/>
  <polyline class="cls-1" points="324.44 360.69 323.84 360.69 322.05 360.69 319.06 360.69 314.88 360.69 309.8 360.69 303.83 360.69 297.25 360.69 290.38 360.69 283.21 360.69 276.04 360.69 269.17 360.69 262.6 360.69 256.92 360.69 251.84 360.69 247.66 360.69 244.68 360.69 242.58 360.69 241.99 360.69"/>
  <polyline class="cls-1" points="236.01 354.12 237.8 354.12 240.49 354.12 244.38 354.12 249.46 354.12 255.13 354.12 261.4 354.12 268.57 354.12 275.74 354.12 283.21 354.12 290.68 354.12 298.15 354.12 305.02 354.12 311.59 354.12 317.27 354.12 322.05 354.12 325.93 354.12 328.92 354.12 330.71 354.12"/>
  <polyline class="cls-1" points="343.26 325.74 342.66 325.74 340.87 325.74 337.88 325.74 333.7 325.74 328.62 325.74 322.65 325.74 315.78 325.74 308.31 325.74 300.24 325.74 291.88 325.74 283.21 325.74 274.85 325.74 266.48 325.74 258.42 325.74 250.95 325.74 244.08 325.74 238.1 325.74 232.73 325.74 228.84 325.74 225.85 325.74 224.06 325.74 223.46 325.74"/>
  <polyline class="cls-1" points="331.61 282.42 331.01 282.42 329.22 282.42 326.23 282.42 322.05 282.42 316.97 282.42 310.7 282.42 304.13 282.42 296.66 282.42 289.19 282.42 281.42 282.42 273.65 282.42 266.18 282.42 259.01 282.42 252.74 282.42 247.07 282.42 242.29 282.42"/>
  <polyline class="cls-1" points="343.26 328.72 342.66 328.72 340.87 328.72 337.88 328.72 333.7 328.72 328.62 328.72 322.65 328.72 315.78 328.72 308.31 328.72 300.24 328.72 291.88 328.72 283.21 328.72 274.85 328.72 266.48 328.72 258.42 328.72 250.95 328.72 244.08 328.72 238.1 328.72 232.73 328.72 228.84 328.72 225.85 328.72 224.06 328.72 223.46 328.72"/>
  <polyline class="cls-1" points="333.4 348.44 331.61 348.44 328.62 348.44 324.44 348.44 319.36 348.44 313.09 348.44 306.52 348.44 299.05 348.44 291.28 348.44 283.21 348.44 275.45 348.44 267.68 348.44 260.21 348.44 253.34 348.44 247.36 348.44 242.29 348.44 238.1 348.44 235.12 348.44 233.02 348.44"/>
  <polyline class="cls-1" points="321.45 156.35 320.86 156.35 319.06 156.35 316.37 156.35 312.49 156.35 307.71 156.35 302.33 156.35 296.36 156.35 289.79 156.35 283.21 156.35 276.64 156.35 270.37 156.35 264.39 156.35 258.72 156.35 254.23 156.35 250.35 156.35 247.36 156.35 245.87 156.35 245.27 156.35"/>
  <polyline class="cls-1" points="331.31 278.83 330.71 278.83 328.92 278.83 325.93 278.83 321.75 278.83 316.37 278.83 310.4 278.83 303.83 278.83 296.36 278.83 288.89 278.83 281.12 278.83 273.35 278.83 265.89 278.83 259.01 278.83 252.44 278.83 247.07 278.83 242.29 278.83"/>
  <polyline class="cls-1" points="328.32 280.63 328.03 280.63 326.23 280.63 323.54 280.63 319.66 280.63 314.88 280.63 309.5 280.63 303.23 280.63 296.66 280.63 289.49 280.63 282.32 280.63 275.15 280.63 268.28 280.63 261.7 280.63 255.73 280.63 250.35 280.63 245.87 280.63 242.29 280.63"/>
  <polyline class="cls-1" points="232.43 351.13 233.02 351.13 235.12 351.13 238.1 351.13 242.29 351.13 247.36 351.13 253.34 351.13 260.21 351.13 267.68 351.13 275.45 351.13 283.21 351.13 291.28 351.13 299.05 351.13 306.52 351.13 313.09 351.13 319.36 351.13 324.44 351.13 328.62 351.13 331.61 351.13 333.4 351.13 334 351.13"/>
  <polyline class="cls-1" points="284.71 361.59 290.98 361.59 296.96 361.59 302.63 361.59 308.01 361.59 312.49 361.59 316.08 361.59"/>
  <polyline class="cls-1" points="317.57 361.59 319.96 361.59 321.45 361.59 322.05 361.59"/>
  <polyline class="cls-1" points="244.68 361.59 244.97 361.59 246.77 361.59 249.16 361.59"/>
  <polyline class="cls-1" points="282.02 405.5 280.82 406.1 279.93 406.7 278.73 407.29 277.84 407.59 276.64 407.89 275.74 408.49 274.85 408.79 273.65 409.09 272.76 409.39 271.86 409.39 270.96 409.68 270.07 409.98 268.87 409.98 267.98 409.98 267.08 409.98 266.18 409.98 265.29 409.98 264.39 409.98 263.5 409.98 262.6 409.98 261.7 409.68 260.51 409.39 259.61 409.39 258.72 409.09 257.82 408.79 256.62 408.49 255.73 407.89 254.83 407.59 253.64 407.29 252.74 406.7 251.55 406.1 250.35 405.5 250.35 361.59 254.23 361.59 258.72 361.59 263.79 361.59 269.77 361.59 275.74 361.59 282.02 361.59 282.02 405.5"/>
  <polyline class="cls-1" points="249.16 361.59 249.16 405.5 249.16 406.1 249.16 406.7 249.16 407.29 249.16 407.59 249.16 407.89 249.16 408.49 249.16 408.79 249.16 409.09 249.16 409.39 249.16 409.68 249.16 409.98"/>
  <polyline class="cls-1" points="317.57 409.98 317.57 409.68 317.57 409.39 317.57 409.09 317.57 408.79 317.57 408.49 317.57 407.89 317.57 407.59 317.57 407.29 317.57 406.7 317.57 406.1 317.57 405.5 317.57 361.59"/>
  <polyline class="cls-1" points="316.08 361.59 316.08 405.5 315.18 406.1 313.98 406.7 313.09 407.29 311.89 407.59 311 407.89 309.8 408.49 308.91 408.79 308.01 409.09 306.81 409.39 305.92 409.39 305.02 409.68 304.13 409.98 303.23 409.98 302.33 409.98 301.44 409.98 300.24 409.98 299.35 409.98 298.45 409.98 297.55 409.98 296.66 409.98 295.76 409.68 294.86 409.39 293.67 409.39 292.77 409.09 291.88 408.79 290.98 408.49 289.79 407.89 288.89 407.59 287.69 407.29 286.8 406.7 285.6 406.1 284.71 405.5 284.71 361.59"/>
  <line class="cls-1" x1="284.71" y1="405.5" x2="282.02" y2="405.5"/>
  <line class="cls-1" x1="317.57" y1="405.5" x2="316.08" y2="405.5"/>
  <line class="cls-1" x1="250.35" y1="405.5" x2="249.16" y2="405.5"/>
  <line class="cls-1" x1="332.81" y1="294.67" x2="332.81" y2="325.74"/>
  <line class="cls-1" x1="233.92" y1="325.44" x2="233.92" y2="325.74"/>
  <line class="cls-1" x1="241.99" y1="360.69" x2="235.41" y2="354.12"/>
  <line class="cls-1" x1="324.44" y1="360.69" x2="331.31" y2="354.12"/>
  <line class="cls-1" x1="331.61" y1="282.42" x2="332.81" y2="294.67"/>
  <line class="cls-1" x1="343.26" y1="325.74" x2="343.26" y2="328.72"/>
  <line class="cls-1" x1="223.46" y1="325.74" x2="223.46" y2="328.72"/>
  <path class="cls-1" d="m232.73,348.29c0-7.61-3.35-14.83-9.17-19.74"/>
  <path class="cls-1" d="m343.46,328.55c-5.81,4.91-9.17,12.13-9.17,19.74"/>
  <line class="cls-1" x1="321.45" y1="156.35" x2="331.31" y2="278.83"/>
  <line class="cls-1" x1="245.27" y1="156.35" x2="242.29" y2="191"/>
  <polyline class="cls-1" points="331.61 282.42 328.32 280.63 331.31 278.83"/>
  <line class="cls-1" x1="334" y1="348.44" x2="334" y2="351.13"/>
  <line class="cls-1" x1="232.43" y1="348.44" x2="232.43" y2="351.13"/>
  <line class="cls-1" x1="322.05" y1="360.69" x2="322.05" y2="361.59"/>
  <line class="cls-1" x1="244.68" y1="360.69" x2="244.68" y2="361.59"/>
  <line class="cls-1" x1="249.46" y1="410.58" x2="249.16" y2="409.98"/>
  <line class="cls-1" x1="316.97" y1="410.58" x2="317.57" y2="409.98"/>
  <line class="cls-1" x1="235.41" y1="354.12" x2="232.43" y2="351.13"/>
  <line class="cls-1" x1="331.31" y1="354.12" x2="334" y2="351.13"/>
</svg>