<?xml version="1.0" encoding="UTF-8"?>
<svg id="Layer_1" data-name="Layer 1" xmlns="http://www.w3.org/2000/svg" viewBox="0 0 566.93 566.93">
  <defs>
    <style>
      .cls-1 {
        fill: none;
        stroke: #000;
        stroke-linecap: round;
        stroke-linejoin: round;
      }
    </style>
  </defs>
  <polyline class="cls-1" points="249.34 403.41 252.33 403.41 256.81 403.41 275.93 403.41 283.4 403.41 290.87 403.41 309.98 403.41 314.47 403.41 317.45 403.41"/>
  <polyline class="cls-1" points="223.35 321.55 223.95 321.55 225.74 321.55 228.73 321.55 232.91 321.55 237.99 321.55 243.96 321.55 250.83 321.55 258.3 321.55 266.37 321.55 274.73 321.55 283.4 321.55 291.76 321.55 300.13 321.55 308.19 321.55 315.66 321.55 322.53 321.55 328.81 321.55 333.88 321.55 338.07 321.55 341.05 321.55 342.85 321.55 343.44 321.55"/>
  <polyline class="cls-1" points="332.69 359.79 332.09 359.79 330.3 359.79 327.31 359.79 323.43 359.79 318.35 359.79 312.37 359.79 305.8 359.79 298.63 359.79 291.16 359.79 283.4 359.79 275.63 359.79 268.16 359.79 260.99 359.79 254.42 359.79 248.44 359.79 243.36 359.79 239.48 359.79 236.49 359.79 234.7 359.79 234.1 359.79"/>
  <polyline class="cls-1" points="324.62 367.86 324.03 367.86 322.23 367.86 318.95 367.86 315.06 367.86 309.98 367.86 304.01 367.86 297.44 367.86 290.57 367.86 283.4 367.86 276.23 367.86 269.36 367.86 262.78 367.86 256.81 367.86 251.73 367.86 247.55 367.86 244.56 367.86 242.77 367.86 242.17 367.86"/>
  <polyline class="cls-1" points="235.9 361.29 237.69 361.29 240.68 361.29 244.56 361.29 249.34 361.29 255.02 361.29 261.59 361.29 268.46 361.29 275.93 361.29 283.4 361.29 290.87 361.29 298.33 361.29 305.2 361.29 311.48 361.29 317.15 361.29 322.23 361.29 326.12 361.29 329.1 361.29 330.9 361.29"/>
  <polyline class="cls-1" points="317.45 403.41 317.45 403.11 317.45 402.22 317.45 401.62 317.45 400.72 317.45 367.86"/>
  <line class="cls-1" x1="316.26" y1="367.86" x2="316.26" y2="400.72"/>
  <polyline class="cls-1" points="290.87 403.41 289.37 403.11 287.88 402.22 286.09 401.62 284.59 400.72 284.59 367.86"/>
  <polyline class="cls-1" points="316.26 400.72 314.76 401.62 312.97 402.22 311.48 403.11 309.98 403.41"/>
  <polyline class="cls-1" points="256.81 403.41 255.31 403.11 253.52 402.22 252.03 401.62 250.53 400.72 250.53 367.86"/>
  <polyline class="cls-1" points="282.2 367.86 282.2 400.72 280.41 401.62 278.92 402.22 277.42 403.11 275.93 403.41"/>
  <polyline class="cls-1" points="249.34 367.86 249.34 400.72 249.34 401.62 249.34 402.22 249.34 403.11 249.34 403.41"/>
  <line class="cls-1" x1="317.45" y1="400.72" x2="316.26" y2="400.72"/>
  <line class="cls-1" x1="284.59" y1="400.72" x2="282.2" y2="400.72"/>
  <line class="cls-1" x1="250.53" y1="400.72" x2="249.34" y2="400.72"/>
  <polyline class="cls-1" points="321.34 163.52 321.04 163.52 319.25 163.52 316.26 163.52 312.67 163.52 307.89 163.52 302.52 163.52 296.54 163.52 289.97 163.52 283.4 163.52 276.82 163.52 270.25 163.52 264.28 163.52 258.9 163.52 254.12 163.52 250.24 163.52 247.55 163.52 245.75 163.52 245.16 163.52"/>
  <polyline class="cls-1" points="343.44 318.87 342.85 318.87 341.05 318.87 338.07 318.87 333.88 318.87 328.81 318.87 322.53 318.87 315.66 318.87 308.19 318.87 300.13 318.87 291.76 318.87 283.4 318.87 274.73 318.87 266.37 318.87 258.3 318.87 250.83 318.87 243.96 318.87 237.99 318.87 232.91 318.87 228.73 318.87 225.74 318.87 223.95 318.87 223.35 318.87"/>
  <polyline class="cls-1" points="326.42 304.82 325.82 304.82 324.32 304.82 321.64 304.82 318.05 304.82 313.87 304.82 308.79 304.82 302.81 304.82 296.54 304.82 289.97 304.82 283.4 304.82 276.53 304.82 269.95 304.82 263.68 304.82 258 304.82 252.92 304.82 248.44 304.82 245.16 304.82 242.47 304.82 240.97 304.82 240.38 304.82"/>
  <polyline class="cls-1" points="237.39 307.51 237.99 307.51 239.78 307.51 242.47 307.51 246.35 307.51 250.83 307.51 256.51 307.51 262.48 307.51 269.06 307.51 276.23 307.51 283.4 307.51 290.57 307.51 297.44 307.51 304.31 307.51 310.28 307.51 315.66 307.51 320.44 307.51 324.32 307.51 327.01 307.51 328.81 307.51 329.1 307.51"/>
  <polyline class="cls-1" points="245.16 163.52 245.16 163.82 245.16 164.12 245.16 164.71 245.16 165.01 245.16 165.61 245.16 166.51 245.16 186.22 245.16 186.82 245.16 187.12 245.16 216.99 245.16 217.59 245.16 218.19 245.16 218.49 245.16 218.79 245.16 219.08 245.16 219.38 245.16 219.68 245.16 219.98 245.16 220.28 245.16 220.58 245.16 220.88 245.16 221.18 245.16 221.47 245.16 222.07 245.16 222.37 245.16 222.97 245.16 231.33 245.16 231.63 245.16 232.23 245.16 232.53 245.16 232.83 245.16 233.13 245.16 233.42 245.16 233.72 245.16 234.02 245.16 234.32 245.16 234.62 245.16 234.92 245.16 235.22 245.16 235.81 245.16 236.11 245.16 236.41 245.16 237.01 245.16 245.37 245.16 245.97 245.16 246.27 245.16 246.57 245.16 247.17 245.16 247.47 245.16 247.76 245.16 248.06 245.16 248.36 245.16 248.66 245.16 248.96 245.16 249.26 245.16 249.56 245.16 249.86 245.16 250.15 245.16 250.75 245.16 251.05 245.16 259.42 245.16 260.01 245.16 260.31 245.16 260.91 245.16 261.21 245.16 261.51 245.16 261.81 245.16 262.1 245.16 262.4 245.16 262.7 245.16 263 245.16 263.3 245.16 263.6 245.16 263.9 245.16 264.2 245.16 264.79 245.16 265.39 245.16 273.46 245.16 274.05 245.16 274.65 245.16 274.95 245.16 275.25 245.16 275.55 245.16 275.85 245.16 276.15 245.16 276.44 245.16 276.74 245.16 277.04 245.16 277.34 245.16 277.64 245.16 277.94 245.16 278.54 245.16 278.83 245.16 279.43 245.16 287.8 245.16 288.1 245.16 288.69 245.16 288.99 245.16 289.29 245.16 289.59 245.16 289.89 245.16 290.19 245.16 290.49 245.16 290.78 245.16 291.08 245.16 291.38 245.16 291.68 245.16 292.28 245.16 292.58 245.16 292.88 245.16 293.47 245.16 304.82"/>
  <polyline class="cls-1" points="325.82 222.97 325.22 222.97 323.73 222.97 321.04 222.97 317.45 222.97 313.27 222.97 307.89 222.97 302.22 222.97 295.94 222.97 289.67 222.97 282.8 222.97 276.23 222.97 269.65 222.97 263.68 222.97 258 222.97 252.92 222.97 248.74 222.97 245.16 222.97"/>
  <polyline class="cls-1" points="321.34 220.28 319.84 220.28 317.45 220.28 313.87 220.28 309.39 220.28 304.31 220.28 298.63 220.28 292.36 220.28 285.79 220.28 279.51 220.28 272.94 220.28 266.97 220.28 261.29 220.28 256.21 220.28 252.03 220.28 248.74 220.28 246.35 220.28"/>
  <polyline class="cls-1" points="321.34 219.68 319.84 219.68 317.45 219.68 313.87 219.68 309.39 219.68 304.31 219.68 298.63 219.68 292.36 219.68 285.79 219.68 279.51 219.68 272.94 219.68 266.97 219.68 261.29 219.68 256.21 219.68 252.03 219.68 248.74 219.68 246.35 219.68"/>
  <polyline class="cls-1" points="245.16 216.99 248.74 216.99 252.92 216.99 258 216.99 263.68 216.99 269.65 216.99 276.23 216.99 282.8 216.99 289.67 216.99 295.94 216.99 302.22 216.99 307.89 216.99 313.27 216.99 317.45 216.99 321.04 216.99 323.73 216.99 325.22 216.99 325.82 216.99"/>
  <polyline class="cls-1" points="325.82 187.12 325.22 187.12 323.73 187.12 321.04 187.12 317.45 187.12 313.27 187.12 307.89 187.12 302.22 187.12 295.94 187.12 289.67 187.12 282.8 187.12 276.23 187.12 269.65 187.12 263.68 187.12 258 187.12 252.92 187.12 248.74 187.12 245.16 187.12"/>
  <polyline class="cls-1" points="325.82 237.01 325.22 237.01 323.73 237.01 321.04 237.01 317.45 237.01 313.27 237.01 307.89 237.01 302.22 237.01 295.94 237.01 289.67 237.01 282.8 237.01 276.23 237.01 269.65 237.01 263.68 237.01 258 237.01 252.92 237.01 248.74 237.01 245.16 237.01"/>
  <polyline class="cls-1" points="321.34 234.32 319.84 234.32 317.45 234.32 313.87 234.32 309.39 234.32 304.31 234.32 298.63 234.32 292.36 234.32 285.79 234.32 279.51 234.32 272.94 234.32 266.97 234.32 261.29 234.32 256.21 234.32 252.03 234.32 248.74 234.32 246.35 234.32"/>
  <polyline class="cls-1" points="321.34 234.02 319.84 234.02 317.45 234.02 313.87 234.02 309.39 234.02 304.31 234.02 298.63 234.02 292.36 234.02 285.79 234.02 279.51 234.02 272.94 234.02 266.97 234.02 261.29 234.02 256.21 234.02 252.03 234.02 248.74 234.02 246.35 234.02"/>
  <polyline class="cls-1" points="245.16 231.33 248.74 231.33 252.92 231.33 258 231.33 263.68 231.33 269.65 231.33 276.23 231.33 282.8 231.33 289.67 231.33 295.94 231.33 302.22 231.33 307.89 231.33 313.27 231.33 317.45 231.33 321.04 231.33 323.73 231.33 325.22 231.33 325.82 231.33"/>
  <polyline class="cls-1" points="325.82 251.05 325.22 251.05 323.73 251.05 321.04 251.05 317.45 251.05 313.27 251.05 307.89 251.05 302.22 251.05 295.94 251.05 289.67 251.05 282.8 251.05 276.23 251.05 269.65 251.05 263.68 251.05 258 251.05 252.92 251.05 248.74 251.05 245.16 251.05"/>
  <polyline class="cls-1" points="321.34 248.36 319.84 248.36 317.45 248.36 313.87 248.36 309.39 248.36 304.31 248.36 298.63 248.36 292.36 248.36 285.79 248.36 279.51 248.36 272.94 248.36 266.97 248.36 261.29 248.36 256.21 248.36 252.03 248.36 248.74 248.36 246.35 248.36"/>
  <polyline class="cls-1" points="321.34 248.06 319.84 248.06 317.45 248.06 313.87 248.06 309.39 248.06 304.31 248.06 298.63 248.06 292.36 248.06 285.79 248.06 279.51 248.06 272.94 248.06 266.97 248.06 261.29 248.06 256.21 248.06 252.03 248.06 248.74 248.06 246.35 248.06"/>
  <polyline class="cls-1" points="245.16 245.37 248.74 245.37 252.92 245.37 258 245.37 263.68 245.37 269.65 245.37 276.23 245.37 282.8 245.37 289.67 245.37 295.94 245.37 302.22 245.37 307.89 245.37 313.27 245.37 317.45 245.37 321.04 245.37 323.73 245.37 325.22 245.37 325.82 245.37"/>
  <polyline class="cls-1" points="325.82 265.39 325.22 265.39 323.73 265.39 321.04 265.39 317.45 265.39 313.27 265.39 307.89 265.39 302.22 265.39 295.94 265.39 289.67 265.39 282.8 265.39 276.23 265.39 269.65 265.39 263.68 265.39 258 265.39 252.92 265.39 248.74 265.39 245.16 265.39"/>
  <polyline class="cls-1" points="321.34 262.7 319.84 262.7 317.45 262.7 313.87 262.7 309.39 262.7 304.31 262.7 298.63 262.7 292.36 262.7 285.79 262.7 279.51 262.7 272.94 262.7 266.97 262.7 261.29 262.7 256.21 262.7 252.03 262.7 248.74 262.7 246.35 262.7"/>
  <polyline class="cls-1" points="321.34 262.1 319.84 262.1 317.45 262.1 313.87 262.1 309.39 262.1 304.31 262.1 298.63 262.1 292.36 262.1 285.79 262.1 279.51 262.1 272.94 262.1 266.97 262.1 261.29 262.1 256.21 262.1 252.03 262.1 248.74 262.1 246.35 262.1"/>
  <polyline class="cls-1" points="245.16 259.42 248.74 259.42 252.92 259.42 258 259.42 263.68 259.42 269.65 259.42 276.23 259.42 282.8 259.42 289.67 259.42 295.94 259.42 302.22 259.42 307.89 259.42 313.27 259.42 317.45 259.42 321.04 259.42 323.73 259.42 325.22 259.42 325.82 259.42"/>
  <polyline class="cls-1" points="325.82 279.43 325.22 279.43 323.73 279.43 321.04 279.43 317.45 279.43 313.27 279.43 307.89 279.43 302.22 279.43 295.94 279.43 289.67 279.43 282.8 279.43 276.23 279.43 269.65 279.43 263.68 279.43 258 279.43 252.92 279.43 248.74 279.43 245.16 279.43"/>
  <polyline class="cls-1" points="321.34 276.74 319.84 276.74 317.45 276.74 313.87 276.74 309.39 276.74 304.31 276.74 298.63 276.74 292.36 276.74 285.79 276.74 279.51 276.74 272.94 276.74 266.97 276.74 261.29 276.74 256.21 276.74 252.03 276.74 248.74 276.74 246.35 276.74"/>
  <polyline class="cls-1" points="321.34 276.15 319.84 276.15 317.45 276.15 313.87 276.15 309.39 276.15 304.31 276.15 298.63 276.15 292.36 276.15 285.79 276.15 279.51 276.15 272.94 276.15 266.97 276.15 261.29 276.15 256.21 276.15 252.03 276.15 248.74 276.15 246.35 276.15"/>
  <polyline class="cls-1" points="245.16 273.46 248.74 273.46 252.92 273.46 258 273.46 263.68 273.46 269.65 273.46 276.23 273.46 282.8 273.46 289.67 273.46 295.94 273.46 302.22 273.46 307.89 273.46 313.27 273.46 317.45 273.46 321.04 273.46 323.73 273.46 325.22 273.46 325.82 273.46"/>
  <polyline class="cls-1" points="325.82 293.47 325.22 293.47 323.73 293.47 321.04 293.47 317.45 293.47 313.27 293.47 307.89 293.47 302.22 293.47 295.94 293.47 289.67 293.47 282.8 293.47 276.23 293.47 269.65 293.47 263.68 293.47 258 293.47 252.92 293.47 248.74 293.47 245.16 293.47"/>
  <polyline class="cls-1" points="321.34 290.78 319.84 290.78 317.45 290.78 313.87 290.78 309.39 290.78 304.31 290.78 298.63 290.78 292.36 290.78 285.79 290.78 279.51 290.78 272.94 290.78 266.97 290.78 261.29 290.78 256.21 290.78 252.03 290.78 248.74 290.78 246.35 290.78"/>
  <polyline class="cls-1" points="321.34 290.49 319.84 290.49 317.45 290.49 313.87 290.49 309.39 290.49 304.31 290.49 298.63 290.49 292.36 290.49 285.79 290.49 279.51 290.49 272.94 290.49 266.97 290.49 261.29 290.49 256.21 290.49 252.03 290.49 248.74 290.49 246.35 290.49"/>
  <polyline class="cls-1" points="245.16 287.8 248.74 287.8 252.92 287.8 258 287.8 263.68 287.8 269.65 287.8 276.23 287.8 282.8 287.8 289.67 287.8 295.94 287.8 302.22 287.8 307.89 287.8 313.27 287.8 317.45 287.8 321.04 287.8 323.73 287.8 325.22 287.8 325.82 287.8"/>
  <polyline class="cls-1" points="245.16 166.51 248.44 166.51 252.63 166.51 257.7 166.51 263.68 166.51 269.95 166.51 276.82 166.51 283.99 166.51 290.87 166.51 297.74 166.51 304.31 166.51 309.98 166.51 314.76 166.51 318.95 166.51 321.93 166.51 323.73 166.51 324.32 166.51"/>
  <polyline class="cls-1" points="324.32 186.22 323.73 186.22 321.93 186.22 318.95 186.22 314.76 186.22 309.98 186.22 304.31 186.22 297.74 186.22 290.87 186.22 283.99 186.22 276.82 186.22 269.95 186.22 263.68 186.22 257.7 186.22 252.63 186.22 248.44 186.22 245.16 186.22"/>
  <path class="cls-1" d="m234.1,359.64c0-13.44-3.66-26.62-10.59-38.13"/>
  <path class="cls-1" d="m343.58,321.51c-6.93,11.51-10.59,24.7-10.59,38.13"/>
  <line class="cls-1" x1="242.17" y1="367.86" x2="235.3" y2="361.29"/>
  <line class="cls-1" x1="324.62" y1="367.86" x2="331.49" y2="361.29"/>
  <line class="cls-1" x1="235.3" y1="361.29" x2="234.1" y2="359.79"/>
  <line class="cls-1" x1="331.49" y1="361.29" x2="332.69" y2="359.79"/>
  <line class="cls-1" x1="326.42" y1="304.82" x2="329.1" y2="307.51"/>
  <line class="cls-1" x1="240.38" y1="304.82" x2="237.39" y2="307.51"/>
  <line class="cls-1" x1="329.1" y1="307.51" x2="329.1" y2="318.87"/>
  <line class="cls-1" x1="237.39" y1="307.51" x2="237.39" y2="318.87"/>
  <line class="cls-1" x1="321.93" y1="220.28" x2="325.82" y2="222.97"/>
  <line class="cls-1" x1="321.93" y1="219.98" x2="321.93" y2="219.98"/>
  <polyline class="cls-1" points="321.93 219.68 325.82 216.99 325.82 187.12"/>
  <line class="cls-1" x1="321.93" y1="234.32" x2="325.82" y2="237.01"/>
  <polyline class="cls-1" points="325.82 222.97 325.82 231.33 321.93 234.02"/>
  <polyline class="cls-1" points="321.93 248.36 321.93 248.36 325.82 251.05"/>
  <polyline class="cls-1" points="321.93 248.06 325.82 245.37 325.82 237.01"/>
  <line class="cls-1" x1="321.93" y1="262.7" x2="325.82" y2="265.39"/>
  <line class="cls-1" x1="321.93" y1="262.4" x2="321.93" y2="262.4"/>
  <polyline class="cls-1" points="321.93 262.1 325.82 259.42 325.82 251.05"/>
  <line class="cls-1" x1="321.93" y1="276.74" x2="325.82" y2="279.43"/>
  <line class="cls-1" x1="321.93" y1="276.44" x2="321.93" y2="276.44"/>
  <polyline class="cls-1" points="321.93 276.15 325.82 273.46 325.82 265.39"/>
  <line class="cls-1" x1="321.93" y1="290.78" x2="325.82" y2="293.47"/>
  <polyline class="cls-1" points="325.82 279.43 325.82 287.8 321.93 290.49"/>
  <polyline class="cls-1" points="321.34 163.52 324.32 166.51 324.32 186.22"/>
  <line class="cls-1" x1="343.44" y1="318.87" x2="343.44" y2="321.55"/>
  <line class="cls-1" x1="223.35" y1="318.87" x2="223.35" y2="321.55"/>
  <line class="cls-1" x1="324.32" y1="186.22" x2="325.82" y2="187.12"/>
  <line class="cls-1" x1="325.82" y1="293.47" x2="325.82" y2="304.82"/>
</svg>