<?xml version="1.0" encoding="UTF-8"?>
<svg id="Layer_1" data-name="Layer 1" xmlns="http://www.w3.org/2000/svg" viewBox="0 0 566.93 566.93">
  <defs>
    <style>
      .cls-1 {
        fill: none;
        stroke: #000;
        stroke-linecap: round;
        stroke-linejoin: round;
      }
    </style>
  </defs>
  <polyline class="cls-1" points="325.89 368.16 325.29 368.16 323.8 368.16 321.11 368.16 317.82 368.16 313.34 368.16 308.26 368.16 302.88 368.16 296.61 368.16 290.04 368.16 283.46 368.16 276.89 368.16 270.32 368.16 264.34 368.16 258.67 368.16 253.59 368.16 249.41 368.16 245.82 368.16 243.13 368.16 241.64 368.16 241.04 368.16"/>
  <polyline class="cls-1" points="233.28 359.79 235.07 359.79 238.35 359.79 242.54 359.79 247.62 359.79 253.59 359.79 260.46 359.79 267.93 359.79 275.7 359.79 283.46 359.79 291.53 359.79 299.3 359.79 306.47 359.79 313.34 359.79 319.31 359.79 324.69 359.79 328.87 359.79 331.86 359.79 333.65 359.79"/>
  <polyline class="cls-1" points="337.24 356.81 336.64 356.81 334.85 356.81 332.16 356.81 328.58 356.81 324.09 356.81 318.72 356.81 312.44 356.81 305.87 356.81 298.7 356.81 291.23 356.81 283.46 356.81 276 356.81 268.53 356.81 261.36 356.81 254.49 356.81 248.51 356.81 242.83 356.81 238.35 356.81 234.77 356.81 232.08 356.81 230.29 356.81 229.99 356.81"/>
  <polyline class="cls-1" points="215.65 306.02 216.25 306.02 218.04 306.02 221.03 306.02 224.91 306.02 229.69 306.02 235.67 306.02 242.24 306.02 249.71 306.02 257.47 306.02 265.84 306.02 274.8 306.02 283.46 306.02 292.43 306.02 301.09 306.02 309.46 306.02 317.52 306.02 324.69 306.02 331.56 306.02 337.24 306.02 342.32 306.02 346.2 306.02 348.89 306.02 350.68 306.02 351.28 306.02"/>
  <polyline class="cls-1" points="351.28 303.33 350.68 303.33 348.89 303.33 346.2 303.33 342.32 303.33 337.24 303.33 331.56 303.33 324.69 303.33 317.52 303.33 309.46 303.33 301.09 303.33 292.43 303.33 283.46 303.33 274.8 303.33 265.84 303.33 257.47 303.33 249.71 303.33 242.24 303.33 235.67 303.33 229.69 303.33 224.91 303.33 221.03 303.33 218.04 303.33 216.25 303.33 215.65 303.33"/>
  <polyline class="cls-1" points="233.57 302.73 233.87 302.43 234.17 302.43 234.17 302.14 234.17 284.81 234.17 284.21 234.17 283.61"/>
  <polyline class="cls-1" points="330.97 283.02 329.17 283.02 326.19 283.02 322.3 283.02 317.52 283.02 311.85 283.02 305.27 283.02 298.4 283.02 290.93 283.02 283.46 283.02 276 283.02 268.83 283.02 261.66 283.02 255.38 283.02 249.71 283.02 244.63 283.02 240.74 283.02 237.76 283.02 236.26 283.02"/>
  <polyline class="cls-1" points="331.56 248.36 330.97 248.36 329.17 248.36 326.19 248.36 322.3 248.36 317.22 248.36 311.25 248.36 304.97 248.36 297.8 248.36 290.34 248.36 290.34 248.96 290.04 249.56 289.74 250.15 289.44 250.45 289.14 251.05 288.84 251.65 288.24 251.95 287.95 252.25 287.35 252.54 287.05 252.84 286.45 253.14 285.85 253.44 285.26 253.74 284.66 253.74 284.06 253.74 283.46 253.74 282.87 253.74 282.27 253.74 281.67 253.74 281.07 253.44 280.78 253.14 280.18 252.84 279.58 252.54 278.98 252.25 278.68 251.95 278.39 251.65 277.79 251.05 277.49 250.45 277.19 250.15 276.89 249.56 276.89 248.96 276.59 248.36 269.12 248.36 262.25 248.36 255.68 248.36 249.71 248.36 244.93 248.36 240.74 248.36 238.06 248.36 236.26 248.36 235.67 248.36"/>
  <polyline class="cls-1" points="337.24 283.61 336.64 283.61 334.85 283.61 332.16 283.61 328.58 283.61 323.8 283.61 318.42 283.61 312.14 283.61 305.27 283.61 297.8 283.61 290.34 283.61 282.57 283.61 274.8 283.61 267.33 283.61 260.16 283.61 253.59 283.61 247.32 283.61 242.24 283.61 237.76 283.61 234.17 283.61"/>
  <polyline class="cls-1" points="330.07 162.02 329.47 162.02 327.68 162.02 324.99 162.02 321.11 162.02 316.33 162.02 310.65 162.02 304.38 162.02 297.8 162.02 290.63 162.02 276.59 162.02 269.42 162.02 262.55 162.02 256.28 162.02 250.6 162.02 245.82 162.02 241.94 162.02 239.25 162.02 237.46 162.02 236.86 162.02"/>
  <polyline class="cls-1" points="235.67 163.52 236.26 163.52 238.06 163.52 240.74 163.52 244.93 163.52 249.71 163.52 255.68 163.52 261.96 163.52 269.12 163.52 276.59 163.52 276.59 162.02"/>
  <polyline class="cls-1" points="276.59 163.52 276.59 188.61 269.12 188.61 261.96 188.61 255.68 188.61 249.71 188.61 244.93 188.61 240.74 188.61 238.06 188.61 236.26 188.61 235.67 188.61"/>
  <polyline class="cls-1" points="273.31 189.81 266.14 189.81 259.86 189.81 253.89 189.81 248.51 189.81 244.33 189.81 241.04 189.81 238.65 189.81 237.76 189.81"/>
  <line class="cls-1" x1="276.59" y1="189.81" x2="276.59" y2="188.61"/>
  <polyline class="cls-1" points="237.76 190.7 238.65 190.7 241.04 190.7 244.33 190.7 248.51 190.7 253.89 190.7 259.86 190.7 266.14 190.7 273.31 190.7"/>
  <polyline class="cls-1" points="276.59 190.7 276.59 190.4 276.59 190.11 276.59 189.81"/>
  <polyline class="cls-1" points="276.59 190.7 276.59 191.9 269.12 191.9 261.96 191.9 255.68 191.9 249.71 191.9 244.93 191.9 240.74 191.9 238.06 191.9 236.26 191.9 235.67 191.9"/>
  <polyline class="cls-1" points="276.59 191.9 276.59 216.99 269.12 216.99 261.96 216.99 255.68 216.99 249.71 216.99 244.93 216.99 240.74 216.99 238.06 216.99 236.26 216.99 235.67 216.99"/>
  <polyline class="cls-1" points="273.31 218.19 266.14 218.19 259.86 218.19 253.89 218.19 248.51 218.19 244.33 218.19 241.04 218.19 238.65 218.19 237.76 218.19"/>
  <line class="cls-1" x1="276.59" y1="218.19" x2="276.59" y2="216.99"/>
  <polyline class="cls-1" points="237.76 219.08 238.65 219.08 241.04 219.08 244.33 219.08 248.51 219.08 253.89 219.08 259.86 219.08 266.14 219.08 273.31 219.08"/>
  <polyline class="cls-1" points="276.59 219.08 276.59 218.79 276.59 218.49 276.59 218.19"/>
  <polyline class="cls-1" points="276.59 219.08 276.59 220.28 269.12 220.28 261.96 220.28 255.68 220.28 249.71 220.28 244.93 220.28 240.74 220.28 238.06 220.28 236.26 220.28 235.67 220.28"/>
  <polyline class="cls-1" points="276.59 220.28 276.59 245.08 269.12 245.08 261.96 245.08 255.68 245.08 249.71 245.08 244.93 245.08 240.74 245.08 238.06 245.08 236.26 245.08 235.67 245.08"/>
  <polyline class="cls-1" points="273.31 246.27 266.14 246.27 259.86 246.27 253.89 246.27 248.51 246.27 244.33 246.27 241.04 246.27 238.65 246.27 237.76 246.27"/>
  <line class="cls-1" x1="276.59" y1="246.27" x2="276.59" y2="245.08"/>
  <polyline class="cls-1" points="237.76 247.17 238.65 247.17 241.04 247.17 244.33 247.17 248.51 247.17 253.89 247.17 259.86 247.17 266.14 247.17 273.31 247.17"/>
  <polyline class="cls-1" points="276.59 248.36 276.59 247.76 276.59 247.17 276.59 246.87 276.59 246.57 276.59 246.27"/>
  <line class="cls-1" x1="290.63" y1="162.02" x2="290.63" y2="163.52"/>
  <polyline class="cls-1" points="290.63 163.52 290.63 188.61 290.63 189.81 290.63 190.11 290.63 190.4 290.63 190.7 290.63 191.9 290.63 216.99 290.63 218.19 290.63 218.49 290.63 218.79 290.63 219.08 290.63 220.28 290.63 245.08 290.63 246.27 290.63 246.57 290.63 246.87"/>
  <polyline class="cls-1" points="290.63 246.87 290.63 247.17 290.63 247.76 290.34 248.36"/>
  <polyline class="cls-1" points="329.47 189.81 328.28 189.81 326.19 189.81 322.9 189.81 318.42 189.81 313.34 189.81 307.36 189.81 300.79 189.81 293.92 189.81"/>
  <polyline class="cls-1" points="293.92 190.7 300.79 190.7 307.36 190.7 313.34 190.7 318.42 190.7 322.9 190.7 326.19 190.7 328.28 190.7 329.47 190.7"/>
  <polyline class="cls-1" points="331.56 188.61 330.97 188.61 329.17 188.61 326.19 188.61 322.3 188.61 317.22 188.61 311.55 188.61 304.97 188.61 298.1 188.61 290.63 188.61"/>
  <polyline class="cls-1" points="331.56 191.9 330.97 191.9 329.17 191.9 326.19 191.9 322.3 191.9 317.22 191.9 311.55 191.9 304.97 191.9 298.1 191.9 290.63 191.9"/>
  <polyline class="cls-1" points="329.47 218.19 328.28 218.19 326.19 218.19 322.9 218.19 318.42 218.19 313.34 218.19 307.36 218.19 300.79 218.19 293.92 218.19"/>
  <polyline class="cls-1" points="293.92 219.08 300.79 219.08 307.36 219.08 313.34 219.08 318.42 219.08 322.9 219.08 326.19 219.08 328.28 219.08 329.47 219.08"/>
  <polyline class="cls-1" points="331.56 216.99 330.97 216.99 329.17 216.99 326.19 216.99 322.3 216.99 317.22 216.99 311.55 216.99 304.97 216.99 298.1 216.99 290.63 216.99"/>
  <polyline class="cls-1" points="331.56 220.28 330.97 220.28 329.17 220.28 326.19 220.28 322.3 220.28 317.22 220.28 311.55 220.28 304.97 220.28 298.1 220.28 290.63 220.28"/>
  <polyline class="cls-1" points="329.47 246.27 328.28 246.27 326.19 246.27 322.9 246.27 318.42 246.27 313.34 246.27 307.36 246.27 300.79 246.27 293.92 246.27"/>
  <polyline class="cls-1" points="293.62 247.17 300.79 247.17 307.36 247.17 313.34 247.17 318.42 247.17 322.9 247.17 326.19 247.17 328.28 247.17 329.47 247.17"/>
  <polyline class="cls-1" points="331.56 245.08 330.97 245.08 329.17 245.08 326.19 245.08 322.3 245.08 317.22 245.08 311.55 245.08 304.97 245.08 298.1 245.08 290.63 245.08"/>
  <polyline class="cls-1" points="234.17 284.81 238.06 284.81 242.83 284.81 248.51 284.81 254.78 284.81 261.66 284.81 269.12 284.81 276.59 284.81 284.36 284.81 292.13 284.81 299.6 284.81 307.07 284.81 313.64 284.81 319.91 284.81 325.29 284.81 330.07 284.81 333.65 284.81 336.34 284.81 338.14 284.81 338.43 284.81"/>
  <polyline class="cls-1" points="233.57 302.73 230.89 302.73 229.09 302.73 228.5 302.73"/>
  <polyline class="cls-1" points="290.63 163.52 298.1 163.52 304.97 163.52 311.55 163.52 317.22 163.52 322.3 163.52 326.19 163.52 329.17 163.52 330.97 163.52 331.56 163.52"/>
  <polyline class="cls-1" points="249.41 368.16 249.41 401.92 249.41 402.51 249.41 402.81 249.41 403.41 249.41 403.71 249.41 404.01 249.41 404.31 249.41 404.9"/>
  <polyline class="cls-1" points="280.78 368.16 280.78 401.92 279.88 402.51 278.98 402.81 278.09 403.41 277.19 403.71 276.29 404.01 275.7 404.31 273.9 404.9 258.97 404.9 257.17 404.31 256.58 404.01 255.68 403.71 254.78 403.41 253.89 402.81 252.99 402.51 252.1 401.92 252.1 368.16"/>
  <line class="cls-1" x1="315.13" y1="368.16" x2="315.13" y2="401.92"/>
  <polyline class="cls-1" points="315.13 401.92 314.24 402.51 313.34 402.81 312.44 403.41 311.55 403.71 310.65 404.01 309.75 404.31 307.96 404.9 293.32 404.9 291.53 404.31 290.63 404.01 289.74 403.71 288.84 403.41 287.95 402.81 287.05 402.51 286.15 401.92 286.15 368.16"/>
  <polyline class="cls-1" points="317.82 404.9 317.82 404.31 317.82 404.01 317.82 403.71 317.82 403.41 317.82 402.81 317.82 402.51 317.82 401.92 317.82 368.16"/>
  <line class="cls-1" x1="317.82" y1="401.92" x2="315.13" y2="401.92"/>
  <line class="cls-1" x1="286.15" y1="401.92" x2="280.78" y2="401.92"/>
  <line class="cls-1" x1="252.1" y1="401.92" x2="249.41" y2="401.92"/>
  <polyline class="cls-1" points="307.96 404.9 312.14 404.9 315.43 404.9 317.82 404.9"/>
  <polyline class="cls-1" points="273.9 404.9 280.18 404.9 286.75 404.9 293.32 404.9"/>
  <polyline class="cls-1" points="249.41 404.9 251.5 404.9 254.78 404.9 258.97 404.9"/>
  <line class="cls-1" x1="241.04" y1="368.16" x2="232.68" y2="359.79"/>
  <line class="cls-1" x1="325.89" y1="368.16" x2="334.25" y2="359.79"/>
  <path class="cls-1" d="m229.99,356.66c0-17.89-4.88-35.44-14.1-50.77"/>
  <polyline class="cls-1" points="337.24 356.81 337.84 346.35 339.33 335.6 342.32 325.44 346.2 315.58 351.28 306.02"/>
  <path class="cls-1" d="m235.22,283.32c.25,0,.45-.2.45-.45"/>
  <path class="cls-1" d="m331.86,282.87c0,.25.2.45.45.45"/>
  <line class="cls-1" x1="331.56" y1="248.36" x2="331.56" y2="283.02"/>
  <line class="cls-1" x1="235.67" y1="248.36" x2="235.67" y2="283.02"/>
  <polyline class="cls-1" points="236.86 162.02 235.67 163.52 235.67 188.61 237.46 189.81"/>
  <path class="cls-1" d="m237.53,190.64c.14-.08.22-.23.22-.39s-.09-.31-.22-.39"/>
  <polyline class="cls-1" points="237.46 190.7 235.67 191.9 235.67 216.99 237.46 218.19"/>
  <path class="cls-1" d="m237.53,218.73c.14-.08.22-.23.22-.39s-.09-.31-.22-.39"/>
  <polyline class="cls-1" points="237.46 219.08 235.67 220.28 235.67 245.08 237.46 246.27"/>
  <path class="cls-1" d="m237.53,247.11c.14-.08.22-.23.22-.39s-.09-.31-.22-.39"/>
  <line class="cls-1" x1="237.46" y1="247.17" x2="235.67" y2="248.36"/>
  <path class="cls-1" d="m329.7,189.87c-.14.08-.22.23-.22.39s.09.31.22.39"/>
  <line class="cls-1" x1="329.47" y1="189.81" x2="331.56" y2="188.61"/>
  <line class="cls-1" x1="329.47" y1="190.7" x2="331.56" y2="191.9"/>
  <path class="cls-1" d="m329.7,217.95c-.14.08-.22.23-.22.39s.09.31.22.39"/>
  <line class="cls-1" x1="329.47" y1="218.19" x2="331.56" y2="216.99"/>
  <line class="cls-1" x1="329.47" y1="219.08" x2="331.56" y2="220.28"/>
  <path class="cls-1" d="m329.7,246.33c-.14.08-.22.23-.22.39s.09.31.22.39"/>
  <line class="cls-1" x1="329.47" y1="246.27" x2="331.56" y2="245.08"/>
  <line class="cls-1" x1="329.47" y1="247.17" x2="331.56" y2="248.36"/>
  <polyline class="cls-1" points="337.24 283.61 338.43 284.81 338.43 303.33"/>
  <line class="cls-1" x1="228.5" y1="302.73" x2="228.5" y2="303.33"/>
  <polyline class="cls-1" points="330.07 162.02 331.56 163.52 331.56 188.61"/>
  <line class="cls-1" x1="331.56" y1="220.28" x2="331.56" y2="245.08"/>
  <line class="cls-1" x1="351.28" y1="303.33" x2="351.28" y2="306.02"/>
  <line class="cls-1" x1="215.65" y1="303.33" x2="215.65" y2="306.02"/>
  <line class="cls-1" x1="331.56" y1="191.9" x2="331.56" y2="216.99"/>
  <line class="cls-1" x1="232.68" y1="359.79" x2="229.99" y2="356.81"/>
  <line class="cls-1" x1="334.25" y1="359.79" x2="337.24" y2="356.81"/>
</svg>