<?xml version="1.0" encoding="UTF-8"?>
<svg id="Layer_1" data-name="Layer 1" xmlns="http://www.w3.org/2000/svg" viewBox="0 0 566.93 566.93">
  <defs>
    <style>
      .cls-1 {
        fill: none;
        stroke: #000;
        stroke-linecap: round;
        stroke-linejoin: round;
      }
    </style>
  </defs>
  <polyline class="cls-1" points="332.69 335 332.09 335 330.3 335 327.31 335 323.43 335 318.35 335 312.37 335 305.8 335 298.63 335 291.16 335 283.4 335 275.63 335 268.16 335 260.99 335 254.42 335 248.44 335 243.36 335 239.48 335 236.49 335 234.7 335 233.8 335"/>
  <polyline class="cls-1" points="223.35 296.76 223.95 296.76 225.74 296.76 228.73 296.76 232.91 296.76 237.99 296.76 243.96 296.76 250.83 296.76 258.3 296.76 266.37 296.76 274.73 296.76 283.4 296.76 291.76 296.76 300.13 296.76 308.19 296.76 315.66 296.76 322.53 296.76 328.81 296.76 333.88 296.76 337.77 296.76 341.05 296.76 342.85 296.76 343.44 296.76"/>
  <polyline class="cls-1" points="315.96 368.76 315.36 368.76 313.57 368.76 310.58 368.76 306.4 368.76 301.62 368.76 295.94 368.76 289.67 368.76 283.4 368.76 276.82 368.76 270.85 368.76 265.17 368.76 260.09 368.76 256.21 368.76 253.22 368.76 251.13 368.76 250.53 368.76"/>
  <polyline class="cls-1" points="253.52 371.74 254.12 371.74 255.61 371.74 258.6 371.74 262.19 371.74 266.67 371.74 272.04 371.74 277.42 371.74 283.4 371.74 289.07 371.74 294.75 371.74 299.83 371.74 304.61 371.74 308.19 371.74 310.88 371.74 312.67 371.74 313.27 371.74"/>
  <polyline class="cls-1" points="319.84 348.14 319.25 348.14 317.45 348.14 314.76 348.14 311.18 348.14 306.7 348.14 301.62 348.14 295.64 348.14 289.67 348.14 283.4 348.14 277.12 348.14 270.85 348.14 265.17 348.14 260.09 348.14 255.61 348.14 251.73 348.14 249.04 348.14 247.55 348.14 246.95 348.14"/>
  <polyline class="cls-1" points="235.9 336.49 237.69 336.49 240.68 336.49 244.56 336.49 249.34 336.49 255.02 336.49 261.59 336.49 268.46 336.49 275.93 336.49 283.4 336.49 290.87 336.49 298.04 336.49 305.2 336.49 311.48 336.49 317.15 336.49 322.23 336.49 326.12 336.49 329.1 336.49 330.9 336.49"/>
  <polyline class="cls-1" points="322.83 195.19 322.23 195.19 320.44 195.19 317.45 195.19 313.57 195.19 308.79 195.19 303.11 195.19 296.84 195.19 290.27 195.19 283.4 195.19 276.53 195.19 269.95 195.19 263.68 195.19 258 195.19 253.22 195.19 249.04 195.19 246.35 195.19 244.56 195.19 243.96 195.19"/>
  <polyline class="cls-1" points="343.44 294.07 342.85 294.07 341.05 294.07 337.77 294.07 333.88 294.07 328.81 294.07 322.53 294.07 315.66 294.07 308.19 294.07 300.13 294.07 291.76 294.07 283.4 294.07 274.73 294.07 266.37 294.07 258.3 294.07 250.83 294.07 243.96 294.07 237.99 294.07 232.91 294.07 228.73 294.07 225.74 294.07 223.95 294.07 223.35 294.07"/>
  <polyline class="cls-1" points="328.81 279.43 327.01 279.43 324.32 279.43 320.44 279.43 315.66 279.43 310.28 279.43 304.31 279.43 297.44 279.43 290.57 279.43 283.4 279.43 276.23 279.43 269.06 279.43 262.48 279.43 256.51 279.43 250.83 279.43 246.35 279.43 242.47 279.43 239.78 279.43 237.99 279.43"/>
  <polyline class="cls-1" points="237.99 280.33 239.78 280.33 242.47 280.33 246.35 280.33 250.83 280.33 256.51 280.33 262.48 280.33 269.06 280.33 276.23 280.33 283.4 280.33 290.57 280.33 297.44 280.33 304.31 280.33 310.28 280.33 315.66 280.33 320.44 280.33 324.32 280.33 327.01 280.33 328.81 280.33"/>
  <polyline class="cls-1" points="233.8 277.34 234.7 277.34 236.49 277.34 239.48 277.34 243.36 277.34 248.44 277.34 254.42 277.34 260.99 277.34 268.16 277.34 275.63 277.34 283.4 277.34 291.16 277.34 298.63 277.34 305.8 277.34 312.37 277.34 318.35 277.34 323.43 277.34 327.31 277.34 330.3 277.34 332.09 277.34 332.69 277.34"/>
  <polyline class="cls-1" points="332.69 282.42 332.09 282.42 330.3 282.42 327.31 282.42 323.43 282.42 318.35 282.42 312.37 282.42 305.8 282.42 298.63 282.42 291.16 282.42 283.4 282.42 275.63 282.42 268.16 282.42 260.99 282.42 254.42 282.42 248.44 282.42 243.36 282.42 239.48 282.42 236.49 282.42 234.7 282.42 233.8 282.42"/>
  <polyline class="cls-1" points="325.82 265.39 324.32 265.39 321.64 265.39 318.05 265.39 313.87 265.39 308.79 265.39 302.81 265.39 296.54 265.39 289.97 265.39 283.4 265.39 276.53 265.39 269.95 265.39 263.68 265.39 258 265.39 252.92 265.39 248.44 265.39 244.86 265.39 242.47 265.39 240.97 265.39"/>
  <polyline class="cls-1" points="240.97 266.29 242.47 266.29 244.86 266.29 248.44 266.29 252.92 266.29 258 266.29 263.68 266.29 269.95 266.29 276.53 266.29 283.4 266.29 289.97 266.29 296.54 266.29 302.81 266.29 308.79 266.29 313.87 266.29 318.05 266.29 321.64 266.29 324.32 266.29 325.82 266.29"/>
  <polyline class="cls-1" points="332.69 269.87 332.09 269.87 330.3 269.87 327.31 269.87 323.43 269.87 318.35 269.87 312.37 269.87 305.8 269.87 298.63 269.87 291.16 269.87 283.4 269.87 275.63 269.87 268.16 269.87 260.99 269.87 254.42 269.87 248.44 269.87 243.36 269.87 239.48 269.87 236.49 269.87 234.7 269.87 233.8 269.87"/>
  <polyline class="cls-1" points="234.7 262.1 235.3 262.1 237.09 262.1 239.78 262.1 243.96 262.1 248.74 262.1 254.72 262.1 261.29 262.1 268.16 262.1 275.63 262.1 283.4 262.1 290.87 262.1 298.33 262.1 305.5 262.1 312.08 262.1 317.75 262.1 322.83 262.1 326.71 262.1 329.7 262.1 331.49 262.1 332.09 262.1"/>
  <polyline class="cls-1" points="324.92 251.35 323.43 251.35 321.04 251.35 317.45 251.35 313.27 251.35 308.19 251.35 302.52 251.35 296.24 251.35 289.97 251.35 283.4 251.35 276.82 251.35 270.25 251.35 264.28 251.35 258.6 251.35 253.52 251.35 249.34 251.35 245.75 251.35 243.07 251.35 241.57 251.35"/>
  <polyline class="cls-1" points="241.57 252.25 243.07 252.25 245.75 252.25 249.34 252.25 253.52 252.25 258.6 252.25 264.28 252.25 270.25 252.25 276.82 252.25 283.4 252.25 289.97 252.25 296.24 252.25 302.52 252.25 308.19 252.25 313.27 252.25 317.45 252.25 321.04 252.25 323.43 252.25 324.92 252.25"/>
  <polyline class="cls-1" points="331.49 255.53 330.9 255.53 329.1 255.53 326.12 255.53 322.23 255.53 317.45 255.53 311.78 255.53 305.2 255.53 298.33 255.53 290.87 255.53 283.4 255.53 275.93 255.53 268.46 255.53 261.59 255.53 255.02 255.53 249.34 255.53 244.26 255.53 240.38 255.53 237.69 255.53 235.9 255.53 235.3 255.53"/>
  <polyline class="cls-1" points="235.9 248.06 236.49 248.06 238.29 248.06 240.97 248.06 244.86 248.06 249.94 248.06 255.61 248.06 261.89 248.06 268.76 248.06 275.93 248.06 283.4 248.06 290.87 248.06 298.04 248.06 304.91 248.06 311.18 248.06 316.86 248.06 321.64 248.06 325.52 248.06 328.51 248.06 330.3 248.06 330.9 248.06"/>
  <polyline class="cls-1" points="324.32 237.01 322.53 237.01 319.54 237.01 315.36 237.01 310.28 237.01 304.31 237.01 297.74 237.01 290.57 237.01 283.4 237.01 276.23 237.01 269.06 237.01 262.48 237.01 256.51 237.01 251.43 237.01 247.25 237.01 244.26 237.01 242.47 237.01"/>
  <polyline class="cls-1" points="242.47 238.2 244.26 238.2 247.25 238.2 251.43 238.2 256.51 238.2 262.48 238.2 269.06 238.2 276.23 238.2 283.4 238.2 290.57 238.2 297.74 238.2 304.31 238.2 310.28 238.2 315.36 238.2 319.54 238.2 322.53 238.2 324.32 238.2"/>
  <polyline class="cls-1" points="330 241.19 329.4 241.19 327.91 241.19 324.92 241.19 321.04 241.19 316.56 241.19 310.88 241.19 304.61 241.19 297.74 241.19 290.57 241.19 283.4 241.19 275.93 241.19 268.76 241.19 262.19 241.19 255.91 241.19 250.24 241.19 245.46 241.19 241.57 241.19 238.88 241.19 237.09 241.19 236.49 241.19"/>
  <polyline class="cls-1" points="237.39 234.32 237.69 234.32 239.48 234.32 242.17 234.32 246.05 234.32 250.83 234.32 256.21 234.32 262.48 234.32 269.06 234.32 276.23 234.32 283.4 234.32 290.57 234.32 297.74 234.32 304.31 234.32 310.58 234.32 315.96 234.32 320.74 234.32 324.32 234.32 327.31 234.32 328.81 234.32 329.4 234.32"/>
  <polyline class="cls-1" points="323.43 222.97 321.64 222.97 318.65 222.97 314.76 222.97 309.69 222.97 303.71 222.97 297.44 222.97 290.57 222.97 283.4 222.97 276.23 222.97 269.36 222.97 262.78 222.97 257.11 222.97 252.03 222.97 248.14 222.97 245.16 222.97 243.36 222.97"/>
  <polyline class="cls-1" points="243.36 223.86 245.16 223.86 248.14 223.86 252.03 223.86 257.11 223.86 262.78 223.86 269.36 223.86 276.23 223.86 283.4 223.86 290.57 223.86 297.44 223.86 303.71 223.86 309.69 223.86 314.76 223.86 318.65 223.86 321.64 223.86 323.43 223.86"/>
  <polyline class="cls-1" points="328.81 226.85 328.21 226.85 326.42 226.85 323.73 226.85 320.14 226.85 315.36 226.85 309.98 226.85 304.01 226.85 297.44 226.85 290.57 226.85 283.4 226.85 276.23 226.85 269.36 226.85 262.78 226.85 256.81 226.85 251.13 226.85 246.65 226.85 243.07 226.85 240.08 226.85 238.58 226.85 237.99 226.85"/>
  <polyline class="cls-1" points="238.58 220.58 239.18 220.58 240.68 220.58 243.36 220.58 247.25 220.58 251.73 220.58 257.11 220.58 263.08 220.58 269.65 220.58 276.23 220.58 283.4 220.58 290.27 220.58 297.14 220.58 303.71 220.58 309.69 220.58 315.06 220.58 319.54 220.58 323.13 220.58 325.82 220.58 327.61 220.58 328.21 220.58"/>
  <polyline class="cls-1" points="323.43 208.93 321.64 208.93 318.65 208.93 314.76 208.93 309.69 208.93 303.71 208.93 297.44 208.93 290.57 208.93 283.4 208.93 276.23 208.93 269.36 208.93 262.78 208.93 257.11 208.93 252.03 208.93 248.14 208.93 245.16 208.93 243.36 208.93"/>
  <polyline class="cls-1" points="243.36 209.82 245.16 209.82 248.14 209.82 252.03 209.82 257.11 209.82 262.78 209.82 269.36 209.82 276.23 209.82 283.4 209.82 290.57 209.82 297.44 209.82 303.71 209.82 309.69 209.82 314.76 209.82 318.65 209.82 321.64 209.82 323.43 209.82"/>
  <polyline class="cls-1" points="327.31 211.91 326.71 211.91 325.22 211.91 322.53 211.91 318.95 211.91 314.47 211.91 309.09 211.91 303.41 211.91 296.84 211.91 290.27 211.91 283.4 211.91 276.53 211.91 269.65 211.91 263.38 211.91 257.41 211.91 252.33 211.91 247.85 211.91 244.26 211.91 241.57 211.91 240.08 211.91 239.48 211.91"/>
  <polyline class="cls-1" points="239.78 207.13 240.38 207.13 241.87 207.13 244.56 207.13 248.14 207.13 252.63 207.13 257.7 207.13 263.68 207.13 269.95 207.13 276.53 207.13 283.4 207.13 290.27 207.13 296.84 207.13 303.11 207.13 308.79 207.13 314.17 207.13 318.65 207.13 322.23 207.13 324.62 207.13 326.42 207.13 326.71 207.13"/>
  <polyline class="cls-1" points="240.68 198.17 241.27 198.17 242.77 198.17 245.46 198.17 248.74 198.17 253.22 198.17 258.3 198.17 263.98 198.17 270.25 198.17 276.82 198.17 283.4 198.17 289.97 198.17 296.54 198.17 302.81 198.17 308.49 198.17 313.57 198.17 317.75 198.17 321.34 198.17 324.03 198.17 325.52 198.17 325.82 198.17"/>
  <path class="cls-1" d="m234.1,334.85c0-13.44-3.66-26.62-10.59-38.13"/>
  <path class="cls-1" d="m343.58,296.72c-6.93,11.51-10.59,24.7-10.59,38.13"/>
  <line class="cls-1" x1="253.52" y1="371.74" x2="250.53" y2="368.76"/>
  <polyline class="cls-1" points="313.27 371.74 315.96 368.76 315.96 348.14"/>
  <line class="cls-1" x1="250.53" y1="348.14" x2="250.53" y2="368.76"/>
  <line class="cls-1" x1="246.95" y1="348.14" x2="235.3" y2="336.49"/>
  <line class="cls-1" x1="319.84" y1="348.14" x2="331.2" y2="336.49"/>
  <line class="cls-1" x1="235.3" y1="336.49" x2="233.8" y2="335"/>
  <line class="cls-1" x1="331.2" y1="336.49" x2="332.69" y2="335"/>
  <path class="cls-1" d="m237.46,280.27c.14-.08.22-.23.22-.39s-.09-.31-.22-.39"/>
  <path class="cls-1" d="m329.33,279.49c-.14.08-.22.23-.22.39s.09.31.22.39"/>
  <line class="cls-1" x1="237.39" y1="279.43" x2="233.8" y2="277.34"/>
  <line class="cls-1" x1="329.1" y1="279.43" x2="332.69" y2="277.34"/>
  <line class="cls-1" x1="329.1" y1="280.33" x2="332.69" y2="282.42"/>
  <line class="cls-1" x1="237.39" y1="280.33" x2="233.8" y2="282.42"/>
  <path class="cls-1" d="m240.45,265.93c.14-.08.22-.23.22-.39s-.09-.31-.22-.39"/>
  <path class="cls-1" d="m326.64,265.15c-.14.08-.22.23-.22.39,0,.16.09.31.22.39"/>
  <line class="cls-1" x1="326.42" y1="266.29" x2="332.69" y2="269.87"/>
  <line class="cls-1" x1="240.38" y1="266.29" x2="233.8" y2="269.87"/>
  <line class="cls-1" x1="240.38" y1="265.39" x2="234.7" y2="262.1"/>
  <line class="cls-1" x1="326.42" y1="265.39" x2="332.09" y2="262.1"/>
  <path class="cls-1" d="m241.35,251.89c.14-.08.22-.23.22-.39s-.09-.31-.22-.39"/>
  <path class="cls-1" d="m325.74,251.11c-.14.08-.22.23-.22.39,0,.16.09.31.22.39"/>
  <line class="cls-1" x1="325.52" y1="252.25" x2="331.49" y2="255.53"/>
  <line class="cls-1" x1="241.27" y1="252.25" x2="235.3" y2="255.53"/>
  <line class="cls-1" x1="241.27" y1="251.35" x2="235.9" y2="248.06"/>
  <line class="cls-1" x1="325.52" y1="251.35" x2="330.9" y2="248.06"/>
  <path class="cls-1" d="m241.95,237.85c.14-.08.22-.23.22-.39s-.09-.31-.22-.39"/>
  <path class="cls-1" d="m324.85,237.07c-.14.08-.22.23-.22.39,0,.16.09.31.22.39"/>
  <line class="cls-1" x1="324.62" y1="238.2" x2="330" y2="241.19"/>
  <line class="cls-1" x1="241.87" y1="238.2" x2="236.49" y2="241.19"/>
  <line class="cls-1" x1="241.87" y1="237.01" x2="237.39" y2="234.32"/>
  <line class="cls-1" x1="324.62" y1="237.01" x2="329.4" y2="234.32"/>
  <path class="cls-1" d="m242.84,223.8c.14-.08.22-.23.22-.39s-.09-.31-.22-.39"/>
  <path class="cls-1" d="m323.95,223.03c-.14.08-.22.23-.22.39,0,.16.09.31.22.39"/>
  <line class="cls-1" x1="323.73" y1="223.86" x2="328.81" y2="226.85"/>
  <line class="cls-1" x1="242.77" y1="223.86" x2="237.99" y2="226.85"/>
  <line class="cls-1" x1="242.77" y1="222.97" x2="238.58" y2="220.58"/>
  <line class="cls-1" x1="323.73" y1="222.97" x2="328.21" y2="220.58"/>
  <path class="cls-1" d="m242.84,209.46c.14-.08.22-.23.22-.39s-.09-.31-.22-.39"/>
  <path class="cls-1" d="m323.95,208.69c-.14.08-.22.23-.22.39,0,.16.09.31.22.39"/>
  <line class="cls-1" x1="323.73" y1="209.82" x2="327.31" y2="211.91"/>
  <line class="cls-1" x1="242.77" y1="209.82" x2="239.48" y2="211.91"/>
  <line class="cls-1" x1="242.77" y1="208.93" x2="239.78" y2="207.13"/>
  <polyline class="cls-1" points="323.73 208.93 326.71 207.13 325.82 198.17"/>
  <line class="cls-1" x1="240.68" y1="198.17" x2="239.78" y2="207.13"/>
  <line class="cls-1" x1="327.31" y1="211.91" x2="328.21" y2="220.58"/>
  <line class="cls-1" x1="239.48" y1="211.91" x2="238.58" y2="220.58"/>
  <line class="cls-1" x1="328.81" y1="226.85" x2="329.4" y2="234.32"/>
  <line class="cls-1" x1="237.99" y1="226.85" x2="237.39" y2="234.32"/>
  <line class="cls-1" x1="330" y1="241.19" x2="330.9" y2="248.06"/>
  <line class="cls-1" x1="236.49" y1="241.19" x2="235.9" y2="248.06"/>
  <line class="cls-1" x1="332.69" y1="282.42" x2="332.69" y2="294.07"/>
  <line class="cls-1" x1="233.8" y1="282.42" x2="233.8" y2="294.07"/>
  <line class="cls-1" x1="322.83" y1="195.19" x2="325.82" y2="198.17"/>
  <line class="cls-1" x1="243.96" y1="195.19" x2="240.68" y2="198.17"/>
  <line class="cls-1" x1="331.49" y1="255.53" x2="332.09" y2="262.1"/>
  <line class="cls-1" x1="235.3" y1="255.53" x2="234.7" y2="262.1"/>
  <line class="cls-1" x1="332.69" y1="269.87" x2="332.69" y2="277.34"/>
  <line class="cls-1" x1="233.8" y1="269.87" x2="233.8" y2="277.34"/>
  <line class="cls-1" x1="343.44" y1="294.07" x2="343.44" y2="296.76"/>
  <line class="cls-1" x1="223.35" y1="294.07" x2="223.35" y2="296.76"/>
</svg>