<?xml version="1.0" encoding="UTF-8"?>
<svg id="Layer_1" data-name="Layer 1" xmlns="http://www.w3.org/2000/svg" viewBox="0 0 566.93 566.93">
  <defs>
    <style>
      .cls-1 {
        fill: none;
        stroke: #000;
        stroke-linecap: round;
        stroke-linejoin: round;
      }
    </style>
  </defs>
  <polyline class="cls-1" points="356.19 282.42 355.89 282.42 355.59 282.42 355.29 282.42 354.99 282.42 354.69 282.42 354.09 282.42 353.8 282.42 353.2 282.42 352.9 282.72 352.3 282.72 351.7 282.72 351.11 282.72 349.91 282.72 348.72 282.72 347.52 282.72 346.33 283.02 345.13 283.02 343.64 283.02 342.14 283.02 340.65 283.32 338.86 283.32 337.07 283.61 335.57 283.61 333.48 283.91 331.69 283.91 329.9 284.21 327.8 284.21 325.71 284.51 323.92 284.81 321.83 284.81 319.44 285.11 317.35 285.41 315.26 285.71 312.87 286 310.48 286.3 308.39 286.6 306 286.9 303.61 287.5 301.22 287.8 298.83 288.39 296.44 288.69 294.05 289.29 291.95 289.59 289.56 290.19 286.58 290.78 283.89 291.38 280.9 291.98 278.21 292.58 276.42 292.88 274.63 292.88 273.13 293.17 271.34 293.47 269.85 293.77 268.05 294.07 266.56 294.37 264.77 294.97 263.28 295.27 261.48 295.56 259.99 295.86 258.2 296.16 256.7 296.46 255.21 296.76 253.72 297.06 251.92 297.66 250.43 297.95 248.94 298.25 247.44 298.55 245.95 299.15 244.45 299.45 243.26 299.75 241.77 300.04 240.27 300.64 239.08 300.94 237.58 301.24 236.39 301.84 235.19 302.14 233.7 302.44 232.5 303.03 231.31 303.33 230.11 303.93 228.92 304.23 228.02 304.53 226.83 305.12 225.63 305.42 224.74 305.72 223.84 306.32 222.65 306.62 221.75 306.92 220.85 307.51 219.96 307.81 219.36 308.11 218.46 308.41 217.57 308.71 216.97 309.31 216.37 309.6 215.48 309.9 214.88 310.2 214.28 310.5 213.98 310.8 213.38 311.1 212.79 311.4 212.49 311.4 212.19 311.7 211.59 311.99 211.29 311.99 210.99 312.29 210.7 312.59 210.4 312.59"/>
  <polyline class="cls-1" points="313.46 315.58 312.87 315.58 311.07 315.58 307.79 315.58 303.61 315.58 298.53 315.58 292.55 315.58 285.68 315.58 278.21 315.58 270.45 315.58 262.68 315.58 254.61 315.58 246.84 315.58 239.67 315.58 232.8 315.58 226.83 315.58 221.45 315.58 217.27 315.58 214.28 315.58 212.49 315.58 211.89 315.58"/>
  <polyline class="cls-1" points="289.56 254.64 289.86 254.93 281.5 252.25 273.13 249.86 265.37 247.17 257.6 245.08 250.73 242.69 244.45 240.89 238.78 239.1 234.3 237.91 230.41 236.71 227.72 235.81 226.23 235.22 225.63 235.22"/>
  <polyline class="cls-1" points="210.4 251.95 210.7 251.95 210.99 251.95 210.99 252.25 211.29 252.25 211.59 252.25 211.89 252.25 212.49 252.25 212.79 252.25 213.38 252.25 213.68 252.25 214.28 252.25 214.88 252.25 215.48 252.54 216.07 252.54 216.97 252.54 217.57 252.54 218.46 252.54 219.06 252.54 219.96 252.84 220.85 252.84 221.75 252.84 222.94 252.84 223.84 252.84 224.74 253.14 225.93 253.14 226.83 253.14 228.02 253.14 229.22 253.14 230.41 253.44 231.61 253.44 232.5 253.44 234 253.44 235.19 253.44 236.39 253.74 237.58 253.74 239.08 253.74 240.27 253.74 241.77 253.74 242.96 254.04 244.45 254.04 245.95 254.04 247.44 254.04 248.94 254.04 250.43 254.04 251.92 254.04 253.42 254.04 255.21 254.04 256.7 254.04 258.2 254.04 259.99 254.04 261.48 254.04 263.28 254.04 264.77 254.04 266.56 254.04 268.05 254.04 269.85 254.04 271.34 254.04 273.13 253.74 274.93 253.74 276.42 253.74 278.21 253.74 279.71 253.44 281.2 253.44 282.39 253.44 283.89 253.74 285.38 253.74 286.88 254.04 288.07 254.34 289.56 254.64"/>
  <polyline class="cls-1" points="263.87 326.04 270.15 326.04 276.12 326.04 282.1 326.04 287.17 326.04 291.66 326.04 295.54 326.04"/>
  <polyline class="cls-1" points="296.73 326.04 299.42 326.04 300.92 326.04 301.22 326.04"/>
  <polyline class="cls-1" points="223.84 326.04 224.44 326.04 225.93 326.04 228.32 326.04"/>
  <polyline class="cls-1" points="261.48 369.95 260.29 370.55 259.09 371.15 258.2 371.74 257 372.04 256.11 372.34 254.91 372.94 254.01 373.24 253.12 373.54 252.22 373.84 251.03 373.84 250.13 374.13 249.23 374.43 248.34 374.43 247.44 374.43 246.55 374.43 245.65 374.43 244.75 374.43 243.56 374.43 242.66 374.43 241.77 374.43 240.87 374.13 239.97 373.84 239.08 373.84 237.88 373.54 236.99 373.24 236.09 372.94 234.89 372.34 234 372.04 233.1 371.74 231.91 371.15 230.71 370.55 229.82 369.95 229.82 326.04 233.4 326.04 238.18 326.04 243.26 326.04 248.94 326.04 255.21 326.04 261.48 326.04 261.48 369.95"/>
  <polyline class="cls-1" points="228.32 326.04 228.32 369.95 228.32 370.55 228.32 371.15 228.32 371.74 228.32 372.04 228.32 372.34 228.32 372.94 228.32 373.24 228.32 373.54 228.32 373.84 228.32 374.13 228.32 374.43"/>
  <polyline class="cls-1" points="296.73 374.43 296.73 374.13 296.73 373.84 296.73 373.54 296.73 373.24 296.73 372.94 296.73 372.34 296.73 372.04 296.73 371.74 296.73 371.15 296.73 370.55 296.73 369.95 296.73 326.04"/>
  <polyline class="cls-1" points="295.54 326.04 295.54 369.95 294.34 370.55 293.45 371.15 292.25 371.74 291.36 372.04 290.16 372.34 289.27 372.94 288.07 373.24 287.17 373.54 286.28 373.84 285.38 373.84 284.49 374.13 283.29 374.43 282.39 374.43 281.5 374.43 280.6 374.43 279.71 374.43 278.81 374.43 277.91 374.43 277.02 374.43 276.12 374.43 274.93 374.13 274.03 373.84 273.13 373.84 272.24 373.54 271.04 373.24 270.15 372.94 269.25 372.34 268.05 372.04 267.16 371.74 265.96 371.15 265.07 370.55 263.87 369.95 263.87 326.04"/>
  <line class="cls-1" x1="263.87" y1="369.95" x2="261.48" y2="369.95"/>
  <line class="cls-1" x1="296.73" y1="369.95" x2="295.54" y2="369.95"/>
  <line class="cls-1" x1="229.82" y1="369.95" x2="228.32" y2="369.95"/>
  <polyline class="cls-1" points="228.92 375.03 229.22 375.03 230.71 375.03 233.4 375.03 236.69 375.03 240.87 375.03 245.65 375.03 251.03 375.03 256.7 375.03 262.68 375.03 268.35 375.03 274.03 375.03 279.41 375.03 284.49 375.03 288.37 375.03 291.95 375.03 294.34 375.03 295.84 375.03 296.44 375.03"/>
  <polyline class="cls-1" points="243.56 240.59 244.75 239.7 245.95 239.1 247.44 238.2 248.64 237.31 249.83 236.41 251.33 235.52 252.52 234.62 253.72 233.72 255.21 232.53 256.4 231.63 257.6 230.44 259.09 229.24 260.29 228.35 261.48 227.15 262.68 225.96 263.87 224.76 265.07 223.27 266.26 222.07 267.46 220.88 268.65 219.38 269.85 218.19 271.04 216.69 271.94 215.5 273.13 214.01 274.03 212.81 274.93 211.32 275.82 210.12 277.02 208.63 277.91 207.13 278.51 205.94 279.41 204.45 280.3 203.25 281.2 202.36 282.1 201.76 282.99 201.16 283.89 200.56 284.79 199.67 285.38 199.07 286.28 198.47 286.88 197.58 287.77 196.98 288.37 196.38 288.97 195.48 289.56 194.89 290.16 193.99 290.76 193.39 291.36 192.8 291.95 191.9"/>
  <polyline class="cls-1" points="303.9 325.14 303.31 325.14 301.22 325.14 298.23 325.14 294.05 325.14 288.97 325.14 283.29 325.14 276.72 325.14 269.85 325.14 262.68 325.14 255.51 325.14 248.64 325.14 242.06 325.14 236.09 325.14 231.01 325.14 226.83 325.14 223.84 325.14 222.05 325.14 221.45 325.14"/>
  <polyline class="cls-1" points="289.86 254.93 297.33 257.03 304.8 259.42 311.97 261.51 320.04 263.9 327.51 266.29 334.38 268.38 340.65 270.17 345.73 271.96 349.91 273.16 352.9 274.05 354.69 274.65 355.29 274.65"/>
  <polyline class="cls-1" points="340.35 221.47 340.05 221.47 338.26 220.88 335.57 219.98 331.99 218.79 327.21 217.59 322.13 215.8 316.15 214.01 310.18 212.21 303.61 210.42 297.33 208.33 291.36 206.54 285.38 204.75 280.3 203.25"/>
  <polyline class="cls-1" points="331.09 203.85 330.49 203.85 328.7 203.25 325.71 202.36 321.53 201.16 317.05 199.67 311.67 197.87 306.29 196.38 301.22 194.89 296.14 193.09 291.95 191.9"/>
  <polyline class="cls-1" points="311.97 261.51 313.46 262.1 315.26 262.7 316.75 263.3 318.54 263.9 320.04 264.49 321.53 265.09 323.02 265.69 324.52 266.59 326.01 267.18 327.51 267.78 329 268.38 330.19 268.98 331.69 269.57 332.88 270.47 334.08 271.07 335.27 271.66 336.47 272.26 337.66 273.16 338.86 273.76 340.05 274.35 340.95 274.95 342.14 275.85 343.04 276.44 344.24 277.04 345.13 277.94 346.03 278.54 346.92 279.13 347.82 280.03 348.72 280.63 349.61 281.22 350.21 282.12 351.11 282.72"/>
  <line class="cls-1" x1="289.56" y1="288.39" x2="289.56" y2="256.43"/>
  <line class="cls-1" x1="278.21" y1="290.49" x2="278.21" y2="255.53"/>
  <path class="cls-1" d="m211.98,315.62c-.44-1.01-.91-2.01-1.42-3"/>
  <path class="cls-1" d="m356.53,282.29c-18.98,3.07-35.13,15.63-42.85,33.32"/>
  <line class="cls-1" x1="225.63" y1="235.22" x2="210.4" y2="251.95"/>
  <line class="cls-1" x1="301.22" y1="325.14" x2="301.22" y2="326.04"/>
  <line class="cls-1" x1="223.84" y1="325.14" x2="223.84" y2="326.04"/>
  <line class="cls-1" x1="228.92" y1="375.03" x2="228.32" y2="374.43"/>
  <line class="cls-1" x1="296.44" y1="375.03" x2="296.73" y2="374.43"/>
  <line class="cls-1" x1="221.45" y1="325.14" x2="211.89" y2="315.58"/>
  <line class="cls-1" x1="303.9" y1="325.14" x2="313.46" y2="315.58"/>
  <polyline class="cls-1" points="331.09 203.85 340.35 221.47 344.53 271.37"/>
  <line class="cls-1" x1="355.29" y1="274.65" x2="356.19" y2="282.42"/>
  <line class="cls-1" x1="210.4" y1="312.59" x2="210.4" y2="251.95"/>
</svg>