<?xml version="1.0" encoding="UTF-8"?>
<svg id="Layer_1" data-name="Layer 1" xmlns="http://www.w3.org/2000/svg" viewBox="0 0 566.93 566.93">
  <defs>
    <style>
      .cls-1 {
        fill: none;
        stroke: #000;
        stroke-linecap: round;
        stroke-linejoin: round;
      }
    </style>
  </defs>
  <polyline class="cls-1" points="263.3 430.9 263.6 430.9 263.6 430.6 263.9 430.6 264.2 430.6 264.49 430.6 264.79 430.6 265.39 430.3 265.99 430.3 266.29 430.3 266.88 430.3 267.78 430.3 268.38 430 268.98 430 269.87 430 270.77 430 271.37 430 272.26 430 273.46 429.7 274.35 429.7 275.25 429.7 276.15 429.7 277.34 429.7 278.24 429.7 279.43 429.4 280.33 429.4 281.52 429.4 282.72 429.4 283.61 429.4 284.81 429.1 286 429.1 286.9 429.1 288.09 429.1 289.29 429.1 290.19 429.1 291.38 428.8 292.28 428.8 293.47 428.8 294.37 428.8 295.26 428.8 296.16 428.8 297.06 428.51 297.95 428.51 298.85 428.51 299.75 428.51 300.34 428.51 301.24 428.51 301.84 428.21 302.43 428.21 303.03 428.21 303.63 428.21 304.23 428.21 304.53 428.21 305.12 428.21 305.42 427.91 305.72 427.91 306.02 427.91 306.32 427.91 306.62 427.61 306.32 427.61"/>
  <polyline class="cls-1" points="303.03 431.19 302.73 431.19 301.24 431.19 298.85 431.19 295.56 431.19 291.98 431.19 287.8 431.19 283.32 431.19 279.13 431.19 274.95 431.19 271.07 431.19 268.08 431.19 265.69 431.19 264.2 431.19 263.6 431.19"/>
  <polyline class="cls-1" points="307.51 339.48 307.81 339.48 307.81 339.78 307.51 339.78 307.51 340.08 307.21 340.08 306.92 340.08 306.32 340.08 306.02 340.38 305.42 340.38 304.82 340.38 304.23 340.38 303.63 340.67 302.73 340.67 302.14 340.67 301.24 340.97 300.34 340.97 299.45 340.97 298.55 340.97 297.36 341.27 296.46 341.27 295.26 341.27 294.07 341.27 293.17 341.57 291.98 341.57 290.78 341.57 289.59 341.87 288.39 341.87 287.2 341.87 286 341.87 284.81 342.17 283.61 342.17 282.12 342.17 280.93 342.17 279.73 342.47 278.54 342.47 277.34 342.47 276.15 342.47 274.95 342.77 273.76 342.77 272.86 342.77 271.66 343.06 270.47 343.06 269.57 343.06 268.68 343.06 267.48 343.36 266.59 343.36 265.69 343.36 265.09 343.36 264.2 343.66 263.3 343.66 262.7 343.66 262.1 343.66 261.51 343.96 260.91 343.96 260.61 343.96 260.01 344.26 259.71 344.26 259.42 344.26 259.12 344.26 259.12 344.56 258.82 344.56"/>
  <polyline class="cls-1" points="307.81 349.34 307.81 349.64 307.51 349.64 307.21 349.94 306.92 349.94 306.62 349.94 306.32 350.23 305.72 350.23 305.42 350.23 304.82 350.23 304.23 350.53 303.63 350.53 302.73 350.53 302.14 350.53 301.24 350.83 300.34 350.83 299.45 350.83 298.55 350.83 297.66 351.13 296.46 351.13 295.56 351.13 294.37 351.43 293.17 351.43 291.98 351.43 290.78 351.43 289.59 351.73 288.39 351.73 287.2 351.73 286 351.73 284.81 352.03 283.61 352.03 282.42 352.03 280.93 352.03 279.73 352.33 278.54 352.33 277.34 352.33 276.15 352.62 274.95 352.62 273.76 352.62 272.56 352.62 271.66 352.92 270.47 352.92 269.57 352.92 268.38 352.92 267.48 353.22 266.59 353.22 265.69 353.22 264.79 353.22 263.9 353.52 263.3 353.52 262.7 353.52 262.1 353.82 261.51 353.82 260.91 353.82 260.61 353.82 260.31 354.12 259.71 354.12 259.42 354.12 259.12 354.42"/>
  <polyline class="cls-1" points="307.51 359.2 307.81 359.2 307.81 359.5 307.51 359.79 307.21 359.79 306.92 359.79 306.32 360.09 306.02 360.09 305.42 360.09 304.82 360.09 304.23 360.39 303.63 360.39 302.73 360.39 302.14 360.39 301.24 360.69 300.34 360.69 299.45 360.69 298.55 360.99 297.36 360.99 296.46 360.99 295.26 360.99 294.37 361.29 293.17 361.29 291.98 361.29 290.78 361.29 289.59 361.59 288.39 361.59 287.2 361.59 286 361.59 284.81 361.89 283.32 361.89 282.12 361.89 280.93 362.18 279.73 362.18 278.54 362.18 277.34 362.18 276.15 362.48 274.95 362.48 273.76 362.48 272.56 362.48 271.66 362.78 270.47 362.78 269.57 362.78 268.68 362.78 267.48 363.08 266.59 363.08 265.69 363.08 265.09 363.38 264.2 363.38 263.6 363.38 262.7 363.38 262.1 363.68 261.51 363.68 261.21 363.68 260.61 363.68 260.31 363.98 259.71 363.98 259.42 363.98 259.12 364.28 258.82 364.28"/>
  <polyline class="cls-1" points="307.81 369.06 307.81 369.35 307.51 369.65 307.21 369.65 306.62 369.65 306.32 369.95 305.72 369.95 305.42 369.95 304.82 369.95 304.23 370.25 303.33 370.25 302.73 370.25 301.84 370.55 301.24 370.55 300.34 370.55 299.45 370.55 298.25 370.85 297.36 370.85 296.46 370.85 295.26 370.85 294.37 371.15 293.17 371.15 291.98 371.15 290.78 371.15 289.59 371.45 288.39 371.45 287.2 371.45 286 371.74 284.81 371.74 283.61 371.74 282.42 371.74 280.93 372.04 279.73 372.04 278.54 372.04 277.34 372.04 276.15 372.34 274.95 372.34 273.76 372.34 272.86 372.34 271.66 372.64 270.47 372.64 269.57 372.64 268.68 372.94 267.48 372.94 266.59 372.94 265.69 372.94 264.79 373.24 264.2 373.24 263.3 373.24 262.7 373.24 262.1 373.54 261.51 373.54 260.91 373.54 260.31 373.54 260.01 373.84 259.71 373.84 259.42 373.84 259.12 374.13"/>
  <polyline class="cls-1" points="307.51 378.91 307.51 379.21 307.81 379.21 307.51 379.21 307.51 379.51 307.21 379.51 306.92 379.51 306.62 379.51 306.32 379.81 306.02 379.81 305.42 379.81 304.82 380.11 304.23 380.11 303.63 380.11 303.03 380.11 302.14 380.41 301.24 380.41 300.34 380.41 299.45 380.41 298.55 380.71 297.66 380.71 296.46 380.71 295.26 380.71 294.37 381.01 293.17 381.01 291.98 381.01 290.78 381.3 289.59 381.3 288.39 381.3 287.2 381.3 286 381.6 284.81 381.6 283.61 381.6 282.12 381.6 280.93 381.9 279.73 381.9 278.54 381.9 277.34 381.9 276.15 382.2 274.95 382.2 273.76 382.2 272.56 382.5 271.66 382.5 270.47 382.5 269.57 382.5 268.38 382.8 267.48 382.8 266.59 382.8 265.69 382.8 264.79 383.1 264.2 383.1 263.3 383.1 262.7 383.4 262.1 383.4 261.51 383.4 261.21 383.4 260.61 383.69 260.31 383.69 260.01 383.69 259.71 383.69 259.42 383.99 259.12 383.99"/>
  <polyline class="cls-1" points="307.81 388.77 307.81 389.07 307.81 389.37 307.51 389.37 307.21 389.37 306.92 389.67 306.32 389.67 306.02 389.67 305.42 389.67 304.82 389.97 304.23 389.97 303.33 389.97 302.73 389.97 301.84 390.27 301.24 390.27 300.34 390.27 299.45 390.27 298.25 390.56 297.36 390.56 296.46 390.56 295.26 390.86 294.37 390.86 293.17 390.86 291.98 390.86 290.78 391.16 289.59 391.16 288.39 391.16 287.2 391.16 286 391.46 284.81 391.46 283.61 391.46 282.42 391.76 280.93 391.76 279.73 391.76 278.54 391.76 277.34 392.06 276.15 392.06 274.95 392.06 274.05 392.06 272.86 392.36 271.66 392.36 270.77 392.36 269.57 392.36 268.68 392.66 267.48 392.66 266.59 392.66 265.69 392.96 264.79 392.96 264.2 392.96 263.3 392.96 262.7 393.25 262.1 393.25 261.51 393.25 260.91 393.25 260.31 393.55 260.01 393.55 259.71 393.55 259.42 393.55 259.12 393.85 258.82 393.85 258.82 394.15"/>
  <polyline class="cls-1" points="307.51 398.63 307.81 398.93 307.51 399.23 307.21 399.23 306.92 399.23 306.62 399.53 306.32 399.53 305.72 399.53 305.42 399.53 304.82 399.83 304.23 399.83 303.63 399.83 302.73 399.83 302.14 400.12 301.24 400.12 300.34 400.12 299.45 400.42 298.55 400.42 297.66 400.42 296.46 400.42 295.56 400.72 294.37 400.72 293.17 400.72 291.98 400.72 290.78 401.02 289.59 401.02 288.39 401.02 287.2 401.32 286 401.32 284.81 401.32 283.61 401.32 282.12 401.62 280.93 401.62 279.73 401.62 278.54 401.62 277.34 401.92 276.15 401.92 274.95 401.92 273.76 401.92 272.56 402.22 271.66 402.22 270.47 402.22 269.57 402.51 268.38 402.51 267.48 402.51 266.59 402.51 265.69 402.81 264.79 402.81 264.2 402.81 263.3 402.81 262.7 403.11 262.1 403.11 261.51 403.11 260.91 403.11 260.61 403.41 260.31 403.41 260.01 403.41 259.71 403.71 259.42 403.71 259.12 403.71 259.12 404.01"/>
  <polyline class="cls-1" points="307.81 408.79 307.81 409.09 307.51 409.09 307.21 409.09 306.92 409.39 306.32 409.39 306.02 409.39 305.42 409.68 304.82 409.68 304.23 409.68 303.63 409.68 302.73 409.98 301.84 409.98 301.24 409.98 300.34 409.98 299.45 410.28 298.25 410.28 297.36 410.28 296.46 410.28 295.26 410.58 294.07 410.58 293.17 410.58 291.98 410.88 290.78 410.88 289.59 410.88 288.39 410.88 287.2 411.18 286 411.18 284.81 411.18 283.61 411.18 282.12 411.48 280.93 411.48 279.73 411.48 278.54 411.48 277.34 411.78 276.15 411.78 274.95 411.78 273.76 412.07 272.86 412.07 271.66 412.07 270.47 412.07 269.57 412.37 268.68 412.37 267.48 412.37 266.59 412.37 265.69 412.67 265.09 412.67 264.2 412.67 263.3 412.67 262.7 412.97 262.1 412.97 261.51 412.97 260.91 413.27 260.61 413.27 260.01 413.27 259.71 413.27 259.42 413.57 259.12 413.57 258.82 413.57 258.82 413.87"/>
  <polyline class="cls-1" points="307.81 418.65 307.51 418.95 307.21 418.95 306.92 419.24 306.62 419.24 306.32 419.24 305.72 419.24 305.12 419.54 304.82 419.54 304.23 419.54 303.33 419.54 302.73 419.84 302.14 419.84 301.24 419.84 300.34 419.84 299.45 420.14 298.55 420.14 297.66 420.14 296.46 420.44 295.56 420.44 294.37 420.44 293.17 420.44 291.98 420.74 290.78 420.74 289.59 420.74 288.39 420.74 287.2 421.04 286 421.04 284.81 421.04 283.61 421.04 282.42 421.34 280.93 421.34 279.73 421.34 278.54 421.63 277.34 421.63 276.15 421.63 274.95 421.63 273.76 421.93 272.56 421.93 271.66 421.93 270.47 421.93 269.57 422.23 268.38 422.23 267.48 422.23 266.59 422.23 265.69 422.53 264.79 422.53 263.9 422.53 263.3 422.83 262.7 422.83 262.1 422.83 261.51 422.83 260.91 423.13 260.61 423.13 260.01 423.13 259.71 423.13 259.42 423.43 259.12 423.43 259.12 423.73"/>
  <polyline class="cls-1" points="294.37 337.99 293.47 337.99 292.28 337.99 291.08 338.28 290.19 338.28 288.99 338.28 287.8 338.58 286.6 338.58 285.41 338.58 284.21 338.88 283.02 338.88 281.82 338.88 280.63 339.18 279.43 339.18 278.24 339.18 277.04 339.48 276.15 339.48 274.95 339.48 273.76 339.78 272.86 339.78 271.96 339.78 270.77 340.08 269.87 340.08 269.27 340.08 268.38 340.38 267.78 340.38 267.18 340.38 266.59 340.67 265.99 340.67 265.69 340.67 265.39 340.97 265.09 340.97 264.79 340.97"/>
  <polyline class="cls-1" points="302.14 346.35 301.84 346.65 301.54 346.65 301.24 346.65 300.94 346.95 300.64 346.95 300.34 346.95 299.75 346.95 299.45 347.25 298.85 347.25 298.25 347.25 297.95 347.25 297.36 347.55 296.46 347.55 295.86 347.55 295.26 347.55 294.67 347.84 293.77 347.84 293.17 347.84 292.28 347.84 291.38 348.14 290.78 348.14 289.89 348.14 288.99 348.14 288.09 348.44 287.2 348.44 286.6 348.44 285.71 348.44 284.81 348.74 283.91 348.74 283.02 348.74 282.12 348.74 281.22 349.04 280.33 349.04 279.43 349.04 278.54 349.04 277.64 349.34 277.04 349.34 276.15 349.34 275.25 349.34 274.35 349.64 273.76 349.64 272.86 349.64 272.26 349.64 271.66 349.94 270.77 349.94 270.17 349.94 269.57 349.94 268.98 350.23 268.68 350.23 268.08 350.23 267.48 350.23 267.18 350.53 266.88 350.53 266.29 350.53 265.99 350.53 265.69 350.83 265.39 350.83 265.09 350.83 264.79 351.13"/>
  <polyline class="cls-1" points="302.14 356.21 302.14 356.51 301.84 356.51 301.54 356.51 301.24 356.81 300.94 356.81 300.64 356.81 300.34 356.81 299.75 357.11 299.45 357.11 298.85 357.11 298.25 357.11 297.66 357.4 297.06 357.4 296.46 357.4 295.86 357.4 295.26 357.7 294.37 357.7 293.77 357.7 292.87 357.7 292.28 358 291.38 358 290.78 358 289.89 358 288.99 358.3 288.09 358.3 287.2 358.3 286.3 358.3 285.41 358.3 284.81 358.6 283.91 358.6 283.02 358.6 282.12 358.6 281.22 358.9 280.33 358.9 279.43 358.9 278.54 358.9 277.64 359.2 277.04 359.2 276.15 359.2 275.25 359.2 274.35 359.5 273.76 359.5 272.86 359.5 272.26 359.5 271.66 359.79 271.07 359.79 270.47 359.79 269.87 359.79 269.27 360.09 268.68 360.09 268.08 360.09 267.78 360.09 267.18 360.39 266.88 360.39 266.29 360.39 265.99 360.39 265.69 360.69 265.39 360.69 265.09 360.69 264.79 360.99"/>
  <polyline class="cls-1" points="302.14 366.07 302.14 366.37 301.84 366.37 301.54 366.37 301.24 366.67 300.94 366.67 300.64 366.67 300.34 366.67 299.75 366.96 299.45 366.96 298.85 366.96 298.25 366.96 297.66 367.26 297.06 367.26 296.46 367.26 295.86 367.26 295.26 367.56 294.37 367.56 293.77 367.56 292.87 367.56 292.28 367.86 291.38 367.86 290.49 367.86 289.89 367.86 288.99 368.16 288.09 368.16 287.2 368.16 286.3 368.16 285.71 368.46 284.81 368.46 283.91 368.46 283.02 368.46 282.12 368.76 281.22 368.76 280.33 368.76 279.43 368.76 278.54 369.06 277.64 369.06 277.04 369.06 276.15 369.06 275.25 369.35 274.65 369.35 273.76 369.35 273.16 369.35 272.26 369.65 271.66 369.65 271.07 369.65 270.47 369.65 269.87 369.95 269.27 369.95 268.68 369.95 268.08 369.95 267.78 369.95 267.18 370.25 266.88 370.25 266.29 370.25 265.99 370.25 265.69 370.55 265.39 370.55 265.09 370.55 264.79 370.85"/>
  <polyline class="cls-1" points="302.14 375.93 302.14 376.23 301.84 376.23 301.54 376.23 301.24 376.52 300.94 376.52 300.64 376.52 300.04 376.52 299.75 376.82 299.15 376.82 298.85 376.82 298.25 376.82 297.66 377.12 297.06 377.12 296.46 377.12 295.86 377.12 295.26 377.42 294.37 377.42 293.77 377.42 292.87 377.42 292.28 377.72 291.38 377.72 290.49 377.72 289.89 377.72 288.99 378.02 288.09 378.02 287.2 378.02 286.6 378.02 285.71 378.32 284.81 378.32 283.91 378.32 283.02 378.32 282.12 378.62 281.22 378.62 280.33 378.62 279.43 378.62 278.54 378.91 277.64 378.91 277.04 378.91 276.15 378.91 275.25 379.21 274.65 379.21 273.76 379.21 273.16 379.21 272.26 379.51 271.66 379.51 271.07 379.51 270.47 379.51 269.87 379.81 269.27 379.81 268.68 379.81 268.08 379.81 267.48 380.11 267.18 380.11 266.59 380.11 266.29 380.11 265.99 380.41 265.69 380.41 265.39 380.41 265.09 380.41 264.79 380.71"/>
  <polyline class="cls-1" points="302.14 385.79 302.14 386.08 301.84 386.08 301.54 386.08 301.54 386.38 301.24 386.38 300.94 386.38 300.34 386.38 300.04 386.68 299.75 386.68 299.15 386.68 298.55 386.68 298.25 386.98 297.66 386.98 297.06 386.98 296.46 386.98 295.86 387.28 295.26 387.28 294.37 387.28 293.77 387.28 292.87 387.58 292.28 387.58 291.38 387.58 290.78 387.58 289.89 387.58 288.99 387.88 288.09 387.88 287.5 387.88 286.6 387.88 285.71 388.18 284.81 388.18 283.91 388.18 283.02 388.18 282.12 388.47 281.22 388.47 280.33 388.47 279.43 388.47 278.54 388.77 277.94 388.77 277.04 388.77 276.15 388.77 275.25 389.07 274.65 389.07 273.76 389.07 273.16 389.07 272.26 389.37 271.66 389.37 271.07 389.37 270.47 389.37 269.57 389.67 268.98 389.67 268.68 389.67 268.08 389.67 267.48 389.97 267.18 389.97 266.59 389.97 266.29 389.97 265.99 390.27 265.39 390.27 265.09 390.27 264.79 390.56"/>
  <polyline class="cls-1" points="302.14 395.64 302.14 395.94 301.84 395.94 301.54 395.94 301.24 396.24 300.94 396.24 300.64 396.24 300.34 396.24 300.04 396.54 299.45 396.54 299.15 396.54 298.55 396.54 298.25 396.84 297.66 396.84 297.06 396.84 296.46 396.84 295.86 397.14 295.26 397.14 294.37 397.14 293.77 397.14 293.17 397.44 292.28 397.44 291.68 397.44 290.78 397.44 289.89 397.73 288.99 397.73 288.09 397.73 287.5 397.73 286.6 398.03 285.71 398.03 284.81 398.03 283.91 398.03 283.02 398.33 282.12 398.33 281.22 398.33 280.33 398.33 279.43 398.63 278.83 398.63 277.94 398.63 277.04 398.63 276.15 398.93 275.25 398.93 274.65 398.93 273.76 398.93 273.16 398.93 272.26 399.23 271.66 399.23 271.07 399.23 270.17 399.23 269.57 399.53 268.98 399.53 268.38 399.53 268.08 399.53 267.48 399.83 266.88 399.83 266.59 399.83 266.29 399.83 265.69 400.12 265.39 400.12 265.09 400.12 264.79 400.42"/>
  <polyline class="cls-1" points="302.14 405.5 302.14 405.8 301.84 405.8 301.54 405.8 301.24 406.1 300.94 406.1 300.64 406.1 300.34 406.1 300.04 406.4 299.75 406.4 299.15 406.4 298.85 406.4 298.25 406.7 297.66 406.7 297.06 406.7 296.46 406.7 295.86 407 295.26 407 294.67 407 293.77 407 293.17 407.29 292.28 407.29 291.68 407.29 290.78 407.29 289.89 407.59 288.99 407.59 288.09 407.59 287.5 407.59 286.6 407.89 285.71 407.89 284.81 407.89 283.91 407.89 283.02 408.19 282.12 408.19 281.22 408.19 280.33 408.19 279.43 408.49 278.54 408.49 277.94 408.49 277.04 408.49 276.15 408.79 275.25 408.79 274.65 408.79 273.76 408.79 273.16 409.09 272.26 409.09 271.66 409.09 270.77 409.09 270.17 409.39 269.57 409.39 268.98 409.39 268.38 409.39 267.78 409.68 267.48 409.68 266.88 409.68 266.59 409.68 266.29 409.98 265.99 409.98 265.69 409.98 265.39 409.98 265.09 410.28 264.79 410.28"/>
  <polyline class="cls-1" points="302.14 415.36 302.14 415.66 301.84 415.66 301.54 415.96 301.24 415.96 300.94 415.96 300.64 415.96 300.34 416.26 300.04 416.26 299.75 416.26 299.15 416.26 298.85 416.56 298.25 416.56 297.66 416.56 297.06 416.56 296.46 416.85 295.86 416.85 295.26 416.85 294.67 416.85 293.77 416.85 293.17 417.15 292.28 417.15 291.68 417.15 290.78 417.15 289.89 417.45 288.99 417.45 288.09 417.45 287.5 417.45 286.6 417.75 285.71 417.75 284.81 417.75 283.91 417.75 283.02 418.05 282.12 418.05 281.22 418.05 280.33 418.05 279.43 418.35 278.54 418.35 277.64 418.35 277.04 418.35 276.15 418.65 275.25 418.65 274.65 418.65 273.76 418.65 272.86 418.95 272.26 418.95 271.66 418.95 270.77 418.95 270.17 419.24 269.57 419.24 268.98 419.24 268.38 419.24 268.08 419.54 267.48 419.54 266.88 419.54 266.59 419.54 266.29 419.84 265.99 419.84 265.69 419.84 265.39 419.84 265.09 420.14 264.79 420.14"/>
  <polyline class="cls-1" points="302.14 425.22 302.14 425.52 301.84 425.52 301.54 425.82 301.24 425.82 300.94 425.82 300.64 426.12 300.04 426.12 299.75 426.12 299.45 426.12 298.85 426.41 298.25 426.41 297.95 426.41 297.36 426.41 296.46 426.71 295.86 426.71 295.26 426.71 294.67 426.71 293.77 427.01 293.17 427.01 292.28 427.01 291.38 427.01 290.78 427.31 289.89 427.31 288.99 427.31 288.09 427.31 287.2 427.61 286.6 427.61 285.71 427.61 284.81 427.61 283.91 427.91 283.02 427.91 282.12 427.91 281.22 427.91 280.33 428.21 279.43 428.21 278.54 428.21 277.64 428.21 277.04 428.21 276.15 428.51 275.25 428.51 274.35 428.51 273.76 428.51 272.86 428.8 272.26 428.8 271.66 428.8 270.77 428.8 270.17 429.1 269.57 429.1 268.98 429.1 268.38 429.1 268.08 429.4 267.48 429.4 267.18 429.4 266.59 429.4 266.29 429.7 265.99 429.7 265.69 429.7 265.39 429.7 265.09 430 264.79 430"/>
  <polyline class="cls-1" points="259.12 425.22 259.12 424.92 259.42 424.92 259.42 424.62 259.71 424.62 260.01 424.62 260.31 424.62 260.91 424.32 261.21 424.32 261.81 424.32 262.4 424.32 263.3 424.02 263.9 424.02 264.79 424.02 265.39 424.02 266.29 423.73 267.18 423.73 268.38 423.73 269.27 423.43 270.47 423.43 271.37 423.43 272.56 423.43 273.76 423.13 274.95 423.13 275.85 423.13 277.04 423.13 278.54 422.83 279.73 422.83 280.93 422.83 282.12 422.83 283.32 422.53 284.51 422.53 285.71 422.53 286.9 422.23 288.39 422.23 289.59 422.23 290.78 422.23 291.98 421.93 292.87 421.93 294.07 421.93 295.26 421.93 296.16 421.63 297.36 421.63 298.25 421.63 299.15 421.63 300.04 421.34 300.94 421.34 301.84 421.34 302.73 421.04 303.33 421.04 303.93 421.04 304.53 421.04 305.12 420.74 305.72 420.74 306.32 420.74 306.62 420.74 306.92 420.44 307.21 420.44 307.51 420.44 307.51 420.14 307.81 420.14"/>
  <polyline class="cls-1" points="259.12 415.36 258.82 415.36 258.82 415.06 259.12 415.06 259.42 414.76 259.71 414.76 260.01 414.76 260.31 414.76 260.91 414.46 261.51 414.46 262.1 414.46 262.7 414.46 263.3 414.17 264.2 414.17 264.79 414.17 265.69 413.87 266.59 413.87 267.48 413.87 268.38 413.87 269.27 413.57 270.47 413.57 271.37 413.57 272.56 413.57 273.76 413.27 274.65 413.27 275.85 413.27 277.04 413.27 278.24 412.97 279.43 412.97 280.93 412.97 282.12 412.67 283.32 412.67 284.51 412.67 285.71 412.67 286.9 412.37 288.09 412.37 289.29 412.37 290.49 412.37 291.68 412.07 292.87 412.07 294.07 412.07 295.26 411.78 296.16 411.78 297.36 411.78 298.25 411.78 299.15 411.48 300.04 411.48 300.94 411.48 301.84 411.48 302.73 411.18 303.33 411.18 304.23 411.18 304.82 411.18 305.42 410.88 306.02 410.88 306.32 410.88 306.92 410.58 307.21 410.58 307.51 410.58 307.81 410.28"/>
  <polyline class="cls-1" points="259.12 405.5 259.12 405.2 259.42 405.2 259.71 404.9 260.01 404.9 260.61 404.9 260.91 404.61 261.51 404.61 262.1 404.61 262.7 404.31 263.3 404.31 263.9 404.31 264.79 404.31 265.39 404.01 266.29 404.01 267.18 404.01 268.38 404.01 269.27 403.71 270.17 403.71 271.37 403.71 272.56 403.71 273.76 403.41 274.65 403.41 275.85 403.41 277.04 403.11 278.24 403.11 279.43 403.11 280.93 403.11 282.12 402.81 283.32 402.81 284.51 402.81 285.71 402.81 286.9 402.51 288.09 402.51 289.59 402.51 290.78 402.22 291.98 402.22 292.87 402.22 294.07 402.22 295.26 401.92 296.16 401.92 297.36 401.92 298.25 401.92 299.45 401.62 300.34 401.62 301.24 401.62 301.84 401.62 302.73 401.32 303.33 401.32 303.93 401.32 304.53 401.02 305.12 401.02 305.72 401.02 306.32 401.02 306.62 400.72 306.92 400.72 307.21 400.72 307.51 400.72 307.51 400.42 307.81 400.42"/>
  <polyline class="cls-1" points="259.12 395.64 258.82 395.35 259.12 395.35 259.42 395.05 259.71 395.05 260.01 395.05 260.31 394.75 260.91 394.75 261.21 394.75 261.81 394.75 262.4 394.45 263.3 394.45 263.9 394.45 264.79 394.45 265.69 394.15 266.59 394.15 267.48 394.15 268.38 393.85 269.27 393.85 270.47 393.85 271.37 393.85 272.56 393.55 273.76 393.55 274.95 393.55 276.15 393.55 277.34 393.25 278.54 393.25 279.73 393.25 280.93 393.25 282.12 392.96 283.32 392.96 284.51 392.96 285.71 392.66 286.9 392.66 288.09 392.66 289.29 392.66 290.49 392.36 291.68 392.36 292.87 392.36 294.07 392.36 295.26 392.06 296.16 392.06 297.36 392.06 298.25 392.06 299.15 391.76 300.04 391.76 300.94 391.76 301.84 391.46 302.73 391.46 303.33 391.46 303.93 391.46 304.82 391.16 305.12 391.16 305.72 391.16 306.32 391.16 306.62 390.86 307.21 390.86 307.51 390.86 307.81 390.56"/>
  <polyline class="cls-1" points="259.12 385.79 259.12 385.49 259.42 385.19 259.71 385.19 260.01 385.19 260.61 384.89 260.91 384.89 261.51 384.89 262.1 384.89 262.7 384.59 263.3 384.59 263.9 384.59 264.79 384.29 265.69 384.29 266.59 384.29 267.48 384.29 268.38 383.99 269.27 383.99 270.17 383.99 271.37 383.99 272.56 383.69 273.46 383.69 274.65 383.69 275.85 383.69 277.04 383.4 278.24 383.4 279.43 383.4 280.63 383.1 282.12 383.1 283.32 383.1 284.51 383.1 285.71 382.8 286.9 382.8 288.09 382.8 289.29 382.8 290.49 382.5 291.68 382.5 292.87 382.5 294.07 382.5 295.26 382.2 296.16 382.2 297.36 382.2 298.25 381.9 299.45 381.9 300.34 381.9 301.24 381.9 301.84 381.6 302.73 381.6 303.63 381.6 304.23 381.6 304.82 381.3 305.42 381.3 305.72 381.3 306.32 381.3 306.62 381.01 306.92 381.01 307.21 381.01 307.51 380.71 307.81 380.71"/>
  <polyline class="cls-1" points="259.12 375.93 259.12 375.63 259.12 375.33 259.42 375.33 259.71 375.33 260.01 375.33 260.31 375.03 260.91 375.03 261.21 375.03 261.81 374.73 262.4 374.73 263.3 374.73 263.9 374.73 264.79 374.43 265.69 374.43 266.59 374.43 267.48 374.43 268.38 374.13 269.27 374.13 270.47 374.13 271.37 374.13 272.56 373.84 273.76 373.84 274.95 373.84 276.15 373.54 277.34 373.54 278.54 373.54 279.73 373.54 280.93 373.24 282.12 373.24 283.32 373.24 284.51 373.24 285.71 372.94 286.9 372.94 288.09 372.94 289.59 372.94 290.78 372.64 291.68 372.64 292.87 372.64 294.07 372.34 295.26 372.34 296.16 372.34 297.36 372.34 298.25 372.04 299.15 372.04 300.04 372.04 300.94 372.04 301.84 371.74 302.43 371.74 303.33 371.74 303.93 371.74 304.53 371.45 305.12 371.45 305.72 371.45 306.32 371.15 306.62 371.15 306.92 371.15 307.21 371.15 307.51 370.85 307.81 370.85"/>
  <polyline class="cls-1" points="259.12 366.07 258.82 365.77 259.12 365.77 259.12 365.47 259.42 365.47 259.71 365.47 260.01 365.17 260.61 365.17 260.91 365.17 261.51 365.17 262.1 364.87 262.7 364.87 263.3 364.87 264.2 364.87 264.79 364.57 265.69 364.57 266.59 364.57 267.48 364.57 268.38 364.28 269.27 364.28 270.47 364.28 271.37 363.98 272.56 363.98 273.46 363.98 274.65 363.98 275.85 363.68 277.04 363.68 278.24 363.68 279.43 363.68 280.63 363.38 282.12 363.38 283.32 363.38 284.51 363.38 285.71 363.08 286.9 363.08 288.09 363.08 289.29 362.78 290.49 362.78 291.68 362.78 292.87 362.78 294.07 362.48 295.26 362.48 296.16 362.48 297.36 362.48 298.25 362.18 299.15 362.18 300.34 362.18 301.24 362.18 301.84 361.89 302.73 361.89 303.63 361.89 304.23 361.59 304.82 361.59 305.42 361.59 306.02 361.59 306.32 361.29 306.62 361.29 306.92 361.29 307.21 361.29 307.51 360.99 307.81 360.99 307.81 360.69"/>
  <polyline class="cls-1" points="259.12 356.21 259.12 355.91 259.12 355.61 259.42 355.61 259.71 355.61 260.01 355.31 260.31 355.31 260.91 355.31 261.21 355.31 261.81 355.01 262.4 355.01 263.3 355.01 263.9 355.01 264.79 354.72 265.39 354.72 266.29 354.72 267.18 354.42 268.38 354.42 269.27 354.42 270.47 354.42 271.37 354.12 272.56 354.12 273.76 354.12 274.95 354.12 276.15 353.82 277.34 353.82 278.54 353.82 279.73 353.82 280.93 353.52 282.12 353.52 283.32 353.52 284.51 353.22 285.71 353.22 286.9 353.22 288.39 353.22 289.59 352.92 290.78 352.92 291.98 352.92 292.87 352.92 294.07 352.62 295.26 352.62 296.16 352.62 297.36 352.33 298.25 352.33 299.15 352.33 300.04 352.33 300.94 352.03 301.84 352.03 302.73 352.03 303.33 352.03 303.93 351.73 304.53 351.73 305.12 351.73 305.72 351.73 306.02 351.43 306.62 351.43 306.92 351.43 307.21 351.13 307.51 351.13 307.81 351.13 307.81 350.83"/>
  <polyline class="cls-1" points="259.12 346.05 258.82 346.05 259.12 345.75 259.42 345.75 259.71 345.75 260.01 345.45 260.31 345.45 260.91 345.45 261.51 345.45 262.1 345.16 262.7 345.16 263.3 345.16 264.2 344.86 264.79 344.86 265.69 344.86 266.59 344.86 267.48 344.56 268.38 344.56 269.27 344.56 270.47 344.56 271.37 344.26 272.56 344.26 273.76 344.26 274.65 344.26 275.85 343.96 277.04 343.96 278.24 343.96 279.43 343.66 280.93 343.66 282.12 343.66 283.32 343.66 284.51 343.36 285.71 343.36 286.9 343.36 288.09 343.36 289.29 343.06 290.49 343.06 291.68 343.06 292.87 342.77 294.07 342.77 294.97 342.77 296.16 342.77 297.36 342.47 298.25 342.47 299.15 342.47 300.04 342.47 300.94 342.17 301.84 342.17 302.73 342.17 303.33 342.17 304.23 341.87 304.82 341.87 305.42 341.87 306.02 341.57 306.32 341.57 306.92 341.57 307.21 341.57 307.51 341.27 307.81 341.27 307.81 340.97"/>
  <polyline class="cls-1" points="272.56 337.99 271.66 337.99 270.77 337.99 269.87 338.28 269.27 338.28 268.38 338.28 267.78 338.58 267.18 338.58 266.88 338.58 266.29 338.88 265.99 338.88 265.69 338.88 265.39 338.88 265.09 339.18 264.79 339.18 264.79 339.48"/>
  <polyline class="cls-1" points="302.14 344.56 301.84 344.56 301.54 344.86 301.24 344.86 300.94 344.86 300.64 344.86 300.34 345.16 299.75 345.16 299.45 345.16 298.85 345.16 298.25 345.45 297.66 345.45 297.06 345.45 296.46 345.45 295.86 345.75 295.26 345.75 294.37 345.75 293.77 345.75 292.87 346.05 292.28 346.05 291.38 346.05 290.49 346.05 289.89 346.35 288.99 346.35 288.09 346.35 287.2 346.35 286.3 346.65 285.41 346.65 284.51 346.65 283.91 346.65 283.02 346.95 282.12 346.95 281.22 346.95 280.33 346.95 279.43 347.25 278.54 347.25 277.64 347.25 276.74 347.25 276.15 347.55 275.25 347.55 274.35 347.55 273.76 347.55 272.86 347.84 272.26 347.84 271.66 347.84 271.07 347.84 270.17 348.14 269.57 348.14 269.27 348.14 268.68 348.14 268.08 348.44 267.48 348.44 267.18 348.44 266.88 348.44 266.29 348.74 265.99 348.74 265.69 348.74 265.39 348.74 265.09 349.04 264.79 349.04 264.49 349.34"/>
  <polyline class="cls-1" points="302.14 354.42 301.84 354.42 301.84 354.72 301.54 354.72 301.24 354.72 300.94 354.72 300.64 355.01 300.04 355.01 299.75 355.01 299.15 355.01 298.85 355.31 298.25 355.31 297.66 355.31 297.06 355.31 296.46 355.61 295.86 355.61 294.97 355.61 294.37 355.61 293.77 355.91 292.87 355.91 292.28 355.91 291.38 355.91 290.49 356.21 289.89 356.21 288.99 356.21 288.09 356.21 287.2 356.21 286.3 356.51 285.41 356.51 284.81 356.51 283.91 356.51 283.02 356.81 282.12 356.81 281.22 356.81 280.33 356.81 279.43 357.11 278.54 357.11 277.64 357.11 277.04 357.11 276.15 357.4 275.25 357.4 274.65 357.4 273.76 357.4 273.16 357.7 272.26 357.7 271.66 357.7 271.07 357.7 270.47 358 269.87 358 269.27 358 268.68 358 268.08 358.3 267.48 358.3 267.18 358.3 266.59 358.3 266.29 358.6 265.99 358.6 265.69 358.6 265.39 358.6 265.09 358.9 264.79 358.9 264.49 358.9 264.49 359.2"/>
  <polyline class="cls-1" points="302.14 364.28 301.84 364.28 301.84 364.57 301.54 364.57 301.24 364.57 300.94 364.57 300.64 364.87 300.04 364.87 299.75 364.87 299.15 364.87 298.55 365.17 298.25 365.17 297.66 365.17 297.06 365.17 296.46 365.47 295.86 365.47 294.97 365.47 294.37 365.47 293.77 365.77 292.87 365.77 292.28 365.77 291.38 365.77 290.49 366.07 289.89 366.07 288.99 366.07 288.09 366.07 287.2 366.37 286.3 366.37 285.71 366.37 284.81 366.37 283.91 366.67 283.02 366.67 282.12 366.67 281.22 366.67 280.33 366.96 279.43 366.96 278.54 366.96 277.64 366.96 277.04 367.26 276.15 367.26 275.25 367.26 274.65 367.26 273.76 367.56 273.16 367.56 272.26 367.56 271.66 367.56 271.07 367.86 270.47 367.86 269.87 367.86 269.27 367.86 268.68 367.86 268.08 368.16 267.48 368.16 267.18 368.16 266.59 368.16 266.29 368.46 265.99 368.46 265.69 368.46 265.39 368.46 265.09 368.76 264.79 368.76 264.49 368.76 264.49 369.06"/>
  <polyline class="cls-1" points="302.14 374.13 301.84 374.13 301.54 374.43 301.24 374.43 300.64 374.43 300.34 374.73 300.04 374.73 299.75 374.73 299.15 374.73 298.55 375.03 298.25 375.03 297.66 375.03 297.06 375.03 296.46 375.33 295.86 375.33 294.97 375.33 294.37 375.33 293.77 375.63 292.87 375.63 292.28 375.63 291.38 375.63 290.78 375.93 289.89 375.93 288.99 375.93 288.09 375.93 287.2 376.23 286.6 376.23 285.71 376.23 284.81 376.23 283.91 376.52 283.02 376.52 282.12 376.52 281.22 376.52 280.33 376.82 279.43 376.82 278.54 376.82 277.94 376.82 277.04 377.12 276.15 377.12 275.25 377.12 274.65 377.12 273.76 377.42 273.16 377.42 272.26 377.42 271.66 377.42 271.07 377.72 270.17 377.72 269.57 377.72 268.98 377.72 268.38 378.02 268.08 378.02 267.48 378.02 266.88 378.02 266.59 378.32 266.29 378.32 265.69 378.32 265.39 378.32 265.39 378.62 265.09 378.62 264.79 378.62 264.49 378.91"/>
  <polyline class="cls-1" points="301.84 383.99 301.84 384.29 301.54 384.29 301.24 384.29 300.94 384.29 300.64 384.59 300.34 384.59 300.04 384.59 299.75 384.59 299.15 384.89 298.55 384.89 298.25 384.89 297.66 384.89 297.06 385.19 296.46 385.19 295.86 385.19 295.26 385.19 294.37 385.49 293.77 385.49 293.17 385.49 292.28 385.49 291.38 385.49 290.78 385.79 289.89 385.79 288.99 385.79 288.09 385.79 287.2 386.08 286.6 386.08 285.71 386.08 284.81 386.08 283.91 386.38 283.02 386.38 282.12 386.38 281.22 386.38 280.33 386.68 279.43 386.68 278.54 386.68 277.64 386.68 277.04 386.98 276.15 386.98 275.25 386.98 274.65 386.98 273.76 387.28 272.86 387.28 272.26 387.28 271.66 387.28 270.77 387.58 270.17 387.58 269.57 387.58 268.98 387.58 268.38 387.88 267.78 387.88 267.48 387.88 266.88 387.88 266.59 388.18 266.29 388.18 265.69 388.18 265.39 388.18 265.39 388.47 265.09 388.47 264.79 388.47 264.79 388.77"/>
  <polyline class="cls-1" points="301.84 393.85 301.54 394.15 301.24 394.15 300.94 394.15 300.64 394.45 300.34 394.45 300.04 394.45 299.75 394.45 299.15 394.75 298.85 394.75 298.25 394.75 297.66 394.75 297.06 395.05 296.46 395.05 295.86 395.05 295.26 395.05 294.67 395.35 293.77 395.35 293.17 395.35 292.28 395.35 291.38 395.64 290.78 395.64 289.89 395.64 288.99 395.64 288.09 395.94 287.2 395.94 286.6 395.94 285.71 395.94 284.81 396.24 283.91 396.24 283.02 396.24 282.12 396.24 281.22 396.54 280.33 396.54 279.43 396.54 278.54 396.54 277.64 396.84 277.04 396.84 276.15 396.84 275.25 396.84 274.35 396.84 273.76 397.14 272.86 397.14 272.26 397.14 271.66 397.14 270.77 397.44 270.17 397.44 269.57 397.44 268.98 397.44 268.38 397.73 267.78 397.73 267.48 397.73 266.88 397.73 266.59 398.03 266.29 398.03 265.99 398.03 265.69 398.03 265.39 398.33 265.09 398.33 264.79 398.33 264.79 398.63"/>
  <polyline class="cls-1" points="301.84 403.71 301.84 404.01 301.54 404.01 301.24 404.01 300.94 404.01 300.94 404.31 300.34 404.31 300.04 404.31 299.75 404.31 299.15 404.61 298.85 404.61 298.25 404.61 297.66 404.61 297.06 404.9 296.46 404.9 295.86 404.9 295.26 404.9 294.67 405.2 293.77 405.2 293.17 405.2 292.28 405.2 291.38 405.5 290.78 405.5 289.89 405.5 288.99 405.5 288.09 405.8 287.2 405.8 286.3 405.8 285.71 405.8 284.81 406.1 283.91 406.1 283.02 406.1 282.12 406.1 281.22 406.4 280.33 406.4 279.43 406.4 278.54 406.4 277.64 406.7 276.74 406.7 276.15 406.7 275.25 406.7 274.35 407 273.76 407 272.86 407 272.26 407 271.37 407.29 270.77 407.29 270.17 407.29 269.57 407.29 268.98 407.59 268.38 407.59 268.08 407.59 267.48 407.59 267.18 407.89 266.59 407.89 266.29 407.89 265.99 407.89 265.69 408.19 265.39 408.19 265.09 408.19 264.79 408.49"/>
  <polyline class="cls-1" points="301.84 413.87 301.54 413.87 301.24 414.17 300.94 414.17 300.64 414.17 300.34 414.17 299.75 414.46 299.45 414.46 298.85 414.46 298.25 414.46 297.66 414.76 297.06 414.76 296.46 414.76 295.86 414.76 295.26 414.76 294.37 415.06 293.77 415.06 292.87 415.06 292.28 415.06 291.38 415.36 290.78 415.36 289.89 415.36 288.99 415.36 288.09 415.66 287.2 415.66 286.3 415.66 285.41 415.66 284.51 415.96 283.91 415.96 283.02 415.96 282.12 415.96 281.22 416.26 280.33 416.26 279.43 416.26 278.54 416.26 277.64 416.56 276.74 416.56 276.15 416.56 275.25 416.56 274.35 416.85 273.76 416.85 272.86 416.85 272.26 416.85 271.66 417.15 270.77 417.15 270.17 417.15 269.57 417.15 268.98 417.45 268.68 417.45 268.08 417.45 267.48 417.45 267.18 417.75 266.88 417.75 266.29 417.75 265.99 417.75 265.69 418.05 265.39 418.05 265.09 418.05 264.79 418.35"/>
  <polyline class="cls-1" points="302.14 423.73 301.84 423.73 301.54 423.73 301.24 424.02 300.94 424.02 300.64 424.02 300.34 424.02 299.75 424.32 299.45 424.32 298.85 424.32 298.25 424.32 297.66 424.62 297.06 424.62 296.46 424.62 295.86 424.62 295.26 424.92 294.37 424.92 293.77 424.92 292.87 424.92 292.28 425.22 291.38 425.22 290.49 425.22 289.89 425.22 288.99 425.52 288.09 425.52 287.2 425.52 286.3 425.52 285.41 425.82 284.51 425.82 283.91 425.82 283.02 425.82 282.12 426.12 281.22 426.12 280.33 426.12 279.43 426.12 278.54 426.12 277.64 426.41 276.74 426.41 276.15 426.41 275.25 426.41 274.35 426.71 273.76 426.71 272.86 426.71 272.26 426.71 271.66 427.01 271.07 427.01 270.17 427.01 269.57 427.01 269.27 427.31 268.68 427.31 268.08 427.31 267.78 427.31 267.18 427.61 266.88 427.61 266.29 427.61 265.99 427.61 265.69 427.91 265.39 427.91 265.09 427.91 264.79 428.21 264.49 428.21"/>
  <polyline class="cls-1" points="349.04 209.52 346.95 209.52 344.26 209.52 340.38 209.52 335.3 209.52 329.62 209.52 323.05 209.52 316.18 209.52 308.41 209.52 300.34 209.52 291.98 209.52 283.32 209.52 274.95 209.52 266.59 209.52 258.52 209.52 250.75 209.52 243.58 209.52 237.01 209.52 231.33 209.52 226.55 209.52 222.67 209.52 219.68 209.52 217.89 209.52"/>
  <polyline class="cls-1" points="350.23 203.55 348.44 203.55 345.45 203.55 341.27 203.55 336.49 203.55 330.52 203.55 323.94 203.55 316.77 203.55 309.01 203.55 300.64 203.55 291.98 203.55 283.32 203.55 274.65 203.55 266.29 203.55 257.92 203.55 250.15 203.55 242.69 203.55 236.11 203.55 230.44 203.55 225.36 203.55 221.47 203.55 218.49 203.55 216.4 203.55"/>
  <polyline class="cls-1" points="334.1 278.54 333.5 278.54 331.71 278.54 328.72 278.54 324.54 278.54 319.46 278.54 313.19 278.54 306.32 278.54 299.15 278.54 291.38 278.54 283.32 278.54 275.55 278.54 267.78 278.54 260.31 278.54 253.44 278.54 247.47 278.54 242.39 278.54 238.2 278.54 234.92 278.54 233.13 278.54 232.53 278.54"/>
  <polyline class="cls-1" points="246.57 292.58 247.17 292.58 248.96 292.58 251.65 292.58 255.23 292.58 259.71 292.58 265.09 292.58 270.77 292.58 277.04 292.58 283.32 292.58 289.89 292.58 295.86 292.58 301.84 292.58 306.92 292.58 311.4 292.58 315.28 292.58 317.97 292.58 319.46 292.58 320.06 292.58"/>
  <polyline class="cls-1" points="215.5 197.28 216.1 197.28 217.89 197.28 220.88 197.28 224.76 197.28 229.54 197.28 235.52 197.28 242.09 197.28 249.56 197.28 257.32 197.28 265.99 197.28 274.65 197.28 283.32 197.28 292.28 197.28 300.94 197.28 309.31 197.28 317.37 197.28 324.54 197.28 331.41 197.28 337.09 197.28 342.17 197.28 346.05 197.28 348.74 197.28 350.53 197.28 351.13 197.28"/>
  <polyline class="cls-1" points="350.53 196.68 349.94 196.68 348.14 196.68 345.45 196.68 341.57 196.68 336.79 196.68 330.82 196.68 324.24 196.68 317.07 196.68 309.01 196.68 300.64 196.68 292.28 196.68 283.32 196.68 274.65 196.68 265.99 196.68 257.62 196.68 249.86 196.68 242.39 196.68 235.81 196.68 230.14 196.68 225.06 196.68 221.18 196.68 218.49 196.68 216.69 196.68 216.1 196.68"/>
  <polyline class="cls-1" points="315.88 336.49 315.28 336.49 313.49 336.49 310.5 336.49 306.32 336.49 301.54 336.49 295.86 336.49 289.59 336.49 283.32 336.49 277.04 336.49 271.07 336.49 265.39 336.49 260.31 336.49 256.43 336.49 253.44 336.49 251.65 336.49 251.05 336.49"/>
  <polyline class="cls-1" points="252.25 337.99 252.84 337.99 254.64 337.99 257.62 337.99 261.51 337.99 266.29 337.99 271.37 337.99 277.34 337.99 283.32 337.99 289.59 337.99 295.26 337.99 300.64 337.99 305.42 337.99 309.31 337.99 311.99 337.99 313.79 337.99 314.38 337.99"/>
  <polyline class="cls-1" points="236.11 281.52 237.61 281.52 240.59 281.52 244.48 281.52 249.56 281.52 255.23 281.52 261.51 281.52 268.68 281.52 275.85 281.52 283.32 281.52 290.78 281.52 298.25 281.52 305.12 281.52 311.7 281.52 317.37 281.52 322.15 281.52 326.04 281.52 329.02 281.52 330.82 281.52"/>
  <polyline class="cls-1" points="325.44 161.13 324.84 161.13 323.35 161.13 320.96 161.13 317.37 161.13 313.19 161.13 308.11 161.13 302.43 161.13 296.46 161.13 289.89 161.13 283.32 161.13 276.74 161.13 270.47 161.13 264.2 161.13 258.52 161.13 253.74 161.13 249.26 161.13 245.97 161.13 243.28 161.13 241.79 161.13 241.19 161.13"/>
  <polyline class="cls-1" points="340.08 195.19 339.48 195.19 337.69 195.19 334.7 195.19 331.11 195.19 326.04 195.19 320.36 195.19 314.09 195.19 306.92 195.19 299.45 195.19 291.38 195.19 283.32 195.19 275.25 195.19 267.48 195.19 260.01 195.19 252.84 195.19 246.27 195.19 240.59 195.19 235.81 195.19 231.93 195.19 229.24 195.19 227.45 195.19 226.85 195.19"/>
  <polyline class="cls-1" points="311.7 161.13 311.7 141.41 311.7 140.51 311.7 139.62 311.7 138.72 311.7 138.12 311.7 137.53 311.7 136.93 311.7 136.33 311.7 135.73"/>
  <polyline class="cls-1" points="283.32 161.13 283.32 141.41 284.21 140.51 285.41 139.62 286.3 138.72 287.2 138.12 288.09 137.53 288.99 136.93 289.89 136.33 290.49 135.73 304.53 135.73 305.42 136.33 306.02 136.93 306.92 137.53 307.81 138.12 308.71 138.72 309.6 139.62 310.8 140.51 311.7 141.41"/>
  <polyline class="cls-1" points="255.23 161.13 255.23 141.41 256.13 140.51 257.03 139.62 257.92 138.72 258.82 138.12 259.71 137.53 260.61 136.93 261.51 136.33 262.4 135.73 276.15 135.73 277.04 136.33 277.94 136.93 278.83 137.53 279.73 138.12 280.63 138.72 281.52 139.62 282.42 140.51 283.32 141.41"/>
  <polyline class="cls-1" points="262.4 135.73 259.42 135.73 256.73 135.73 255.23 135.73 255.23 136.33 255.23 136.93 255.23 137.53 255.23 138.12 255.23 138.72 255.23 139.62 255.23 140.51 255.23 141.41"/>
  <polyline class="cls-1" points="290.49 135.73 285.71 135.73 280.93 135.73 276.15 135.73"/>
  <polyline class="cls-1" points="311.7 135.73 309.9 135.73 307.51 135.73 304.53 135.73"/>
  <polyline class="cls-1" points="234.02 178.46 234.62 178.46 236.41 178.46 239.4 178.46 243.28 178.46 248.36 178.46 254.34 178.46 260.91 178.46 268.08 178.46 275.55 178.46 283.32 178.46 291.08 178.46 298.55 178.46 305.72 178.46 312.29 178.46 318.27 178.46 323.35 178.46 327.53 178.46 330.52 178.46 332.31 178.46 332.91 178.46"/>
  <polyline class="cls-1" points="332.91 185.33 332.31 185.33 330.52 185.33 327.53 185.33 323.35 185.33 318.27 185.33 312.29 185.33 305.72 185.33 298.55 185.33 291.08 185.33 283.32 185.33 275.55 185.33 268.08 185.33 260.91 185.33 254.34 185.33 248.36 185.33 243.28 185.33 239.4 185.33 236.41 185.33 234.62 185.33 234.02 185.33"/>
  <line class="cls-1" x1="263.6" y1="431.19" x2="263.3" y2="430.9"/>
  <line class="cls-1" x1="303.03" y1="431.19" x2="306.62" y2="427.61"/>
  <line class="cls-1" x1="263.6" y1="430.9" x2="264.79" y2="430"/>
  <line class="cls-1" x1="259.12" y1="344.56" x2="264.79" y2="340.97"/>
  <line class="cls-1" x1="259.12" y1="354.42" x2="264.79" y2="351.13"/>
  <line class="cls-1" x1="259.12" y1="364.28" x2="264.79" y2="360.99"/>
  <line class="cls-1" x1="259.12" y1="374.13" x2="264.79" y2="370.85"/>
  <line class="cls-1" x1="259.12" y1="383.99" x2="264.79" y2="380.71"/>
  <line class="cls-1" x1="259.12" y1="393.85" x2="264.79" y2="390.56"/>
  <line class="cls-1" x1="259.12" y1="403.71" x2="264.79" y2="400.42"/>
  <line class="cls-1" x1="259.12" y1="413.57" x2="264.79" y2="410.28"/>
  <line class="cls-1" x1="259.12" y1="423.43" x2="264.79" y2="420.14"/>
  <line class="cls-1" x1="305.12" y1="337.99" x2="307.81" y2="339.48"/>
  <line class="cls-1" x1="302.43" y1="346.05" x2="307.81" y2="349.34"/>
  <line class="cls-1" x1="302.43" y1="355.91" x2="307.81" y2="359.2"/>
  <line class="cls-1" x1="302.43" y1="366.07" x2="307.81" y2="369.06"/>
  <line class="cls-1" x1="302.43" y1="375.93" x2="307.81" y2="378.91"/>
  <line class="cls-1" x1="302.43" y1="385.79" x2="307.81" y2="388.77"/>
  <line class="cls-1" x1="302.43" y1="395.64" x2="307.81" y2="398.63"/>
  <line class="cls-1" x1="302.43" y1="405.5" x2="307.81" y2="408.79"/>
  <line class="cls-1" x1="302.43" y1="415.36" x2="307.81" y2="418.65"/>
  <line class="cls-1" x1="302.43" y1="425.22" x2="306.32" y2="427.61"/>
  <line class="cls-1" x1="307.81" y1="339.78" x2="307.81" y2="340.97"/>
  <line class="cls-1" x1="307.81" y1="349.64" x2="307.81" y2="350.83"/>
  <line class="cls-1" x1="307.81" y1="359.5" x2="307.81" y2="360.69"/>
  <line class="cls-1" x1="307.81" y1="369.35" x2="307.81" y2="370.85"/>
  <line class="cls-1" x1="307.81" y1="379.21" x2="307.81" y2="380.71"/>
  <line class="cls-1" x1="307.81" y1="389.07" x2="307.81" y2="390.56"/>
  <line class="cls-1" x1="307.81" y1="398.93" x2="307.81" y2="400.42"/>
  <line class="cls-1" x1="307.81" y1="408.79" x2="307.81" y2="410.28"/>
  <line class="cls-1" x1="307.81" y1="418.65" x2="307.81" y2="420.14"/>
  <line class="cls-1" x1="258.82" y1="344.56" x2="258.82" y2="346.05"/>
  <line class="cls-1" x1="258.82" y1="354.42" x2="258.82" y2="355.91"/>
  <line class="cls-1" x1="258.82" y1="364.28" x2="258.82" y2="365.77"/>
  <line class="cls-1" x1="258.82" y1="374.13" x2="258.82" y2="375.63"/>
  <line class="cls-1" x1="258.82" y1="383.99" x2="258.82" y2="385.49"/>
  <line class="cls-1" x1="258.82" y1="394.15" x2="258.82" y2="395.35"/>
  <line class="cls-1" x1="258.82" y1="404.01" x2="258.82" y2="405.2"/>
  <line class="cls-1" x1="258.82" y1="413.87" x2="258.82" y2="415.06"/>
  <line class="cls-1" x1="258.82" y1="423.73" x2="258.82" y2="424.92"/>
  <line class="cls-1" x1="302.43" y1="344.56" x2="302.43" y2="346.35"/>
  <line class="cls-1" x1="302.43" y1="354.42" x2="302.43" y2="356.21"/>
  <line class="cls-1" x1="302.43" y1="364.28" x2="302.43" y2="366.07"/>
  <line class="cls-1" x1="302.43" y1="374.13" x2="302.43" y2="375.93"/>
  <line class="cls-1" x1="302.43" y1="383.99" x2="302.43" y2="385.79"/>
  <line class="cls-1" x1="302.43" y1="393.85" x2="302.43" y2="395.64"/>
  <line class="cls-1" x1="302.43" y1="403.71" x2="302.43" y2="405.5"/>
  <line class="cls-1" x1="302.43" y1="413.57" x2="302.43" y2="415.36"/>
  <line class="cls-1" x1="302.43" y1="423.43" x2="302.43" y2="425.22"/>
  <line class="cls-1" x1="264.49" y1="339.48" x2="264.49" y2="341.27"/>
  <line class="cls-1" x1="264.49" y1="349.34" x2="264.49" y2="351.13"/>
  <line class="cls-1" x1="264.49" y1="359.2" x2="264.49" y2="360.99"/>
  <line class="cls-1" x1="264.49" y1="369.06" x2="264.49" y2="370.85"/>
  <line class="cls-1" x1="264.49" y1="378.91" x2="264.49" y2="380.71"/>
  <line class="cls-1" x1="264.49" y1="388.77" x2="264.49" y2="390.56"/>
  <line class="cls-1" x1="264.49" y1="398.63" x2="264.49" y2="400.42"/>
  <line class="cls-1" x1="264.49" y1="408.49" x2="264.49" y2="410.28"/>
  <line class="cls-1" x1="264.49" y1="418.35" x2="264.49" y2="420.14"/>
  <line class="cls-1" x1="264.49" y1="428.21" x2="264.49" y2="430.3"/>
  <line class="cls-1" x1="264.49" y1="339.48" x2="261.81" y2="337.99"/>
  <line class="cls-1" x1="264.49" y1="349.34" x2="259.12" y2="346.05"/>
  <line class="cls-1" x1="264.49" y1="359.2" x2="259.12" y2="356.21"/>
  <line class="cls-1" x1="264.49" y1="369.06" x2="259.12" y2="366.07"/>
  <line class="cls-1" x1="264.49" y1="378.91" x2="259.12" y2="375.93"/>
  <line class="cls-1" x1="264.49" y1="388.77" x2="259.12" y2="385.79"/>
  <line class="cls-1" x1="264.49" y1="398.93" x2="259.12" y2="395.64"/>
  <line class="cls-1" x1="264.49" y1="408.79" x2="259.12" y2="405.5"/>
  <line class="cls-1" x1="264.49" y1="418.65" x2="259.12" y2="415.36"/>
  <line class="cls-1" x1="264.49" y1="428.51" x2="259.12" y2="425.22"/>
  <line class="cls-1" x1="307.81" y1="420.44" x2="302.14" y2="423.73"/>
  <line class="cls-1" x1="307.81" y1="410.28" x2="302.14" y2="413.87"/>
  <line class="cls-1" x1="307.81" y1="400.42" x2="302.14" y2="403.71"/>
  <line class="cls-1" x1="307.81" y1="390.56" x2="302.14" y2="393.85"/>
  <line class="cls-1" x1="307.81" y1="380.71" x2="302.14" y2="383.99"/>
  <line class="cls-1" x1="307.81" y1="370.85" x2="302.14" y2="374.13"/>
  <line class="cls-1" x1="307.81" y1="360.99" x2="302.14" y2="364.28"/>
  <line class="cls-1" x1="307.81" y1="351.13" x2="302.14" y2="354.42"/>
  <line class="cls-1" x1="307.81" y1="341.27" x2="302.14" y2="344.56"/>
  <path class="cls-1" d="m215.8,203.4c0,2.11.47,4.19,1.37,6.09"/>
  <path class="cls-1" d="m350.06,209.49c.9-1.9,1.37-3.98,1.37-6.09"/>
  <path class="cls-1" d="m232.83,278.39c0-23.89-5.32-47.48-15.58-69.06"/>
  <path class="cls-1" d="m349.98,209.32c-10.26,21.58-15.58,45.17-15.58,69.06"/>
  <line class="cls-1" x1="351.13" y1="197.28" x2="351.13" y2="203.55"/>
  <line class="cls-1" x1="215.5" y1="197.28" x2="215.5" y2="203.55"/>
  <line class="cls-1" x1="350.53" y1="196.68" x2="351.13" y2="197.28"/>
  <line class="cls-1" x1="216.1" y1="196.68" x2="215.5" y2="197.28"/>
  <line class="cls-1" x1="252.25" y1="337.99" x2="251.05" y2="336.49"/>
  <polyline class="cls-1" points="314.38 337.99 315.88 336.49 315.88 292.58"/>
  <line class="cls-1" x1="251.05" y1="292.58" x2="251.05" y2="336.49"/>
  <line class="cls-1" x1="246.57" y1="292.58" x2="235.52" y2="281.52"/>
  <line class="cls-1" x1="320.06" y1="292.58" x2="331.41" y2="281.52"/>
  <line class="cls-1" x1="325.44" y1="161.13" x2="332.91" y2="178.46"/>
  <line class="cls-1" x1="241.19" y1="161.13" x2="234.02" y2="178.46"/>
  <line class="cls-1" x1="330.82" y1="185.33" x2="330.82" y2="195.19"/>
  <line class="cls-1" x1="236.11" y1="185.33" x2="236.11" y2="195.19"/>
  <line class="cls-1" x1="340.08" y1="195.19" x2="340.67" y2="196.68"/>
  <line class="cls-1" x1="226.85" y1="195.19" x2="226.25" y2="196.68"/>
  <line class="cls-1" x1="332.91" y1="178.46" x2="332.91" y2="185.33"/>
  <line class="cls-1" x1="234.02" y1="178.46" x2="234.02" y2="185.33"/>
  <line class="cls-1" x1="235.52" y1="281.52" x2="232.53" y2="278.54"/>
  <line class="cls-1" x1="331.41" y1="281.52" x2="334.1" y2="278.54"/>
</svg>