<?xml version="1.0" encoding="UTF-8"?>
<svg id="Layer_1" data-name="Layer 1" xmlns="http://www.w3.org/2000/svg" viewBox="0 0 566.93 566.93">
  <defs>
    <style>
      .cls-1 {
        fill: none;
        stroke: #000;
        stroke-linecap: round;
        stroke-linejoin: round;
      }
    </style>
  </defs>
  <polyline class="cls-1" points="352.62 78.97 352.03 78.97 350.23 78.97 347.25 78.97 343.36 78.97 338.28 78.97 332.31 78.97 325.44 78.97 317.97 78.97 309.9 78.97 301.24 78.97 292.28 78.97 283.32 78.97 274.35 78.97 265.39 78.97 257.03 78.97 248.96 78.97 241.19 78.97 234.62 78.97 228.64 78.97 223.57 78.97 219.38 78.97 216.69 78.97 214.9 78.97 214.3 78.97"/>
  <polyline class="cls-1" points="354.12 303.33 353.22 303.33 351.43 303.33 348.74 303.33 344.56 303.33 339.48 303.33 333.21 303.33 326.33 303.33 318.57 303.33 310.5 303.33 301.54 303.33 292.58 303.33 283.32 303.33 274.05 303.33 265.09 303.33 256.43 303.33 248.06 303.33 240.3 303.33 233.42 303.33 227.45 303.33 222.37 303.33 218.19 303.33 215.2 303.33 213.41 303.33 212.81 303.33"/>
  <polyline class="cls-1" points="214.3 304.82 214.9 304.82 216.69 304.82 219.38 304.82 223.57 304.82 228.64 304.82 234.62 304.82 241.19 304.82 248.96 304.82 257.03 304.82 265.39 304.82 274.35 304.82 283.32 304.82 292.28 304.82 301.24 304.82 309.9 304.82 317.97 304.82 325.44 304.82 332.31 304.82 338.28 304.82 343.36 304.82 347.25 304.82 350.23 304.82 352.03 304.82 352.62 304.82"/>
  <polyline class="cls-1" points="212.81 80.17 213.41 80.17 215.2 80.17 218.19 80.17 222.37 80.17 227.45 80.17 233.42 80.17 240.3 80.17 248.06 80.17 256.43 80.17 265.09 80.17 274.05 80.17 283.32 80.17 292.58 80.17 301.54 80.17 310.5 80.17 318.57 80.17 326.33 80.17 333.21 80.17 339.48 80.17 344.56 80.17 348.74 80.17 351.43 80.17 353.22 80.17 354.12 80.17"/>
  <polyline class="cls-1" points="212.81 121.1 213.41 121.1 215.2 121.1 217.89 121.1 221.77 121.1 226.85 121.1 232.53 121.1 232.53 262.4 226.85 262.4 221.77 262.4 217.89 262.4 215.2 262.4 213.41 262.4 212.81 262.4"/>
  <polyline class="cls-1" points="324.54 367.86 323.94 367.86 322.15 367.86 319.16 367.86 314.98 367.86 309.9 367.86 303.93 367.86 297.36 367.86 290.49 367.86 283.32 367.86 276.15 367.86 269.27 367.86 262.7 367.86 257.03 367.86 251.95 367.86 247.76 367.86 244.78 367.86 242.69 367.86 242.09 367.86"/>
  <polyline class="cls-1" points="236.11 361.29 237.91 361.29 240.59 361.29 244.48 361.29 249.56 361.29 255.23 361.29 261.51 361.29 268.68 361.29 275.85 361.29 283.32 361.29 290.78 361.29 298.25 361.29 305.12 361.29 311.7 361.29 317.37 361.29 322.15 361.29 326.04 361.29 329.02 361.29 330.82 361.29"/>
  <polyline class="cls-1" points="332.91 359.79 332.31 359.79 330.52 359.79 327.53 359.79 323.35 359.79 318.27 359.79 312.29 359.79 305.72 359.79 298.55 359.79 291.08 359.79 283.32 359.79 275.55 359.79 268.08 359.79 260.91 359.79 254.34 359.79 248.36 359.79 243.28 359.79 239.4 359.79 236.41 359.79 234.62 359.79 234.02 359.79"/>
  <polyline class="cls-1" points="284.51 368.76 291.08 368.76 297.06 368.76 302.73 368.76 308.11 368.76 312.59 368.76 316.18 368.76"/>
  <polyline class="cls-1" points="317.67 368.76 320.06 368.76 321.55 368.76 322.15 368.76"/>
  <polyline class="cls-1" points="244.78 368.76 245.08 368.76 246.87 368.76 249.26 368.76"/>
  <polyline class="cls-1" points="282.12 412.67 280.93 413.27 280.03 413.87 278.83 414.46 277.94 414.76 276.74 415.06 275.85 415.66 274.95 415.96 273.76 416.26 272.86 416.56 271.96 416.56 271.07 416.85 270.17 417.15 268.98 417.15 268.08 417.15 267.18 417.15 266.29 417.15 265.39 417.15 264.49 417.15 263.6 417.15 262.7 417.15 261.81 416.85 260.61 416.56 259.71 416.56 258.82 416.26 257.92 415.96 256.73 415.66 255.83 415.06 254.93 414.76 253.74 414.46 252.54 413.87 251.65 413.27 250.45 412.67 250.45 368.76 254.34 368.76 258.82 368.76 263.9 368.76 269.87 368.76 275.85 368.76 282.12 368.76 282.12 412.67"/>
  <polyline class="cls-1" points="249.26 368.76 249.26 412.67 249.26 413.27 249.26 413.87 249.26 414.46 249.26 414.76 249.26 415.06 249.26 415.66 249.26 415.96 249.26 416.26 249.26 416.56 249.26 416.85 249.26 417.15"/>
  <polyline class="cls-1" points="317.67 417.15 317.67 416.85 317.67 416.56 317.67 416.26 317.67 415.96 317.67 415.66 317.67 415.06 317.67 414.76 317.67 414.46 317.67 413.87 317.67 413.27 317.67 412.67 317.67 368.76"/>
  <polyline class="cls-1" points="316.18 368.76 316.18 412.67 315.28 413.27 314.09 413.87 313.19 414.46 311.99 414.76 311.1 415.06 309.9 415.66 309.01 415.96 308.11 416.26 306.92 416.56 306.02 416.56 305.12 416.85 304.23 417.15 303.33 417.15 302.43 417.15 301.54 417.15 300.34 417.15 299.45 417.15 298.55 417.15 297.66 417.15 296.76 417.15 295.86 416.85 294.97 416.56 293.77 416.56 292.88 416.26 291.98 415.96 291.08 415.66 289.89 415.06 288.99 414.76 287.8 414.46 286.9 413.87 285.71 413.27 284.51 412.67 284.51 368.76"/>
  <line class="cls-1" x1="284.51" y1="412.67" x2="282.12" y2="412.67"/>
  <line class="cls-1" x1="317.67" y1="412.67" x2="316.18" y2="412.67"/>
  <line class="cls-1" x1="250.45" y1="412.67" x2="249.26" y2="412.67"/>
  <polyline class="cls-1" points="249.56 417.75 250.15 417.75 251.65 417.75 254.04 417.75 257.62 417.75 261.81 417.75 266.59 417.75 271.96 417.75 277.64 417.75 283.32 417.75 289.29 417.75 294.97 417.75 300.34 417.75 305.12 417.75 309.31 417.75 312.59 417.75 315.28 417.75 316.77 417.75 317.07 417.75"/>
  <line class="cls-1" x1="214.3" y1="304.82" x2="212.81" y2="303.33"/>
  <polyline class="cls-1" points="352.62 304.82 354.12 303.33 354.12 80.17"/>
  <line class="cls-1" x1="212.81" y1="80.17" x2="212.81" y2="121.1"/>
  <line class="cls-1" x1="212.81" y1="262.4" x2="212.81" y2="303.33"/>
  <line class="cls-1" x1="352.62" y1="78.97" x2="354.12" y2="80.17"/>
  <line class="cls-1" x1="214.3" y1="78.97" x2="212.81" y2="80.17"/>
  <line class="cls-1" x1="242.09" y1="367.86" x2="235.52" y2="361.29"/>
  <line class="cls-1" x1="324.54" y1="367.86" x2="331.41" y2="361.29"/>
  <line class="cls-1" x1="332.91" y1="304.82" x2="332.91" y2="359.79"/>
  <line class="cls-1" x1="234.02" y1="304.82" x2="234.02" y2="359.79"/>
  <line class="cls-1" x1="322.15" y1="367.86" x2="322.15" y2="368.76"/>
  <line class="cls-1" x1="244.78" y1="367.86" x2="244.78" y2="368.76"/>
  <line class="cls-1" x1="249.56" y1="417.75" x2="249.26" y2="417.15"/>
  <line class="cls-1" x1="317.07" y1="417.75" x2="317.67" y2="417.15"/>
  <line class="cls-1" x1="235.52" y1="361.29" x2="234.02" y2="359.79"/>
  <line class="cls-1" x1="331.41" y1="361.29" x2="332.91" y2="359.79"/>
  <polyline class="cls-1" points="262.7 486.76 263 486.76 263 486.46 263.3 486.46 263.6 486.46 263.9 486.46 264.2 486.46 264.49 486.46 265.09 486.46 265.39 486.46 265.99 486.16 266.59 486.16 267.18 486.16 267.78 486.16 268.38 486.16 269.27 486.16 269.87 486.16 270.77 486.16 271.37 486.16 272.26 485.87 273.16 485.87 274.05 485.87 274.95 485.87 275.85 485.87 276.74 485.87 277.64 485.87 278.83 485.87 279.73 485.57 280.63 485.57 281.82 485.57 282.72 485.57 283.61 485.57 284.81 485.57 285.71 485.57 286.6 485.57 287.8 485.27 288.69 485.27 289.89 485.27 290.78 485.27 291.68 485.27 292.58 485.27 293.47 485.27 294.67 485.27 295.56 485.27 296.46 484.97 297.36 484.97 297.95 484.97 298.85 484.97 299.75 484.97 300.34 484.97 301.24 484.97 301.84 484.97 302.43 484.97 303.33 484.67 303.93 484.67 304.23 484.67 304.82 484.67 305.42 484.67 306.02 484.67 306.32 484.67 306.62 484.67 306.92 484.67"/>
  <polyline class="cls-1" points="279.43 417.75 278.54 417.75 277.34 417.75 276.44 417.75 275.25 418.05 274.35 418.05 273.46 418.05 272.26 418.05 271.37 418.35 270.47 418.35 269.57 418.35 268.68 418.35 267.78 418.35 266.88 418.65 266.29 418.65 265.39 418.65 264.79 418.65 264.2 418.95 263.6 418.95 263 418.95 262.4 418.95 261.81 419.24 261.51 419.24 260.91 419.24 260.61 419.24 260.31 419.54 260.01 419.54 259.71 419.54 259.42 419.54 259.12 419.84"/>
  <polyline class="cls-1" points="307.51 424.62 307.81 424.62 307.81 424.92 307.51 424.92 307.51 425.22 307.21 425.22 306.92 425.22 306.62 425.52 306.02 425.52 305.42 425.52 304.82 425.52 304.23 425.82 303.63 425.82 302.73 425.82 302.14 425.82 301.24 426.12 300.34 426.12 299.45 426.12 298.55 426.12 297.36 426.41 296.46 426.41 295.27 426.41 294.07 426.71 293.17 426.71 291.98 426.71 290.78 426.71 289.59 427.01 288.39 427.01 287.2 427.01 286 427.01 284.81 427.31 283.61 427.31 282.12 427.31 280.93 427.31 279.73 427.61 278.54 427.61 277.34 427.61 276.15 427.91 274.95 427.91 273.76 427.91 272.86 427.91 271.66 428.21 270.47 428.21 269.57 428.21 268.68 428.21 267.48 428.51 266.59 428.51 265.99 428.51 265.09 428.51 264.2 428.8 263.6 428.8 262.7 428.8 262.1 429.1 261.51 429.1 260.91 429.1 260.61 429.1 260.01 429.4 259.71 429.4 259.42 429.4 259.12 429.4 259.12 429.7 258.82 429.7"/>
  <polyline class="cls-1" points="307.81 434.48 307.81 434.78 307.51 435.08 307.21 435.08 306.92 435.08 306.62 435.08 306.32 435.38 305.72 435.38 305.42 435.38 304.82 435.38 304.23 435.68 303.33 435.68 302.73 435.68 301.84 435.68 301.24 435.97 300.34 435.97 299.45 435.97 298.55 436.27 297.36 436.27 296.46 436.27 295.27 436.27 294.37 436.57 293.17 436.57 291.98 436.57 290.78 436.57 289.59 436.87 288.39 436.87 287.2 436.87 286 436.87 284.81 437.17 283.61 437.17 282.42 437.17 280.93 437.47 279.73 437.47 278.54 437.47 277.34 437.47 276.15 437.77 274.95 437.77 273.76 437.77 272.86 437.77 271.66 438.07 270.47 438.07 269.57 438.07 268.38 438.07 267.48 438.36 266.59 438.36 265.69 438.36 264.79 438.66 263.9 438.66 263.3 438.66 262.7 438.66 262.1 438.96 261.51 438.96 260.91 438.96 260.31 438.96 260.01 439.26 259.71 439.26 259.42 439.26 259.12 439.56"/>
  <polyline class="cls-1" points="307.51 444.34 307.81 444.64 307.51 444.64 307.51 444.94 307.21 444.94 306.92 444.94 306.32 445.24 306.02 445.24 305.42 445.24 304.82 445.24 304.23 445.53 303.63 445.53 303.03 445.53 302.14 445.83 301.24 445.83 300.34 445.83 299.45 445.83 298.55 446.13 297.36 446.13 296.46 446.13 295.27 446.13 294.37 446.43 293.17 446.43 291.98 446.43 290.78 446.43 289.59 446.73 288.39 446.73 287.2 446.73 286 447.03 284.81 447.03 283.61 447.03 282.12 447.03 280.93 447.33 279.73 447.33 278.54 447.33 277.34 447.33 276.15 447.63 274.95 447.63 273.76 447.63 272.56 447.63 271.66 447.92 270.47 447.92 269.57 447.92 268.38 448.22 267.48 448.22 266.59 448.22 265.69 448.22 265.09 448.52 264.2 448.52 263.6 448.52 262.7 448.52 262.1 448.82 261.51 448.82 260.91 448.82 260.61 448.82 260.31 449.12 259.71 449.12 259.42 449.12 259.12 449.42 258.82 449.42"/>
  <polyline class="cls-1" points="307.81 454.2 307.81 454.5 307.51 454.8 307.21 454.8 306.62 454.8 306.32 455.09 305.72 455.09 305.42 455.09 304.82 455.39 304.23 455.39 303.33 455.39 302.73 455.39 301.84 455.69 301.24 455.69 300.34 455.69 299.45 455.69 298.25 455.99 297.36 455.99 296.46 455.99 295.27 455.99 294.37 456.29 293.17 456.29 291.98 456.29 290.78 456.59 289.59 456.59 288.39 456.59 287.2 456.59 286 456.89 284.81 456.89 283.61 456.89 282.42 456.89 280.93 457.19 279.73 457.19 278.54 457.19 277.34 457.19 276.15 457.48 274.95 457.48 274.05 457.48 272.86 457.78 271.66 457.78 270.47 457.78 269.57 457.78 268.68 458.08 267.48 458.08 266.59 458.08 265.69 458.08 264.79 458.38 264.2 458.38 263.3 458.38 262.7 458.68 262.1 458.68 261.51 458.68 260.91 458.68 260.31 458.98 260.01 458.98 259.71 458.98 259.42 458.98 259.12 459.28"/>
  <polyline class="cls-1" points="307.51 464.06 307.51 464.36 307.81 464.36 307.51 464.36 307.51 464.65 307.21 464.65 306.92 464.65 306.62 464.95 306.32 464.95 306.02 464.95 305.42 464.95 304.82 465.25 304.23 465.25 303.63 465.25 303.03 465.25 302.14 465.55 301.24 465.55 300.34 465.55 299.45 465.55 298.55 465.85 297.66 465.85 296.46 465.85 295.27 466.15 294.37 466.15 293.17 466.15 291.98 466.15 290.78 466.45 289.59 466.45 288.39 466.45 287.2 466.45 286 466.75 284.81 466.75 283.61 466.75 282.12 467.04 280.93 467.04 279.73 467.04 278.54 467.04 277.34 467.34 276.15 467.34 274.95 467.34 273.76 467.34 272.56 467.64 271.66 467.64 270.47 467.64 269.57 467.64 268.38 467.94 267.48 467.94 266.59 467.94 265.69 468.24 264.79 468.24 264.2 468.24 263.6 468.24 262.7 468.54 262.1 468.54 261.51 468.54 261.21 468.54 260.61 468.84 260.31 468.84 260.01 468.84 259.71 468.84 259.42 469.14 259.12 469.14 259.12 469.43"/>
  <polyline class="cls-1" points="307.81 473.92 307.81 474.21 307.81 474.51 307.51 474.51 307.21 474.51 306.92 474.81 306.32 474.81 306.02 474.81 305.42 474.81 304.82 475.11 304.23 475.11 303.63 475.11 302.73 475.11 301.84 475.41 301.24 475.41 300.34 475.41 299.45 475.71 298.25 475.71 297.36 475.71 296.46 475.71 295.27 476.01 294.37 476.01 293.17 476.01 291.98 476.01 290.78 476.31 289.59 476.31 288.39 476.31 287.2 476.6 286 476.6 284.81 476.6 283.61 476.6 282.42 476.9 280.93 476.9 279.73 476.9 278.54 476.9 277.34 477.2 276.15 477.2 274.95 477.2 274.05 477.2 272.86 477.5 271.66 477.5 270.77 477.5 269.57 477.8 268.68 477.8 267.48 477.8 266.59 477.8 265.69 478.1 265.09 478.1 264.2 478.1 263.3 478.1 262.7 478.4 262.1 478.4 261.51 478.4 260.91 478.4 260.31 478.7 260.01 478.7 259.71 478.7 259.42 478.99 259.12 478.99 258.82 478.99 258.82 479.29"/>
  <polyline class="cls-1" points="307.81 484.07 307.81 484.37 307.51 484.37 307.21 484.37 306.92 484.67"/>
  <polyline class="cls-1" points="302.14 421.63 301.84 421.63 301.84 421.93 301.54 421.93 301.24 421.93 300.94 421.93 300.64 422.23 300.34 422.23 300.04 422.23 299.75 422.23 299.15 422.53 298.85 422.53 298.25 422.53 297.66 422.53 297.06 422.83 296.46 422.83 295.86 422.83 295.27 422.83 294.67 423.13 293.77 423.13 293.17 423.13 292.28 423.13 291.68 423.43 290.78 423.43 289.89 423.43 288.99 423.43 288.39 423.73 287.5 423.73 286.6 423.73 285.71 423.73 284.81 424.02 283.91 424.02 283.02 424.02 282.12 424.02 281.22 424.32 280.33 424.32 279.43 424.32 278.54 424.32 277.94 424.62 277.04 424.62 276.15 424.62 275.25 424.62 274.65 424.92 273.76 424.92 272.86 424.92 272.26 424.92 271.66 425.22 270.77 425.22 270.17 425.22 269.57 425.22 268.98 425.52 268.38 425.52 268.08 425.52 267.48 425.52 266.88 425.82 266.59 425.82 266.29 425.82 265.99 425.82 265.69 426.12 265.39 426.12 265.09 426.12 264.79 426.41"/>
  <polyline class="cls-1" points="302.14 431.49 301.84 431.49 301.84 431.79 301.54 431.79 301.24 431.79 301.24 432.09 300.94 432.09 300.64 432.09 300.04 432.09 299.75 432.39 299.45 432.39 298.85 432.39 298.25 432.39 297.66 432.69 297.36 432.69 296.76 432.69 295.86 432.69 295.27 432.99 294.67 432.99 293.77 432.99 293.17 432.99 292.28 433.29 291.68 433.29 290.78 433.29 289.89 433.29 288.99 433.58 288.1 433.58 287.5 433.58 286.6 433.58 285.71 433.58 284.81 433.88 283.91 433.88 283.02 433.88 282.12 433.88 281.22 434.18 280.33 434.18 279.43 434.18 278.54 434.18 277.64 434.48 277.04 434.48 276.15 434.48 275.25 434.48 274.65 434.78 273.76 434.78 272.86 434.78 272.26 434.78 271.66 435.08 270.77 435.08 270.17 435.08 269.57 435.08 268.98 435.38 268.38 435.38 268.08 435.38 267.48 435.38 267.18 435.68 266.59 435.68 266.29 435.68 265.99 435.68 265.69 435.97 265.39 435.97 265.09 435.97 264.79 436.27"/>
  <polyline class="cls-1" points="302.14 441.35 301.84 441.65 301.54 441.65 301.24 441.95 300.94 441.95 300.64 441.95 300.34 441.95 299.75 442.25 299.45 442.25 298.85 442.25 298.25 442.25 297.66 442.55 297.36 442.55 296.46 442.55 295.86 442.55 295.27 442.85 294.67 442.85 293.77 442.85 293.17 442.85 292.28 443.14 291.38 443.14 290.78 443.14 289.89 443.14 288.99 443.44 288.1 443.44 287.2 443.44 286.3 443.44 285.71 443.74 284.81 443.74 283.91 443.74 283.02 443.74 282.12 444.04 281.22 444.04 280.33 444.04 279.43 444.04 278.54 444.34 277.64 444.34 277.04 444.34 276.15 444.34 275.25 444.64 274.35 444.64 273.76 444.64 272.86 444.64 272.26 444.94 271.66 444.94 271.07 444.94 270.17 444.94 269.57 445.24 269.27 445.24 268.68 445.24 268.08 445.24 267.48 445.24 267.18 445.53 266.88 445.53 266.29 445.53 265.99 445.53 265.69 445.83 265.39 445.83 265.09 445.83 264.79 446.13"/>
  <polyline class="cls-1" points="302.14 451.21 302.14 451.51 301.84 451.51 301.54 451.51 301.24 451.81 300.94 451.81 300.64 451.81 300.34 451.81 299.75 452.11 299.45 452.11 298.85 452.11 298.25 452.11 297.66 452.41 297.06 452.41 296.46 452.41 295.86 452.41 295.27 452.7 294.37 452.7 293.77 452.7 292.88 452.7 292.28 453 291.38 453 290.49 453 289.89 453 288.99 453.3 288.1 453.3 287.2 453.3 286.3 453.3 285.71 453.6 284.81 453.6 283.91 453.6 283.02 453.6 282.12 453.9 281.22 453.9 280.33 453.9 279.43 453.9 278.54 454.2 277.64 454.2 277.04 454.2 276.15 454.2 275.25 454.5 274.65 454.5 273.76 454.5 273.16 454.5 272.26 454.8 271.66 454.8 271.07 454.8 270.47 454.8 269.87 455.09 269.27 455.09 268.68 455.09 268.08 455.09 267.78 455.39 267.18 455.39 266.88 455.39 266.29 455.39 265.99 455.69 265.69 455.69 265.39 455.69 265.09 455.69 265.09 455.99 264.79 455.99"/>
  <polyline class="cls-1" points="302.14 461.07 302.14 461.37 301.84 461.37 301.54 461.67 301.24 461.67 300.94 461.67 300.64 461.67 300.04 461.97 299.75 461.97 299.15 461.97 298.85 461.97 298.25 462.26 297.66 462.26 297.06 462.26 296.46 462.26 295.86 462.56 295.27 462.56 294.37 462.56 293.77 462.56 292.88 462.86 292.28 462.86 291.38 462.86 290.78 462.86 289.89 462.86 288.99 463.16 288.1 463.16 287.2 463.16 286.6 463.16 285.71 463.46 284.81 463.46 283.91 463.46 283.02 463.46 282.12 463.76 281.22 463.76 280.33 463.76 279.43 463.76 278.54 464.06 277.64 464.06 277.04 464.06 276.15 464.06 275.25 464.36 274.65 464.36 273.76 464.36 273.16 464.36 272.26 464.65 271.66 464.65 271.07 464.65 270.47 464.65 269.87 464.95 269.27 464.95 268.68 464.95 268.08 464.95 267.48 465.25 267.18 465.25 266.59 465.25 266.29 465.25 265.99 465.55 265.69 465.55 265.39 465.55 265.09 465.55 264.79 465.85"/>
  <polyline class="cls-1" points="302.43 470.93 302.14 470.93 302.14 471.23 301.84 471.23 301.54 471.53 301.24 471.53 300.94 471.53 300.64 471.53 300.04 471.82 299.75 471.82 299.15 471.82 298.85 471.82 298.25 472.12 297.66 472.12 297.06 472.12 296.46 472.12 295.86 472.42 294.97 472.42 294.37 472.42 293.77 472.42 292.88 472.72 292.28 472.72 291.38 472.72 290.78 472.72 289.89 473.02 288.99 473.02 288.1 473.02 287.5 473.02 286.6 473.32 285.71 473.32 284.81 473.32 283.91 473.32 283.02 473.62 282.12 473.62 281.22 473.62 280.33 473.62 279.43 473.92 278.54 473.92 277.94 473.92 277.04 473.92 276.15 474.21 275.55 474.21 274.65 474.21 273.76 474.21 273.16 474.51 272.26 474.51 271.66 474.51 271.07 474.51 270.47 474.51 269.87 474.81 269.27 474.81 268.68 474.81 268.08 474.81 267.48 475.11 267.18 475.11 266.59 475.11 266.29 475.11 265.99 475.41 265.69 475.41 265.39 475.41 265.09 475.41 264.79 475.71"/>
  <polyline class="cls-1" points="302.14 480.79 302.14 481.09 301.84 481.09 301.54 481.09 301.54 481.38 301.24 481.38 300.94 481.38 300.34 481.38 300.04 481.68 299.75 481.68 299.15 481.68 298.55 481.68 298.25 481.98 297.66 481.98 297.06 481.98 296.46 481.98 295.86 482.28 295.27 482.28 294.37 482.28 293.77 482.28 293.17 482.58 292.28 482.58 291.38 482.58 290.78 482.58 289.89 482.88 288.99 482.88 288.1 482.88 287.5 482.88 286.6 483.18 285.71 483.18 284.81 483.18 283.91 483.18 283.02 483.48 282.12 483.48 281.22 483.48 280.33 483.48 279.43 483.77 278.83 483.77 277.94 483.77 277.04 483.77 276.15 484.07 275.55 484.07 274.65 484.07 273.76 484.07 273.16 484.37 272.26 484.37 271.66 484.37 271.07 484.37 270.47 484.67 269.87 484.67 269.27 484.67 268.68 484.67 268.08 484.97 267.48 484.97 267.18 484.97 266.59 484.97 266.29 485.27 265.99 485.27 265.39 485.27 265.09 485.57 264.79 485.57"/>
  <polyline class="cls-1" points="301.84 419.84 301.54 419.84 301.24 420.14 300.94 420.14 300.64 420.14 300.04 420.44 299.75 420.44 299.45 420.44 298.85 420.44 298.25 420.74 297.66 420.74 297.06 420.74 296.46 420.74 295.86 421.04 295.27 421.04 294.67 421.04 293.77 421.04 293.17 421.34 292.28 421.34 291.38 421.34 290.78 421.34 289.89 421.63 288.99 421.63 288.1 421.63 287.2 421.63 286.3 421.93 285.41 421.93 284.81 421.93 283.91 421.93 283.02 422.23 282.12 422.23 281.22 422.23 280.33 422.23 279.43 422.53 278.54 422.53 277.64 422.53 276.74 422.53 276.15 422.83 275.25 422.83 274.35 422.83 273.76 422.83 272.86 423.13 272.26 423.13 271.37 423.13 270.77 423.13 270.17 423.43 269.57 423.43 268.98 423.43 268.38 423.43 268.08 423.73 267.48 423.73 267.18 423.73 266.59 423.73 266.29 424.02 265.99 424.02 265.69 424.02 265.39 424.02 265.39 424.32 265.09 424.32 264.79 424.32 264.79 424.62"/>
  <polyline class="cls-1" points="301.84 429.7 301.54 430 301.24 430 300.94 430 300.64 430.3 300.34 430.3 299.75 430.3 299.45 430.3 298.85 430.6 298.25 430.6 297.66 430.6 297.06 430.6 296.46 430.9 295.86 430.9 295.27 430.9 294.37 430.9 293.77 431.19 292.88 431.19 292.28 431.19 291.38 431.19 290.49 431.49 289.89 431.49 288.99 431.49 288.1 431.49 287.2 431.49 286.3 431.79 285.41 431.79 284.51 431.79 283.91 431.79 283.02 432.09 282.12 432.09 281.22 432.09 280.33 432.09 279.43 432.39 278.54 432.39 277.64 432.39 276.74 432.39 276.15 432.69 275.25 432.69 274.35 432.69 273.76 432.69 272.86 432.99 272.26 432.99 271.66 432.99 270.77 432.99 270.17 433.29 269.57 433.29 268.98 433.29 268.68 433.29 268.08 433.58 267.48 433.58 267.18 433.58 266.88 433.58 266.29 433.88 265.99 433.88 265.69 433.88 265.39 433.88 265.39 434.18 265.09 434.18 264.79 434.18 264.79 434.48"/>
  <polyline class="cls-1" points="302.14 439.56 301.84 439.56 301.84 439.86 301.54 439.86 301.24 439.86 300.94 439.86 300.64 440.16 300.34 440.16 299.75 440.16 299.45 440.16 298.85 440.46 298.25 440.46 297.66 440.46 297.06 440.46 296.46 440.75 295.86 440.75 295.27 440.75 294.37 440.75 293.77 441.05 292.88 441.05 292.28 441.05 291.38 441.05 290.49 441.35 289.89 441.35 288.99 441.35 288.1 441.35 287.2 441.65 286.3 441.65 285.41 441.65 284.81 441.65 283.91 441.95 283.02 441.95 282.12 441.95 281.22 441.95 280.33 442.25 279.43 442.25 278.54 442.25 277.64 442.25 276.74 442.55 276.15 442.55 275.25 442.55 274.65 442.55 273.76 442.85 273.16 442.85 272.26 442.85 271.66 442.85 271.07 443.14 270.47 443.14 269.87 443.14 269.27 443.14 268.68 443.14 268.08 443.44 267.48 443.44 267.18 443.44 266.59 443.44 266.29 443.74 265.99 443.74 265.69 443.74 265.39 443.74 265.09 444.04 264.79 444.04 264.49 444.34"/>
  <polyline class="cls-1" points="302.14 449.42 301.84 449.42 301.84 449.72 301.54 449.72 301.24 449.72 300.94 449.72 300.34 450.02 300.04 450.02 299.75 450.02 299.15 450.02 298.55 450.31 298.25 450.31 297.66 450.31 297.06 450.31 296.46 450.61 295.86 450.61 294.97 450.61 294.37 450.61 293.77 450.91 292.88 450.91 292.28 450.91 291.38 450.91 290.49 451.21 289.89 451.21 288.99 451.21 288.1 451.21 287.2 451.51 286.3 451.51 285.71 451.51 284.81 451.51 283.91 451.81 283.02 451.81 282.12 451.81 281.22 451.81 280.33 452.11 279.43 452.11 278.54 452.11 277.64 452.11 277.04 452.41 276.15 452.41 275.25 452.41 274.65 452.41 273.76 452.7 273.16 452.7 272.26 452.7 271.66 452.7 271.07 453 270.47 453 269.87 453 269.27 453 268.68 453.3 268.08 453.3 267.48 453.3 267.18 453.3 266.59 453.6 266.29 453.6 265.99 453.6 265.69 453.6 265.39 453.9 265.09 453.9 264.79 453.9 264.49 454.2"/>
  <polyline class="cls-1" points="302.14 459.28 301.84 459.58 301.54 459.58 301.24 459.58 300.94 459.87 300.34 459.87 300.04 459.87 299.75 459.87 299.15 460.17 298.55 460.17 298.25 460.17 297.66 460.17 297.06 460.47 296.46 460.47 295.86 460.47 294.97 460.47 294.37 460.77 293.77 460.77 292.88 460.77 292.28 460.77 291.38 460.77 290.78 461.07 289.89 461.07 288.99 461.07 288.1 461.07 287.2 461.37 286.6 461.37 285.71 461.37 284.81 461.37 283.91 461.67 283.02 461.67 282.12 461.67 281.22 461.67 280.33 461.97 279.43 461.97 278.54 461.97 277.94 461.97 277.04 462.26 276.15 462.26 275.25 462.26 274.65 462.26 273.76 462.56 273.16 462.56 272.26 462.56 271.66 462.56 271.07 462.86 270.47 462.86 269.57 462.86 268.98 462.86 268.68 463.16 268.08 463.16 267.48 463.16 266.88 463.16 266.59 463.46 266.29 463.46 265.99 463.46 265.39 463.46 265.39 463.76 265.09 463.76 264.79 463.76 264.49 464.06"/>
  <polyline class="cls-1" points="301.84 469.14 301.84 469.43 301.54 469.43 301.24 469.43 300.94 469.43 300.64 469.73 300.34 469.73 300.04 469.73 299.45 469.73 299.15 470.03 298.55 470.03 298.25 470.03 297.66 470.03 297.06 470.33 296.46 470.33 295.86 470.33 295.27 470.33 294.37 470.63 293.77 470.63 293.17 470.63 292.28 470.63 291.38 470.93 290.78 470.93 289.89 470.93 288.99 470.93 288.1 471.23 287.2 471.23 286.6 471.23 285.71 471.23 284.81 471.53 283.91 471.53 283.02 471.53 282.12 471.53 281.22 471.82 280.33 471.82 279.43 471.82 278.54 471.82 277.94 472.12 277.04 472.12 276.15 472.12 275.25 472.12 274.65 472.42 273.76 472.42 273.16 472.42 272.26 472.42 271.66 472.42 271.07 472.72 270.17 472.72 269.57 472.72 268.98 472.72 268.38 473.02 268.08 473.02 267.48 473.02 266.88 473.02 266.59 473.32 266.29 473.32 265.69 473.32 265.39 473.32 265.39 473.62 265.09 473.62 264.79 473.62 264.79 473.92 264.49 473.92 264.79 473.92"/>
  <polyline class="cls-1" points="301.84 478.99 301.54 479.29 301.24 479.29 300.94 479.29 300.64 479.59 300.34 479.59 300.04 479.59 299.45 479.59 299.15 479.89 298.55 479.89 298.25 479.89 297.66 479.89 297.06 480.19 296.46 480.19 295.86 480.19 295.27 480.19 294.67 480.49 293.77 480.49 293.17 480.49 292.28 480.49 291.38 480.79 290.78 480.79 289.89 480.79 288.99 480.79 288.1 481.09 287.2 481.09 286.6 481.09 285.71 481.09 284.81 481.38 283.91 481.38 283.02 481.38 282.12 481.38 281.22 481.68 280.33 481.68 279.43 481.68 278.54 481.68 277.64 481.98 277.04 481.98 276.15 481.98 275.25 481.98 274.65 482.28 273.76 482.28 272.86 482.28 272.26 482.28 271.66 482.58 270.77 482.58 270.17 482.58 269.57 482.58 268.98 482.88 268.38 482.88 267.78 482.88 267.48 482.88 266.88 483.18 266.59 483.18 266.29 483.18 265.99 483.18 265.69 483.48 265.39 483.48 265.09 483.48 264.79 483.77"/>
  <polyline class="cls-1" points="259.12 480.79 259.12 480.49 259.42 480.19 259.71 480.19 260.01 480.19 260.31 480.19 260.91 479.89 261.21 479.89 261.81 479.89 262.4 479.59 263.3 479.59 263.9 479.59 264.79 479.59 265.69 479.29 266.59 479.29 267.48 479.29 268.38 479.29 269.27 478.99 270.47 478.99 271.37 478.99 272.56 478.99 273.76 478.7 274.95 478.7 276.15 478.7 277.34 478.4 278.54 478.4 279.73 478.4 280.93 478.4 282.12 478.1 283.32 478.1 284.51 478.1 285.71 478.1 286.9 477.8 288.1 477.8 289.59 477.8 290.78 477.5 291.68 477.5 292.88 477.5 294.07 477.5 295.27 477.2 296.16 477.2 297.36 477.2 298.25 477.2 299.15 476.9 300.04 476.9 300.94 476.9 301.84 476.9 302.73 476.6 303.33 476.6 303.93 476.6 304.53 476.31 305.12 476.31 305.72 476.31 306.32 476.31 306.62 476.01 307.21 476.01 307.51 476.01 307.81 475.71"/>
  <polyline class="cls-1" points="259.12 470.93 258.82 470.63 259.12 470.63 259.42 470.63 259.42 470.33 259.71 470.33 260.01 470.33 260.61 470.03 260.91 470.03 261.51 470.03 262.1 470.03 262.7 469.73 263.3 469.73 264.2 469.73 264.79 469.73 265.69 469.43 266.59 469.43 267.48 469.43 268.38 469.14 269.27 469.14 270.17 469.14 271.37 469.14 272.56 468.84 273.46 468.84 274.65 468.84 275.85 468.84 277.04 468.54 278.24 468.54 279.43 468.54 280.93 468.54 282.12 468.24 283.32 468.24 284.51 468.24 285.71 467.94 286.9 467.94 288.1 467.94 289.29 467.94 290.49 467.64 291.68 467.64 292.88 467.64 294.07 467.64 295.27 467.34 296.16 467.34 297.36 467.34 298.25 467.34 299.45 467.04 300.34 467.04 301.24 467.04 301.84 466.75 302.73 466.75 303.63 466.75 304.23 466.75 304.82 466.45 305.42 466.45 305.72 466.45 306.32 466.45 306.62 466.15 306.92 466.15 307.21 466.15 307.51 466.15 307.51 465.85 307.81 465.85"/>
  <polyline class="cls-1" points="259.12 461.07 259.12 460.77 259.12 460.47 259.42 460.47 259.71 460.47 260.01 460.47 260.31 460.17 260.91 460.17 261.21 460.17 261.81 460.17 262.4 459.87 263.3 459.87 263.9 459.87 264.79 459.58 265.69 459.58 266.59 459.58 267.48 459.58 268.38 459.28 269.27 459.28 270.47 459.28 271.37 459.28 272.56 458.98 273.76 458.98 274.95 458.98 276.15 458.98 277.34 458.68 278.54 458.68 279.73 458.68 280.93 458.38 282.12 458.38 283.32 458.38 284.51 458.38 285.71 458.08 286.9 458.08 288.39 458.08 289.59 458.08 290.78 457.78 291.98 457.78 292.88 457.78 294.07 457.78 295.27 457.48 296.16 457.48 297.36 457.48 298.25 457.19 299.15 457.19 300.04 457.19 300.94 457.19 301.84 456.89 302.43 456.89 303.33 456.89 303.93 456.89 304.53 456.59 305.12 456.59 305.72 456.59 306.32 456.59 306.62 456.29 306.92 456.29 307.21 456.29 307.51 455.99 307.81 455.99"/>
  <polyline class="cls-1" points="259.12 451.21 258.82 450.91 259.12 450.91 259.42 450.61 259.71 450.61 260.01 450.61 260.61 450.31 260.91 450.31 261.51 450.31 262.1 450.02 262.7 450.02 263.3 450.02 264.2 450.02 264.79 449.72 265.69 449.72 266.59 449.72 267.48 449.72 268.38 449.42 269.27 449.42 270.47 449.42 271.37 449.42 272.56 449.12 273.46 449.12 274.65 449.12 275.85 448.82 277.04 448.82 278.24 448.82 279.43 448.82 280.63 448.52 282.12 448.52 283.32 448.52 284.51 448.52 285.71 448.22 286.9 448.22 288.1 448.22 289.29 448.22 290.49 447.92 291.68 447.92 292.88 447.92 294.07 447.63 295.27 447.63 296.16 447.63 297.36 447.63 298.25 447.33 299.15 447.33 300.34 447.33 301.24 447.33 301.84 447.03 302.73 447.03 303.63 447.03 304.23 447.03 304.82 446.73 305.42 446.73 306.02 446.73 306.32 446.43 306.62 446.43 307.21 446.43 307.51 446.13 307.81 446.13"/>
  <polyline class="cls-1" points="259.12 441.35 259.12 441.05 259.42 440.75 259.71 440.75 260.01 440.46 260.31 440.46 260.91 440.46 261.51 440.46 261.81 440.16 262.4 440.16 263.3 440.16 263.9 440.16 264.79 439.86 265.39 439.86 266.29 439.86 267.18 439.86 268.38 439.56 269.27 439.56 270.47 439.56 271.37 439.26 272.56 439.26 273.76 439.26 274.65 439.26 275.85 438.96 277.04 438.96 278.24 438.96 279.73 438.96 280.93 438.66 282.12 438.66 283.32 438.66 284.51 438.66 285.71 438.36 286.9 438.36 288.39 438.36 289.59 438.07 290.78 438.07 291.98 438.07 292.88 438.07 294.07 437.77 295.27 437.77 296.46 437.77 297.36 437.77 298.25 437.47 299.15 437.47 300.34 437.47 300.94 437.47 301.84 437.17 302.73 437.17 303.33 437.17 303.93 436.87 304.53 436.87 305.12 436.87 305.72 436.87 306.02 436.57 306.62 436.57 306.92 436.57 307.21 436.57 307.51 436.27 307.81 436.27 307.81 435.97"/>
  <polyline class="cls-1" points="259.12 431.49 258.82 431.19 258.82 430.9 259.12 430.9 259.42 430.9 259.71 430.9 260.01 430.6 260.31 430.6 260.91 430.6 261.51 430.6 262.1 430.3 262.7 430.3 263.3 430.3 263.9 430.3 264.79 430 265.69 430 266.59 430 267.48 429.7 268.38 429.7 269.27 429.7 270.47 429.7 271.37 429.4 272.56 429.4 273.76 429.4 274.95 429.4 275.85 429.1 277.04 429.1 278.24 429.1 279.43 429.1 280.93 428.8 282.12 428.8 283.32 428.8 284.51 428.51 285.71 428.51 286.9 428.51 288.1 428.51 289.29 428.21 290.49 428.21 291.68 428.21 292.88 428.21 294.07 427.91 294.97 427.91 296.16 427.91 297.36 427.61 298.25 427.61 299.15 427.61 300.04 427.61 300.94 427.31 301.84 427.31 302.73 427.31 303.33 427.31 304.23 427.01 304.82 427.01 305.42 427.01 306.02 427.01 306.32 426.71 306.92 426.71 307.21 426.71 307.51 426.41 307.81 426.41 307.81 426.12"/>
  <polyline class="cls-1" points="259.12 421.34 259.12 421.04 259.42 421.04 259.71 421.04 260.01 420.74 260.31 420.74 260.61 420.74 260.91 420.74 261.21 420.74 261.51 420.44 262.1 420.44 262.4 420.44 263 420.44 263.3 420.44 263.9 420.14 264.49 420.14 265.09 420.14 265.69 420.14 266.29 420.14 266.88 419.84 267.78 419.84 268.38 419.84 268.98 419.84 269.87 419.84 270.77 419.54 271.37 419.54 272.26 419.54 273.16 419.54 274.05 419.54 274.95 419.24 275.85 419.24 276.74 419.24 277.64 419.24 278.54 419.24 279.43 418.95 280.33 418.95 281.22 418.95 282.12 418.95 283.02 418.95 283.91 418.65 284.81 418.65 285.71 418.65 286.6 418.65 287.5 418.65 288.69 418.35 289.59 418.35 290.49 418.35 291.38 418.35 291.98 418.35 292.88 418.05 293.77 418.05 294.67 418.05 295.56 418.05 296.16 418.05 297.06 417.75 297.95 417.75 298.55 417.75 299.15 417.75 300.04 417.75"/>
  <line class="cls-1" x1="306.92" y1="484.67" x2="307.81" y2="484.67"/>
  <polyline class="cls-1" points="301.84 487.96 301.24 487.96 299.45 487.96 296.46 487.96 292.58 487.96 288.1 487.96 283.32 487.96 278.54 487.96 274.05 487.96 270.47 487.96 267.48 487.96 265.39 487.96 264.79 487.96"/>
  <line class="cls-1" x1="262.7" y1="486.76" x2="264.79" y2="485.57"/>
  <line class="cls-1" x1="259.12" y1="419.84" x2="262.4" y2="417.75"/>
  <line class="cls-1" x1="259.12" y1="429.7" x2="264.79" y2="426.41"/>
  <line class="cls-1" x1="259.12" y1="439.56" x2="264.79" y2="436.27"/>
  <line class="cls-1" x1="259.12" y1="449.42" x2="264.79" y2="446.13"/>
  <line class="cls-1" x1="259.12" y1="459.28" x2="264.79" y2="455.99"/>
  <line class="cls-1" x1="259.12" y1="469.14" x2="264.79" y2="465.85"/>
  <line class="cls-1" x1="259.12" y1="478.99" x2="264.79" y2="475.71"/>
  <line class="cls-1" x1="302.43" y1="421.34" x2="307.81" y2="424.62"/>
  <line class="cls-1" x1="302.43" y1="431.19" x2="307.81" y2="434.48"/>
  <line class="cls-1" x1="302.43" y1="441.35" x2="307.81" y2="444.34"/>
  <line class="cls-1" x1="302.43" y1="451.21" x2="307.81" y2="454.2"/>
  <line class="cls-1" x1="302.43" y1="461.07" x2="307.81" y2="464.06"/>
  <line class="cls-1" x1="302.43" y1="470.93" x2="307.81" y2="473.92"/>
  <line class="cls-1" x1="302.43" y1="480.79" x2="307.81" y2="484.07"/>
  <line class="cls-1" x1="302.43" y1="419.84" x2="302.43" y2="421.63"/>
  <line class="cls-1" x1="302.43" y1="429.7" x2="302.43" y2="431.49"/>
  <line class="cls-1" x1="302.43" y1="439.56" x2="302.43" y2="441.35"/>
  <line class="cls-1" x1="302.43" y1="449.42" x2="302.43" y2="451.21"/>
  <line class="cls-1" x1="302.43" y1="459.28" x2="302.43" y2="461.07"/>
  <line class="cls-1" x1="302.43" y1="469.14" x2="302.43" y2="470.93"/>
  <line class="cls-1" x1="302.43" y1="478.99" x2="302.43" y2="480.79"/>
  <line class="cls-1" x1="264.49" y1="424.62" x2="264.49" y2="426.41"/>
  <line class="cls-1" x1="264.49" y1="434.48" x2="264.49" y2="436.27"/>
  <line class="cls-1" x1="264.49" y1="444.34" x2="264.49" y2="446.13"/>
  <line class="cls-1" x1="264.49" y1="454.2" x2="264.49" y2="455.99"/>
  <line class="cls-1" x1="264.49" y1="464.06" x2="264.49" y2="465.85"/>
  <line class="cls-1" x1="264.49" y1="473.92" x2="264.49" y2="475.71"/>
  <line class="cls-1" x1="264.49" y1="483.77" x2="264.49" y2="485.57"/>
  <line class="cls-1" x1="264.49" y1="424.62" x2="259.12" y2="421.34"/>
  <line class="cls-1" x1="264.49" y1="434.48" x2="259.12" y2="431.49"/>
  <line class="cls-1" x1="264.49" y1="444.34" x2="259.12" y2="441.35"/>
  <line class="cls-1" x1="264.49" y1="454.2" x2="259.12" y2="451.21"/>
  <line class="cls-1" x1="264.49" y1="464.06" x2="259.12" y2="461.07"/>
  <line class="cls-1" x1="264.49" y1="474.21" x2="259.12" y2="470.93"/>
  <line class="cls-1" x1="264.49" y1="484.07" x2="259.12" y2="480.79"/>
  <line class="cls-1" x1="307.81" y1="475.71" x2="302.14" y2="478.99"/>
  <line class="cls-1" x1="307.81" y1="465.85" x2="302.14" y2="469.14"/>
  <line class="cls-1" x1="307.81" y1="455.99" x2="302.14" y2="459.28"/>
  <line class="cls-1" x1="307.81" y1="446.13" x2="302.14" y2="449.42"/>
  <line class="cls-1" x1="307.81" y1="436.27" x2="302.14" y2="439.56"/>
  <line class="cls-1" x1="307.81" y1="426.41" x2="302.14" y2="429.7"/>
  <line class="cls-1" x1="305.72" y1="417.75" x2="302.14" y2="419.84"/>
  <line class="cls-1" x1="264.79" y1="487.96" x2="262.7" y2="486.76"/>
  <line class="cls-1" x1="301.84" y1="487.96" x2="307.81" y2="484.67"/>
  <line class="cls-1" x1="307.81" y1="424.92" x2="307.81" y2="426.12"/>
  <line class="cls-1" x1="307.81" y1="434.78" x2="307.81" y2="435.97"/>
  <line class="cls-1" x1="307.81" y1="444.64" x2="307.81" y2="446.13"/>
  <line class="cls-1" x1="307.81" y1="454.5" x2="307.81" y2="455.99"/>
  <line class="cls-1" x1="307.81" y1="464.36" x2="307.81" y2="465.85"/>
  <line class="cls-1" x1="307.81" y1="474.21" x2="307.81" y2="475.71"/>
  <line class="cls-1" x1="307.81" y1="484.07" x2="307.81" y2="484.67"/>
  <line class="cls-1" x1="258.82" y1="419.84" x2="258.82" y2="421.34"/>
  <line class="cls-1" x1="258.82" y1="429.7" x2="258.82" y2="431.19"/>
  <line class="cls-1" x1="258.82" y1="439.56" x2="258.82" y2="441.05"/>
  <line class="cls-1" x1="258.82" y1="449.42" x2="258.82" y2="450.91"/>
  <line class="cls-1" x1="258.82" y1="459.28" x2="258.82" y2="460.77"/>
  <line class="cls-1" x1="258.82" y1="469.43" x2="258.82" y2="470.63"/>
  <line class="cls-1" x1="258.82" y1="479.29" x2="258.82" y2="480.49"/>
</svg>