<?xml version="1.0" encoding="UTF-8"?>
<svg id="Layer_1" data-name="Layer 1" xmlns="http://www.w3.org/2000/svg" viewBox="0 0 566.93 566.93">
  <defs>
    <style>
      .cls-1 {
        fill: none;
        stroke: #000;
        stroke-linecap: round;
        stroke-linejoin: round;
      }
    </style>
  </defs>
  <polyline class="cls-1" points="249.56 401.02 250.15 401.02 251.65 401.02 254.04 401.02 257.32 401.02 261.51 401.02 266.29 401.02 271.66 401.02 277.34 401.02 283.32 401.02 289.29 401.02 294.97 401.02 300.34 401.02 305.12 401.02 309.31 401.02 312.59 401.02 314.98 401.02 316.48 401.02 317.07 401.02"/>
  <polyline class="cls-1" points="352.33 118.71 351.73 118.71 349.94 118.71 346.95 118.71 342.77 118.71 337.69 118.71 331.41 118.71 324.54 118.71 316.77 118.71 308.41 118.71 299.75 118.71 290.78 118.71 281.52 118.71 272.26 118.71 263.3 118.71 254.64 118.71 246.57 118.71 239.1 118.71 232.53 118.71 232.53 119.9 239.4 119.9 247.17 119.9 255.23 119.9 264.2 119.9 273.16 119.9 282.42 119.9 291.68 119.9 300.94 119.9 309.61 119.9 317.97 119.9 325.74 119.9 332.91 119.9 339.18 119.9 344.26 119.9 348.44 119.9 351.43 119.9 353.22 119.9 353.82 119.9"/>
  <polyline class="cls-1" points="352.92 237.61 351.13 237.61 347.84 237.61 343.66 237.61 338.58 237.61 332.61 237.61 325.74 237.61 317.97 237.61 309.9 237.61 301.24 237.61 292.28 237.61 283.32 237.61 274.35 237.61 265.39 237.61 256.73 237.61 248.66 237.61 240.89 237.61 234.02 237.61 228.05 237.61 222.97 237.61 218.79 237.61 215.5 237.61 213.71 237.61"/>
  <polyline class="cls-1" points="232.53 119.9 232.53 217.29 226.55 217.29 221.77 217.29 217.89 217.29 214.9 217.29 213.41 217.29 212.81 217.29"/>
  <polyline class="cls-1" points="324.54 351.13 323.94 351.13 322.15 351.13 318.87 351.13 314.98 351.13 309.9 351.13 303.93 351.13 297.36 351.13 290.49 351.13 283.32 351.13 276.15 351.13 269.27 351.13 262.7 351.13 256.73 351.13 251.65 351.13 247.47 351.13 244.48 351.13 242.69 351.13 242.09 351.13"/>
  <polyline class="cls-1" points="235.81 344.56 237.61 344.56 240.59 344.56 244.48 344.56 249.26 344.56 255.23 344.56 261.51 344.56 268.38 344.56 275.85 344.56 283.32 344.56 290.78 344.56 298.25 344.56 305.12 344.56 311.4 344.56 317.37 344.56 322.15 344.56 326.04 344.56 329.02 344.56 330.82 344.56"/>
  <polyline class="cls-1" points="222.97 273.16 225.06 273.16 228.05 273.16 232.23 273.16 237.61 273.16 243.58 273.16 250.75 273.16 258.22 273.16 266.29 273.16 274.65 273.16 283.32 273.16 291.98 273.16 300.34 273.16 308.41 273.16 315.88 273.16 323.05 273.16 329.02 273.16 334.4 273.16 338.58 273.16 341.57 273.16 343.66 273.16"/>
  <polyline class="cls-1" points="332.01 316.18 330.22 316.18 327.23 316.18 323.35 316.18 318.27 316.18 312.29 316.18 305.72 316.18 298.55 316.18 291.08 316.18 283.32 316.18 275.55 316.18 268.08 316.18 260.91 316.18 254.34 316.18 248.36 316.18 243.28 316.18 239.4 316.18 236.41 316.18 234.62 316.18"/>
  <polyline class="cls-1" points="332.61 343.06 332.01 343.06 330.22 343.06 327.23 343.06 323.35 343.06 318.27 343.06 312.29 343.06 305.72 343.06 298.55 343.06 291.08 343.06 283.32 343.06 275.55 343.06 268.08 343.06 260.91 343.06 254.34 343.06 248.36 343.06 243.28 343.06 239.4 343.06 236.41 343.06 234.62 343.06 234.02 343.06"/>
  <polyline class="cls-1" points="284.51 352.03 290.78 352.03 297.06 352.03 302.73 352.03 307.81 352.03 312.29 352.03 316.18 352.03"/>
  <polyline class="cls-1" points="317.37 352.03 320.06 352.03 321.55 352.03 322.15 352.03"/>
  <polyline class="cls-1" points="244.48 352.03 245.08 352.03 246.57 352.03 249.26 352.03"/>
  <polyline class="cls-1" points="282.12 395.94 280.93 396.54 279.73 397.14 278.83 397.73 277.64 398.03 276.74 398.33 275.85 398.93 274.65 399.23 273.76 399.53 272.86 399.83 271.96 399.83 270.77 400.12 269.87 400.42 268.98 400.42 268.08 400.42 267.18 400.42 266.29 400.42 265.39 400.42 264.49 400.42 263.3 400.42 262.4 400.42 261.51 400.12 260.61 399.83 259.71 399.83 258.82 399.53 257.62 399.23 256.73 398.93 255.83 398.33 254.64 398.03 253.74 397.73 252.54 397.14 251.65 396.54 250.45 395.94 250.45 352.03 254.04 352.03 258.82 352.03 263.9 352.03 269.57 352.03 275.85 352.03 282.12 352.03 282.12 395.94"/>
  <polyline class="cls-1" points="249.26 352.03 249.26 395.94 249.26 396.54 249.26 397.14 249.26 397.73 249.26 398.03 249.26 398.33 249.26 398.93 249.26 399.23 249.26 399.53 249.26 399.83 249.26 400.12 249.26 400.42"/>
  <polyline class="cls-1" points="317.37 400.42 317.37 400.12 317.37 399.83 317.37 399.53 317.37 399.23 317.37 398.93 317.37 398.33 317.37 398.03 317.37 397.73 317.37 397.14 317.37 396.54 317.37 395.94 317.37 352.03"/>
  <polyline class="cls-1" points="316.18 352.03 316.18 395.94 314.98 396.54 314.09 397.14 312.89 397.73 311.99 398.03 310.8 398.33 309.9 398.93 309.01 399.23 307.81 399.53 306.92 399.83 306.02 399.83 305.12 400.12 304.23 400.42 303.03 400.42 302.14 400.42 301.24 400.42 300.34 400.42 299.45 400.42 298.55 400.42 297.66 400.42 296.76 400.42 295.86 400.12 294.67 399.83 293.77 399.83 292.87 399.53 291.98 399.23 290.78 398.93 289.89 398.33 288.99 398.03 287.8 397.73 286.9 397.14 285.71 396.54 284.51 395.94 284.51 352.03"/>
  <line class="cls-1" x1="284.51" y1="395.94" x2="282.12" y2="395.94"/>
  <line class="cls-1" x1="317.37" y1="395.94" x2="316.18" y2="395.94"/>
  <line class="cls-1" x1="250.45" y1="395.94" x2="249.26" y2="395.94"/>
  <polyline class="cls-1" points="352.33 118.71 353.82 119.9 353.82 237.61"/>
  <line class="cls-1" x1="212.81" y1="217.29" x2="212.81" y2="237.61"/>
  <line class="cls-1" x1="242.09" y1="351.13" x2="235.22" y2="344.56"/>
  <line class="cls-1" x1="324.54" y1="351.13" x2="331.41" y2="344.56"/>
  <path class="cls-1" d="m212.81,237.46c0,12.47,3.3,24.71,9.56,35.49"/>
  <path class="cls-1" d="m344.55,272.95c6.26-10.78,9.56-23.03,9.56-35.49"/>
  <path class="cls-1" d="m234.02,316.03c0-15.16-4.01-30.04-11.63-43.15"/>
  <path class="cls-1" d="m344.53,272.88c-7.61,13.11-11.62,27.99-11.62,43.15"/>
  <line class="cls-1" x1="332.61" y1="316.18" x2="332.61" y2="343.06"/>
  <line class="cls-1" x1="234.02" y1="316.18" x2="234.02" y2="343.06"/>
  <line class="cls-1" x1="322.15" y1="351.13" x2="322.15" y2="352.03"/>
  <line class="cls-1" x1="244.48" y1="351.13" x2="244.48" y2="352.03"/>
  <line class="cls-1" x1="249.56" y1="401.02" x2="249.26" y2="400.42"/>
  <line class="cls-1" x1="317.07" y1="401.02" x2="317.37" y2="400.42"/>
  <line class="cls-1" x1="235.22" y1="344.56" x2="234.02" y2="343.06"/>
  <line class="cls-1" x1="331.41" y1="344.56" x2="332.61" y2="343.06"/>
  <polyline class="cls-1" points="306.92 444.64 306.62 444.94 306.32 444.94 305.72 444.94 305.42 444.94 304.82 444.94 304.23 444.94 303.63 444.94 303.03 444.94 302.44 444.94 301.84 445.24 300.94 445.24 300.34 445.24 299.45 445.24 298.85 445.24 297.95 445.24 297.06 445.24 296.16 445.24 295.27 445.24 294.37 445.53 293.47 445.53 292.58 445.53 291.68 445.53 290.78 445.53 289.59 445.53 288.69 445.53 287.8 445.53 286.6 445.53 285.71 445.83 284.51 445.83 283.61 445.83 282.72 445.83 281.52 445.83 280.63 445.83 279.73 445.83 278.54 445.83 277.64 445.83 276.74 446.13 275.85 446.13 274.95 446.13 274.05 446.13 273.16 446.13 272.26 446.13 271.37 446.13 270.47 446.13 269.87 446.43 268.98 446.43 268.38 446.43 267.78 446.43 266.88 446.43 266.29 446.43 265.99 446.43 265.39 446.43 264.79 446.73 264.49 446.73 264.2 446.73 263.6 446.73 263.3 446.73 263 446.73 262.7 446.73 262.7 447.03"/>
  <polyline class="cls-1" points="307.51 404.61 307.51 404.9 307.21 405.2 306.92 405.2 306.62 405.2 306.32 405.2 306.02 405.5 305.42 405.5 304.82 405.5 304.23 405.8 303.63 405.8 302.73 405.8 302.14 405.8 301.24 406.1 300.34 406.1 299.45 406.1 298.25 406.1 297.36 406.4 296.46 406.4 295.27 406.4 294.07 406.7 293.17 406.7 291.98 406.7 290.78 406.7 289.59 407 288.39 407 287.2 407 285.71 407 284.51 407.29 283.32 407.29 282.12 407.29 280.93 407.29 279.73 407.59 278.54 407.59 277.34 407.59 276.15 407.89 274.95 407.89 273.76 407.89 272.56 407.89 271.37 408.19 270.47 408.19 269.27 408.19 268.38 408.19 267.48 408.49 266.59 408.49 265.69 408.49 264.79 408.49 264.2 408.79 263.3 408.79 262.7 408.79 262.1 409.09 261.51 409.09 260.91 409.09 260.61 409.09 260.01 409.39 259.71 409.39 259.42 409.39 259.12 409.39 259.12 409.68 258.82 409.68"/>
  <polyline class="cls-1" points="307.81 414.46 307.81 414.76 307.51 414.76 307.21 415.06 306.92 415.06 306.62 415.06 306.32 415.36 305.72 415.36 305.12 415.36 304.53 415.36 303.93 415.66 303.33 415.66 302.73 415.66 301.84 415.66 300.94 415.96 300.04 415.96 299.15 415.96 298.25 416.26 297.36 416.26 296.16 416.26 295.27 416.26 294.07 416.56 293.17 416.56 291.98 416.56 290.78 416.56 289.59 416.85 288.39 416.85 287.2 416.85 286 416.85 284.81 417.15 283.32 417.15 282.12 417.15 280.93 417.45 279.73 417.45 278.54 417.45 277.34 417.45 276.15 417.75 274.95 417.75 273.76 417.75 272.56 417.75 271.66 418.05 270.47 418.05 269.57 418.05 268.38 418.05 267.48 418.35 266.59 418.35 265.69 418.35 264.79 418.65 263.9 418.65 263.3 418.65 262.4 418.65 261.81 418.95 261.21 418.95 260.91 418.95 260.31 418.95 260.01 419.24 259.71 419.24 259.42 419.24 259.12 419.24 259.12 419.54 258.82 419.54"/>
  <polyline class="cls-1" points="307.51 424.32 307.51 424.62 307.51 424.92 307.21 424.92 306.92 424.92 306.62 424.92 306.32 425.22 305.72 425.22 305.42 425.22 304.82 425.22 304.23 425.52 303.63 425.52 302.73 425.52 302.14 425.82 301.24 425.82 300.34 425.82 299.45 425.82 298.55 426.12 297.36 426.12 296.46 426.12 295.27 426.12 294.07 426.41 293.17 426.41 291.98 426.41 290.78 426.41 289.59 426.71 288.39 426.71 287.2 426.71 286 427.01 284.51 427.01 283.32 427.01 282.12 427.01 280.93 427.31 279.73 427.31 278.54 427.31 277.34 427.31 276.15 427.61 274.95 427.61 273.76 427.61 272.56 427.61 271.37 427.91 270.47 427.91 269.27 427.91 268.38 428.21 267.48 428.21 266.59 428.21 265.69 428.21 264.79 428.51 264.2 428.51 263.3 428.51 262.7 428.51 262.1 428.8 261.51 428.8 260.91 428.8 260.61 428.8 260.01 429.1 259.71 429.1 259.42 429.1 259.42 429.4 259.12 429.4 258.82 429.4"/>
  <polyline class="cls-1" points="307.51 434.18 307.81 434.48 307.51 434.78 307.21 434.78 306.62 434.78 306.32 435.08 305.72 435.08 305.42 435.08 304.82 435.38 304.23 435.38 303.33 435.38 302.73 435.38 301.84 435.68 300.94 435.68 300.04 435.68 299.15 435.68 298.25 435.97 297.36 435.97 296.16 435.97 295.27 435.97 294.07 436.27 292.87 436.27 291.98 436.27 290.78 436.57 289.59 436.57 288.39 436.57 287.2 436.57 286 436.87 284.81 436.87 283.32 436.87 282.12 436.87 280.93 437.17 279.73 437.17 278.54 437.17 277.34 437.17 276.15 437.47 274.95 437.47 273.76 437.47 272.56 437.77 271.66 437.77 270.47 437.77 269.57 437.77 268.38 438.07 267.48 438.07 266.59 438.07 265.69 438.07 264.79 438.36 264.2 438.36 263.3 438.36 262.7 438.36 261.81 438.66 261.21 438.66 260.91 438.66 260.31 438.96 260.01 438.96 259.42 438.96 259.12 439.26 258.82 439.26"/>
  <polyline class="cls-1" points="307.81 444.04 307.81 444.34 307.51 444.64 307.21 444.64 306.92 444.64"/>
  <polyline class="cls-1" points="302.14 401.62 301.84 401.62 301.54 401.92 301.24 401.92 300.94 401.92 300.64 402.22 300.34 402.22 300.04 402.22 299.45 402.22 299.15 402.51 298.55 402.51 298.25 402.51 297.66 402.51 297.06 402.81 296.46 402.81 295.86 402.81 295.27 402.81 294.37 403.11 293.77 403.11 292.87 403.11 292.28 403.11 291.38 403.41 290.78 403.41 289.89 403.41 288.99 403.41 288.1 403.71 287.2 403.71 286.3 403.71 285.71 403.71 284.81 404.01 283.91 404.01 283.02 404.01 282.12 404.01 281.22 404.31 280.33 404.31 279.43 404.31 278.54 404.31 277.64 404.61 276.74 404.61 276.15 404.61 275.25 404.61 274.35 404.9 273.76 404.9 272.86 404.9 272.26 404.9 271.37 405.2 270.77 405.2 270.17 405.2 269.57 405.2 268.98 405.5 268.38 405.5 267.78 405.5 267.48 405.5 266.88 405.8 266.59 405.8 265.99 405.8 265.69 405.8 265.39 406.1 265.09 406.1 264.79 406.1 264.79 406.4"/>
  <polyline class="cls-1" points="301.84 411.48 301.84 411.78 301.54 411.78 301.24 411.78 300.94 412.07 300.64 412.07 300.34 412.07 300.04 412.07 299.75 412.37 299.15 412.37 298.85 412.37 298.25 412.37 297.66 412.67 297.06 412.67 296.46 412.67 295.86 412.67 295.27 412.97 294.37 412.97 293.77 412.97 292.87 412.97 292.28 413.27 291.38 413.27 290.78 413.27 289.89 413.27 288.99 413.27 288.1 413.57 287.2 413.57 286.3 413.57 285.41 413.57 284.51 413.87 283.91 413.87 283.02 413.87 282.12 413.87 281.22 414.17 280.33 414.17 279.43 414.17 278.54 414.17 277.64 414.46 276.74 414.46 276.15 414.46 275.25 414.46 274.35 414.76 273.76 414.76 272.86 414.76 272.26 414.76 271.37 415.06 270.77 415.06 270.17 415.06 269.57 415.06 268.98 415.36 268.38 415.36 267.78 415.36 267.48 415.36 266.88 415.66 266.59 415.66 266.29 415.66 265.99 415.66 265.69 415.96 265.39 415.96 265.09 415.96 264.79 416.26"/>
  <polyline class="cls-1" points="301.84 421.34 301.84 421.63 301.54 421.63 301.24 421.63 300.94 421.93 300.64 421.93 300.34 421.93 300.04 421.93 299.75 422.23 299.15 422.23 298.85 422.23 298.25 422.23 297.66 422.53 297.06 422.53 296.46 422.53 295.86 422.53 295.27 422.83 294.37 422.83 293.77 422.83 292.87 422.83 292.28 423.13 291.38 423.13 290.49 423.13 289.89 423.13 288.99 423.43 288.1 423.43 287.2 423.43 286.3 423.43 285.41 423.73 284.51 423.73 283.61 423.73 282.72 423.73 282.12 424.02 281.22 424.02 280.33 424.02 279.43 424.02 278.54 424.32 277.64 424.32 276.74 424.32 276.15 424.32 275.25 424.62 274.35 424.62 273.76 424.62 272.86 424.62 272.26 424.92 271.37 424.92 270.77 424.92 270.17 424.92 269.57 424.92 268.98 425.22 268.38 425.22 268.08 425.22 267.48 425.22 267.18 425.52 266.59 425.52 266.29 425.52 265.99 425.52 265.69 425.82 265.39 425.82 265.09 425.82 264.79 426.12"/>
  <polyline class="cls-1" points="302.14 431.19 301.84 431.19 301.84 431.49 301.54 431.49 301.24 431.79 300.94 431.79 300.64 431.79 300.04 431.79 299.75 432.09 299.15 432.09 298.85 432.09 298.25 432.09 297.66 432.39 297.06 432.39 296.46 432.39 295.86 432.39 295.27 432.69 294.37 432.69 293.77 432.69 292.87 432.69 292.28 432.99 291.38 432.99 290.49 432.99 289.89 432.99 288.99 433.29 288.1 433.29 287.2 433.29 286.3 433.29 285.41 433.58 284.51 433.58 283.61 433.58 282.72 433.58 281.82 433.88 281.22 433.88 280.33 433.88 279.43 433.88 278.54 434.18 277.64 434.18 276.74 434.18 276.15 434.18 275.25 434.48 274.35 434.48 273.76 434.48 272.86 434.48 272.26 434.78 271.66 434.78 270.77 434.78 270.17 434.78 269.57 435.08 268.98 435.08 268.68 435.08 268.08 435.08 267.48 435.38 267.18 435.38 266.59 435.38 266.29 435.38 265.99 435.68 265.69 435.68 265.39 435.68 265.09 435.68 265.09 435.97 264.79 435.97"/>
  <polyline class="cls-1" points="302.14 441.05 302.14 441.35 301.84 441.35 301.54 441.35 301.54 441.65 301.24 441.65 300.94 441.65 300.64 441.65 300.04 441.95 299.75 441.95 299.15 441.95 298.85 441.95 298.25 442.25 297.66 442.25 297.06 442.25 296.46 442.25 295.86 442.55 294.97 442.55 294.37 442.55 293.77 442.55 292.87 442.55 291.98 442.85 291.38 442.85 290.49 442.85 289.59 442.85 288.99 443.14 288.1 443.14 287.2 443.14 286.3 443.14 285.41 443.44 284.51 443.44 283.61 443.44 283.02 443.44 282.12 443.74 281.22 443.74 280.33 443.74 279.43 443.74 278.54 444.04 277.64 444.04 276.74 444.04 276.15 444.04 275.25 444.34 274.35 444.34 273.76 444.34 272.86 444.34 272.26 444.64 271.66 444.64 271.07 444.64 270.17 444.64 269.57 444.94 269.27 444.94 268.68 444.94 268.08 444.94 267.48 445.24 267.18 445.24 266.59 445.24 266.29 445.24 265.99 445.53 265.69 445.53 265.39 445.53 265.09 445.53 264.79 445.83"/>
  <polyline class="cls-1" points="301.84 448.22 301.24 448.22 299.45 448.22 296.46 448.22 292.58 448.22 288.1 448.22 283.32 448.22 278.54 448.22 274.05 448.22 270.17 448.22 267.18 448.22 265.39 448.22 264.79 448.22"/>
  <line class="cls-1" x1="306.92" y1="444.64" x2="307.81" y2="444.64"/>
  <polyline class="cls-1" points="264.49 404.61 264.49 404.31 264.79 404.31 265.09 404.31 265.39 404.01 265.99 404.01 266.29 404.01 266.88 403.71 267.78 403.71 268.38 403.41 269.27 403.41 270.17 403.41 271.07 403.11 271.96 403.11 273.16 402.81 274.35 402.81 275.55 402.81 276.74 402.51 277.94 402.51 279.43 402.51 280.63 402.22 282.12 402.22 283.32 401.92 284.81 401.92 286 401.92 287.5 401.62 288.69 401.62 289.89 401.62 291.08 401.32 292.28 401.32 293.47 401.02 294.67 401.02 295.86 401.02"/>
  <polyline class="cls-1" points="264.49 414.46 264.49 414.17 264.79 414.17 265.09 414.17 265.39 413.87 265.69 413.87 265.99 413.87 266.29 413.87 266.59 413.57 267.18 413.57 267.48 413.57 268.08 413.57 268.68 413.27 268.98 413.27 269.57 413.27 270.17 413.27 270.77 412.97 271.66 412.97 272.26 412.97 272.86 412.97 273.76 412.67 274.35 412.67 275.25 412.67 275.85 412.67 276.74 412.37 277.64 412.37 278.54 412.37 279.43 412.37 280.33 412.07 280.93 412.07 281.82 412.07 282.72 412.07 283.61 411.78 284.51 411.78 285.41 411.78 286.3 411.78 287.2 411.48 288.1 411.48 288.69 411.48 289.59 411.48 290.49 411.18 291.38 411.18 291.98 411.18 292.87 411.18 293.47 411.18 294.37 410.88 294.97 410.88 295.86 410.88 296.46 410.88 297.06 410.58 297.66 410.58 298.25 410.58 298.85 410.58 299.15 410.28 299.75 410.28 300.04 410.28 300.64 410.28 300.94 409.98 301.24 409.98 301.54 409.98 301.84 409.68"/>
  <polyline class="cls-1" points="264.49 424.32 264.49 424.02 264.79 424.02 265.09 424.02 265.09 423.73 265.39 423.73 265.69 423.73 266.29 423.73 266.59 423.43 266.88 423.43 267.48 423.43 268.08 423.43 268.38 423.13 268.98 423.13 269.57 423.13 270.17 423.13 270.77 422.83 271.66 422.83 272.26 422.83 272.86 422.83 273.76 422.83 274.35 422.53 275.25 422.53 276.15 422.53 276.74 422.53 277.64 422.23 278.54 422.23 279.43 422.23 280.33 422.23 281.22 421.93 281.82 421.93 282.72 421.93 283.61 421.93 284.51 421.63 285.41 421.63 286.3 421.63 287.2 421.63 288.1 421.34 288.99 421.34 289.59 421.34 290.49 421.34 291.38 421.04 291.98 421.04 292.87 421.04 293.47 421.04 294.37 420.74 294.97 420.74 295.56 420.74 296.46 420.74 297.06 420.44 297.66 420.44 298.25 420.44 298.55 420.44 299.15 420.14 299.75 420.14 300.04 420.14 300.34 420.14 300.94 419.84 301.24 419.84 301.54 419.84 301.84 419.54 302.14 419.54"/>
  <polyline class="cls-1" points="264.49 434.18 264.49 433.88 264.79 433.88 265.09 433.88 265.39 433.58 265.69 433.58 265.99 433.58 266.59 433.58 266.88 433.29 267.48 433.29 267.78 433.29 268.38 433.29 268.98 432.99 269.57 432.99 270.17 432.99 270.77 432.99 271.66 432.69 272.26 432.69 272.86 432.69 273.76 432.69 274.35 432.39 275.25 432.39 276.15 432.39 276.74 432.39 277.64 432.09 278.54 432.09 279.43 432.09 280.33 432.09 281.22 431.79 282.12 431.79 283.02 431.79 283.61 431.79 284.51 431.49 285.41 431.49 286.3 431.49 287.2 431.49 288.1 431.19 288.99 431.19 289.89 431.19 290.49 431.19 291.38 430.9 292.28 430.9 292.87 430.9 293.77 430.9 294.37 430.6 294.97 430.6 295.56 430.6 296.46 430.6 297.06 430.3 297.36 430.3 297.95 430.3 298.55 430.3 299.15 430 299.45 430 300.04 430 300.34 430 300.64 429.7 300.94 429.7 301.24 429.7 301.54 429.7 301.84 429.4"/>
  <polyline class="cls-1" points="264.49 444.04 264.79 444.04 264.79 443.74 265.09 443.74 265.39 443.44 265.69 443.44 265.99 443.44 266.59 443.44 266.88 443.14 267.18 443.14 267.78 443.14 268.38 443.14 268.98 442.85 269.57 442.85 270.17 442.85 270.77 442.85 271.37 442.55 272.26 442.55 272.86 442.55 273.76 442.55 274.35 442.25 275.25 442.25 276.15 442.25 276.74 442.25 277.64 441.95 278.54 441.95 279.43 441.95 280.33 441.95 281.22 441.65 282.12 441.65 283.02 441.65 283.61 441.65 284.51 441.35 285.41 441.35 286.3 441.35 287.2 441.35 288.1 441.05 288.99 441.05 289.89 441.05 290.49 441.05 291.38 440.75 292.28 440.75 292.87 440.75 293.77 440.75 294.37 440.46 294.97 440.46 295.86 440.46 296.46 440.46 297.06 440.46 297.66 440.16 297.95 440.16 298.55 440.16 299.15 440.16 299.45 439.86 300.04 439.86 300.34 439.86 300.64 439.86 300.94 439.56 301.24 439.56 301.54 439.56 301.84 439.26"/>
  <polyline class="cls-1" points="259.12 441.05 258.82 440.75 259.12 440.46 259.42 440.46 259.71 440.46 260.31 440.16 260.61 440.16 261.21 440.16 261.81 440.16 262.4 439.86 263 439.86 263.9 439.86 264.79 439.56 265.39 439.56 266.29 439.56 267.18 439.56 268.38 439.26 269.27 439.26 270.47 439.26 271.37 439.26 272.56 438.96 273.76 438.96 274.65 438.96 275.85 438.96 277.04 438.66 278.24 438.66 279.43 438.66 280.63 438.36 282.12 438.36 283.32 438.36 284.51 438.36 285.71 438.07 286.9 438.07 288.1 438.07 289.29 438.07 290.49 437.77 291.68 437.77 292.87 437.77 294.07 437.77 294.97 437.47 296.16 437.47 297.06 437.47 298.25 437.17 299.15 437.17 300.04 437.17 300.94 437.17 301.84 436.87 302.44 436.87 303.33 436.87 303.93 436.87 304.53 436.57 305.12 436.57 305.72 436.57 306.32 436.57 306.62 436.27 306.92 436.27 307.21 436.27 307.51 435.97 307.81 435.97"/>
  <polyline class="cls-1" points="259.12 431.19 258.82 430.9 259.12 430.9 259.12 430.6 259.42 430.6 259.71 430.6 260.01 430.6 260.31 430.3 260.91 430.3 261.51 430.3 262.1 430 262.7 430 263.3 430 263.9 430 264.79 429.7 265.39 429.7 266.29 429.7 267.18 429.7 268.08 429.4 269.27 429.4 270.17 429.4 271.37 429.4 272.26 429.1 273.46 429.1 274.65 429.1 275.85 428.8 277.04 428.8 278.24 428.8 279.43 428.8 280.63 428.51 281.82 428.51 283.02 428.51 284.51 428.51 285.71 428.21 286.9 428.21 288.1 428.21 289.29 428.21 290.49 427.91 291.68 427.91 292.87 427.91 294.07 427.61 294.97 427.61 296.16 427.61 297.36 427.61 298.25 427.31 299.15 427.31 300.04 427.31 300.94 427.31 301.84 427.01 302.73 427.01 303.33 427.01 304.23 426.71 304.82 426.71 305.42 426.71 305.72 426.71 306.32 426.41 306.62 426.41 306.92 426.41 307.21 426.41 307.21 426.12 307.51 426.12"/>
  <polyline class="cls-1" points="259.12 421.34 259.12 421.04 258.82 421.04 259.12 421.04 259.12 420.74 259.42 420.74 260.01 420.44 260.31 420.44 260.61 420.44 261.21 420.44 261.81 420.14 262.4 420.14 263 420.14 263.9 420.14 264.49 419.84 265.39 419.84 266.29 419.84 267.18 419.84 268.38 419.54 269.27 419.54 270.17 419.54 271.37 419.24 272.56 419.24 273.46 419.24 274.65 419.24 275.85 418.95 277.04 418.95 278.24 418.95 279.43 418.95 280.63 418.65 282.12 418.65 283.32 418.65 284.51 418.65 285.71 418.35 286.9 418.35 288.1 418.35 289.29 418.05 290.49 418.05 291.68 418.05 292.87 418.05 294.07 417.75 294.97 417.75 296.16 417.75 297.06 417.75 298.25 417.45 299.15 417.45 300.04 417.45 300.94 417.15 301.84 417.15 302.44 417.15 303.33 417.15 303.93 416.85 304.53 416.85 305.12 416.85 305.72 416.85 306.02 416.56 306.62 416.56 306.92 416.56 307.21 416.56 307.51 416.26 307.81 416.26 307.81 415.96"/>
  <polyline class="cls-1" points="258.82 411.48 258.82 411.18 259.12 410.88 259.42 410.88 259.71 410.88 260.01 410.58 260.31 410.58 260.91 410.58 261.51 410.58 262.1 410.28 262.7 410.28 263.3 410.28 263.9 410.28 264.79 409.98 265.69 409.98 266.29 409.98 267.18 409.68 268.38 409.68 269.27 409.68 270.17 409.68 271.37 409.39 272.26 409.39 273.46 409.39 274.65 409.39 275.85 409.09 277.04 409.09 278.24 409.09 279.43 408.79 280.63 408.79 281.82 408.79 283.02 408.79 284.51 408.49 285.71 408.49 286.9 408.49 288.1 408.49 289.29 408.19 290.49 408.19 291.68 408.19 292.87 408.19 294.07 407.89 294.97 407.89 296.16 407.89 297.06 407.59 298.25 407.59 299.15 407.59 300.04 407.59 300.94 407.29 301.84 407.29 302.73 407.29 303.33 407.29 304.23 407 304.82 407 305.42 407 305.72 407 306.32 406.7 306.62 406.7 306.92 406.7 307.21 406.4 307.51 406.4 307.51 406.1"/>
  <polyline class="cls-1" points="259.12 401.32 259.12 401.02 259.42 401.02"/>
  <line class="cls-1" x1="262.7" y1="447.03" x2="264.49" y2="445.83"/>
  <line class="cls-1" x1="258.82" y1="409.68" x2="264.49" y2="406.4"/>
  <line class="cls-1" x1="258.82" y1="419.54" x2="264.49" y2="416.26"/>
  <line class="cls-1" x1="258.82" y1="429.4" x2="264.49" y2="426.12"/>
  <line class="cls-1" x1="258.82" y1="439.26" x2="264.49" y2="435.97"/>
  <line class="cls-1" x1="302.14" y1="401.32" x2="307.81" y2="404.61"/>
  <line class="cls-1" x1="302.14" y1="411.18" x2="307.81" y2="414.46"/>
  <line class="cls-1" x1="302.14" y1="421.34" x2="307.81" y2="424.32"/>
  <line class="cls-1" x1="302.14" y1="431.19" x2="307.81" y2="434.18"/>
  <line class="cls-1" x1="302.14" y1="441.05" x2="307.81" y2="444.04"/>
  <line class="cls-1" x1="264.79" y1="448.22" x2="262.7" y2="447.03"/>
  <line class="cls-1" x1="301.84" y1="448.22" x2="307.81" y2="444.64"/>
  <line class="cls-1" x1="302.14" y1="401.02" x2="302.14" y2="401.62"/>
  <line class="cls-1" x1="302.14" y1="409.68" x2="302.14" y2="411.48"/>
  <line class="cls-1" x1="302.14" y1="419.54" x2="302.14" y2="421.34"/>
  <line class="cls-1" x1="302.14" y1="429.4" x2="302.14" y2="431.19"/>
  <line class="cls-1" x1="302.14" y1="439.26" x2="302.14" y2="441.05"/>
  <line class="cls-1" x1="264.49" y1="404.61" x2="264.49" y2="406.4"/>
  <line class="cls-1" x1="264.49" y1="414.46" x2="264.49" y2="416.26"/>
  <line class="cls-1" x1="264.49" y1="424.32" x2="264.49" y2="426.12"/>
  <line class="cls-1" x1="264.49" y1="434.18" x2="264.49" y2="435.97"/>
  <line class="cls-1" x1="264.49" y1="444.04" x2="264.49" y2="445.83"/>
  <line class="cls-1" x1="264.49" y1="404.61" x2="258.82" y2="401.32"/>
  <line class="cls-1" x1="264.49" y1="414.46" x2="258.82" y2="411.48"/>
  <line class="cls-1" x1="264.49" y1="424.32" x2="258.82" y2="421.34"/>
  <line class="cls-1" x1="264.49" y1="434.18" x2="258.82" y2="431.19"/>
  <line class="cls-1" x1="264.49" y1="444.04" x2="258.82" y2="441.05"/>
  <line class="cls-1" x1="307.81" y1="435.97" x2="302.14" y2="439.26"/>
  <line class="cls-1" x1="307.81" y1="426.12" x2="302.14" y2="429.4"/>
  <line class="cls-1" x1="307.81" y1="416.26" x2="302.14" y2="419.54"/>
  <line class="cls-1" x1="307.81" y1="406.4" x2="302.14" y2="409.68"/>
  <line class="cls-1" x1="307.81" y1="404.9" x2="307.81" y2="406.1"/>
  <line class="cls-1" x1="307.81" y1="414.76" x2="307.81" y2="415.96"/>
  <line class="cls-1" x1="307.81" y1="424.62" x2="307.81" y2="426.12"/>
  <line class="cls-1" x1="307.81" y1="434.48" x2="307.81" y2="435.97"/>
  <line class="cls-1" x1="307.81" y1="444.34" x2="307.81" y2="444.64"/>
  <line class="cls-1" x1="258.82" y1="401.02" x2="258.82" y2="401.32"/>
  <line class="cls-1" x1="258.82" y1="409.68" x2="258.82" y2="411.18"/>
  <line class="cls-1" x1="258.82" y1="419.54" x2="258.82" y2="421.04"/>
  <line class="cls-1" x1="258.82" y1="429.4" x2="258.82" y2="430.9"/>
  <line class="cls-1" x1="258.82" y1="439.26" x2="258.82" y2="440.75"/>
</svg>