<?xml version="1.0" encoding="UTF-8"?>
<svg id="Layer_1" data-name="Layer 1" xmlns="http://www.w3.org/2000/svg" viewBox="0 0 566.93 566.93">
  <defs>
    <style>
      .cls-1 {
        fill: none;
        stroke: #000;
        stroke-linecap: round;
        stroke-linejoin: round;
      }
    </style>
  </defs>
  <polyline class="cls-1" points="262.25 348.89 262.55 348.89 262.55 348.59 262.85 348.59 263.15 348.59 263.45 348.59 264.05 348.59 264.34 348.29 264.94 348.29 265.54 348.29 266.14 348.29 266.73 348.29 267.63 348.29 268.23 347.99 269.12 347.99 270.02 347.99 270.92 347.99 271.81 347.99 272.71 347.99 273.9 347.69 274.8 347.69 276 347.69 276.89 347.69 278.09 347.69 279.28 347.69 280.18 347.4 281.37 347.4 282.57 347.4 283.76 347.4 284.96 347.4 286.15 347.1 287.35 347.1 288.24 347.1 289.44 347.1 290.63 347.1 291.83 347.1 292.73 346.8 293.92 346.8 294.82 346.8 296.01 346.8 296.91 346.8 297.8 346.8 299 346.5 299.9 346.5 300.49 346.5 301.39 346.5 302.29 346.5 302.88 346.5 303.48 346.2 304.38 346.2 304.97 346.2 305.27 346.2 305.87 346.2 306.17 346.2 306.77 346.2 307.07 345.9 307.36 345.9 307.66 345.9 307.96 345.9 307.96 345.6 307.66 345.6"/>
  <polyline class="cls-1" points="303.78 349.79 303.48 350.08 303.18 350.38 302.88 350.38 302.29 350.68 301.99 350.98 301.39 350.98 301.09 351.28 301.99 351.28 302.29 351.28"/>
  <polyline class="cls-1" points="299.6 353.97 299 353.97 297.51 353.97 294.82 353.97 291.53 353.97 287.65 353.97 283.46 353.97 279.28 353.97 275.4 353.97 272.11 353.97 269.72 353.97 267.93 353.97 267.33 353.97"/>
  <polyline class="cls-1" points="307.66 276.59 307.96 276.59 307.96 276.89 307.66 276.89 307.66 277.19 307.36 277.19 307.07 277.19 306.47 277.19 306.17 277.49 305.57 277.49 304.97 277.49 304.38 277.49 303.78 277.79 302.88 277.79 302.29 277.79 301.39 277.79 300.49 278.09 299.6 278.09 298.4 278.09 297.51 278.39 296.61 278.39 295.41 278.39 294.22 278.39 293.32 278.68 292.13 278.68 290.93 278.68 289.74 278.68 288.54 278.98 287.35 278.98 286.15 278.98 284.96 278.98 283.46 279.28 282.27 279.28 281.07 279.28 279.88 279.58 278.68 279.58 277.49 279.58 276.29 279.58 275.1 279.88 273.9 279.88 272.71 279.88 271.81 279.88 270.62 280.18 269.72 280.18 268.83 280.18 267.63 280.18 266.73 280.48 265.84 280.48 265.24 280.48 264.34 280.78 263.75 280.78 262.85 280.78 262.25 280.78 261.66 281.07 261.06 281.07 260.76 281.07 260.16 281.07 259.86 281.37 259.56 281.37 259.27 281.37 259.27 281.67 258.97 281.67"/>
  <polyline class="cls-1" points="307.96 286.45 307.96 286.75 307.66 286.75 307.36 287.05 307.07 287.05 306.77 287.05 306.47 287.05 305.87 287.35 305.27 287.35 304.97 287.35 304.08 287.35 303.48 287.65 302.88 287.65 301.99 287.65 301.39 287.95 300.49 287.95 299.6 287.95 298.7 287.95 297.51 288.24 296.61 288.24 295.41 288.24 294.52 288.24 293.32 288.54 292.13 288.54 290.93 288.54 289.74 288.54 288.54 288.84 287.35 288.84 286.15 288.84 284.96 289.14 283.76 289.14 282.57 289.14 281.07 289.14 279.88 289.44 278.68 289.44 277.49 289.44 276.29 289.44 275.1 289.74 273.9 289.74 273.01 289.74 271.81 289.74 270.62 290.04 269.72 290.04 268.53 290.04 267.63 290.34 266.73 290.34 265.84 290.34 264.94 290.34 264.05 290.63 263.45 290.63 262.85 290.63 261.95 290.63 261.66 290.93 261.06 290.93 260.46 290.93 260.16 291.23 259.86 291.23 259.56 291.23 259.27 291.23 259.27 291.53"/>
  <polyline class="cls-1" points="307.66 296.31 307.96 296.61 307.66 296.61 307.36 296.91 307.07 296.91 306.77 296.91 306.47 296.91 306.17 297.21 305.57 297.21 304.97 297.21 304.38 297.51 303.78 297.51 302.88 297.51 302.29 297.51 301.39 297.8 300.49 297.8 299.6 297.8 298.7 297.8 297.51 298.1 296.61 298.1 295.41 298.1 294.52 298.1 293.32 298.4 292.13 298.4 290.93 298.4 289.74 298.7 288.54 298.7 287.35 298.7 286.15 298.7 284.96 299 283.46 299 282.27 299 281.07 299 279.88 299.3 278.68 299.3 277.49 299.3 276.29 299.6 275.1 299.6 273.9 299.6 272.71 299.6 271.81 299.9 270.62 299.9 269.72 299.9 268.53 299.9 267.63 300.19 266.73 300.19 265.84 300.19 264.94 300.19 264.34 300.49 263.45 300.49 262.85 300.49 262.25 300.79 261.66 300.79 261.06 300.79 260.76 300.79 260.46 301.09 259.86 301.09 259.56 301.09 259.27 301.39 258.97 301.39"/>
  <polyline class="cls-1" points="307.96 306.17 307.96 306.47 307.66 306.47 307.66 306.77 307.36 306.77 306.77 306.77 306.47 307.07 305.87 307.07 305.57 307.07 304.97 307.07 304.38 307.36 303.48 307.36 302.88 307.36 301.99 307.36 301.39 307.66 300.49 307.66 299.6 307.66 298.4 307.96 297.51 307.96 296.61 307.96 295.41 307.96 294.52 308.26 293.32 308.26 292.13 308.26 290.93 308.26 289.74 308.56 288.54 308.56 287.35 308.56 286.15 308.56 284.96 308.86 283.76 308.86 282.27 308.86 281.07 309.16 279.88 309.16 278.68 309.16 277.49 309.16 276.29 309.46 275.1 309.46 273.9 309.46 273.01 309.46 271.81 309.75 270.62 309.75 269.72 309.75 268.53 309.75 267.63 310.05 266.73 310.05 265.84 310.05 264.94 310.35 264.34 310.35 263.45 310.35 262.85 310.35 261.95 310.65 261.66 310.65 261.06 310.65 260.46 310.65 260.16 310.95 259.86 310.95 259.56 310.95 259.27 310.95 259.27 311.25"/>
  <polyline class="cls-1" points="307.66 316.03 307.66 316.33 307.66 316.63 307.36 316.63 307.07 316.63 306.77 316.63 306.47 316.92 305.87 316.92 305.57 316.92 304.97 316.92 304.38 317.22 303.78 317.22 302.88 317.22 302.29 317.52 301.39 317.52 300.49 317.52 299.6 317.52 298.7 317.82 297.8 317.82 296.61 317.82 295.41 317.82 294.52 318.12 293.32 318.12 292.13 318.12 290.93 318.12 289.74 318.42 288.54 318.42 287.35 318.42 286.15 318.72 284.96 318.72 283.76 318.72 282.27 318.72 281.07 319.02 279.88 319.02 278.68 319.02 277.49 319.02 276.29 319.31 275.1 319.31 273.9 319.31 272.71 319.31 271.81 319.61 270.62 319.61 269.42 319.61 268.53 319.91 267.63 319.91 266.73 319.91 265.84 319.91 264.94 320.21 264.34 320.21 263.45 320.21 262.85 320.21 262.25 320.51 261.66 320.51 261.06 320.51 260.76 320.51 260.46 320.81 259.86 320.81 259.56 321.11 259.27 321.11"/>
  <polyline class="cls-1" points="307.96 325.89 307.96 326.19 307.66 326.48 307.36 326.48 307.07 326.48 306.47 326.78 306.17 326.78 305.57 326.78 304.97 327.08 304.38 327.08 303.78 327.08 302.88 327.08 301.99 327.38 301.39 327.38 300.49 327.38 299.6 327.38 298.4 327.68 297.51 327.68 296.61 327.68 295.41 327.68 294.22 327.98 293.32 327.98 292.13 327.98 290.93 328.28 289.74 328.28 288.54 328.28 287.35 328.28 286.15 328.58 284.96 328.58 283.76 328.58 282.27 328.58 281.07 328.87 279.88 328.87 278.68 328.87 277.49 328.87 276.29 329.17 275.1 329.17 273.9 329.17 273.01 329.47 271.81 329.47 270.62 329.47 269.72 329.47 268.83 329.77 267.63 329.77 266.73 329.77 265.84 329.77 265.24 330.07 264.34 330.07 263.45 330.07 262.85 330.07 262.25 330.37 261.66 330.37 261.06 330.37 260.46 330.67 260.16 330.67 259.86 330.67 259.56 330.67 259.27 330.97 258.97 330.97"/>
  <polyline class="cls-1" points="307.66 335.75 307.96 336.04 307.66 336.04 307.66 336.34 307.36 336.34 307.07 336.34 306.77 336.64 306.47 336.64 305.87 336.64 305.57 336.64 304.97 336.94 304.38 336.94 303.78 336.94 302.88 336.94 302.29 337.24 301.39 337.24 300.49 337.24 299.6 337.24 298.7 337.54 297.8 337.54 296.61 337.54 295.41 337.84 294.52 337.84 293.32 337.84 292.13 337.84 290.93 338.14 289.74 338.14 288.54 338.14 287.35 338.14 286.15 338.43 284.96 338.43 283.76 338.43 282.27 338.43 281.07 338.73 279.88 338.73 278.68 338.73 277.49 339.03 276.29 339.03 275.1 339.03 273.9 339.03 272.71 339.33 271.81 339.33 270.62 339.33 269.72 339.33 268.53 339.63 267.63 339.63 266.73 339.63 265.84 339.63 264.94 339.93 264.05 339.93 263.45 339.93 262.85 340.23 262.25 340.23 261.66 340.23 261.06 340.23 260.76 340.53 260.16 340.53 259.86 340.53 259.56 340.53 259.56 340.82 259.27 340.82 259.27 341.12"/>
  <polyline class="cls-1" points="294.52 275.1 293.62 275.1 292.43 275.1 291.23 275.4 290.34 275.4 289.14 275.4 287.95 275.7 286.75 275.7 285.56 275.7 284.36 276 283.17 276 281.97 276 280.78 276.29 279.58 276.29 278.39 276.29 277.19 276.59 276 276.59 275.1 276.59 273.9 276.89 273.01 276.89 272.11 276.89 270.92 277.19 270.02 277.19 269.42 277.19 268.53 277.49 267.93 277.49 267.33 277.49 266.73 277.79 266.14 277.79 265.84 277.79 265.54 278.09 265.24 278.09 264.94 278.09"/>
  <polyline class="cls-1" points="302.29 283.46 301.99 283.46 301.69 283.76 301.39 283.76 301.09 283.76 300.79 284.06 300.49 284.06 300.19 284.06 299.9 284.06 299.3 284.36 299 284.36 298.4 284.36 297.8 284.36 297.21 284.66 296.61 284.66 296.01 284.66 295.41 284.66 294.82 284.96 293.92 284.96 293.32 284.96 292.43 284.96 291.53 285.26 290.93 285.26 290.04 285.26 289.14 285.26 288.24 285.56 287.65 285.56 286.75 285.56 285.85 285.56 284.96 285.85 284.06 285.85 283.17 285.85 282.27 285.85 281.37 286.15 280.48 286.15 279.58 286.15 278.68 286.15 277.79 286.45 277.19 286.45 276.29 286.45 275.4 286.45 274.5 286.75 273.9 286.75 273.01 286.75 272.41 286.75 271.81 287.05 270.92 287.05 270.32 287.05 269.72 287.05 269.12 287.05 268.53 287.35 267.93 287.35 267.63 287.35 267.03 287.35 266.73 287.65 266.44 287.65 266.14 287.65 265.84 287.65 265.54 287.95 265.24 287.95 264.94 287.95"/>
  <polyline class="cls-1" points="302.29 293.32 301.99 293.32 301.99 293.62 301.69 293.62 301.39 293.62 301.09 293.92 300.79 293.92 300.19 293.92 299.9 293.92 299.6 294.22 299 294.22 298.4 294.22 297.8 294.22 297.21 294.52 296.61 294.52 296.01 294.52 295.41 294.52 294.82 294.82 293.92 294.82 293.32 294.82 292.43 294.82 291.53 295.12 290.93 295.12 290.04 295.12 289.14 295.12 288.24 295.41 287.35 295.41 286.75 295.41 285.85 295.41 284.96 295.71 284.06 295.71 283.17 295.71 282.27 295.71 281.37 296.01 280.48 296.01 279.58 296.01 278.68 296.01 277.79 296.31 277.19 296.31 276.29 296.31 275.4 296.31 274.5 296.61 273.9 296.61 273.01 296.61 272.41 296.61 271.81 296.91 270.92 296.91 270.32 296.91 269.72 296.91 269.12 297.21 268.53 297.21 268.23 297.21 267.63 297.21 267.33 297.51 266.73 297.51 266.44 297.51 266.14 297.51 265.84 297.8 265.54 297.8 265.24 297.8 264.94 298.1"/>
  <polyline class="cls-1" points="302.29 303.18 301.99 303.48 301.69 303.48 301.39 303.78 301.09 303.78 300.79 303.78 300.49 303.78 299.9 304.08 299.6 304.08 299 304.08 298.4 304.08 297.8 304.38 297.21 304.38 296.61 304.38 296.01 304.38 295.41 304.68 294.52 304.68 293.92 304.68 293.02 304.68 292.43 304.68 291.53 304.97 290.93 304.97 290.04 304.97 289.14 304.97 288.24 305.27 287.35 305.27 286.45 305.27 285.56 305.27 284.96 305.57 284.06 305.57 283.17 305.57 282.27 305.57 281.37 305.87 280.48 305.87 279.58 305.87 278.68 305.87 277.79 306.17 276.89 306.17 276.29 306.17 275.4 306.17 274.5 306.47 273.9 306.47 273.01 306.47 272.41 306.47 271.81 306.77 271.22 306.77 270.32 306.77 269.72 306.77 269.42 307.07 268.83 307.07 268.23 307.07 267.63 307.07 267.33 307.36 267.03 307.36 266.44 307.36 266.14 307.36 265.84 307.66 265.54 307.66 265.24 307.66 264.94 307.96"/>
  <polyline class="cls-1" points="302.29 313.04 302.29 313.34 301.99 313.34 301.69 313.34 301.39 313.64 301.09 313.64 300.79 313.64 300.19 313.64 299.9 313.94 299.3 313.94 299 313.94 298.4 313.94 297.8 314.24 297.21 314.24 296.61 314.24 296.01 314.24 295.41 314.53 294.52 314.53 293.92 314.53 293.02 314.53 292.43 314.83 291.53 314.83 290.63 314.83 290.04 314.83 289.14 315.13 288.24 315.13 287.35 315.13 286.45 315.13 285.56 315.43 284.96 315.43 284.06 315.43 283.17 315.43 282.27 315.73 281.37 315.73 280.48 315.73 279.58 315.73 278.68 316.03 277.79 316.03 277.19 316.03 276.29 316.03 275.4 316.33 274.8 316.33 273.9 316.33 273.31 316.33 272.41 316.33 271.81 316.63 271.22 316.63 270.62 316.63 270.02 316.63 269.42 316.92 268.83 316.92 268.23 316.92 267.93 316.92 267.33 317.22 267.03 317.22 266.44 317.22 266.14 317.22 265.84 317.52 265.54 317.52 265.24 317.52 264.94 317.82"/>
  <polyline class="cls-1" points="302.29 322.9 302.29 323.2 301.99 323.2 301.69 323.2 301.39 323.5 301.09 323.5 300.79 323.5 300.19 323.5 299.9 323.8 299.3 323.8 299 323.8 298.4 323.8 297.8 324.09 297.21 324.09 296.61 324.09 296.01 324.09 295.12 324.39 294.52 324.39 293.92 324.39 293.02 324.39 292.43 324.69 291.53 324.69 290.63 324.69 290.04 324.69 289.14 324.99 288.24 324.99 287.35 324.99 286.75 324.99 285.85 325.29 284.96 325.29 284.06 325.29 283.17 325.29 282.27 325.59 281.37 325.59 280.48 325.59 279.58 325.59 278.68 325.89 277.79 325.89 277.19 325.89 276.29 325.89 275.4 326.19 274.8 326.19 273.9 326.19 273.31 326.19 272.41 326.48 271.81 326.48 271.22 326.48 270.62 326.48 270.02 326.78 269.42 326.78 268.83 326.78 268.23 326.78 267.63 327.08 267.33 327.08 266.73 327.08 266.44 327.08 266.14 327.38 265.84 327.38 265.54 327.38 265.24 327.38 264.94 327.68"/>
  <polyline class="cls-1" points="302.29 332.76 302.29 333.06 301.99 333.06 301.69 333.06 301.39 333.36 301.09 333.36 300.79 333.36 300.49 333.36 300.19 333.65 299.6 333.65 299.3 333.65 298.7 333.65 298.4 333.95 297.8 333.95 297.21 333.95 296.61 333.95 296.01 333.95 295.12 334.25 294.52 334.25 293.92 334.25 293.02 334.25 292.43 334.55 291.53 334.55 290.93 334.55 290.04 334.55 289.14 334.85 288.24 334.85 287.65 334.85 286.75 334.85 285.85 335.15 284.96 335.15 284.06 335.15 283.17 335.15 282.27 335.45 281.37 335.45 280.48 335.45 279.58 335.45 278.68 335.75 278.09 335.75 277.19 335.75 276.29 335.75 275.4 336.04 274.8 336.04 273.9 336.04 273.31 336.04 272.41 336.34 271.81 336.34 271.22 336.34 270.62 336.34 269.72 336.64 269.12 336.64 268.83 336.64 268.23 336.64 267.63 336.94 267.03 336.94 266.73 336.94 266.44 336.94 265.84 337.24 265.54 337.24 265.24 337.24 264.94 337.54"/>
  <polyline class="cls-1" points="302.29 342.62 302.29 342.92 301.99 342.92 301.69 342.92 301.39 343.21 301.09 343.21 300.79 343.21 300.49 343.21 300.19 343.51 299.6 343.51 299.3 343.51 298.7 343.51 298.4 343.81 297.8 343.81 297.21 343.81 296.61 343.81 296.01 344.11 295.41 344.11 294.52 344.11 293.92 344.11 293.32 344.41 292.43 344.41 291.53 344.41 290.93 344.41 290.04 344.71 289.14 344.71 288.24 344.71 287.65 344.71 286.75 345.01 285.85 345.01 284.96 345.01 284.06 345.01 283.17 345.31 282.27 345.31 281.37 345.31 280.48 345.31 279.58 345.6 278.68 345.6 278.09 345.6 277.19 345.6 276.29 345.6 275.4 345.9 274.8 345.9 273.9 345.9 273.31 345.9 272.41 346.2 271.81 346.2 271.22 346.2 270.32 346.2 269.72 346.5 269.12 346.5 268.53 346.5 267.93 346.5 267.63 346.8 267.03 346.8 266.73 346.8 266.44 346.8 265.84 347.1 265.54 347.1 265.24 347.1 264.94 347.4"/>
  <polyline class="cls-1" points="259.27 342.62 259.27 342.32 259.56 342.02 259.86 342.02 260.16 342.02 260.76 341.72 261.06 341.72 261.66 341.72 262.25 341.72 262.85 341.42 263.45 341.42 264.05 341.42 264.94 341.42 265.54 341.12 266.44 341.12 267.33 341.12 268.53 340.82 269.42 340.82 270.32 340.82 271.51 340.82 272.71 340.53 273.61 340.53 274.8 340.53 276 340.53 277.19 340.23 278.39 340.23 279.58 340.23 280.78 340.23 282.27 339.93 283.46 339.93 284.66 339.93 285.85 339.63 287.05 339.63 288.24 339.63 289.44 339.63 290.63 339.33 291.83 339.33 293.02 339.33 294.22 339.33 295.41 339.03 296.31 339.03 297.51 339.03 298.4 339.03 299.6 338.73 300.49 338.73 301.39 338.73 301.99 338.43 302.88 338.43 303.48 338.43 304.38 338.43 304.97 338.14 305.27 338.14 305.87 338.14 306.47 338.14 306.77 337.84 307.07 337.84 307.36 337.84 307.66 337.84 307.66 337.54"/>
  <polyline class="cls-1" points="259.27 332.76 259.27 332.46 258.97 332.46 259.27 332.46 259.27 332.16 259.56 332.16 259.86 332.16 260.16 332.16 260.46 331.86 260.76 331.86 261.36 331.86 261.95 331.86 262.55 331.56 263.45 331.56 264.05 331.56 264.94 331.26 265.84 331.26 266.73 331.26 267.63 331.26 268.53 330.97 269.42 330.97 270.62 330.97 271.51 330.97 272.71 330.67 273.9 330.67 275.1 330.67 276.29 330.67 277.19 330.37 278.68 330.37 279.88 330.37 281.07 330.07 282.27 330.07 283.46 330.07 284.66 330.07 285.85 329.77 287.05 329.77 288.24 329.77 289.44 329.77 290.63 329.47 291.83 329.47 293.02 329.47 294.22 329.47 295.41 329.17 296.31 329.17 297.51 329.17 298.4 328.87 299.3 328.87 300.19 328.87 301.09 328.87 301.99 328.58 302.58 328.58 303.48 328.58 304.08 328.58 304.68 328.28 305.27 328.28 305.87 328.28 306.47 327.98 306.77 327.98 307.07 327.98 307.36 327.98 307.66 327.68 307.96 327.68"/>
  <polyline class="cls-1" points="259.27 322.9 258.97 322.6 259.27 322.6 259.27 322.3 259.56 322.3 259.86 322.3 260.16 322.3 260.76 322 261.06 322 261.66 322 262.25 321.7 262.85 321.7 263.45 321.7 264.05 321.7 264.94 321.41 265.84 321.41 266.73 321.41 267.63 321.41 268.53 321.11 269.42 321.11 270.32 321.11 271.51 321.11 272.71 320.81 273.61 320.81 274.8 320.81 276 320.51 277.19 320.51 278.39 320.51 279.58 320.51 280.78 320.21 282.27 320.21 283.46 320.21 284.66 320.21 285.85 319.91 287.05 319.91 288.24 319.91 289.44 319.91 290.63 319.61 291.83 319.61 293.02 319.61 294.22 319.31 295.41 319.31 296.31 319.31 297.51 319.31 298.4 319.02 299.3 319.02 300.49 319.02 301.39 319.02 301.99 318.72 302.88 318.72 303.78 318.72 304.38 318.42 304.97 318.42 305.57 318.42 305.87 318.42 306.47 318.12 306.77 318.12 307.07 318.12 307.36 318.12 307.66 317.82 307.96 317.82"/>
  <polyline class="cls-1" points="259.27 313.04 259.27 312.74 259.27 312.44 259.56 312.44 259.86 312.44 260.16 312.14 260.46 312.14 260.76 312.14 261.36 312.14 261.95 311.85 262.55 311.85 263.15 311.85 264.05 311.85 264.94 311.55 265.54 311.55 266.44 311.55 267.63 311.55 268.53 311.25 269.42 311.25 270.62 311.25 271.51 310.95 272.71 310.95 273.9 310.95 275.1 310.95 276 310.65 277.19 310.65 278.39 310.65 279.88 310.65 281.07 310.35 282.27 310.35 283.46 310.35 284.66 310.05 285.85 310.05 287.05 310.05 288.24 310.05 289.44 309.75 290.63 309.75 291.83 309.75 293.02 309.75 294.22 309.46 295.41 309.46 296.31 309.46 297.51 309.46 298.4 309.16 299.3 309.16 300.19 309.16 301.09 308.86 301.99 308.86 302.58 308.86 303.48 308.86 304.08 308.56 304.68 308.56 305.27 308.56 305.87 308.56 306.47 308.26 306.77 308.26 307.07 308.26 307.36 308.26 307.66 307.96 307.96 307.96 307.96 307.66"/>
  <polyline class="cls-1" points="259.27 303.18 258.97 302.88 259.27 302.58 259.56 302.58 259.86 302.58 260.16 302.29 260.76 302.29 261.06 302.29 261.66 302.29 262.25 301.99 262.85 301.99 263.45 301.99 264.34 301.99 264.94 301.69 265.84 301.69 266.73 301.69 267.63 301.39 268.53 301.39 269.42 301.39 270.62 301.39 271.51 301.09 272.71 301.09 273.61 301.09 274.8 301.09 276 300.79 277.19 300.79 278.39 300.79 279.58 300.49 280.78 300.49 282.27 300.49 283.46 300.49 284.66 300.19 285.85 300.19 287.05 300.19 288.24 300.19 289.44 299.9 290.63 299.9 291.83 299.9 293.02 299.9 294.22 299.6 295.12 299.6 296.31 299.6 297.51 299.3 298.4 299.3 299.3 299.3 300.19 299.3 301.09 299 301.99 299 302.88 299 303.48 299 304.38 298.7 304.97 298.7 305.57 298.7 306.17 298.7 306.47 298.4 306.77 298.4 307.36 298.4 307.36 298.1 307.66 298.1 307.96 298.1 307.96 297.8"/>
  <polyline class="cls-1" points="259.27 293.02 259.27 292.73 259.56 292.73 259.86 292.73 260.16 292.43 260.46 292.43 261.06 292.43 261.36 292.13 261.95 292.13 262.55 292.13 263.15 292.13 264.05 291.83 264.94 291.83 265.54 291.83 266.44 291.83 267.33 291.53 268.53 291.53 269.42 291.53 270.32 291.53 271.51 291.23 272.71 291.23 273.9 291.23 274.8 290.93 276 290.93 277.19 290.93 278.39 290.93 279.88 290.63 281.07 290.63 282.27 290.63 283.46 290.63 284.66 290.34 285.85 290.34 287.05 290.34 288.24 290.34 289.74 290.04 290.93 290.04 291.83 290.04 293.02 289.74 294.22 289.74 295.41 289.74 296.31 289.74 297.51 289.44 298.4 289.44 299.3 289.44 300.19 289.44 301.09 289.14 301.99 289.14 302.88 289.14 303.48 289.14 304.08 288.84 304.68 288.84 305.27 288.84 305.87 288.54 306.17 288.54 306.77 288.54 307.07 288.54 307.36 288.24 307.66 288.24 307.96 288.24 307.96 287.95"/>
  <polyline class="cls-1" points="259.27 283.17 258.97 283.17 258.97 282.87 259.27 282.87 259.56 282.87 259.86 282.57 260.16 282.57 260.46 282.57 261.06 282.57 261.66 282.27 262.25 282.27 262.85 282.27 263.45 282.27 264.05 281.97 264.94 281.97 265.84 281.97 266.73 281.97 267.63 281.67 268.53 281.67 269.42 281.67 270.62 281.37 271.51 281.37 272.71 281.37 273.9 281.37 274.8 281.07 276 281.07 277.19 281.07 278.39 281.07 279.58 280.78 281.07 280.78 282.27 280.78 283.46 280.78 284.66 280.48 285.85 280.48 287.05 280.48 288.24 280.18 289.44 280.18 290.63 280.18 291.83 280.18 293.02 279.88 294.22 279.88 295.12 279.88 296.31 279.88 297.21 279.58 298.4 279.58 299.3 279.58 300.19 279.58 301.09 279.28 301.99 279.28 302.88 279.28 303.48 278.98 304.38 278.98 304.97 278.98 305.57 278.98 306.17 278.68 306.47 278.68 307.07 278.68 307.36 278.68 307.66 278.39 307.96 278.39 307.96 278.09"/>
  <polyline class="cls-1" points="272.41 275.1 271.81 275.1 270.92 275.1 270.02 275.4 269.42 275.4 268.53 275.4 267.93 275.4 267.33 275.7 267.03 275.7 266.44 275.7 266.14 276 265.84 276 265.54 276 265.24 276.29 264.94 276.29 264.94 276.59"/>
  <polyline class="cls-1" points="301.99 281.67 301.69 281.67 301.69 281.97 301.39 281.97 301.09 281.97 300.79 281.97 300.19 282.27 299.9 282.27 299.6 282.27 299 282.27 298.4 282.57 297.8 282.57 297.21 282.57 296.61 282.57 296.01 282.87 295.41 282.87 294.52 282.87 293.92 282.87 293.02 283.17 292.43 283.17 291.53 283.17 290.63 283.17 290.04 283.46 289.14 283.46 288.24 283.46 287.35 283.46 286.45 283.76 285.56 283.76 284.66 283.76 283.76 283.76 283.17 284.06 282.27 284.06 281.37 284.06 280.48 284.06 279.58 284.36 278.68 284.36 277.79 284.36 276.89 284.36 276.29 284.66 275.4 284.66 274.5 284.66 273.9 284.66 273.01 284.96 272.41 284.96 271.51 284.96 270.92 284.96 270.32 284.96 269.72 285.26 269.12 285.26 268.83 285.26 268.23 285.26 267.63 285.56 267.33 285.56 266.73 285.56 266.44 285.56 266.14 285.85 265.84 285.85 265.54 285.85 265.24 286.15 264.94 286.15 264.94 286.45"/>
  <polyline class="cls-1" points="301.99 291.53 301.69 291.83 301.39 291.83 301.09 291.83 300.79 291.83 300.49 292.13 299.9 292.13 299.6 292.13 299 292.13 298.4 292.43 297.8 292.43 297.21 292.43 296.61 292.43 296.01 292.73 295.41 292.73 294.52 292.73 293.92 292.73 293.02 293.02 292.43 293.02 291.53 293.02 290.63 293.02 290.04 293.32 289.14 293.32 288.24 293.32 287.35 293.32 286.45 293.62 285.56 293.62 284.66 293.62 283.76 293.62 283.17 293.92 282.27 293.92 281.37 293.92 280.48 293.92 279.58 294.22 278.68 294.22 277.79 294.22 276.89 294.22 276.29 294.52 275.4 294.52 274.5 294.52 273.9 294.52 273.01 294.82 272.41 294.82 271.81 294.82 271.22 294.82 270.32 295.12 269.72 295.12 269.42 295.12 268.83 295.12 268.23 295.41 267.63 295.41 267.33 295.41 267.03 295.41 266.44 295.71 266.14 295.71 265.84 295.71 265.54 295.71 265.24 296.01 264.94 296.01 264.94 296.31 264.64 296.31"/>
  <polyline class="cls-1" points="302.29 301.39 301.99 301.39 301.99 301.69 301.69 301.69 301.39 301.69 301.09 301.69 300.79 301.99 300.19 301.99 299.9 301.99 299.3 301.99 299 302.29 298.4 302.29 297.8 302.29 297.21 302.29 296.61 302.58 296.01 302.58 295.12 302.58 294.52 302.58 293.92 302.58 293.02 302.88 292.43 302.88 291.53 302.88 290.63 302.88 290.04 303.18 289.14 303.18 288.24 303.18 287.35 303.18 286.45 303.48 285.56 303.48 284.66 303.48 284.06 303.48 283.17 303.78 282.27 303.78 281.37 303.78 280.48 303.78 279.58 304.08 278.68 304.08 277.79 304.08 276.89 304.08 276.29 304.38 275.4 304.38 274.8 304.38 273.9 304.38 273.31 304.68 272.41 304.68 271.81 304.68 271.22 304.68 270.62 304.97 270.02 304.97 269.42 304.97 268.83 304.97 268.23 305.27 267.63 305.27 267.33 305.27 266.73 305.27 266.44 305.57 266.14 305.57 265.84 305.57 265.54 305.57 265.24 305.87 264.94 305.87 264.64 305.87 264.64 306.17"/>
  <polyline class="cls-1" points="302.29 311.25 301.99 311.25 301.69 311.55 301.39 311.55 301.09 311.55 300.49 311.85 300.19 311.85 299.9 311.85 299.3 311.85 298.7 312.14 298.4 312.14 297.8 312.14 297.21 312.14 296.61 312.44 296.01 312.44 295.12 312.44 294.52 312.44 293.92 312.74 293.02 312.74 292.43 312.74 291.53 312.74 290.63 313.04 290.04 313.04 289.14 313.04 288.24 313.04 287.35 313.34 286.45 313.34 285.85 313.34 284.96 313.34 284.06 313.64 283.17 313.64 282.27 313.64 281.37 313.64 280.48 313.94 279.58 313.94 278.68 313.94 277.79 313.94 277.19 314.24 276.29 314.24 275.4 314.24 274.8 314.24 273.9 314.24 273.31 314.53 272.41 314.53 271.81 314.53 271.22 314.53 270.62 314.83 269.72 314.83 269.12 314.83 268.83 314.83 268.23 315.13 267.63 315.13 267.33 315.13 266.73 315.13 266.44 315.43 266.14 315.43 265.54 315.43 265.24 315.73 264.94 315.73 264.64 315.73 264.64 316.03"/>
  <polyline class="cls-1" points="301.99 321.11 301.69 321.41 301.39 321.41 301.09 321.41 300.79 321.41 300.49 321.7 300.19 321.7 299.6 321.7 299.3 321.7 298.7 322 298.4 322 297.8 322 297.21 322 296.61 322.3 296.01 322.3 295.12 322.3 294.52 322.3 293.92 322.6 293.02 322.6 292.43 322.6 291.53 322.6 290.93 322.9 290.04 322.9 289.14 322.9 288.24 322.9 287.35 323.2 286.45 323.2 285.85 323.2 284.96 323.2 284.06 323.5 283.17 323.5 282.27 323.5 281.37 323.5 280.48 323.8 279.58 323.8 278.68 323.8 277.79 323.8 277.19 324.09 276.29 324.09 275.4 324.09 274.8 324.09 273.9 324.39 273.31 324.39 272.41 324.39 271.81 324.39 270.92 324.69 270.32 324.69 269.72 324.69 269.12 324.69 268.53 324.99 268.23 324.99 267.63 324.99 267.03 324.99 266.73 325.29 266.44 325.29 265.84 325.29 265.54 325.29 265.24 325.59 264.94 325.59 264.64 325.89"/>
  <polyline class="cls-1" points="301.99 330.97 301.99 331.26 301.69 331.26 301.39 331.26 301.09 331.26 300.79 331.56 300.49 331.56 300.19 331.56 299.6 331.56 299.3 331.86 298.7 331.86 298.4 331.86 297.8 331.86 297.21 331.86 296.61 332.16 296.01 332.16 295.41 332.16 294.52 332.16 293.92 332.46 293.32 332.46 292.43 332.46 291.53 332.46 290.93 332.76 290.04 332.76 289.14 332.76 288.24 332.76 287.35 333.06 286.75 333.06 285.85 333.06 284.96 333.06 284.06 333.36 283.17 333.36 282.27 333.36 281.37 333.36 280.48 333.65 279.58 333.65 278.68 333.65 277.79 333.65 277.19 333.95 276.29 333.95 275.4 333.95 274.5 333.95 273.9 334.25 273.01 334.25 272.41 334.25 271.81 334.25 270.92 334.55 270.32 334.55 269.72 334.55 269.12 334.55 268.53 334.85 267.93 334.85 267.63 334.85 267.03 334.85 266.73 335.15 266.44 335.15 265.84 335.15 265.54 335.15 265.54 335.45 265.24 335.45 264.94 335.45 264.94 335.75"/>
  <polyline class="cls-1" points="301.99 340.82 301.99 341.12 301.69 341.12 301.39 341.12 301.09 341.12 300.79 341.42 300.49 341.42 300.19 341.42 299.9 341.42 299.3 341.72 299 341.72 298.4 341.72 297.8 341.72 297.21 342.02 296.61 342.02 296.01 342.02 295.41 342.02 294.82 342.32 293.92 342.32 293.32 342.32 292.43 342.32 291.53 342.62 290.93 342.62 290.04 342.62 289.14 342.62 288.24 342.92 287.35 342.92 286.45 342.92 285.85 342.92 284.96 343.21 284.06 343.21 283.17 343.21 282.27 343.21 281.37 343.51 280.48 343.51 279.58 343.51 278.68 343.51 277.79 343.51 276.89 343.81 276.29 343.81 275.4 343.81 274.5 343.81 273.9 344.11 273.01 344.11 272.41 344.11 271.51 344.11 270.92 344.41 270.32 344.41 269.72 344.41 269.12 344.41 268.53 344.71 267.93 344.71 267.63 344.71 267.03 344.71 266.73 345.01 266.44 345.01 266.14 345.01 265.84 345.01 265.54 345.31 265.24 345.31 264.94 345.31 264.94 345.6"/>
  <polyline class="cls-1" points="302.29 350.68 301.99 350.98 301.69 350.98 301.39 350.98 301.09 351.28"/>
  <polyline class="cls-1" points="316.63 272.11 316.33 272.11 314.83 272.11 312.14 272.11 308.86 272.11 304.97 272.11 300.19 272.11 294.82 272.11 289.14 272.11 283.46 272.11 277.79 272.11 272.11 272.11 267.03 272.11 262.25 272.11 258.07 272.11 254.78 272.11 252.39 272.11 250.9 272.11 250.3 272.11"/>
  <polyline class="cls-1" points="253.29 275.1 253.89 275.1 255.38 275.1 258.37 275.1 261.95 275.1 266.73 275.1 271.81 275.1 277.49 275.1 283.46 275.1 289.44 275.1 295.12 275.1 300.49 275.1 304.97 275.1 308.86 275.1 311.55 275.1 313.34 275.1 313.94 275.1"/>
  <polyline class="cls-1" points="316.63 227.6 316.33 227.6 314.83 227.6 312.14 227.6 308.86 227.6 304.97 227.6 300.19 227.6 294.82 227.6 289.14 227.6 283.46 227.6 277.79 227.6 272.11 227.6 267.03 227.6 262.25 227.6 258.07 227.6 254.78 227.6 252.39 227.6 250.9 227.6 250.3 227.6"/>
  <polyline class="cls-1" points="330.67 212.96 330.37 212.96 328.58 212.96 325.59 212.96 321.7 212.96 316.92 212.96 311.25 212.96 304.97 212.96 298.1 212.96 290.93 212.96 283.46 212.96 276 212.96 268.83 212.96 261.95 212.96 255.68 212.96 250 212.96 245.23 212.96 241.34 212.96 238.65 212.96 236.86 212.96 236.26 212.96"/>
  <polyline class="cls-1" points="330.67 213.56 330.37 213.56 328.58 213.56 325.59 213.56 321.7 213.56 316.92 213.56 311.25 213.56 304.97 213.56 298.1 213.56 290.93 213.56 283.46 213.56 276 213.56 268.83 213.56 261.95 213.56 255.68 213.56 250 213.56 245.23 213.56 241.34 213.56 238.65 213.56 236.86 213.56 236.26 213.56"/>
  <line class="cls-1" x1="267.33" y1="353.97" x2="262.25" y2="348.89"/>
  <line class="cls-1" x1="299.6" y1="353.97" x2="302.29" y2="351.28"/>
  <line class="cls-1" x1="303.78" y1="349.79" x2="307.96" y2="345.9"/>
  <line class="cls-1" x1="262.25" y1="348.89" x2="264.94" y2="347.4"/>
  <line class="cls-1" x1="259.27" y1="281.37" x2="264.94" y2="278.09"/>
  <line class="cls-1" x1="259.27" y1="291.53" x2="264.94" y2="287.95"/>
  <line class="cls-1" x1="259.27" y1="301.39" x2="264.94" y2="298.1"/>
  <line class="cls-1" x1="259.27" y1="311.25" x2="264.94" y2="307.96"/>
  <line class="cls-1" x1="259.27" y1="321.11" x2="264.94" y2="317.82"/>
  <line class="cls-1" x1="259.27" y1="330.97" x2="264.94" y2="327.68"/>
  <line class="cls-1" x1="259.27" y1="340.82" x2="264.94" y2="337.54"/>
  <line class="cls-1" x1="305.27" y1="275.1" x2="307.96" y2="276.59"/>
  <line class="cls-1" x1="302.29" y1="283.17" x2="307.96" y2="286.45"/>
  <line class="cls-1" x1="302.29" y1="293.02" x2="307.96" y2="296.31"/>
  <line class="cls-1" x1="302.29" y1="302.88" x2="307.96" y2="306.17"/>
  <line class="cls-1" x1="302.29" y1="313.04" x2="307.96" y2="316.03"/>
  <line class="cls-1" x1="302.29" y1="322.9" x2="307.96" y2="325.89"/>
  <line class="cls-1" x1="302.29" y1="332.76" x2="307.96" y2="335.75"/>
  <line class="cls-1" x1="302.29" y1="342.62" x2="307.66" y2="345.6"/>
  <line class="cls-1" x1="307.96" y1="276.89" x2="307.96" y2="278.09"/>
  <line class="cls-1" x1="307.96" y1="286.75" x2="307.96" y2="287.95"/>
  <line class="cls-1" x1="307.96" y1="296.61" x2="307.96" y2="297.8"/>
  <line class="cls-1" x1="307.96" y1="306.47" x2="307.96" y2="307.66"/>
  <line class="cls-1" x1="307.96" y1="316.33" x2="307.96" y2="317.82"/>
  <line class="cls-1" x1="307.96" y1="326.19" x2="307.96" y2="327.68"/>
  <line class="cls-1" x1="307.96" y1="336.04" x2="307.96" y2="337.54"/>
  <line class="cls-1" x1="258.97" y1="281.67" x2="258.97" y2="283.17"/>
  <line class="cls-1" x1="258.97" y1="291.53" x2="258.97" y2="293.02"/>
  <line class="cls-1" x1="258.97" y1="301.39" x2="258.97" y2="302.88"/>
  <line class="cls-1" x1="258.97" y1="311.25" x2="258.97" y2="312.74"/>
  <line class="cls-1" x1="258.97" y1="321.11" x2="258.97" y2="322.6"/>
  <line class="cls-1" x1="258.97" y1="330.97" x2="258.97" y2="332.46"/>
  <line class="cls-1" x1="258.97" y1="341.12" x2="258.97" y2="342.32"/>
  <line class="cls-1" x1="302.29" y1="281.67" x2="302.29" y2="283.46"/>
  <line class="cls-1" x1="302.29" y1="291.53" x2="302.29" y2="293.32"/>
  <line class="cls-1" x1="302.29" y1="301.39" x2="302.29" y2="303.18"/>
  <line class="cls-1" x1="302.29" y1="311.25" x2="302.29" y2="313.04"/>
  <line class="cls-1" x1="302.29" y1="321.11" x2="302.29" y2="322.9"/>
  <line class="cls-1" x1="302.29" y1="330.97" x2="302.29" y2="332.76"/>
  <line class="cls-1" x1="302.29" y1="340.82" x2="302.29" y2="342.62"/>
  <line class="cls-1" x1="302.29" y1="350.68" x2="302.29" y2="351.28"/>
  <line class="cls-1" x1="264.64" y1="276.59" x2="264.64" y2="278.39"/>
  <line class="cls-1" x1="264.64" y1="286.45" x2="264.64" y2="288.24"/>
  <line class="cls-1" x1="264.64" y1="296.31" x2="264.64" y2="298.1"/>
  <line class="cls-1" x1="264.64" y1="306.17" x2="264.64" y2="307.96"/>
  <line class="cls-1" x1="264.64" y1="316.03" x2="264.64" y2="317.82"/>
  <line class="cls-1" x1="264.64" y1="325.89" x2="264.64" y2="327.68"/>
  <line class="cls-1" x1="264.64" y1="335.75" x2="264.64" y2="337.54"/>
  <line class="cls-1" x1="264.64" y1="345.6" x2="264.64" y2="347.4"/>
  <line class="cls-1" x1="303.18" y1="350.38" x2="302.29" y2="350.68"/>
  <line class="cls-1" x1="264.64" y1="276.59" x2="261.95" y2="275.1"/>
  <line class="cls-1" x1="264.64" y1="286.45" x2="259.27" y2="283.17"/>
  <line class="cls-1" x1="264.64" y1="296.31" x2="259.27" y2="293.02"/>
  <line class="cls-1" x1="264.64" y1="306.17" x2="259.27" y2="303.18"/>
  <line class="cls-1" x1="264.64" y1="316.03" x2="259.27" y2="313.04"/>
  <line class="cls-1" x1="264.64" y1="325.89" x2="259.27" y2="322.9"/>
  <line class="cls-1" x1="264.64" y1="335.75" x2="259.27" y2="332.76"/>
  <line class="cls-1" x1="264.64" y1="345.9" x2="259.27" y2="342.62"/>
  <line class="cls-1" x1="307.96" y1="337.54" x2="302.29" y2="340.82"/>
  <line class="cls-1" x1="307.96" y1="327.68" x2="302.29" y2="330.97"/>
  <line class="cls-1" x1="307.96" y1="317.82" x2="302.29" y2="321.11"/>
  <line class="cls-1" x1="307.96" y1="307.96" x2="302.29" y2="311.25"/>
  <line class="cls-1" x1="307.96" y1="298.1" x2="302.29" y2="301.39"/>
  <line class="cls-1" x1="307.96" y1="288.24" x2="302.29" y2="291.53"/>
  <line class="cls-1" x1="307.96" y1="278.39" x2="302.29" y2="281.67"/>
  <line class="cls-1" x1="253.29" y1="275.1" x2="250.3" y2="272.11"/>
  <polyline class="cls-1" points="313.94 275.1 316.63 272.11 316.63 227.6"/>
  <line class="cls-1" x1="250.3" y1="227.6" x2="250.3" y2="272.11"/>
  <line class="cls-1" x1="330.67" y1="212.96" x2="330.67" y2="213.56"/>
  <polyline class="cls-1" points="236.26 212.96 236.26 213.56 250.3 227.6"/>
  <line class="cls-1" x1="316.63" y1="227.6" x2="330.67" y2="213.56"/>
</svg>