<?xml version="1.0" encoding="UTF-8"?>
<svg id="Layer_1" data-name="Layer 1" xmlns="http://www.w3.org/2000/svg" viewBox="0 0 566.93 566.93">
  <defs>
    <style>
      .cls-1 {
        fill: none;
        stroke: #000;
        stroke-linecap: round;
        stroke-linejoin: round;
      }
    </style>
  </defs>
  <polyline class="cls-1" points="299.15 393.25 299.75 393.25 300.04 393.25 300.64 393.25 300.94 392.96 301.24 392.96 301.54 392.96 301.84 392.96 302.14 392.96 302.43 392.66 302.73 392.66 302.73 392.36"/>
  <polyline class="cls-1" points="262.1 388.77 262.4 388.77 262.7 388.47 263 388.47 263.3 388.47 263.6 388.47 264.2 388.47 264.49 388.18 265.09 388.18 265.99 388.18 266.59 388.18 267.18 387.88 268.08 387.88 268.68 387.88 269.57 387.88 270.47 387.88 271.37 387.58 272.56 387.58 273.46 387.58 274.35 387.58 275.55 387.58 276.44 387.28 277.64 387.28 278.83 387.28 280.03 387.28 280.93 387.28 282.12 386.98 283.32 386.98 284.51 386.98 285.71 386.98 286.9 386.98 287.8 386.68 288.99 386.68 290.19 386.68 291.08 386.68 292.28 386.68 293.47 386.38 294.37 386.38 295.26 386.38 296.46 386.38 297.36 386.38 298.25 386.08 299.15 386.08 300.04 386.08 300.64 386.08 301.54 386.08 302.14 385.79 303.03 385.79 303.63 385.79 304.23 385.79 304.53 385.79 305.12 385.49 305.42 385.49 306.02 385.49 306.32 385.49 306.62 385.49 306.62 385.19 306.92 385.19"/>
  <polyline class="cls-1" points="304.82 389.07 304.53 389.37 304.23 389.37 303.93 389.37 303.63 389.67 303.33 389.67 302.73 389.97 302.14 389.97 301.84 390.27 300.94 390.27 300.34 390.27 299.75 390.57 298.85 390.57 297.95 390.86 297.06 390.86 296.16 391.16 295.26 391.16 294.37 391.46 293.17 391.46 292.28 391.76 291.08 391.76 289.89 391.76 288.99 392.06 287.8 392.06 286.6 392.36 285.41 392.36 284.21 392.66 283.32 392.66 282.12 392.96 280.93 392.96 279.73 393.25 278.83 393.25 283.32 393.25 288.1 393.25 292.28 393.25 296.16 393.25 299.15 393.25"/>
  <polyline class="cls-1" points="298.85 399.23 298.55 399.23 296.76 399.23 294.37 399.23 291.08 399.23 287.5 399.23 283.32 399.23 279.43 399.23 275.55 399.23 272.56 399.23 269.87 399.23 268.38 399.23 267.78 399.23"/>
  <polyline class="cls-1" points="307.81 326.33 307.81 326.63 307.51 326.63 307.21 326.93 306.92 326.93 306.62 326.93 306.02 326.93 305.42 327.23 304.82 327.23 304.23 327.23 303.63 327.53 302.73 327.53 302.14 327.53 301.24 327.53 300.34 327.83 299.45 327.83 298.55 327.83 297.36 327.83 296.46 328.13 295.26 328.13 294.37 328.13 293.17 328.43 291.98 328.43 290.78 328.43 289.59 328.43 288.39 328.72 287.2 328.72 286 328.72 284.81 328.72 283.61 329.02 282.42 329.02 280.93 329.02 279.73 329.02 278.54 329.32 277.34 329.32 276.15 329.32 274.95 329.62 273.76 329.62 272.86 329.62 271.66 329.62 270.77 329.92 269.57 329.92 268.68 329.92 267.78 329.92 266.88 330.22 265.99 330.22 265.09 330.22 264.2 330.22 263.6 330.52 262.7 330.52 262.1 330.52 261.51 330.82 260.91 330.82 260.61 330.82 260.01 330.82 259.71 331.11 259.42 331.11 259.12 331.11 258.82 331.41"/>
  <polyline class="cls-1" points="307.81 336.19 307.81 336.49 307.51 336.49 307.21 336.49 306.92 336.79 306.62 336.79 306.32 336.79 305.72 337.09 305.42 337.09 304.82 337.09 304.23 337.09 303.63 337.39 302.73 337.39 302.14 337.39 301.24 337.39 300.34 337.69 299.45 337.69 298.55 337.69 297.65 337.99 296.46 337.99 295.56 337.99 294.37 337.99 293.17 338.28 291.98 338.28 290.78 338.28 289.59 338.28 288.39 338.58 287.2 338.58 286 338.58 284.81 338.58 283.61 338.88 282.42 338.88 281.22 338.88 279.73 339.18 278.54 339.18 277.34 339.18 276.15 339.18 274.95 339.48 273.76 339.48 272.86 339.48 271.66 339.48 270.47 339.78 269.57 339.78 268.38 339.78 267.48 339.78 266.59 340.08 265.69 340.08 264.79 340.08 264.2 340.38 263.3 340.38 262.7 340.38 262.1 340.38 261.51 340.67 260.91 340.67 260.61 340.67 260.01 340.67 259.71 340.97 259.42 340.97 259.12 340.97 259.12 341.27"/>
  <polyline class="cls-1" points="307.51 346.05 307.81 346.05 307.81 346.35 307.51 346.35 307.51 346.65 307.21 346.65 306.92 346.65 306.62 346.65 306.02 346.95 305.42 346.95 305.12 346.95 304.23 346.95 303.63 347.25 303.03 347.25 302.14 347.25 301.24 347.55 300.34 347.55 299.45 347.55 298.55 347.55 297.36 347.84 296.46 347.84 295.26 347.84 294.37 347.84 293.17 348.14 291.98 348.14 290.78 348.14 289.59 348.14 288.39 348.44 287.2 348.44 286 348.44 284.81 348.74 283.61 348.74 282.42 348.74 280.93 348.74 279.73 349.04 278.54 349.04 277.34 349.04 276.15 349.04 274.95 349.34 273.76 349.34 272.86 349.34 271.66 349.34 270.47 349.64 269.57 349.64 268.68 349.64 267.78 349.94 266.88 349.94 265.99 349.94 265.09 349.94 264.2 350.23 263.6 350.23 263 350.23 262.1 350.23 261.51 350.53 261.21 350.53 260.61 350.53 260.31 350.53 259.71 350.83 259.42 350.83 259.12 351.13 258.82 351.13"/>
  <polyline class="cls-1" points="307.81 355.91 308.11 356.21 307.81 356.21 307.51 356.21 307.51 356.51 307.21 356.51 306.92 356.51 306.32 356.51 306.02 356.81 305.42 356.81 304.82 356.81 304.23 357.11 303.33 357.11 302.73 357.11 301.84 357.11 301.24 357.4 300.34 357.4 299.45 357.4 298.55 357.4 297.36 357.7 296.46 357.7 295.26 357.7 294.37 357.7 293.17 358 291.98 358 290.78 358 289.59 358.3 288.39 358.3 287.2 358.3 286 358.3 284.81 358.6 283.61 358.6 282.42 358.6 281.22 358.6 280.03 358.9 278.54 358.9 277.34 358.9 276.15 358.9 274.95 359.2 274.05 359.2 272.86 359.2 271.66 359.5 270.77 359.5 269.57 359.5 268.68 359.5 267.48 359.79 266.59 359.79 265.69 359.79 264.79 359.79 264.2 360.09 263.3 360.09 262.7 360.09 262.1 360.09 261.51 360.39 260.91 360.39 260.31 360.39 260.01 360.69 259.71 360.69 259.42 360.69 259.12 360.99"/>
  <polyline class="cls-1" points="307.51 365.77 307.81 365.77 307.81 366.07 307.51 366.07 307.21 366.37 306.92 366.37 306.32 366.67 306.02 366.67 305.42 366.67 304.82 366.67 304.23 366.96 303.63 366.96 303.03 366.96 302.14 366.96 301.24 367.26 300.34 367.26 299.45 367.26 298.55 367.26 297.65 367.56 296.46 367.56 295.56 367.56 294.37 367.86 293.17 367.86 291.98 367.86 290.78 367.86 289.59 368.16 288.39 368.16 287.2 368.16 286 368.16 284.81 368.46 283.61 368.46 282.42 368.46 280.93 368.46 279.73 368.76 278.54 368.76 277.34 368.76 276.15 369.06 274.95 369.06 273.76 369.06 272.56 369.06 271.66 369.35 270.47 369.35 269.57 369.35 268.38 369.35 267.48 369.65 266.59 369.65 265.69 369.65 265.09 369.65 264.2 369.95 263.6 369.95 262.7 369.95 262.1 370.25 261.81 370.25 261.21 370.25 260.61 370.25 260.31 370.55 260.01 370.55 259.71 370.55 259.42 370.55 259.12 370.85"/>
  <polyline class="cls-1" points="307.81 375.63 308.11 375.93 307.81 375.93 307.81 376.23 307.51 376.23 307.21 376.23 306.92 376.23 306.32 376.52 306.02 376.52 305.42 376.52 304.82 376.52 304.23 376.82 303.63 376.82 302.73 376.82 302.14 376.82 301.24 377.12 300.34 377.12 299.45 377.12 298.55 377.42 297.36 377.42 296.46 377.42 295.26 377.42 294.37 377.72 293.17 377.72 291.98 377.72 290.78 377.72 289.59 378.02 288.39 378.02 287.2 378.02 286 378.02 284.81 378.32 283.61 378.32 282.42 378.32 281.22 378.62 279.73 378.62 278.54 378.62 277.34 378.62 276.15 378.91 274.95 378.91 274.05 378.91 272.86 378.91 271.66 379.21 270.77 379.21 269.57 379.21 268.68 379.51 267.78 379.51 266.59 379.51 265.69 379.51 265.09 379.81 264.2 379.81 263.3 379.81 262.7 379.81 262.1 380.11 261.51 380.11 260.91 380.11 260.31 380.11 260.01 380.41 259.71 380.41 259.42 380.41 259.12 380.71"/>
  <polyline class="cls-1" points="302.14 323.05 302.14 323.35 301.84 323.35 301.84 323.65 301.54 323.65 301.24 323.65 300.94 323.65 300.64 323.94 300.34 323.94 299.75 323.94 299.45 323.94 298.85 324.24 298.25 324.24 297.95 324.24 297.36 324.24 296.46 324.54 295.86 324.54 295.26 324.54 294.67 324.54 293.77 324.84 293.17 324.84 292.28 324.84 291.38 324.84 290.78 325.14 289.89 325.14 288.99 325.14 288.1 325.14 287.2 325.44 286.6 325.44 285.71 325.44 284.81 325.44 283.91 325.74 283.02 325.74 282.12 325.74 281.22 325.74 280.33 326.04 279.43 326.04 278.54 326.04 277.94 326.04 277.04 326.33 276.15 326.33 275.25 326.33 274.65 326.33 273.76 326.63 273.16 326.63 272.26 326.63 271.66 326.63 271.07 326.93 270.47 326.93 269.87 326.93 269.27 326.93 268.68 327.23 268.08 327.23 267.78 327.23 267.18 327.23 266.88 327.53 266.59 327.53 265.99 327.53 265.69 327.53 265.39 327.83 265.09 327.83 264.79 327.83"/>
  <polyline class="cls-1" points="302.14 333.21 302.14 333.5 301.84 333.5 301.54 333.5 301.24 333.5 300.94 333.8 300.64 333.8 300.34 333.8 299.75 333.8 299.45 334.1 298.85 334.1 298.25 334.1 297.65 334.1 297.06 334.4 296.46 334.4 295.86 334.4 295.26 334.4 294.37 334.4 293.77 334.7 293.17 334.7 292.28 334.7 291.38 334.7 290.78 335 289.89 335 288.99 335 288.1 335 287.2 335.3 286.6 335.3 285.71 335.3 284.81 335.3 283.91 335.6 283.02 335.6 282.12 335.6 281.22 335.6 280.33 335.89 279.43 335.89 278.54 335.89 277.94 335.89 277.04 336.19 276.15 336.19 275.25 336.19 274.65 336.19 273.76 336.49 273.16 336.49 272.26 336.49 271.66 336.49 271.07 336.79 270.47 336.79 269.87 336.79 269.27 336.79 268.68 337.09 268.08 337.09 267.78 337.09 267.18 337.09 266.88 337.39 266.29 337.39 265.99 337.39 265.69 337.39 265.39 337.69 265.09 337.69 264.79 337.69"/>
  <polyline class="cls-1" points="302.43 343.06 302.14 343.06 302.14 343.36 301.84 343.36 301.54 343.36 301.24 343.36 300.94 343.66 300.64 343.66 300.34 343.66 299.75 343.66 299.15 343.96 298.85 343.96 298.25 343.96 297.65 343.96 297.06 344.26 296.46 344.26 295.86 344.26 295.26 344.26 294.37 344.56 293.77 344.56 292.88 344.56 292.28 344.56 291.38 344.86 290.78 344.86 289.89 344.86 288.99 344.86 288.1 345.16 287.5 345.16 286.6 345.16 285.71 345.16 284.81 345.45 283.91 345.45 283.02 345.45 282.12 345.45 281.22 345.75 280.33 345.75 279.43 345.75 278.83 345.75 277.94 346.05 277.04 346.05 276.15 346.05 275.55 346.05 274.65 346.05 273.76 346.35 273.16 346.35 272.56 346.35 271.66 346.35 271.07 346.65 270.47 346.65 269.87 346.65 269.27 346.65 268.68 346.95 268.08 346.95 267.48 346.95 267.18 346.95 266.59 347.25 266.29 347.25 265.99 347.25 265.69 347.25 265.39 347.55 265.09 347.55 264.79 347.55"/>
  <polyline class="cls-1" points="302.43 352.92 302.14 352.92 301.84 353.22 301.54 353.22 301.24 353.22 300.94 353.52 300.34 353.52 300.04 353.52 299.75 353.52 299.15 353.82 298.85 353.82 298.25 353.82 297.65 353.82 297.06 354.12 296.46 354.12 295.86 354.12 295.26 354.12 294.67 354.42 293.77 354.42 293.17 354.42 292.28 354.42 291.68 354.72 290.78 354.72 289.89 354.72 288.99 354.72 288.39 355.01 287.5 355.01 286.6 355.01 285.71 355.01 284.81 355.31 283.91 355.31 283.02 355.31 282.12 355.31 281.22 355.61 280.33 355.61 279.73 355.61 278.83 355.61 277.94 355.91 277.04 355.91 276.15 355.91 275.55 355.91 274.65 356.21 274.05 356.21 273.16 356.21 272.56 356.21 271.66 356.51 271.07 356.51 270.47 356.51 269.87 356.51 269.27 356.81 268.68 356.81 268.08 356.81 267.48 356.81 267.18 357.11 266.59 357.11 266.29 357.11 265.99 357.11 265.69 357.4 265.39 357.4 265.09 357.4 264.79 357.4 264.79 357.7"/>
  <polyline class="cls-1" points="302.14 362.78 301.84 363.08 301.54 363.08 301.24 363.08 301.24 363.38 300.64 363.38 300.34 363.38 300.04 363.38 299.75 363.68 299.15 363.68 298.85 363.68 298.25 363.68 297.65 363.68 297.06 363.98 296.46 363.98 295.86 363.98 295.26 363.98 294.67 364.28 293.77 364.28 293.17 364.28 292.28 364.28 291.68 364.57 290.78 364.57 289.89 364.57 288.99 364.57 288.39 364.87 287.5 364.87 286.6 364.87 285.71 364.87 284.81 365.17 283.91 365.17 283.02 365.17 282.12 365.17 281.22 365.47 280.33 365.47 279.73 365.47 278.83 365.47 277.94 365.77 277.04 365.77 276.15 365.77 275.55 365.77 274.65 366.07 273.76 366.07 273.16 366.07 272.26 366.07 271.66 366.37 271.07 366.37 270.47 366.37 269.57 366.37 268.98 366.67 268.68 366.67 268.08 366.67 267.48 366.67 267.18 366.96 266.59 366.96 266.29 366.96 265.99 366.96 265.69 367.26 265.39 367.26 265.09 367.26 264.79 367.56"/>
  <polyline class="cls-1" points="302.14 372.64 301.84 372.94 301.54 372.94 301.24 372.94 301.24 373.24 300.94 373.24 300.34 373.24 300.04 373.24 299.75 373.54 299.15 373.54 298.85 373.54 298.25 373.54 297.65 373.84 297.36 373.84 296.76 373.84 295.86 373.84 295.26 374.13 294.67 374.13 293.77 374.13 293.17 374.13 292.28 374.43 291.68 374.43 290.78 374.43 289.89 374.43 288.99 374.73 288.39 374.73 287.5 374.73 286.6 374.73 285.71 375.03 284.81 375.03 283.91 375.03 283.02 375.03 282.12 375.33 281.22 375.33 280.33 375.33 279.43 375.33 278.83 375.33 277.94 375.63 277.04 375.63 276.15 375.63 275.25 375.63 274.65 375.93 273.76 375.93 273.16 375.93 272.26 375.93 271.66 376.23 271.07 376.23 270.17 376.23 269.57 376.23 268.98 376.52 268.38 376.52 268.08 376.52 267.48 376.52 267.18 376.82 266.59 376.82 266.29 376.82 265.99 376.82 265.69 377.12 265.39 377.12 265.09 377.12 264.79 377.42"/>
  <polyline class="cls-1" points="302.14 382.5 301.84 382.8 301.54 382.8 301.24 383.1 300.94 383.1 300.64 383.1 300.04 383.1 299.75 383.4 299.45 383.4 298.85 383.4 298.25 383.4 297.95 383.69 297.36 383.69 296.76 383.69 295.86 383.69 295.26 383.99 294.67 383.99 293.77 383.99 293.17 383.99 292.28 384.29 291.68 384.29 290.78 384.29 289.89 384.29 288.99 384.59 288.39 384.59 287.5 384.59 286.6 384.59 285.71 384.89 284.81 384.89 283.91 384.89 283.02 384.89 282.12 385.19 281.22 385.19 280.33 385.19 279.43 385.19 278.54 385.49 277.94 385.49 277.04 385.49 276.15 385.49 275.25 385.79 274.65 385.79 273.76 385.79 273.16 385.79 272.26 386.08 271.66 386.08 270.77 386.08 270.17 386.08 269.57 386.38 268.98 386.38 268.38 386.38 268.08 386.38 267.48 386.68 267.18 386.68 266.59 386.68 266.29 386.68 265.99 386.98 265.69 386.98 265.39 386.98 265.09 386.98 265.09 387.28"/>
  <polyline class="cls-1" points="302.14 392.36 302.14 392.66 301.84 392.66 301.54 392.96 300.94 392.96 300.64 392.96 299.75 393.25 299.15 393.25"/>
  <polyline class="cls-1" points="259.42 382.5 259.12 382.2 259.42 381.9 259.71 381.9 260.01 381.6 260.31 381.6 260.91 381.6 261.51 381.6 261.81 381.3 262.4 381.3 263.3 381.3 263.9 381.3 264.79 381.01 265.69 381.01 266.59 381.01 267.48 381.01 268.38 380.71 269.27 380.71 270.47 380.71 271.37 380.41 272.56 380.41 273.76 380.41 274.95 380.41 276.15 380.11 277.34 380.11 278.54 380.11 279.73 380.11 280.93 379.81 282.12 379.81 283.32 379.81 284.51 379.81 285.71 379.51 287.2 379.51 288.39 379.51 289.59 379.21 290.78 379.21 291.98 379.21 293.17 379.21 294.07 378.91 295.26 378.91 296.46 378.91 297.36 378.91 298.25 378.62 299.45 378.62 300.34 378.62 300.94 378.62 301.84 378.32 302.73 378.32 303.33 378.32 303.93 378.02 304.53 378.02 305.12 378.02 305.72 378.02 306.32 377.72 306.62 377.72 306.92 377.72 307.21 377.72 307.51 377.42 307.81 377.42"/>
  <polyline class="cls-1" points="259.12 372.64 258.82 372.34 259.12 372.04 259.42 372.04 259.71 372.04 260.01 371.74 260.61 371.74 260.91 371.74 261.51 371.74 262.1 371.45 262.7 371.45 263.3 371.45 264.2 371.45 264.79 371.15 265.69 371.15 266.59 371.15 267.48 370.85 268.38 370.85 269.57 370.85 270.47 370.85 271.37 370.55 272.56 370.55 273.76 370.55 274.95 370.55 275.85 370.25 277.04 370.25 278.24 370.25 279.73 370.25 280.93 369.95 282.12 369.95 283.32 369.95 284.51 369.65 285.71 369.65 286.9 369.65 288.1 369.65 289.29 369.35 290.49 369.35 291.68 369.35 292.88 369.35 294.07 369.06 295.26 369.06 296.16 369.06 297.36 369.06 298.25 368.76 299.15 368.76 300.34 368.76 301.24 368.46 301.84 368.46 302.73 368.46 303.63 368.46 304.23 368.16 304.82 368.16 305.42 368.16 306.02 368.16 306.32 367.86 306.92 367.86 307.21 367.86 307.51 367.86 307.51 367.56 307.81 367.56 307.81 367.26"/>
  <polyline class="cls-1" points="259.42 362.48 259.12 362.48 259.12 362.18 259.42 362.18 259.71 362.18 260.01 361.89 260.61 361.89 260.91 361.89 261.51 361.89 262.1 361.59 262.7 361.59 263.3 361.59 263.9 361.29 264.79 361.29 265.69 361.29 266.29 361.29 267.48 360.99 268.38 360.99 269.27 360.99 270.47 360.99 271.37 360.69 272.56 360.69 273.76 360.69 274.95 360.69 276.15 360.39 277.34 360.39 278.54 360.39 279.73 360.09 280.93 360.09 282.12 360.09 283.32 360.09 284.51 359.79 285.71 359.79 287.2 359.79 288.39 359.79 289.59 359.5 290.78 359.5 291.98 359.5 293.17 359.5 294.07 359.2 295.26 359.2 296.46 359.2 297.36 358.9 298.55 358.9 299.45 358.9 300.34 358.9 301.24 358.6 301.84 358.6 302.73 358.6 303.33 358.6 304.23 358.3 304.82 358.3 305.12 358.3 305.72 358.3 306.32 358 306.62 358 306.92 358 307.21 357.7 307.51 357.7 307.81 357.7 307.81 357.4"/>
  <polyline class="cls-1" points="259.12 352.62 258.82 352.62 259.12 352.33 259.42 352.33 259.71 352.33 260.01 352.03 260.31 352.03 260.91 352.03 261.51 351.73 262.1 351.73 262.7 351.73 263.3 351.73 264.2 351.43 264.79 351.43 265.69 351.43 266.59 351.43 267.48 351.13 268.38 351.13 269.57 351.13 270.47 351.13 271.66 350.83 272.56 350.83 273.76 350.83 274.95 350.53 276.15 350.53 277.34 350.53 278.54 350.53 279.73 350.23 280.93 350.23 282.12 350.23 283.32 350.23 284.51 349.94 285.71 349.94 287.2 349.94 288.39 349.94 289.59 349.64 290.78 349.64 291.68 349.64 292.88 349.34 294.07 349.34 295.26 349.34 296.16 349.34 297.36 349.04 298.25 349.04 299.15 349.04 300.04 349.04 300.94 348.74 301.84 348.74 302.73 348.74 303.33 348.44 304.23 348.44 304.82 348.44 305.42 348.44 306.02 348.14 306.32 348.14 306.92 348.14 307.21 348.14 307.51 347.84 307.81 347.84 308.11 347.55"/>
  <polyline class="cls-1" points="259.12 342.77 259.12 342.47 259.42 342.47 259.71 342.47 260.01 342.17 260.31 342.17 260.61 342.17 260.91 342.17 261.51 341.87 262.1 341.87 262.7 341.87 263.3 341.87 263.9 341.57 264.79 341.57 265.69 341.57 266.59 341.57 267.48 341.27 268.38 341.27 269.27 341.27 270.47 340.97 271.37 340.97 272.56 340.97 273.76 340.97 274.65 340.67 275.85 340.67 277.04 340.67 278.24 340.67 279.73 340.38 280.93 340.38 282.12 340.38 283.32 340.38 284.51 340.08 285.71 340.08 286.9 340.08 288.39 339.78 289.59 339.78 290.78 339.78 291.98 339.78 292.88 339.48 294.07 339.48 295.26 339.48 296.46 339.48 297.36 339.18 298.25 339.18 299.45 339.18 300.34 338.88 301.24 338.88 302.14 338.88 302.73 338.88 303.63 338.58 304.23 338.58 304.82 338.58 305.42 338.58 305.72 338.28 306.32 338.28 306.62 338.28 306.92 338.28 307.21 337.99 307.51 337.99 307.81 337.69"/>
  <polyline class="cls-1" points="259.12 332.91 259.12 332.61 259.42 332.61 259.71 332.31 260.01 332.31 260.31 332.31 260.91 332.31 261.21 332.01 261.81 332.01 262.7 332.01 263.3 332.01 263.9 331.71 264.79 331.71 265.69 331.71 266.59 331.41 267.48 331.41 268.38 331.41 269.27 331.41 270.47 331.11 271.66 331.11 272.56 331.11 273.76 331.11 274.95 330.82 276.15 330.82 277.34 330.82 278.54 330.52 279.73 330.52 280.93 330.52 282.12 330.52 283.32 330.22 284.51 330.22 285.71 330.22 287.2 330.22 288.39 329.92 289.59 329.92 290.78 329.92 291.98 329.92 292.88 329.62 294.07 329.62 295.26 329.62 296.16 329.32 297.36 329.32 298.25 329.32 299.15 329.32 300.04 329.02 300.94 329.02 301.84 329.02 302.73 329.02 303.33 328.72 303.93 328.72 304.82 328.72 305.42 328.72 305.72 328.43 306.32 328.43 306.62 328.43 307.21 328.13 307.51 328.13 307.81 328.13 307.81 327.83 308.11 327.83"/>
  <polyline class="cls-1" points="264.49 326.33 264.49 326.04 264.79 326.04 265.09 326.04 265.09 325.74 265.39 325.74 265.69 325.74 265.99 325.74 266.29 325.44 266.88 325.44 267.18 325.44 267.78 325.44 268.08 325.14 268.68 325.14 269.27 325.14 269.87 325.14 270.47 324.84 271.07 324.84 271.66 324.84 272.56 324.84 273.16 324.54 273.76 324.54 274.65 324.54 275.25 324.54 276.15 324.24 277.04 324.24 277.94 324.24 278.54 324.24 279.43 323.94 280.33 323.94 281.22 323.94 282.12 323.94 283.02 323.65 283.91 323.65 284.81 323.65 285.71 323.65 286.6 323.35 287.2 323.35 288.1 323.35 288.99 323.35 289.89 323.05 290.49 323.05 291.38 323.05 292.28 323.05 292.88 322.75 293.77 322.75 294.37 322.75 295.26 322.75 295.86 322.45 296.46 322.45 297.06 322.45 297.65 322.45 298.25 322.15 298.85 322.15 299.15 322.15 299.75 322.15 300.04 321.85 300.64 321.85 300.94 321.85 301.24 321.85 301.54 321.55 301.84 321.55 302.14 321.55 302.43 321.55"/>
  <polyline class="cls-1" points="302.14 331.41 301.84 331.41 301.54 331.71 301.24 331.71 300.94 331.71 300.64 331.71 300.04 332.01 299.75 332.01 299.15 332.01 298.85 332.01 298.25 332.31 297.65 332.31 297.06 332.31 296.46 332.31 295.86 332.31 295.26 332.61 294.37 332.61 293.77 332.61 292.88 332.61 292.28 332.91 291.38 332.91 290.78 332.91 289.89 332.91 288.99 333.21 288.1 333.21 287.2 333.21 286.6 333.21 285.71 333.5 284.81 333.5 283.91 333.5 283.02 333.5 282.12 333.8 281.22 333.8 280.33 333.8 279.43 333.8 278.54 334.1 277.94 334.1 277.04 334.1 276.15 334.1 275.55 334.4 274.65 334.4 273.76 334.4 273.16 334.4 272.56 334.7 271.66 334.7 271.07 334.7 270.47 334.7 269.87 335 269.27 335 268.68 335 268.08 335 267.48 335.3 267.18 335.3 266.59 335.3 266.29 335.3 265.99 335.6 265.69 335.6 265.39 335.6 265.09 335.6 264.79 335.89 264.49 335.89 264.49 336.19"/>
  <polyline class="cls-1" points="302.14 341.27 301.84 341.27 301.54 341.27 301.54 341.57 301.24 341.57 300.94 341.57 300.34 341.57 300.04 341.87 299.75 341.87 299.15 341.87 298.85 341.87 298.25 342.17 297.65 342.17 297.06 342.17 296.46 342.17 295.86 342.47 295.26 342.47 294.37 342.47 293.77 342.47 293.17 342.77 292.28 342.77 291.38 342.77 290.78 342.77 289.89 343.06 288.99 343.06 288.1 343.06 287.5 343.06 286.6 343.36 285.71 343.36 284.81 343.36 283.91 343.36 283.02 343.66 282.12 343.66 281.22 343.66 280.33 343.66 279.43 343.96 278.83 343.96 277.94 343.96 277.04 343.96 276.15 343.96 275.55 344.26 274.65 344.26 273.76 344.26 273.16 344.26 272.26 344.56 271.66 344.56 271.07 344.56 270.47 344.56 269.57 344.86 268.98 344.86 268.68 344.86 268.08 344.86 267.48 345.16 266.88 345.16 266.59 345.16 266.29 345.16 265.99 345.45 265.69 345.45 265.39 345.45 265.09 345.45 264.79 345.75 264.79 346.05"/>
  <polyline class="cls-1" points="301.84 351.13 301.54 351.13 301.24 351.43 300.94 351.43 300.64 351.43 300.34 351.43 300.04 351.73 299.75 351.73 299.15 351.73 298.85 351.73 298.25 352.03 297.65 352.03 297.06 352.03 296.46 352.03 295.86 352.33 295.26 352.33 294.67 352.33 293.77 352.33 293.17 352.62 292.28 352.62 291.68 352.62 290.78 352.62 289.89 352.92 288.99 352.92 288.1 352.92 287.5 352.92 286.6 353.22 285.71 353.22 284.81 353.22 283.91 353.22 283.02 353.52 282.12 353.52 281.22 353.52 280.33 353.52 279.43 353.82 278.54 353.82 277.94 353.82 277.04 353.82 276.15 354.12 275.25 354.12 274.65 354.12 273.76 354.12 273.16 354.42 272.26 354.42 271.66 354.42 270.77 354.42 270.17 354.72 269.57 354.72 268.98 354.72 268.38 354.72 268.08 355.01 267.48 355.01 266.88 355.01 266.59 355.01 266.29 355.31 265.99 355.31 265.69 355.31 265.39 355.31 265.09 355.61 264.79 355.61 264.79 355.91"/>
  <polyline class="cls-1" points="301.84 360.99 301.54 361.29 301.24 361.29 300.94 361.29 300.34 361.59 300.04 361.59 299.75 361.59 299.15 361.59 298.85 361.59 298.25 361.89 297.65 361.89 297.06 361.89 296.46 361.89 295.86 362.18 295.26 362.18 294.67 362.18 293.77 362.18 293.17 362.48 292.28 362.48 291.68 362.48 290.78 362.48 289.89 362.78 288.99 362.78 288.1 362.78 287.5 362.78 286.6 363.08 285.71 363.08 284.81 363.08 283.91 363.08 283.02 363.38 282.12 363.38 281.22 363.38 280.33 363.38 279.43 363.68 278.54 363.68 277.64 363.68 277.04 363.68 276.15 363.98 275.25 363.98 274.65 363.98 273.76 363.98 272.86 364.28 272.26 364.28 271.66 364.28 270.77 364.28 270.17 364.57 269.57 364.57 268.98 364.57 268.38 364.57 268.08 364.87 267.48 364.87 267.18 364.87 266.59 364.87 266.29 365.17 265.99 365.17 265.69 365.17 265.39 365.17 265.39 365.47 265.09 365.47 264.79 365.47 264.79 365.77"/>
  <polyline class="cls-1" points="301.84 370.85 301.54 371.15 301.24 371.15 300.94 371.15 300.64 371.45 300.34 371.45 299.75 371.45 299.45 371.45 298.85 371.74 298.25 371.74 297.95 371.74 297.36 371.74 296.76 372.04 295.86 372.04 295.26 372.04 294.67 372.04 293.77 372.34 293.17 372.34 292.28 372.34 291.38 372.34 290.78 372.64 289.89 372.64 288.99 372.64 288.1 372.64 287.2 372.94 286.6 372.94 285.71 372.94 284.81 372.94 283.91 373.24 283.02 373.24 282.12 373.24 281.22 373.24 280.33 373.24 279.43 373.54 278.54 373.54 277.64 373.54 277.04 373.54 276.15 373.84 275.25 373.84 274.35 373.84 273.76 373.84 272.86 374.13 272.26 374.13 271.66 374.13 270.77 374.13 270.17 374.43 269.57 374.43 268.98 374.43 268.68 374.43 268.08 374.73 267.48 374.73 267.18 374.73 266.88 374.73 266.29 375.03 265.99 375.03 265.69 375.03 265.39 375.33 265.09 375.33 264.79 375.33 264.79 375.63"/>
  <polyline class="cls-1" points="302.14 380.71 301.84 380.71 301.84 381.01 301.54 381.01 301.24 381.01 300.94 381.01 300.64 381.3 300.34 381.3 299.75 381.3 299.45 381.3 298.85 381.6 298.25 381.6 297.95 381.6 297.36 381.6 296.46 381.9 295.86 381.9 295.26 381.9 294.67 381.9 293.77 382.2 293.17 382.2 292.28 382.2 291.38 382.2 290.78 382.5 289.89 382.5 288.99 382.5 288.1 382.5 287.2 382.8 286.3 382.8 285.71 382.8 284.81 382.8 283.91 383.1 283.02 383.1 282.12 383.1 281.22 383.1 280.33 383.4 279.43 383.4 278.54 383.4 277.64 383.4 277.04 383.69 276.15 383.69 275.25 383.69 274.35 383.69 273.76 383.99 272.86 383.99 272.26 383.99 271.66 383.99 271.07 384.29 270.47 384.29 269.87 384.29 269.27 384.29 268.68 384.59 268.08 384.59 267.78 384.59 267.18 384.59 266.88 384.89 266.59 384.89 265.99 384.89 265.69 384.89 265.39 385.19 265.09 385.19 264.79 385.19 264.79 385.49"/>
  <polyline class="cls-1" points="302.14 390.57 301.84 390.86 301.54 390.86 301.24 390.86 300.94 391.16 300.34 391.16 300.04 391.16 299.45 391.16 298.85 391.46 298.25 391.46 297.65 391.46 296.76 391.76 296.16 391.76 295.56 391.76 294.67 391.76 293.77 392.06 292.88 392.06 291.98 392.06 291.08 392.36 290.19 392.36 289.29 392.36 288.39 392.36 287.5 392.66 286.6 392.66 285.41 392.66 284.51 392.66 283.61 392.96 282.72 392.96 281.52 392.96 280.63 393.25 279.73 393.25 278.83 393.25"/>
  <polyline class="cls-1" points="260.31 323.94 260.31 323.65 260.61 323.65 260.91 323.65 261.21 323.65 261.51 323.65 261.81 323.65 262.1 323.65 262.7 323.65 263 323.35 263.6 323.35 264.2 323.35 264.79 323.35 265.39 323.35 265.99 323.35 266.59 323.35 267.48 323.35 268.08 323.05 268.98 323.05 269.87 323.05 270.77 323.05 271.66 323.05 272.56 323.05 273.46 323.05 274.35 323.05 275.25 322.75 276.44 322.75 277.34 322.75 278.24 322.75 279.43 322.75 280.33 322.75 281.52 322.75 282.42 322.75 283.61 322.45 284.51 322.45 285.41 322.45 286.6 322.45 287.5 322.45 288.39 322.45 289.59 322.45 290.49 322.15 291.38 322.15 292.28 322.15 293.17 322.15 294.07 322.15 294.97 322.15 295.56 322.15 296.46 322.15 297.06 321.85 297.95 321.85 298.55 321.85 299.15 321.85 299.45 321.85 300.04 321.85 300.64 321.85 300.94 321.55 301.24 321.55 301.54 321.55 301.84 321.55 302.14 321.55"/>
  <polyline class="cls-1" points="301.84 321.26 301.24 321.26 299.45 321.26 296.46 321.26 292.58 321.26 288.1 321.26 283.32 321.26 278.54 321.26 274.05 321.26 270.47 321.26 267.48 321.26 265.69 321.26 265.09 321.26"/>
  <polyline class="cls-1" points="313.19 167.7 312.59 167.7 310.8 167.7 308.11 167.7 304.53 167.7 300.04 167.7 294.67 167.7 289.29 167.7 283.32 167.7 277.64 167.7 271.96 167.7 266.88 167.7 262.4 167.7 258.82 167.7 256.13 167.7 254.34 167.7 253.74 167.7"/>
  <polyline class="cls-1" points="315.88 170.39 315.28 170.39 313.49 170.39 310.5 170.39 306.32 170.39 301.54 170.39 295.86 170.39 289.89 170.39 283.32 170.39 277.04 170.39 271.07 170.39 265.39 170.39 260.61 170.39 256.43 170.39 253.44 170.39 251.65 170.39 251.05 170.39"/>
  <polyline class="cls-1" points="315.88 229.84 315.28 229.84 313.49 229.84 310.5 229.84 306.32 229.84 301.54 229.84 295.86 229.84 289.89 229.84 283.32 229.84 277.04 229.84 271.07 229.84 265.39 229.84 260.61 229.84 256.43 229.84 253.44 229.84 251.65 229.84 251.05 229.84"/>
  <polyline class="cls-1" points="301.84 234.92 301.24 234.92 299.45 234.92 296.46 234.92 292.58 234.92 288.1 234.92 283.32 234.92 278.54 234.92 274.05 234.92 270.47 234.92 267.48 234.92 265.69 234.92 265.09 234.92"/>
  <line class="cls-1" x1="267.78" y1="399.23" x2="262.1" y2="388.77"/>
  <line class="cls-1" x1="298.85" y1="399.23" x2="302.73" y2="392.66"/>
  <line class="cls-1" x1="304.82" y1="389.07" x2="306.92" y2="385.19"/>
  <line class="cls-1" x1="262.1" y1="388.77" x2="264.79" y2="387.28"/>
  <line class="cls-1" x1="259.12" y1="331.11" x2="264.79" y2="327.83"/>
  <line class="cls-1" x1="259.12" y1="340.97" x2="264.79" y2="337.69"/>
  <line class="cls-1" x1="259.12" y1="351.13" x2="264.79" y2="347.55"/>
  <line class="cls-1" x1="259.12" y1="360.99" x2="264.79" y2="357.7"/>
  <line class="cls-1" x1="259.12" y1="370.85" x2="264.79" y2="367.56"/>
  <line class="cls-1" x1="259.12" y1="380.71" x2="264.79" y2="377.42"/>
  <line class="cls-1" x1="302.43" y1="323.05" x2="307.81" y2="326.33"/>
  <line class="cls-1" x1="302.43" y1="332.91" x2="307.81" y2="336.19"/>
  <line class="cls-1" x1="302.43" y1="342.77" x2="307.81" y2="346.05"/>
  <line class="cls-1" x1="302.43" y1="352.62" x2="307.81" y2="355.91"/>
  <line class="cls-1" x1="302.43" y1="362.48" x2="307.81" y2="365.77"/>
  <line class="cls-1" x1="302.43" y1="372.34" x2="307.81" y2="375.63"/>
  <line class="cls-1" x1="302.43" y1="382.5" x2="306.92" y2="385.19"/>
  <line class="cls-1" x1="302.43" y1="392.36" x2="302.73" y2="392.36"/>
  <line class="cls-1" x1="308.11" y1="326.33" x2="308.11" y2="327.83"/>
  <line class="cls-1" x1="308.11" y1="336.19" x2="308.11" y2="337.69"/>
  <line class="cls-1" x1="308.11" y1="346.35" x2="308.11" y2="347.55"/>
  <line class="cls-1" x1="308.11" y1="356.21" x2="308.11" y2="357.4"/>
  <line class="cls-1" x1="308.11" y1="366.07" x2="308.11" y2="367.26"/>
  <line class="cls-1" x1="308.11" y1="375.93" x2="308.11" y2="377.42"/>
  <line class="cls-1" x1="258.82" y1="331.41" x2="258.82" y2="332.91"/>
  <line class="cls-1" x1="258.82" y1="341.27" x2="258.82" y2="342.77"/>
  <line class="cls-1" x1="258.82" y1="351.13" x2="258.82" y2="352.62"/>
  <line class="cls-1" x1="258.82" y1="360.99" x2="258.82" y2="362.48"/>
  <line class="cls-1" x1="258.82" y1="370.85" x2="258.82" y2="372.34"/>
  <line class="cls-1" x1="258.82" y1="380.71" x2="258.82" y2="382.2"/>
  <line class="cls-1" x1="302.43" y1="321.55" x2="302.43" y2="323.05"/>
  <line class="cls-1" x1="302.43" y1="331.11" x2="302.43" y2="333.21"/>
  <line class="cls-1" x1="302.43" y1="340.97" x2="302.43" y2="343.06"/>
  <line class="cls-1" x1="302.43" y1="351.13" x2="302.43" y2="352.92"/>
  <line class="cls-1" x1="302.43" y1="360.99" x2="302.43" y2="362.78"/>
  <line class="cls-1" x1="302.43" y1="370.85" x2="302.43" y2="372.64"/>
  <line class="cls-1" x1="302.43" y1="380.71" x2="302.43" y2="382.5"/>
  <line class="cls-1" x1="302.43" y1="390.57" x2="302.43" y2="392.36"/>
  <line class="cls-1" x1="264.49" y1="326.33" x2="264.49" y2="328.13"/>
  <line class="cls-1" x1="264.49" y1="336.19" x2="264.49" y2="337.99"/>
  <line class="cls-1" x1="264.49" y1="346.05" x2="264.49" y2="347.84"/>
  <line class="cls-1" x1="264.49" y1="355.91" x2="264.49" y2="357.7"/>
  <line class="cls-1" x1="264.49" y1="365.77" x2="264.49" y2="367.56"/>
  <line class="cls-1" x1="264.49" y1="375.63" x2="264.49" y2="377.42"/>
  <line class="cls-1" x1="264.49" y1="385.49" x2="264.49" y2="387.28"/>
  <line class="cls-1" x1="304.53" y1="389.37" x2="302.14" y2="390.57"/>
  <line class="cls-1" x1="264.49" y1="326.33" x2="260.31" y2="323.94"/>
  <line class="cls-1" x1="264.49" y1="336.19" x2="259.12" y2="332.91"/>
  <line class="cls-1" x1="264.49" y1="346.05" x2="259.12" y2="342.77"/>
  <line class="cls-1" x1="264.49" y1="355.91" x2="259.12" y2="352.62"/>
  <line class="cls-1" x1="264.49" y1="365.77" x2="259.12" y2="362.48"/>
  <line class="cls-1" x1="264.49" y1="375.63" x2="259.12" y2="372.64"/>
  <line class="cls-1" x1="264.49" y1="385.49" x2="259.12" y2="382.5"/>
  <line class="cls-1" x1="302.14" y1="321.55" x2="302.14" y2="321.55"/>
  <line class="cls-1" x1="307.81" y1="377.42" x2="302.14" y2="380.71"/>
  <line class="cls-1" x1="307.81" y1="367.56" x2="302.14" y2="370.85"/>
  <line class="cls-1" x1="307.81" y1="357.7" x2="302.14" y2="360.99"/>
  <line class="cls-1" x1="307.81" y1="347.84" x2="302.14" y2="351.13"/>
  <line class="cls-1" x1="307.81" y1="337.99" x2="302.14" y2="341.27"/>
  <line class="cls-1" x1="307.81" y1="328.13" x2="302.14" y2="331.41"/>
  <line class="cls-1" x1="301.84" y1="321.26" x2="302.43" y2="321.55"/>
  <line class="cls-1" x1="265.09" y1="321.26" x2="260.31" y2="323.94"/>
  <line class="cls-1" x1="313.19" y1="167.7" x2="315.88" y2="170.39"/>
  <line class="cls-1" x1="253.74" y1="167.7" x2="251.05" y2="170.39"/>
  <line class="cls-1" x1="315.88" y1="170.39" x2="315.88" y2="229.84"/>
  <polyline class="cls-1" points="251.05 170.39 251.05 229.84 265.09 234.92"/>
  <polyline class="cls-1" points="301.84 321.26 301.84 234.92 315.88 229.84"/>
  <line class="cls-1" x1="265.09" y1="234.92" x2="265.09" y2="321.26"/>
</svg>