<?xml version="1.0" encoding="UTF-8"?>
<svg id="Layer_1" data-name="Layer 1" xmlns="http://www.w3.org/2000/svg" viewBox="0 0 566.93 566.93">
  <defs>
    <style>
      .cls-1 {
        fill: none;
        stroke: #000;
        stroke-linecap: round;
        stroke-linejoin: round;
      }
    </style>
  </defs>
  <polyline class="cls-1" points="324.69 395.94 324.09 395.94 322.3 395.94 319.31 395.94 315.13 395.94 310.05 395.94 304.08 395.94 297.51 395.94 290.63 395.94 283.46 395.94 276.29 395.94 269.42 395.94 262.85 395.94 257.17 395.94 252.1 395.94 247.91 395.94 244.93 395.94 242.84 395.94 242.24 395.94"/>
  <polyline class="cls-1" points="236.26 389.37 237.76 389.37 240.74 389.37 244.63 389.37 249.71 389.37 255.38 389.37 261.66 389.37 268.83 389.37 276 389.37 283.46 389.37 290.93 389.37 298.4 389.37 305.27 389.37 311.85 389.37 317.52 389.37 322.3 389.37 326.19 389.37 329.17 389.37 330.97 389.37"/>
  <polyline class="cls-1" points="252.4 445.83 252.99 445.83 254.79 445.83 257.77 445.83 261.66 445.83 266.14 445.83 271.51 445.83 277.49 445.83 283.46 445.83 289.74 445.83 295.41 445.83 300.79 445.83 305.57 445.83 309.46 445.83 312.14 445.83 313.94 445.83 314.53 445.83"/>
  <polyline class="cls-1" points="317.52 442.85 316.92 442.85 315.43 442.85 312.74 442.85 309.46 442.85 305.27 442.85 300.49 442.85 295.12 442.85 289.44 442.85 283.46 442.85 277.79 442.85 271.81 442.85 266.74 442.85 261.66 442.85 257.47 442.85 254.19 442.85 251.8 442.85 250.3 442.85 249.71 442.85"/>
  <polyline class="cls-1" points="227 380.71 227.6 380.71 229.39 380.71 232.08 380.71 235.96 380.71 240.74 380.71 246.42 380.71 252.99 380.71 260.16 380.71 267.63 380.71 275.4 380.71 283.46 380.71 291.53 380.71 299.3 380.71 307.07 380.71 313.94 380.71 320.51 380.71 326.19 380.71 330.97 380.71 334.85 380.71 337.84 380.71 339.33 380.71 339.93 380.71"/>
  <polyline class="cls-1" points="339.93 375.03 339.33 375.03 337.84 375.03 334.85 375.03 330.97 375.03 326.19 375.03 320.51 375.03 313.94 375.03 307.07 375.03 299.3 375.03 291.53 375.03 283.46 375.03 275.4 375.03 267.63 375.03 260.16 375.03 252.99 375.03 246.42 375.03 240.74 375.03 235.96 375.03 232.08 375.03 229.39 375.03 227.6 375.03 227 375.03"/>
  <polyline class="cls-1" points="231.48 332.91 290.34 332.91 290.34 346.95 231.48 346.95 231.48 332.91"/>
  <polyline class="cls-1" points="231.48 290.49 290.34 290.49 290.34 304.53 231.48 304.53 231.48 290.49"/>
  <polyline class="cls-1" points="231.48 248.06 290.34 248.06 290.34 262.1 231.48 262.1 231.48 248.06"/>
  <polyline class="cls-1" points="231.48 205.64 290.34 205.64 290.34 219.98 231.48 219.98 231.48 205.64"/>
  <polyline class="cls-1" points="231.48 163.52 290.34 163.52 290.34 177.56 231.48 177.56 231.48 163.52"/>
  <polyline class="cls-1" points="231.48 121.1 290.34 121.1 290.34 135.14 231.48 135.14 231.48 121.1"/>
  <line class="cls-1" x1="328.58" y1="346.95" x2="328.58" y2="332.91"/>
  <line class="cls-1" x1="328.58" y1="304.53" x2="328.58" y2="290.49"/>
  <line class="cls-1" x1="328.58" y1="262.1" x2="328.58" y2="248.06"/>
  <line class="cls-1" x1="328.58" y1="219.98" x2="328.58" y2="205.64"/>
  <line class="cls-1" x1="328.58" y1="177.56" x2="328.58" y2="163.52"/>
  <polyline class="cls-1" points="290.34 135.14 297.8 135.14 304.97 135.14 311.85 135.14 318.12 135.14 323.8 135.14 328.58 135.14 328.58 121.1"/>
  <polyline class="cls-1" points="231.48 135.14 229.09 135.14 227.6 135.14 227 135.14"/>
  <polyline class="cls-1" points="328.58 121.1 323.8 121.1 318.12 121.1 311.85 121.1 304.97 121.1 297.8 121.1 290.34 121.1"/>
  <polyline class="cls-1" points="328.58 177.56 323.8 177.56 318.12 177.56 311.85 177.56 304.97 177.56 297.8 177.56 290.34 177.56"/>
  <polyline class="cls-1" points="231.48 177.56 229.09 177.56 227.6 177.56 227 177.56"/>
  <polyline class="cls-1" points="328.58 163.52 323.8 163.52 318.12 163.52 311.85 163.52 304.97 163.52 297.8 163.52 290.34 163.52"/>
  <polyline class="cls-1" points="328.58 219.98 323.8 219.98 318.12 219.98 311.85 219.98 304.97 219.98 297.8 219.98 290.34 219.98"/>
  <polyline class="cls-1" points="231.48 219.98 229.09 219.98 227.6 219.98 227 219.98"/>
  <polyline class="cls-1" points="328.58 205.64 323.8 205.64 318.12 205.64 311.85 205.64 304.97 205.64 297.8 205.64 290.34 205.64"/>
  <polyline class="cls-1" points="328.58 262.1 323.8 262.1 318.12 262.1 311.85 262.1 304.97 262.1 297.8 262.1 290.34 262.1"/>
  <polyline class="cls-1" points="231.48 262.1 229.09 262.1 227.6 262.1 227 262.1"/>
  <polyline class="cls-1" points="328.58 248.06 323.8 248.06 318.12 248.06 311.85 248.06 304.97 248.06 297.8 248.06 290.34 248.06"/>
  <polyline class="cls-1" points="328.58 304.53 323.8 304.53 318.12 304.53 311.85 304.53 304.97 304.53 297.8 304.53 290.34 304.53"/>
  <polyline class="cls-1" points="231.48 304.53 229.09 304.53 227.6 304.53 227 304.53"/>
  <polyline class="cls-1" points="328.58 290.49 323.8 290.49 318.12 290.49 311.85 290.49 304.97 290.49 297.8 290.49 290.34 290.49"/>
  <polyline class="cls-1" points="328.58 346.95 323.8 346.95 318.12 346.95 311.85 346.95 304.97 346.95 297.8 346.95 290.34 346.95"/>
  <polyline class="cls-1" points="231.48 346.95 229.09 346.95 227.6 346.95 227 346.95"/>
  <polyline class="cls-1" points="328.58 332.91 323.8 332.91 318.12 332.91 311.85 332.91 304.97 332.91 297.8 332.91 290.34 332.91"/>
  <polyline class="cls-1" points="231.48 121.1 229.09 121.1 227.6 121.1 227 121.1"/>
  <polyline class="cls-1" points="231.48 163.52 229.09 163.52 227.6 163.52 227 163.52"/>
  <polyline class="cls-1" points="231.48 205.64 229.09 205.64 227.6 205.64 227 205.64"/>
  <polyline class="cls-1" points="231.48 248.06 229.09 248.06 227.6 248.06 227 248.06"/>
  <polyline class="cls-1" points="231.48 290.49 229.09 290.49 227.6 290.49 227 290.49"/>
  <polyline class="cls-1" points="231.48 332.91 229.09 332.91 227.6 332.91 227 332.91"/>
  <line class="cls-1" x1="242.24" y1="395.94" x2="235.67" y2="389.37"/>
  <line class="cls-1" x1="324.69" y1="395.94" x2="331.56" y2="389.37"/>
  <line class="cls-1" x1="252.4" y1="445.83" x2="249.71" y2="442.85"/>
  <line class="cls-1" x1="314.53" y1="445.83" x2="317.52" y2="442.85"/>
  <line class="cls-1" x1="249.71" y1="442.85" x2="249.71" y2="395.94"/>
  <line class="cls-1" x1="317.52" y1="442.85" x2="317.52" y2="395.94"/>
  <line class="cls-1" x1="339.93" y1="375.03" x2="339.93" y2="380.71"/>
  <line class="cls-1" x1="227" y1="375.03" x2="227" y2="380.71"/>
  <line class="cls-1" x1="227" y1="121.1" x2="227" y2="135.14"/>
  <line class="cls-1" x1="327.38" y1="135.14" x2="327.38" y2="163.52"/>
  <line class="cls-1" x1="239.85" y1="135.14" x2="239.85" y2="163.52"/>
  <line class="cls-1" x1="227" y1="163.52" x2="227" y2="177.56"/>
  <line class="cls-1" x1="327.38" y1="177.56" x2="327.38" y2="205.64"/>
  <line class="cls-1" x1="239.85" y1="177.56" x2="239.85" y2="205.64"/>
  <line class="cls-1" x1="227" y1="205.64" x2="227" y2="219.98"/>
  <line class="cls-1" x1="327.38" y1="219.98" x2="327.38" y2="248.06"/>
  <line class="cls-1" x1="239.85" y1="219.98" x2="239.85" y2="248.06"/>
  <line class="cls-1" x1="227" y1="248.06" x2="227" y2="262.1"/>
  <line class="cls-1" x1="327.38" y1="262.1" x2="327.38" y2="290.49"/>
  <line class="cls-1" x1="239.85" y1="262.1" x2="239.85" y2="290.49"/>
  <line class="cls-1" x1="227" y1="290.49" x2="227" y2="304.53"/>
  <line class="cls-1" x1="327.38" y1="304.53" x2="327.38" y2="332.91"/>
  <line class="cls-1" x1="239.85" y1="304.53" x2="239.85" y2="332.91"/>
  <line class="cls-1" x1="227" y1="332.91" x2="227" y2="346.95"/>
  <line class="cls-1" x1="327.38" y1="346.95" x2="327.38" y2="375.03"/>
  <line class="cls-1" x1="239.85" y1="346.95" x2="239.85" y2="375.03"/>
  <line class="cls-1" x1="235.67" y1="389.37" x2="227" y2="380.71"/>
  <line class="cls-1" x1="331.56" y1="389.37" x2="339.93" y2="380.71"/>
</svg>