<?xml version="1.0" encoding="UTF-8"?>
<svg id="Layer_1" data-name="Layer 1" xmlns="http://www.w3.org/2000/svg" viewBox="0 0 566.93 566.93">
  <defs>
    <style>
      .cls-1 {
        fill: none;
        stroke: #000;
        stroke-linecap: round;
        stroke-linejoin: round;
      }
    </style>
  </defs>
  <polyline class="cls-1" points="303.93 373.09 303.93 373.39 303.63 373.39 303.33 373.39 303.03 373.39 302.73 373.39 302.43 373.39 302.14 373.69 301.84 373.69 301.24 373.69 300.94 373.69 300.34 373.69 300.05 373.69 299.45 373.69 298.85 373.69 298.55 373.69 297.95 373.69 297.36 373.98 296.76 373.98 296.16 373.98 295.27 373.98 294.67 373.98 294.07 373.98 293.47 373.98 292.58 373.98 291.98 373.98 291.08 374.28"/>
  <polyline class="cls-1" points="307.81 316.03 307.81 316.33 307.81 316.63 307.51 316.63 307.21 316.63 306.92 316.63 306.62 316.92 306.02 316.92 305.72 316.92 305.12 317.22 304.23 317.22 303.63 317.22 303.03 317.22 302.14 317.52 301.24 317.52 300.34 317.52 299.45 317.52 298.55 317.82 297.65 317.82 296.46 317.82 295.27 317.82 294.37 318.12 293.17 318.12 291.98 318.12 290.78 318.42 289.59 318.42 288.39 318.42 287.2 318.42 286 318.72 284.81 318.72 283.61 318.72 282.42 318.72 281.22 319.02 280.03 319.02 278.54 319.02 277.34 319.31 276.15 319.31 275.25 319.31 274.05 319.31 272.86 319.61 271.66 319.61 270.77 319.61 269.57 319.61 268.68 319.91 267.78 319.91 266.88 319.91 265.99 319.91 265.09 320.21 264.2 320.21 263.6 320.21 263 320.51 262.1 320.51 261.51 320.51 261.21 320.51 260.61 320.81 260.31 320.81 259.71 320.81 259.42 320.81 259.42 321.11 259.12 321.11 258.82 321.11"/>
  <polyline class="cls-1" points="307.81 325.89 307.81 326.19 307.51 326.48 307.21 326.48 306.62 326.78 306.32 326.78 306.02 326.78 305.42 326.78 304.82 327.08 304.23 327.08 303.63 327.08 302.73 327.08 302.14 327.38 301.24 327.38 300.34 327.38 299.45 327.68 298.55 327.68 297.65 327.68 296.46 327.68 295.56 327.98 294.37 327.98 293.17 327.98 292.28 327.98 291.08 328.28 289.89 328.28 288.69 328.28 287.5 328.28 286 328.58 284.81 328.58 283.61 328.58 282.42 328.87 281.22 328.87 280.03 328.87 278.83 328.87 277.34 329.17 276.15 329.17 275.25 329.17 274.05 329.17 272.86 329.47 271.66 329.47 270.47 329.47 269.57 329.47 268.68 329.77 267.48 329.77 266.59 329.77 265.69 330.07 264.79 330.07 264.2 330.07 263.3 330.07 262.7 330.37 262.1 330.37 261.51 330.37 261.21 330.37 260.61 330.67 260.31 330.67 260.01 330.67 259.71 330.67 259.42 330.97 259.12 330.97 259.12 331.26"/>
  <polyline class="cls-1" points="307.51 335.75 307.81 336.04 307.81 336.34 307.51 336.34 307.21 336.34 306.92 336.64 306.62 336.64 306.02 336.64 305.72 336.64 305.12 336.94 304.53 336.94 303.63 336.94 303.03 337.24 302.14 337.24 301.24 337.24 300.34 337.24 299.45 337.54 298.55 337.54 297.65 337.54 296.46 337.54 295.56 337.84 294.37 337.84 293.17 337.84 291.98 337.84 290.78 338.14 289.59 338.14 288.39 338.14 287.2 338.43 286 338.43 284.81 338.43 283.61 338.43 282.42 338.73 281.22 338.73 279.73 338.73 278.54 338.73 277.34 339.03 276.15 339.03 274.95 339.03 274.05 339.03 272.86 339.33 271.66 339.33 270.77 339.33 269.57 339.63 268.68 339.63 267.78 339.63 266.88 339.63 265.99 339.93 265.09 339.93 264.2 339.93 263.6 339.93 263 340.23 262.4 340.23 261.81 340.23 261.21 340.23 260.61 340.53 260.31 340.53 260.01 340.53 259.71 340.82 259.42 340.82 259.12 340.82 259.12 341.12"/>
  <polyline class="cls-1" points="307.81 345.9 308.11 345.9 307.81 346.2 307.51 346.2 307.21 346.2 306.92 346.5 306.32 346.5 306.02 346.5 305.42 346.8 304.82 346.8 304.23 346.8 303.63 346.8 302.73 347.1 302.14 347.1 301.24 347.1 300.34 347.1 299.45 347.4 298.55 347.4 297.65 347.4 296.46 347.4 295.56 347.69 294.37 347.69 293.17 347.69 292.28 347.99 291.08 347.99 289.89 347.99 288.69 347.99 287.2 348.29 286 348.29 284.81 348.29 283.61 348.29 282.42 348.59 281.22 348.59 280.03 348.59 278.83 348.59 277.64 348.89 276.44 348.89 275.25 348.89 274.05 349.19 272.86 349.19 271.66 349.19 270.77 349.19 269.57 349.49 268.68 349.49 267.78 349.49 266.59 349.49 265.69 349.79 265.09 349.79 264.2 349.79 263.3 349.79 262.7 350.08 262.1 350.08 261.51 350.08 260.91 350.38 260.61 350.38 260.01 350.38 259.71 350.38 259.42 350.68 259.12 350.68 259.12 350.98"/>
  <polyline class="cls-1" points="307.51 355.76 307.81 355.76 307.81 356.06 307.51 356.06 307.21 356.36 306.92 356.36 306.62 356.36 306.02 356.36 305.42 356.66 305.12 356.66 304.53 356.66 303.63 356.66 303.03 356.96 302.14 356.96 301.54 356.96 300.64 356.96 299.45 357.25 298.55 357.25 297.65 357.25 296.46 357.55 295.56 357.55 294.37 357.55 293.17 357.55 291.98 357.85 290.78 357.85 289.59 357.85 288.39 357.85 287.2 358.15 286 358.15 284.81 358.15 283.61 358.15 282.42 358.45 281.22 358.45 279.73 358.45 278.54 358.75 277.34 358.75 276.15 358.75 274.95 358.75 273.76 359.05 272.86 359.05 271.66 359.05 270.47 359.05 269.57 359.35 268.68 359.35 267.48 359.35 266.59 359.35 265.99 359.64 265.09 359.64 264.2 359.64 263.6 359.94 263 359.94 262.4 359.94 261.81 359.94 261.21 360.24 260.61 360.24 260.31 360.24 260.01 360.24 259.71 360.54 259.42 360.54 259.12 360.84"/>
  <polyline class="cls-1" points="307.81 365.62 308.11 365.62 308.11 365.92 307.81 365.92 307.51 365.92 307.21 366.22 306.92 366.22 306.62 366.22 306.02 366.22 305.42 366.52 304.82 366.52 304.23 366.52 303.63 366.52 302.73 366.81 302.14 366.81 301.24 366.81 300.34 367.11 299.45 367.11 298.55 367.11 297.65 367.11 296.46 367.41 295.56 367.41 294.37 367.41 293.17 367.41 291.98 367.71 291.08 367.71 289.89 367.71 288.69 367.71 287.2 368.01 286 368.01 284.81 368.01 283.61 368.31 282.42 368.31 281.22 368.31 280.03 368.31 278.83 368.61 277.64 368.61 276.44 368.61 275.25 368.61 274.05 368.91 272.86 368.91 271.66 368.91 270.77 369.2 269.57 369.2 268.68 369.2 267.78 369.2 266.88 369.5 265.99 369.5 265.09 369.5 264.2 369.5 263.6 369.8 262.7 369.8 262.1 369.8 261.51 369.8 260.91 370.1 260.61 370.1 260.01 370.1 259.71 370.4 259.42 370.4 259.12 370.4 259.12 370.7 258.82 370.7"/>
  <polyline class="cls-1" points="302.14 313.04 302.14 313.34 301.84 313.34 301.54 313.34 301.24 313.64 300.94 313.64 300.64 313.64 300.34 313.64 300.05 313.94 299.45 313.94 298.85 313.94 298.55 313.94 297.95 314.24 297.36 314.24 296.76 314.24 295.86 314.24 295.27 314.53 294.67 314.53 293.77 314.53 293.17 314.53 292.28 314.83 291.68 314.83 290.78 314.83 289.89 314.83 288.99 315.13 288.39 315.13 287.5 315.13 286.6 315.13 285.71 315.43 284.81 315.43 283.91 315.43 283.02 315.43 282.12 315.73 281.22 315.73 280.33 315.73 279.43 315.73 278.83 316.03 277.94 316.03 277.04 316.03 276.15 316.03 275.55 316.33 274.65 316.33 273.76 316.33 273.16 316.33 272.56 316.63 271.66 316.63 271.07 316.63 270.47 316.63 269.87 316.92 269.27 316.92 268.68 316.92 268.38 316.92 267.78 317.22 267.18 317.22 266.88 317.22 266.59 317.22 266.29 317.52 265.99 317.52 265.69 317.52 265.39 317.52 265.09 317.82"/>
  <polyline class="cls-1" points="302.43 322.9 302.43 323.2 302.14 323.2 301.84 323.2 301.54 323.5 301.24 323.5 300.94 323.5 300.64 323.5 300.34 323.8 299.75 323.8 299.45 323.8 298.85 323.8 298.25 324.09 297.65 324.09 297.06 324.09 296.46 324.09 295.86 324.39 295.27 324.39 294.67 324.39 293.77 324.39 293.17 324.69 292.28 324.69 291.68 324.69 290.78 324.69 289.89 324.99 288.99 324.99 288.39 324.99 287.5 324.99 286.6 324.99 285.71 325.29 284.81 325.29 283.91 325.29 283.02 325.29 282.12 325.59 281.22 325.59 280.33 325.59 279.43 325.59 278.83 325.89 277.94 325.89 277.04 325.89 276.15 325.89 275.55 326.19 274.65 326.19 274.05 326.19 273.16 326.19 272.56 326.48 271.66 326.48 271.07 326.48 270.47 326.48 269.87 326.78 269.27 326.78 268.68 326.78 268.38 326.78 267.78 327.08 267.18 327.08 266.88 327.08 266.59 327.08 265.99 327.38 265.69 327.38 265.39 327.38 265.09 327.38 265.09 327.68 264.79 327.68"/>
  <polyline class="cls-1" points="302.43 332.76 302.43 333.06 302.14 333.06 301.84 333.06 301.54 333.36 301.24 333.36 300.94 333.36 300.64 333.36 300.34 333.65 299.75 333.65 299.45 333.65 298.85 333.65 298.25 333.95 297.65 333.95 297.06 333.95 296.46 333.95 295.86 334.25 295.27 334.25 294.67 334.25 293.77 334.25 293.17 334.55 292.28 334.55 291.68 334.55 290.78 334.55 289.89 334.85 289.29 334.85 288.39 334.85 287.5 334.85 286.6 335.15 285.71 335.15 284.81 335.15 283.91 335.15 283.02 335.45 282.12 335.45 281.22 335.45 280.63 335.45 279.73 335.75 278.83 335.75 277.94 335.75 277.04 335.75 276.44 336.04 275.55 336.04 274.65 336.04 274.05 336.04 273.16 336.34 272.56 336.34 271.66 336.34 271.07 336.34 270.47 336.64 269.87 336.64 269.27 336.64 268.68 336.64 268.08 336.64 267.48 336.94 267.18 336.94 266.59 336.94 266.29 336.94 265.99 337.24 265.69 337.24 265.39 337.24 265.09 337.24 265.09 337.54 264.79 337.54"/>
  <polyline class="cls-1" points="302.43 342.62 302.14 342.62 302.14 342.92 301.84 342.92 301.54 342.92 301.54 343.21 301.24 343.21 300.94 343.21 300.64 343.21 300.05 343.51 299.75 343.51 299.15 343.51 298.85 343.51 298.25 343.81 297.65 343.81 297.06 343.81 296.46 343.81 295.86 344.11 295.27 344.11 294.67 344.11 293.77 344.11 293.17 344.41 292.28 344.41 291.68 344.41 290.78 344.41 289.89 344.71 289.29 344.71 288.39 344.71 287.5 344.71 286.6 345.01 285.71 345.01 284.81 345.01 283.91 345.01 283.02 345.31 282.12 345.31 281.52 345.31 280.63 345.31 279.73 345.6 278.83 345.6 277.94 345.6 277.04 345.6 276.44 345.9 275.55 345.9 274.65 345.9 274.05 345.9 273.16 346.2 272.56 346.2 271.66 346.2 271.07 346.2 270.47 346.5 269.87 346.5 269.27 346.5 268.68 346.5 268.08 346.8 267.48 346.8 267.18 346.8 266.59 346.8 266.29 347.1 265.99 347.1 265.69 347.1 265.39 347.1 265.09 347.4 264.79 347.4"/>
  <polyline class="cls-1" points="302.14 352.47 302.14 352.77 301.84 352.77 301.54 353.07 301.24 353.07 300.94 353.07 300.64 353.37 300.05 353.37 299.75 353.37 299.45 353.37 298.85 353.67 298.25 353.67 297.95 353.67 297.36 353.67 296.76 353.97 296.16 353.97 295.27 353.97 294.67 353.97 294.07 354.27 293.17 354.27 292.58 354.27 291.68 354.27 290.78 354.27 289.89 354.57 289.29 354.57 288.39 354.57 287.5 354.57 286.6 354.86 285.71 354.86 284.81 354.86 283.91 354.86 283.02 355.16 282.12 355.16 281.22 355.16 280.63 355.16 279.73 355.46 278.83 355.46 277.94 355.46 277.04 355.46 276.15 355.76 275.55 355.76 274.65 355.76 273.76 355.76 273.16 356.06 272.26 356.06 271.66 356.06 271.07 356.06 270.47 356.36 269.57 356.36 268.98 356.36 268.68 356.36 268.08 356.66 267.48 356.66 267.18 356.66 266.59 356.66 266.29 356.96 265.99 356.96 265.69 356.96 265.39 356.96 265.39 357.25 265.09 357.25"/>
  <polyline class="cls-1" points="302.14 362.33 302.14 362.63 301.84 362.63 301.54 362.93 301.24 362.93 300.94 362.93 300.64 363.23 300.34 363.23 299.75 363.23 299.45 363.23 298.85 363.53 298.55 363.53 297.95 363.53 297.36 363.53 296.76 363.83 296.16 363.83 295.27 363.83 294.67 363.83 294.07 364.13 293.17 364.13 292.58 364.13 291.68 364.13 290.78 364.42 289.89 364.42 289.29 364.42 288.39 364.42 287.5 364.72 286.6 364.72 285.71 364.72 284.81 364.72 283.91 365.02 283.02 365.02 282.12 365.02 281.22 365.02 280.33 365.32 279.43 365.32 278.83 365.32 277.94 365.32 277.04 365.62 276.15 365.62 275.25 365.62 274.65 365.62 273.76 365.92 273.16 365.92 272.26 365.92 271.66 365.92 271.07 365.92 270.47 366.22 269.87 366.22 269.27 366.22 268.68 366.22 268.08 366.52 267.78 366.52 267.18 366.52 266.88 366.52 266.59 366.81 265.99 366.81 265.69 366.81 265.39 367.11 265.09 367.11"/>
  <polyline class="cls-1" points="302.14 372.19 302.14 372.49 301.84 372.79 301.54 372.79 301.24 372.79 300.64 373.09 300.05 373.09 299.45 373.39 298.55 373.39 297.65 373.39 296.76 373.69 295.86 373.69 294.67 373.69 293.47 373.98 292.28 373.98 291.08 374.28"/>
  <polyline class="cls-1" points="264.79 316.03 265.09 315.73 265.39 315.73 265.69 315.73 265.69 315.43 265.99 315.43 266.59 315.43 266.88 315.43 267.18 315.13 267.78 315.13 268.08 315.13 268.68 315.13 269.27 314.83 269.57 314.83 270.17 314.83 271.07 314.83 271.66 314.53 272.26 314.53 273.16 314.53 273.76 314.53 274.65 314.24 275.25 314.24 276.15 314.24 277.04 314.24 277.94 313.94 278.54 313.94 279.43 313.94 280.33 313.94 281.22 313.64 282.12 313.64 283.02 313.64 283.91 313.64 284.81 313.34 285.71 313.34 286.6 313.34 287.5 313.34 288.39 313.04 288.99 313.04 289.89 313.04 290.78 313.04 291.68 312.74 292.28 312.74 293.17 312.74 293.77 312.74 294.67 312.44 295.27 312.44 296.16 312.44 296.76 312.44 297.36 312.14 297.95 312.14 298.55 312.14 298.85 312.14 299.45 311.85 300.05 311.85 300.34 311.85 300.64 311.85 300.94 311.55 301.24 311.55 301.54 311.55 301.84 311.55 302.14 311.25 302.43 311.25"/>
  <polyline class="cls-1" points="264.79 325.89 265.09 325.59 265.39 325.59 265.69 325.59 265.99 325.29 266.29 325.29 266.59 325.29 266.88 325.29 267.18 324.99 267.78 324.99 268.08 324.99 268.68 324.99 269.27 324.69 269.87 324.69 270.47 324.69 271.07 324.69 271.66 324.39 272.26 324.39 273.16 324.39 273.76 324.39 274.65 324.09 275.25 324.09 276.15 324.09 277.04 324.09 277.94 323.8 278.54 323.8 279.43 323.8 280.33 323.8 281.22 323.5 282.12 323.5 283.02 323.5 283.91 323.5 284.81 323.2 285.71 323.2 286.6 323.2 287.5 323.2 288.1 322.9 288.99 322.9 289.89 322.9 290.78 322.9 291.68 322.9 292.28 322.6 293.17 322.6 293.77 322.6 294.67 322.6 295.27 322.3 295.86 322.3 296.76 322.3 297.36 322.3 297.95 322 298.55 322 298.85 322 299.45 322 300.05 321.7 300.34 321.7 300.64 321.7 300.94 321.7 301.24 321.41 301.54 321.41 301.84 321.41 302.14 321.11"/>
  <polyline class="cls-1" points="264.49 335.75 264.79 335.75 264.79 335.45 265.09 335.45 265.39 335.45 265.69 335.15 265.99 335.15 266.59 335.15 266.88 335.15 267.18 334.85 267.78 334.85 268.08 334.85 268.68 334.85 269.27 334.55 269.87 334.55 270.47 334.55 271.07 334.55 271.66 334.55 272.56 334.25 273.16 334.25 273.76 334.25 274.65 334.25 275.55 333.95 276.15 333.95 277.04 333.95 277.94 333.95 278.54 333.65 279.43 333.65 280.33 333.65 281.22 333.65 282.12 333.36 283.02 333.36 283.91 333.36 284.81 333.36 285.71 333.06 286.6 333.06 287.5 333.06 288.1 333.06 288.99 332.76 289.89 332.76 290.78 332.76 291.38 332.76 292.28 332.46 293.17 332.46 293.77 332.46 294.67 332.46 295.27 332.16 295.86 332.16 296.46 332.16 297.06 332.16 297.65 331.86 298.25 331.86 298.85 331.86 299.45 331.86 299.75 331.56 300.34 331.56 300.64 331.56 300.94 331.56 301.24 331.26 301.54 331.26 301.84 331.26 302.14 331.26 302.14 330.97"/>
  <polyline class="cls-1" points="264.49 345.6 264.79 345.6 265.09 345.31 265.39 345.31 265.69 345.31 265.99 345.01 266.29 345.01 266.88 345.01 267.18 345.01 267.78 344.71 268.08 344.71 268.68 344.71 269.27 344.71 269.87 344.41 270.47 344.41 271.07 344.41 271.66 344.41 272.56 344.11 273.16 344.11 274.05 344.11 274.65 344.11 275.55 343.81 276.15 343.81 277.04 343.81 277.94 343.81 278.83 343.51 279.43 343.51 280.33 343.51 281.22 343.51 282.12 343.21 283.02 343.21 283.91 343.21 284.81 343.21 285.71 342.92 286.6 342.92 287.5 342.92 288.39 342.92 288.99 342.62 289.89 342.62 290.78 342.62 291.38 342.62 292.28 342.32 293.17 342.32 293.77 342.32 294.37 342.32 295.27 342.02 295.86 342.02 296.46 342.02 297.06 342.02 297.65 341.72 298.25 341.72 298.85 341.72 299.45 341.72 299.75 341.42 300.34 341.42 300.64 341.42 300.94 341.42 301.24 341.12 301.54 341.12 301.84 341.12 302.14 341.12 302.14 340.82"/>
  <polyline class="cls-1" points="264.79 355.46 265.09 355.16 265.39 355.16 265.69 355.16 265.99 354.86 266.29 354.86 266.59 354.86 267.18 354.86 267.48 354.57 268.08 354.57 268.68 354.57 269.27 354.57 269.87 354.27 270.47 354.27 271.07 354.27 271.66 354.27 272.56 353.97 273.16 353.97 273.76 353.97 274.65 353.97 275.55 353.67 276.15 353.67 277.04 353.67 277.94 353.67 278.83 353.37 279.73 353.37 280.33 353.37 281.22 353.37 282.12 353.07 283.02 353.07 283.91 353.07 284.81 353.07 285.71 352.77 286.6 352.77 287.5 352.77 288.39 352.77 289.29 352.47 289.89 352.47 290.78 352.47 291.68 352.47 292.28 352.18 293.17 352.18 293.77 352.18 294.67 352.18 295.27 352.18 295.86 351.88 296.46 351.88 297.06 351.88 297.65 351.88 298.25 351.58 298.85 351.58 299.15 351.58 299.75 351.58 300.05 351.28 300.64 351.28 300.94 351.28 301.24 351.28 301.54 350.98 301.84 350.98 302.14 350.98"/>
  <polyline class="cls-1" points="264.79 365.32 265.09 365.32 265.09 365.02 265.39 365.02 265.69 365.02 265.99 364.72 266.29 364.72 266.59 364.72 267.18 364.72 267.48 364.42 268.08 364.42 268.68 364.42 268.98 364.42 269.57 364.13 270.17 364.13 271.07 364.13 271.66 364.13 272.26 363.83 273.16 363.83 273.76 363.83 274.65 363.83 275.55 363.83 276.15 363.53 277.04 363.53 277.94 363.53 278.83 363.53 279.73 363.23 280.33 363.23 281.22 363.23 282.12 363.23 283.02 362.93 283.91 362.93 284.81 362.93 285.71 362.93 286.6 362.63 287.5 362.63 288.39 362.63 289.29 362.63 289.89 362.33 290.78 362.33 291.68 362.33 292.28 362.33 293.17 362.03 293.77 362.03 294.67 362.03 295.27 362.03 295.86 361.74 296.46 361.74 297.06 361.74 297.65 361.74 298.25 361.44 298.85 361.44 299.15 361.44 299.75 361.44 300.05 361.14 300.64 361.14 300.94 361.14 301.24 361.14 301.54 360.84 301.84 360.84 302.14 360.84"/>
  <polyline class="cls-1" points="291.08 374.28 286.6 374.28 282.12 374.28 277.34 374.28 273.16 374.28 269.57 374.28 270.47 373.98 271.66 373.98 272.56 373.69 273.76 373.69 274.95 373.69 276.15 373.39 277.34 373.39 278.83 373.39 280.03 373.09 281.22 373.09 282.72 372.79 283.91 372.79 285.11 372.79 286.6 372.49 287.8 372.49 289.29 372.49 290.48 372.19 291.68 372.19 292.88 372.19 294.07 371.89 294.97 371.89 296.16 371.59 297.06 371.59 297.95 371.59 298.55 371.3 299.45 371.3 300.05 371.3 300.64 371 300.94 371 301.54 370.7 301.84 370.7"/>
  <line class="cls-1" x1="265.69" y1="371" x2="269.57" y2="374.28"/>
  <polyline class="cls-1" points="260.61 313.64 260.31 313.64 260.61 313.64 260.91 313.64 261.21 313.64 261.51 313.34 261.81 313.34 262.1 313.34 262.7 313.34 263 313.34 263.6 313.34 264.2 313.34 264.79 313.34 265.39 313.04 265.99 313.04 266.59 313.04 267.48 313.04 268.38 313.04 268.98 313.04 269.87 313.04 270.77 313.04 271.66 312.74 272.56 312.74 273.46 312.74 274.35 312.74 275.25 312.74 276.44 312.74 277.34 312.74 278.24 312.74 279.43 312.44 280.33 312.44 281.52 312.44 282.42 312.44 283.61 312.44 284.51 312.44 285.71 312.44 286.6 312.44 287.5 312.14 288.69 312.14 289.59 312.14 290.48 312.14 291.38 312.14 292.28 312.14 293.17 312.14 294.07 311.85 294.97 311.85 295.86 311.85 296.46 311.85 297.06 311.85 297.95 311.85 298.55 311.85 299.15 311.85 299.75 311.55 300.05 311.55 300.64 311.55 300.94 311.55 301.24 311.55 301.54 311.55 301.84 311.55 302.14 311.25"/>
  <polyline class="cls-1" points="265.69 371 266.29 370.7 266.88 370.7 267.48 370.7 268.38 370.7 268.98 370.7 269.87 370.4 270.47 370.4 271.37 370.4 271.96 370.4 272.86 370.4 273.76 370.1 274.65 370.1 275.55 370.1 276.44 370.1 277.34 370.1 278.24 369.8 279.13 369.8 280.03 369.8 280.93 369.8 281.82 369.8 282.72 369.8 283.61 369.5 284.51 369.5 285.41 369.5 286.3 369.5 287.2 369.5 288.1 369.2 288.99 369.2 289.89 369.2 290.78 369.2 291.68 369.2 292.58 368.91 293.47 368.91 294.07 368.91 294.97 368.91 295.86 368.91 296.46 368.61 297.36 368.61 297.95 368.61 298.85 368.61 299.45 368.61 300.05 368.31 300.94 368.31 301.54 368.31 302.14 368.31 302.43 368.31 303.03 368.01 303.63 368.01 304.23 368.01 304.53 368.01 305.12 368.01 305.42 367.71 305.72 367.71 306.02 367.71 306.32 367.71 306.62 367.71 306.92 367.41 307.21 367.41 307.51 367.41 307.81 367.41 307.81 367.11"/>
  <polyline class="cls-1" points="259.12 362.33 259.12 362.03 259.42 361.74 259.71 361.74 260.01 361.74 260.61 361.74 260.91 361.44 261.51 361.44 262.1 361.44 262.7 361.44 263.3 361.14 264.2 361.14 264.79 361.14 265.69 361.14 266.59 360.84 267.48 360.84 268.38 360.84 269.57 360.54 270.47 360.54 271.66 360.54 272.56 360.54 273.76 360.24 274.95 360.24 276.15 360.24 277.34 360.24 278.54 359.94 279.73 359.94 280.93 359.94 282.12 359.94 283.32 359.64 284.51 359.64 286 359.64 287.2 359.35 288.39 359.35 289.59 359.35 290.78 359.35 291.98 359.05 292.88 359.05 294.07 359.05 295.27 359.05 296.16 358.75 297.36 358.75 298.25 358.75 299.15 358.75 300.34 358.45 301.24 358.45 301.84 358.45 302.73 358.15 303.63 358.15 304.23 358.15 304.82 358.15 305.42 357.85 306.02 357.85 306.62 357.85 306.92 357.85 307.21 357.55 307.51 357.55 307.81 357.55 308.11 357.25"/>
  <polyline class="cls-1" points="259.42 352.47 259.12 352.47 259.12 352.18 259.42 352.18 259.71 351.88 260.01 351.88 260.31 351.88 260.61 351.88 260.91 351.58 261.51 351.58 262.1 351.58 262.7 351.58 263.3 351.28 263.9 351.28 264.79 351.28 265.69 350.98 266.59 350.98 267.48 350.98 268.38 350.98 269.27 350.68 270.47 350.68 271.37 350.68 272.56 350.68 273.76 350.38 274.95 350.38 276.15 350.38 277.34 350.38 278.54 350.08 279.73 350.08 280.93 350.08 282.12 349.79 283.32 349.79 284.51 349.79 286 349.79 287.2 349.49 288.39 349.49 289.59 349.49 290.78 349.49 291.98 349.19 293.17 349.19 294.37 349.19 295.27 349.19 296.46 348.89 297.36 348.89 298.55 348.89 299.45 348.59 300.34 348.59 301.24 348.59 302.14 348.59 302.73 348.29 303.63 348.29 304.23 348.29 304.82 348.29 305.42 347.99 305.72 347.99 306.32 347.99 306.62 347.69 306.92 347.69 307.21 347.69 307.51 347.69 307.51 347.4 307.81 347.4"/>
  <polyline class="cls-1" points="259.42 342.62 259.12 342.62 259.12 342.32 259.42 342.02 259.71 342.02 260.01 342.02 260.31 342.02 260.91 341.72 261.51 341.72 262.1 341.72 262.7 341.42 263.3 341.42 264.2 341.42 264.79 341.42 265.69 341.12 266.59 341.12 267.48 341.12 268.38 341.12 269.57 340.82 270.47 340.82 271.66 340.82 272.56 340.82 273.76 340.53 274.95 340.53 276.15 340.53 277.34 340.23 278.54 340.23 279.73 340.23 280.93 340.23 282.12 339.93 283.32 339.93 284.51 339.93 286 339.93 287.2 339.63 288.39 339.63 289.59 339.63 290.78 339.63 291.98 339.33 293.17 339.33 294.07 339.33 295.27 339.03 296.46 339.03 297.36 339.03 298.25 339.03 299.15 338.73 300.05 338.73 300.94 338.73 301.84 338.73 302.73 338.43 303.33 338.43 304.23 338.43 304.82 338.14 305.42 338.14 306.02 338.14 306.32 338.14 306.92 337.84 307.21 337.84 307.51 337.84 307.81 337.84 307.81 337.54 308.11 337.54"/>
  <polyline class="cls-1" points="259.12 332.76 259.12 332.46 259.42 332.46 259.71 332.16 260.01 332.16 260.31 332.16 260.61 331.86 261.21 331.86 261.51 331.86 262.1 331.86 262.7 331.56 263.3 331.56 264.2 331.56 264.79 331.56 265.69 331.26 266.59 331.26 267.48 331.26 268.38 331.26 269.27 330.97 270.47 330.97 271.37 330.97 272.56 330.67 273.76 330.67 274.95 330.67 276.15 330.67 277.34 330.37 278.54 330.37 279.73 330.37 280.93 330.37 282.12 330.07 283.32 330.07 284.51 330.07 285.71 329.77 287.2 329.77 288.39 329.77 289.59 329.77 290.78 329.47 291.98 329.47 293.17 329.47 294.07 329.47 295.27 329.17 296.46 329.17 297.36 329.17 298.55 329.17 299.45 328.87 300.34 328.87 301.24 328.87 302.14 328.58 302.73 328.58 303.63 328.58 304.23 328.58 304.82 328.28 305.42 328.28 306.02 328.28 306.32 328.28 306.92 327.98 307.21 327.98 307.51 327.98 307.81 327.68"/>
  <polyline class="cls-1" points="259.42 322.9 259.12 322.9 259.12 322.6 259.42 322.3 259.71 322.3 260.01 322.3 260.31 322 260.91 322 261.51 322 262.1 322 262.7 321.7 263.3 321.7 263.9 321.7 264.79 321.7 265.69 321.41 266.59 321.41 267.48 321.41 268.38 321.11 269.57 321.11 270.47 321.11 271.66 321.11 272.56 320.81 273.76 320.81 274.95 320.81 276.15 320.81 277.34 320.51 278.54 320.51 279.73 320.51 280.93 320.21 282.12 320.21 283.32 320.21 284.81 320.21 286 319.91 287.2 319.91 288.39 319.91 289.59 319.91 290.78 319.61 291.98 319.61 293.17 319.61 294.37 319.61 295.27 319.31 296.46 319.31 297.36 319.31 298.25 319.02 299.45 319.02 300.34 319.02 301.24 319.02 301.84 318.72 302.73 318.72 303.33 318.72 304.23 318.72 304.82 318.42 305.42 318.42 305.72 318.42 306.32 318.42 306.62 318.12 307.21 318.12 307.51 318.12 307.51 317.82 307.81 317.82 308.11 317.82"/>
  <polyline class="cls-1" points="310.2 183.38 309.9 183.38 308.41 183.38 305.72 183.38 302.43 183.38 298.55 183.38 293.77 183.38 288.69 183.38 283.61 183.38 278.24 183.38 273.16 183.38 268.68 183.38 264.49 183.38 261.21 183.38 258.82 183.38 257.32 183.38 256.73 183.38"/>
  <polyline class="cls-1" points="253.44 186.07 254.04 186.07 255.53 186.07 258.52 186.07 262.1 186.07 266.88 186.07 271.96 186.07 277.64 186.07 283.61 186.07 289.29 186.07 294.97 186.07 300.34 186.07 304.82 186.07 308.41 186.07 311.4 186.07 313.19 186.07 313.49 186.07"/>
  <polyline class="cls-1" points="315.88 199.22 315.28 199.22 313.49 199.22 310.5 199.22 306.32 199.22 301.54 199.22 295.86 199.22 289.89 199.22 283.61 199.22 277.04 199.22 271.07 199.22 265.39 199.22 260.61 199.22 256.43 199.22 253.44 199.22 251.65 199.22 251.05 199.22"/>
  <polyline class="cls-1" points="298.25 308.86 297.95 308.86 296.46 308.86 294.07 308.86 290.78 308.86 287.2 308.86 283.61 308.86 279.73 308.86 276.15 308.86 273.16 308.86 270.77 308.86 269.27 308.86 268.68 308.86"/>
  <polyline class="cls-1" points="298.25 267.63 297.95 267.63 296.46 267.63 294.07 267.63 290.78 267.63 287.2 267.63 283.61 267.63 279.73 267.63 276.15 267.63 273.16 267.63 270.77 267.63 269.27 267.63 268.68 267.63"/>
  <polyline class="cls-1" points="306.92 258.97 306.32 258.97 304.53 258.97 301.84 258.97 298.25 258.97 293.77 258.97 288.69 258.97 283.61 258.97 278.24 258.97 273.46 258.97 268.98 258.97 265.09 258.97 262.4 258.97 260.61 258.97 260.01 258.97"/>
  <polyline class="cls-1" points="306.92 227.6 306.32 227.6 304.53 227.6 301.84 227.6 298.25 227.6 293.77 227.6 288.69 227.6 283.61 227.6 278.24 227.6 273.46 227.6 268.98 227.6 265.09 227.6 262.4 227.6 260.61 227.6 260.01 227.6"/>
  <polyline class="cls-1" points="300.34 375.18 299.75 375.18 298.25 375.18 295.56 375.18 291.98 375.18 287.8 375.18 283.61 375.18 279.13 375.18 274.95 375.18 271.66 375.18 268.98 375.18 267.18 375.18 266.59 375.18"/>
  <polyline class="cls-1" points="258.82 371 259.71 371 262.1 371 265.69 371"/>
  <polyline class="cls-1" points="315.88 224.31 315.28 224.31 313.49 224.31 310.5 224.31 306.32 224.31 301.54 224.31 295.86 224.31 289.89 224.31 283.61 224.31 277.04 224.31 271.07 224.31 265.39 224.31 260.61 224.31 256.43 224.31 253.44 224.31 251.65 224.31 251.05 224.31"/>
  <line class="cls-1" x1="259.12" y1="321.11" x2="264.79" y2="317.82"/>
  <line class="cls-1" x1="259.12" y1="330.97" x2="264.79" y2="327.68"/>
  <line class="cls-1" x1="259.12" y1="340.82" x2="264.79" y2="337.54"/>
  <line class="cls-1" x1="259.12" y1="350.68" x2="264.79" y2="347.4"/>
  <line class="cls-1" x1="259.12" y1="360.54" x2="264.79" y2="357.25"/>
  <line class="cls-1" x1="259.12" y1="370.4" x2="264.79" y2="367.11"/>
  <line class="cls-1" x1="302.43" y1="313.04" x2="307.81" y2="316.03"/>
  <line class="cls-1" x1="302.43" y1="322.9" x2="307.81" y2="325.89"/>
  <line class="cls-1" x1="302.43" y1="332.76" x2="307.81" y2="335.75"/>
  <line class="cls-1" x1="302.43" y1="342.62" x2="307.81" y2="345.9"/>
  <line class="cls-1" x1="302.43" y1="352.47" x2="307.81" y2="355.76"/>
  <line class="cls-1" x1="302.43" y1="362.33" x2="307.81" y2="365.62"/>
  <line class="cls-1" x1="302.43" y1="372.19" x2="303.93" y2="373.09"/>
  <line class="cls-1" x1="302.43" y1="311.25" x2="302.43" y2="313.04"/>
  <line class="cls-1" x1="302.43" y1="321.11" x2="302.43" y2="322.9"/>
  <line class="cls-1" x1="302.43" y1="330.97" x2="302.43" y2="332.76"/>
  <line class="cls-1" x1="302.43" y1="340.82" x2="302.43" y2="342.62"/>
  <line class="cls-1" x1="302.43" y1="350.68" x2="302.43" y2="352.47"/>
  <line class="cls-1" x1="302.43" y1="360.54" x2="302.43" y2="362.33"/>
  <line class="cls-1" x1="302.43" y1="370.4" x2="302.43" y2="372.19"/>
  <line class="cls-1" x1="264.49" y1="316.03" x2="264.49" y2="317.82"/>
  <line class="cls-1" x1="264.49" y1="325.89" x2="264.49" y2="327.68"/>
  <line class="cls-1" x1="264.49" y1="335.75" x2="264.49" y2="337.54"/>
  <line class="cls-1" x1="264.49" y1="345.6" x2="264.49" y2="347.4"/>
  <line class="cls-1" x1="264.49" y1="355.46" x2="264.49" y2="357.25"/>
  <line class="cls-1" x1="264.49" y1="365.32" x2="264.49" y2="367.41"/>
  <line class="cls-1" x1="264.49" y1="316.03" x2="260.61" y2="313.64"/>
  <line class="cls-1" x1="264.49" y1="325.89" x2="259.12" y2="322.9"/>
  <line class="cls-1" x1="264.49" y1="336.04" x2="259.12" y2="332.76"/>
  <line class="cls-1" x1="264.49" y1="345.9" x2="259.12" y2="342.62"/>
  <line class="cls-1" x1="264.49" y1="355.76" x2="259.12" y2="352.47"/>
  <line class="cls-1" x1="264.49" y1="365.62" x2="259.12" y2="362.33"/>
  <line class="cls-1" x1="302.14" y1="311.25" x2="302.14" y2="311.25"/>
  <line class="cls-1" x1="307.81" y1="367.41" x2="302.14" y2="370.7"/>
  <line class="cls-1" x1="307.81" y1="357.55" x2="302.14" y2="360.84"/>
  <line class="cls-1" x1="307.81" y1="347.4" x2="302.14" y2="350.98"/>
  <line class="cls-1" x1="307.81" y1="337.54" x2="302.14" y2="340.82"/>
  <line class="cls-1" x1="307.81" y1="327.68" x2="302.14" y2="330.97"/>
  <line class="cls-1" x1="307.81" y1="317.82" x2="302.14" y2="321.11"/>
  <line class="cls-1" x1="310.2" y1="183.38" x2="313.49" y2="186.07"/>
  <line class="cls-1" x1="256.73" y1="183.38" x2="253.44" y2="186.07"/>
  <line class="cls-1" x1="313.49" y1="186.07" x2="315.88" y2="199.22"/>
  <line class="cls-1" x1="253.44" y1="186.07" x2="251.05" y2="199.22"/>
  <line class="cls-1" x1="298.25" y1="308.86" x2="302.43" y2="311.25"/>
  <line class="cls-1" x1="268.68" y1="308.86" x2="260.61" y2="313.64"/>
  <line class="cls-1" x1="298.25" y1="267.63" x2="298.25" y2="308.86"/>
  <polyline class="cls-1" points="260.01 258.97 268.68 267.63 268.68 308.86"/>
  <polyline class="cls-1" points="298.25 267.63 306.92 258.97 306.92 227.6"/>
  <line class="cls-1" x1="260.01" y1="227.6" x2="260.01" y2="258.97"/>
  <path class="cls-1" d="m266.91,375.12c3.98,5.3,10.22,8.42,16.85,8.42,6.63,0,12.87-3.12,16.85-8.42"/>
  <line class="cls-1" x1="266.59" y1="375.18" x2="258.82" y2="371"/>
  <line class="cls-1" x1="300.34" y1="375.18" x2="303.93" y2="373.39"/>
  <line class="cls-1" x1="315.88" y1="199.22" x2="315.88" y2="224.31"/>
  <polyline class="cls-1" points="251.05 199.22 251.05 224.31 260.01 227.6"/>
  <line class="cls-1" x1="306.92" y1="227.6" x2="315.88" y2="224.31"/>
  <line class="cls-1" x1="308.11" y1="316.33" x2="308.11" y2="317.82"/>
  <line class="cls-1" x1="308.11" y1="326.19" x2="308.11" y2="327.68"/>
  <line class="cls-1" x1="308.11" y1="336.04" x2="308.11" y2="337.54"/>
  <line class="cls-1" x1="308.11" y1="345.9" x2="308.11" y2="347.4"/>
  <line class="cls-1" x1="308.11" y1="355.76" x2="308.11" y2="357.25"/>
  <line class="cls-1" x1="308.11" y1="365.62" x2="308.11" y2="367.11"/>
  <line class="cls-1" x1="258.82" y1="321.11" x2="258.82" y2="322.6"/>
  <line class="cls-1" x1="258.82" y1="331.26" x2="258.82" y2="332.46"/>
  <line class="cls-1" x1="258.82" y1="341.12" x2="258.82" y2="342.32"/>
  <line class="cls-1" x1="258.82" y1="350.98" x2="258.82" y2="352.18"/>
  <line class="cls-1" x1="258.82" y1="360.84" x2="258.82" y2="362.33"/>
  <line class="cls-1" x1="258.82" y1="370.7" x2="258.82" y2="371"/>
</svg>