<?xml version="1.0" encoding="UTF-8"?>
<svg id="Layer_1" data-name="Layer 1" xmlns="http://www.w3.org/2000/svg" viewBox="0 0 566.93 566.93">
  <defs>
    <style>
      .cls-1 {
        fill: none;
        stroke: #000;
        stroke-linecap: round;
        stroke-linejoin: round;
      }
    </style>
  </defs>
  <polyline class="cls-1" points="302.14 509.32 301.54 509.32 299.75 509.32 296.76 509.32 292.88 509.32 288.1 509.32 283.32 509.32 278.54 509.32 273.76 509.32 269.87 509.32 266.88 509.32 265.09 509.32 264.49 509.32"/>
  <polyline class="cls-1" points="305.72 505.73 305.42 506.03 305.12 506.03 304.82 506.33 304.23 506.63 303.93 506.63 303.33 506.93 302.73 507.23 301.84 507.52 301.24 507.52 300.34 507.82 299.45 508.12 298.55 508.42 297.66 508.42 296.46 508.72 295.56 509.02 294.37 509.32"/>
  <polyline class="cls-1" points="261.51 506.33 261.81 506.33 261.81 506.03 262.1 506.03 262.4 506.03 262.7 506.03 263 506.03 263.6 506.03 263.9 506.03 264.49 505.73 264.79 505.73 265.39 505.73 265.99 505.73 266.59 505.73 267.18 505.73 268.08 505.43 268.68 505.43 269.57 505.43 270.47 505.43 271.07 505.43 271.96 505.43 272.86 505.43 273.76 505.13 274.65 505.13 275.55 505.13 276.44 505.13 277.64 505.13 278.54 505.13 279.43 505.13 280.63 504.84 281.52 504.84 282.42 504.84 283.61 504.84 284.51 504.84 285.71 504.84 286.6 504.54 287.5 504.54 288.69 504.54 289.59 504.54 290.49 504.54 291.68 504.54 292.58 504.54 293.47 504.24 294.37 504.24 295.27 504.24 296.16 504.24 297.06 504.24 297.95 504.24 298.85 504.24 299.45 503.94 300.34 503.94 300.94 503.94 301.84 503.94 302.44 503.94 303.03 503.94 303.63 503.94 304.23 503.94 304.82 503.64 305.42 503.64 305.72 503.64 306.02 503.64 306.62 503.64 307.81 503.64"/>
  <polyline class="cls-1" points="294.37 509.32 297.66 509.32 300.04 509.32 301.84 509.32 302.14 509.32"/>
  <polyline class="cls-1" points="259.12 499.76 258.82 499.76 258.82 499.46 259.12 499.46 259.12 499.16 259.42 499.16 259.71 499.16 260.31 498.86 260.61 498.86 261.21 498.86 261.81 498.86 262.4 498.56 263.3 498.56 263.9 498.56 264.79 498.56 265.69 498.26 266.29 498.26 267.48 498.26 268.38 498.26 269.27 497.96 270.47 497.96 271.37 497.96 272.56 497.67 273.76 497.67 274.65 497.67 275.85 497.67 277.04 497.37 278.24 497.37 279.43 497.37 280.63 497.37 282.12 497.07 283.32 497.07 284.51 497.07 285.71 497.07 286.9 496.77 288.1 496.77 289.29 496.77 290.49 496.47 291.68 496.47 292.88 496.47 294.07 496.47 294.97 496.17 296.16 496.17 297.06 496.17 298.25 496.17 299.15 495.87 300.04 495.87 300.94 495.87 301.84 495.57 302.44 495.57 303.33 495.57 303.93 495.57 304.53 495.28 305.12 495.28 305.72 495.28 306.32 495.28 306.62 494.98 306.92 494.98 307.21 494.98 307.51 494.98 307.81 494.68"/>
  <polyline class="cls-1" points="259.12 489.9 258.82 489.9 258.82 489.6 259.12 489.6 259.12 489.3 259.42 489.3 259.71 489.3 260.01 489.3 260.61 489 260.91 489 261.51 489 262.1 489 262.7 488.7 263.3 488.7 263.9 488.7 264.79 488.7 265.39 488.4 266.29 488.4 267.18 488.4 268.08 488.11 269.27 488.11 270.17 488.11 271.37 488.11 272.26 487.81 273.46 487.81 274.65 487.81 275.85 487.81 277.04 487.51 278.24 487.51 279.43 487.51 280.63 487.21 281.82 487.21 283.32 487.21 284.51 487.21 285.71 486.91 286.9 486.91 288.1 486.91 289.29 486.91 290.49 486.61 291.68 486.61 292.88 486.61 294.07 486.61 295.27 486.31 296.16 486.31 297.36 486.31 298.25 486.01 299.15 486.01 300.04 486.01 300.94 486.01 301.84 485.72 302.73 485.72 303.33 485.72 304.23 485.72 304.82 485.42 305.12 485.42 305.72 485.42 306.32 485.42 306.62 485.12 306.92 485.12 307.21 485.12 307.21 484.82 307.51 484.82"/>
  <polyline class="cls-1" points="259.12 480.04 259.12 479.74 258.82 479.74 259.12 479.74 259.12 479.44 259.42 479.44 259.71 479.44 260.31 479.14 260.61 479.14 261.21 479.14 261.81 478.84 262.4 478.84 263 478.84 263.9 478.84 264.79 478.55 265.39 478.55 266.29 478.55 267.18 478.55 268.38 478.25 269.27 478.25 270.47 478.25 271.37 478.25 272.56 477.95 273.76 477.95 274.65 477.95 275.85 477.65 277.04 477.65 278.24 477.65 279.43 477.65 280.63 477.35 282.12 477.35 283.32 477.35 284.51 477.35 285.71 477.05 286.9 477.05 288.1 477.05 289.29 477.05 290.49 476.75 291.68 476.75 292.88 476.75 294.07 476.45 294.97 476.45 296.16 476.45 297.06 476.45 298.25 476.16 299.15 476.16 300.04 476.16 300.94 476.16 301.84 475.86 302.44 475.86 303.33 475.86 303.93 475.86 304.53 475.56 305.12 475.56 305.72 475.56 306.32 475.26 306.62 475.26 306.92 475.26 307.21 475.26 307.51 474.96 307.81 474.96"/>
  <polyline class="cls-1" points="259.12 470.18 258.82 469.88 259.12 469.88 259.12 469.58 259.42 469.58 259.71 469.58 260.01 469.28 260.61 469.28 260.91 469.28 261.51 469.28 262.1 468.99 262.7 468.99 263.3 468.99 263.9 468.99 264.79 468.69 265.69 468.69 266.29 468.69 267.18 468.69 268.38 468.39 269.27 468.39 270.17 468.39 271.37 468.09 272.26 468.09 273.46 468.09 274.65 468.09 275.85 467.79 277.04 467.79 278.24 467.79 279.43 467.79 280.63 467.49 281.82 467.49 283.32 467.49 284.51 467.49 285.71 467.19 286.9 467.19 288.1 467.19 289.29 466.89 290.49 466.89 291.68 466.89 292.88 466.89 294.07 466.6 294.97 466.6 296.16 466.6 297.36 466.6 298.25 466.3 299.15 466.3 300.04 466.3 300.94 466.3 301.84 466 302.73 466 303.33 466 304.23 465.7 304.82 465.7 305.42 465.7 305.72 465.7 306.32 465.4 306.62 465.4 306.92 465.4 307.21 465.4 307.51 465.1"/>
  <polyline class="cls-1" points="259.12 460.32 259.12 460.02 259.12 459.72 259.42 459.72 259.71 459.72 260.01 459.43 260.31 459.43 260.91 459.43 261.21 459.43 261.81 459.13 262.4 459.13 263 459.13 263.9 459.13 264.49 458.83 265.39 458.83 266.29 458.83 267.18 458.53 268.08 458.53 269.27 458.53 270.17 458.53 271.37 458.23 272.56 458.23 273.46 458.23 274.65 458.23 275.85 457.93 277.04 457.93 278.24 457.93 279.43 457.93 280.93 457.63 282.12 457.63 283.32 457.63 284.51 457.33 285.71 457.33 286.9 457.33 288.1 457.33 289.29 457.04 290.49 457.04 291.68 457.04 292.88 457.04 294.07 456.74 295.27 456.74 296.16 456.74 297.36 456.74 298.25 456.44 299.15 456.44 300.04 456.44 300.94 456.14 301.84 456.14 302.44 456.14 303.33 456.14 303.93 455.84 304.53 455.84 305.12 455.84 305.72 455.84 306.02 455.54 306.62 455.54 306.92 455.54 307.21 455.54 307.51 455.24 307.81 455.24 307.81 454.94"/>
  <polyline class="cls-1" points="266.29 452.85 265.69 452.85 265.39 452.85 265.09 453.15 264.79 453.15 264.79 453.45 264.49 453.45"/>
  <polyline class="cls-1" points="301.84 458.53 301.54 458.83 301.24 458.83 300.94 458.83 300.64 459.13 300.04 459.13 299.75 459.13 299.15 459.13 298.85 459.43 298.25 459.43 297.66 459.43 297.06 459.43 296.46 459.72 295.86 459.72 294.97 459.72 294.37 459.72 293.77 460.02 292.88 460.02 292.28 460.02 291.38 460.02 290.49 460.32 289.59 460.32 288.99 460.32 288.1 460.32 287.2 460.62 286.3 460.62 285.41 460.62 284.51 460.62 283.61 460.62 282.72 460.92 281.82 460.92 280.93 460.92 280.33 460.92 279.43 461.22 278.54 461.22 277.64 461.22 276.74 461.22 275.85 461.52 275.25 461.52 274.35 461.52 273.76 461.52 272.86 461.82 272.26 461.82 271.66 461.82 270.77 461.82 270.17 462.11 269.57 462.11 268.98 462.11 268.68 462.11 268.08 462.41 267.48 462.41 267.18 462.41 266.59 462.41 266.29 462.71 265.99 462.71 265.69 462.71 265.39 462.71 265.09 463.01 264.79 463.01 264.49 463.31"/>
  <polyline class="cls-1" points="302.14 468.39 301.84 468.39 301.54 468.69 301.24 468.69 300.94 468.69 300.34 468.99 300.04 468.99 299.75 468.99 299.15 468.99 298.55 469.28 298.25 469.28 297.66 469.28 297.06 469.28 296.46 469.58 295.56 469.58 294.97 469.58 294.37 469.58 293.47 469.88 292.88 469.88 291.98 469.88 291.38 469.88 290.49 470.18 289.59 470.18 288.99 470.18 288.1 470.18 287.2 470.48 286.3 470.48 285.41 470.48 284.51 470.48 283.61 470.78 282.72 470.78 282.12 470.78 281.22 470.78 280.33 471.08 279.43 471.08 278.54 471.08 277.64 471.08 276.74 471.38 276.15 471.38 275.25 471.38 274.35 471.38 273.76 471.67 273.16 471.67 272.26 471.67 271.66 471.67 271.07 471.97 270.17 471.97 269.57 471.97 268.98 471.97 268.68 472.27 268.08 472.27 267.48 472.27 267.18 472.27 266.59 472.27 266.29 472.57 265.99 472.57 265.69 472.57 265.39 472.57 265.09 472.87 264.79 472.87 264.49 472.87 264.49 473.17"/>
  <polyline class="cls-1" points="302.14 478.25 301.84 478.25 301.54 478.55 301.24 478.55 300.64 478.55 300.34 478.84 300.04 478.84 299.45 478.84 299.15 478.84 298.55 479.14 297.95 479.14 297.66 479.14 297.06 479.14 296.46 479.44 295.56 479.44 294.97 479.44 294.37 479.44 293.47 479.74 292.88 479.74 291.98 479.74 291.38 479.74 290.49 480.04 289.59 480.04 288.99 480.04 288.1 480.04 287.2 480.34 286.3 480.34 285.41 480.34 284.51 480.34 283.61 480.64 282.72 480.64 282.12 480.64 281.22 480.64 280.33 480.94 279.43 480.94 278.54 480.94 277.64 480.94 276.74 481.23 276.15 481.23 275.25 481.23 274.65 481.23 273.76 481.53 273.16 481.53 272.26 481.53 271.66 481.53 271.07 481.83 270.17 481.83 269.57 481.83 268.98 481.83 268.38 482.13 268.08 482.13 267.48 482.13 266.88 482.13 266.59 482.43 266.29 482.43 265.69 482.43 265.39 482.43 265.09 482.73 264.79 482.73 264.49 482.73 264.49 483.03"/>
  <polyline class="cls-1" points="301.84 488.11 301.84 488.4 301.54 488.4 301.24 488.4 300.94 488.4 300.64 488.7 300.34 488.7 300.04 488.7 299.45 488.7 299.15 489 298.55 489 297.95 489 297.66 489 297.06 489.3 296.46 489.3 295.86 489.3 294.97 489.3 294.37 489.6 293.77 489.6 292.88 489.6 292.28 489.6 291.38 489.9 290.49 489.9 289.89 489.9 288.99 489.9 288.1 489.9 287.2 490.2 286.3 490.2 285.41 490.2 284.51 490.2 283.91 490.5 283.02 490.5 282.12 490.5 281.22 490.5 280.33 490.79 279.43 490.79 278.54 490.79 277.64 490.79 277.04 491.09 276.15 491.09 275.25 491.09 274.65 491.09 273.76 491.39 272.86 491.39 272.26 491.39 271.66 491.39 270.77 491.69 270.17 491.69 269.57 491.69 268.98 491.69 268.38 491.99 267.78 491.99 267.48 491.99 266.88 491.99 266.59 492.29 265.99 492.29 265.69 492.29 265.39 492.29 265.09 492.59 264.79 492.59 264.49 492.89"/>
  <polyline class="cls-1" points="301.84 497.96 301.54 498.26 301.24 498.26 300.94 498.26 300.64 498.56 300.34 498.56 300.04 498.56 299.45 498.56 299.15 498.86 298.55 498.86 297.95 498.86 297.66 498.86 297.06 499.16 296.46 499.16 295.86 499.16 294.97 499.16 294.37 499.46 293.77 499.46 292.88 499.46 292.28 499.46 291.38 499.76 290.49 499.76 289.89 499.76 288.99 499.76 288.1 500.06 287.2 500.06 286.3 500.06 285.41 500.06 284.81 500.35 283.91 500.35 283.02 500.35 282.12 500.35 281.22 500.65 280.33 500.65 279.43 500.65 278.54 500.65 277.64 500.95 277.04 500.95 276.15 500.95 275.25 500.95 274.35 501.25 273.76 501.25 272.86 501.25 272.26 501.25 271.37 501.55 270.77 501.55 270.17 501.55 269.57 501.55 268.98 501.55 268.38 501.85 267.78 501.85 267.48 501.85 266.88 501.85 266.59 502.15 265.99 502.15 265.69 502.15 265.39 502.15 265.09 502.45 264.79 502.45 264.49 502.74"/>
  <polyline class="cls-1" points="301.84 507.82 301.54 508.12 301.24 508.12 300.94 508.42 300.64 508.42 300.34 508.42 299.75 508.42 299.45 508.72 298.85 508.72 298.25 508.72 297.66 508.72 297.06 509.02 296.46 509.02 295.86 509.02 295.27 509.02 294.37 509.32"/>
  <polyline class="cls-1" points="307.81 453.45 307.81 453.75 307.51 453.75 307.21 454.05 306.92 454.05 306.62 454.05 306.32 454.35 305.72 454.35 305.42 454.35 304.82 454.35 303.93 454.65 303.33 454.65 302.73 454.65 301.84 454.65 300.94 454.94 300.04 454.94 299.15 454.94 298.25 454.94 297.36 455.24 296.46 455.24 295.27 455.24 294.07 455.54 293.17 455.54 291.98 455.54 290.78 455.54 289.59 455.84 288.39 455.84 287.2 455.84 286 455.84 284.81 456.14 283.32 456.14 282.12 456.14 280.93 456.14 279.73 456.44 278.54 456.44 277.34 456.44 276.15 456.74 274.95 456.74 273.76 456.74 272.56 456.74 271.66 457.04 270.47 457.04 269.57 457.04 268.38 457.04 267.48 457.33 266.59 457.33 265.69 457.33 264.79 457.33 263.9 457.63 263.3 457.63 262.7 457.63 261.81 457.93 261.21 457.93 260.91 457.93 260.31 457.93 260.01 458.23 259.71 458.23 259.42 458.23 259.12 458.23 259.12 458.53 258.82 458.53"/>
  <polyline class="cls-1" points="307.51 463.31 307.51 463.61 307.51 463.91 307.21 463.91 306.92 463.91 306.62 463.91 306.32 464.21 305.72 464.21 305.42 464.21 304.82 464.21 304.23 464.5 303.63 464.5 302.73 464.5 302.14 464.5 301.24 464.8 300.34 464.8 299.45 464.8 298.55 465.1 297.36 465.1 296.46 465.1 295.27 465.1 294.37 465.4 293.17 465.4 291.98 465.4 290.78 465.4 289.59 465.7 288.39 465.7 287.2 465.7 286 465.7 284.51 466 283.32 466 282.12 466 280.93 466.3 279.73 466.3 278.54 466.3 277.34 466.3 276.15 466.6 274.95 466.6 273.76 466.6 272.56 466.6 271.37 466.89 270.47 466.89 269.27 466.89 268.38 466.89 267.48 467.19 266.59 467.19 265.69 467.19 264.79 467.49 264.2 467.49 263.3 467.49 262.7 467.49 262.1 467.79 261.51 467.79 260.91 467.79 260.61 467.79 260.31 468.09 259.71 468.09 259.42 468.09 259.42 468.39 259.12 468.39"/>
  <polyline class="cls-1" points="307.51 473.17 307.81 473.47 307.51 473.77 307.21 473.77 306.92 473.77 306.32 474.06 306.02 474.06 305.42 474.06 304.82 474.06 304.23 474.36 303.33 474.36 302.73 474.36 301.84 474.66 300.94 474.66 300.04 474.66 299.15 474.66 298.25 474.96 297.36 474.96 296.16 474.96 295.27 474.96 294.07 475.26 292.88 475.26 291.98 475.26 290.78 475.26 289.59 475.56 288.39 475.56 287.2 475.56 286 475.86 284.81 475.86 283.32 475.86 282.12 475.86 280.93 476.16 279.73 476.16 278.54 476.16 277.34 476.16 276.15 476.45 274.95 476.45 273.76 476.45 272.56 476.75 271.66 476.75 270.47 476.75 269.57 476.75 268.38 477.05 267.48 477.05 266.59 477.05 265.69 477.05 264.79 477.35 264.2 477.35 263.3 477.35 262.7 477.35 262.1 477.65 261.51 477.65 260.91 477.65 260.31 477.95 260.01 477.95 259.71 477.95 259.42 477.95 259.12 478.25 258.82 478.25"/>
  <polyline class="cls-1" points="307.51 483.03 307.81 483.33 307.51 483.33 307.51 483.62 307.21 483.62 306.92 483.62 306.62 483.62 306.32 483.92 305.72 483.92 305.12 483.92 304.82 484.22 304.23 484.22 303.33 484.22 302.73 484.22 301.84 484.52 301.24 484.52 300.34 484.52 299.45 484.52 298.55 484.82 297.36 484.82 296.46 484.82 295.27 484.82 294.37 485.12 293.17 485.12 291.98 485.12 290.78 485.42 289.59 485.42 288.39 485.42 287.2 485.42 286 485.72 284.81 485.72 283.32 485.72 282.12 485.72 280.93 486.01 279.73 486.01 278.54 486.01 277.34 486.31 276.15 486.31 274.95 486.31 273.76 486.31 272.56 486.61 271.37 486.61 270.47 486.61 269.27 486.61 268.38 486.91 267.48 486.91 266.59 486.91 265.69 486.91 264.79 487.21 263.9 487.21 263.3 487.21 262.7 487.51 262.1 487.51 261.51 487.51 260.91 487.51 260.61 487.81 260.01 487.81 259.71 487.81 259.42 487.81 259.42 488.11 259.12 488.11"/>
  <polyline class="cls-1" points="307.51 492.89 307.81 493.18 307.51 493.48 307.21 493.48 306.92 493.78 306.32 493.78 306.02 493.78 305.42 493.78 304.82 494.08 304.23 494.08 303.63 494.08 302.73 494.08 301.84 494.38 301.24 494.38 300.34 494.38 299.45 494.68 298.25 494.68 297.36 494.68 296.16 494.68 295.27 494.98 294.07 494.98 292.88 494.98 291.98 494.98 290.78 495.28 289.59 495.28 288.39 495.28 287.2 495.28 286 495.57 284.51 495.57 283.32 495.57 282.12 495.87 280.93 495.87 279.73 495.87 278.54 495.87 277.34 496.17 276.15 496.17 274.95 496.17 273.76 496.17 272.56 496.47 271.66 496.47 270.47 496.47 269.57 496.47 268.38 496.77 267.48 496.77 266.59 496.77 265.69 497.07 264.79 497.07 264.2 497.07 263.3 497.07 262.7 497.37 262.1 497.37 261.51 497.37 260.91 497.37 260.31 497.67 260.01 497.67 259.71 497.67 259.42 497.67 259.12 497.96 258.82 497.96 258.82 498.26"/>
  <polyline class="cls-1" points="307.81 503.04 307.81 503.34 307.51 503.34 307.21 503.34 306.92 503.64 306.62 503.64"/>
  <polyline class="cls-1" points="284.51 452.85 283.61 452.85 282.72 452.85 282.12 452.85 281.22 453.15 280.33 453.15 279.43 453.15 278.54 453.15 277.64 453.45 276.74 453.45 276.15 453.45 275.25 453.45 274.35 453.75 273.76 453.75 272.86 453.75 272.26 453.75 271.37 454.05 270.77 454.05 270.17 454.05 269.57 454.05 268.98 454.35 268.38 454.35 267.78 454.35 267.48 454.35 266.88 454.65 266.59 454.65 266.29 454.65 265.99 454.65 265.69 454.94 265.39 454.94 265.09 454.94 264.79 455.24"/>
  <polyline class="cls-1" points="301.84 460.32 301.84 460.62 301.54 460.62 301.24 460.62 300.94 460.92 300.34 460.92 300.04 460.92 299.75 461.22 299.15 461.22 298.85 461.22 298.25 461.22 297.66 461.52 297.06 461.52 296.46 461.52 295.86 461.52 295.27 461.82 294.37 461.82 293.77 461.82 292.88 461.82 292.28 462.11 291.38 462.11 290.78 462.11 289.89 462.11 288.99 462.41 288.1 462.41 287.2 462.41 286.3 462.41 285.41 462.71 284.51 462.71 283.91 462.71 283.02 462.71 282.12 462.71 281.22 463.01 280.33 463.01 279.43 463.01 278.54 463.01 277.64 463.31 276.74 463.31 276.15 463.31 275.25 463.31 274.35 463.61 273.76 463.61 272.86 463.61 272.26 463.61 271.37 463.91 270.77 463.91 270.17 463.91 269.57 463.91 268.98 464.21 268.38 464.21 268.08 464.21 267.48 464.21 267.18 464.5 266.59 464.5 266.29 464.5 265.99 464.5 265.69 464.8 265.39 464.8 265.09 464.8 264.79 465.1"/>
  <polyline class="cls-1" points="302.14 470.18 301.84 470.48 301.54 470.48 301.24 470.78 300.94 470.78 300.64 470.78 300.04 470.78 299.75 471.08 299.15 471.08 298.85 471.08 298.25 471.08 297.66 471.38 297.06 471.38 296.46 471.38 295.86 471.38 295.27 471.67 294.37 471.67 293.77 471.67 292.88 471.67 292.28 471.97 291.38 471.97 290.49 471.97 289.89 471.97 288.99 472.27 288.1 472.27 287.2 472.27 286.3 472.27 285.41 472.57 284.51 472.57 283.61 472.57 282.72 472.57 282.12 472.87 281.22 472.87 280.33 472.87 279.43 472.87 278.54 473.17 277.64 473.17 276.74 473.17 276.15 473.17 275.25 473.47 274.35 473.47 273.76 473.47 272.86 473.47 272.26 473.77 271.66 473.77 270.77 473.77 270.17 473.77 269.57 474.06 268.98 474.06 268.68 474.06 268.08 474.06 267.48 474.36 267.18 474.36 266.88 474.36 266.29 474.36 265.99 474.36 265.69 474.66 265.39 474.66 265.09 474.66 264.79 474.96"/>
  <polyline class="cls-1" points="302.14 480.04 302.14 480.34 301.84 480.34 301.54 480.34 301.24 480.64 300.94 480.64 300.64 480.64 300.04 480.64 299.75 480.94 299.15 480.94 298.85 480.94 298.25 480.94 297.66 481.23 297.06 481.23 296.46 481.23 295.86 481.23 294.97 481.53 294.37 481.53 293.77 481.53 292.88 481.53 292.28 481.83 291.38 481.83 290.49 481.83 289.89 481.83 288.99 482.13 288.1 482.13 287.2 482.13 286.3 482.13 285.41 482.43 284.51 482.43 283.61 482.43 283.02 482.43 282.12 482.73 281.22 482.73 280.33 482.73 279.43 482.73 278.54 483.03 277.64 483.03 276.74 483.03 276.15 483.03 275.25 483.33 274.35 483.33 273.76 483.33 272.86 483.33 272.26 483.62 271.66 483.62 271.07 483.62 270.17 483.62 269.57 483.92 269.27 483.92 268.68 483.92 268.08 483.92 267.48 484.22 267.18 484.22 266.59 484.22 266.29 484.22 265.99 484.52 265.69 484.52 265.39 484.52 265.09 484.52 264.79 484.82"/>
  <polyline class="cls-1" points="302.14 489.9 302.14 490.2 301.84 490.2 301.54 490.2 301.54 490.5 301.24 490.5 300.94 490.5 300.34 490.5 300.04 490.79 299.75 490.79 299.15 490.79 298.55 490.79 298.25 491.09 297.66 491.09 297.06 491.09 296.46 491.09 295.56 491.39 294.97 491.39 294.37 491.39 293.47 491.39 292.88 491.69 291.98 491.69 291.38 491.69 290.49 491.69 289.89 491.99 288.99 491.99 288.1 491.99 287.2 491.99 286.3 491.99 285.41 492.29 284.81 492.29 283.91 492.29 283.02 492.29 282.12 492.59 281.22 492.59 280.33 492.59 279.43 492.59 278.54 492.89 277.64 492.89 277.04 492.89 276.15 492.89 275.25 493.18 274.65 493.18 273.76 493.18 273.16 493.18 272.26 493.48 271.66 493.48 271.07 493.48 270.47 493.48 269.87 493.78 269.27 493.78 268.68 493.78 268.08 493.78 267.48 494.08 267.18 494.08 266.59 494.08 266.29 494.08 265.99 494.38 265.69 494.38 265.39 494.38 265.09 494.38 264.79 494.68"/>
  <polyline class="cls-1" points="302.14 499.76 302.14 500.06 301.84 500.06 301.54 500.06 301.24 500.35 300.94 500.35 300.64 500.35 300.34 500.35 300.04 500.65 299.45 500.65 299.15 500.65 298.55 500.65 297.95 500.95 297.66 500.95 297.06 500.95 296.46 500.95 295.56 501.25 294.97 501.25 294.37 501.25 293.77 501.25 292.88 501.55 292.28 501.55 291.38 501.55 290.49 501.55 289.89 501.85 288.99 501.85 288.1 501.85 287.2 501.85 286.3 502.15 285.71 502.15 284.81 502.15 283.91 502.15 283.02 502.45 282.12 502.45 281.22 502.45 280.33 502.45 279.43 502.74 278.54 502.74 277.64 502.74 277.04 502.74 276.15 503.04 275.25 503.04 274.65 503.04 273.76 503.04 273.16 503.34 272.26 503.34 271.66 503.34 271.07 503.34 270.17 503.64 269.57 503.64 268.98 503.64 268.38 503.64 268.08 503.64 267.48 503.94 266.88 503.94 266.59 503.94 266.29 503.94 265.69 504.24 265.39 504.24 265.09 504.24 264.79 504.54 264.49 504.54"/>
  <polyline class="cls-1" points="253.14 114.08 253.14 60.3 254.93 59.4 256.43 58.81 257.92 57.91 259.71 57.61 276.15 57.61 277.64 57.91 279.13 58.81 280.63 59.4 282.42 60.3 282.42 114.08"/>
  <polyline class="cls-1" points="252.25 57.61 252.25 57.91 252.25 58.81 252.25 59.4 252.25 60.3 252.25 114.08"/>
  <polyline class="cls-1" points="284.21 114.08 284.21 60.3 286 59.4 287.5 58.81 288.99 57.91 290.78 57.61 306.92 57.61 308.71 57.91 310.2 58.81 311.7 59.4 313.49 60.3 313.49 114.08"/>
  <polyline class="cls-1" points="314.38 114.08 314.38 60.3 314.38 59.4 314.38 58.81 314.38 57.91 314.38 57.61"/>
  <line class="cls-1" x1="252.25" y1="60.3" x2="253.14" y2="60.3"/>
  <line class="cls-1" x1="313.49" y1="60.3" x2="314.38" y2="60.3"/>
  <line class="cls-1" x1="282.42" y1="60.3" x2="284.21" y2="60.3"/>
  <polyline class="cls-1" points="314.38 57.61 311.4 57.61 306.92 57.61"/>
  <polyline class="cls-1" points="259.71 57.61 255.23 57.61 252.25 57.61"/>
  <polyline class="cls-1" points="290.78 57.61 283.32 57.61 276.15 57.61"/>
  <line class="cls-1" x1="264.49" y1="509.32" x2="261.51" y2="506.33"/>
  <line class="cls-1" x1="302.14" y1="509.32" x2="302.14" y2="509.32"/>
  <line class="cls-1" x1="305.72" y1="505.73" x2="307.81" y2="503.64"/>
  <line class="cls-1" x1="307.81" y1="494.68" x2="302.14" y2="497.96"/>
  <line class="cls-1" x1="307.81" y1="484.82" x2="302.14" y2="488.11"/>
  <line class="cls-1" x1="307.81" y1="474.96" x2="302.14" y2="478.25"/>
  <line class="cls-1" x1="307.81" y1="465.1" x2="302.14" y2="468.39"/>
  <line class="cls-1" x1="307.81" y1="455.24" x2="302.14" y2="458.53"/>
  <line class="cls-1" x1="305.12" y1="506.03" x2="302.14" y2="507.82"/>
  <line class="cls-1" x1="264.49" y1="453.45" x2="263.3" y2="452.85"/>
  <line class="cls-1" x1="264.49" y1="463.31" x2="258.82" y2="460.32"/>
  <line class="cls-1" x1="264.49" y1="473.17" x2="258.82" y2="470.18"/>
  <line class="cls-1" x1="264.49" y1="483.03" x2="258.82" y2="480.04"/>
  <line class="cls-1" x1="264.49" y1="492.89" x2="258.82" y2="489.9"/>
  <line class="cls-1" x1="264.49" y1="503.04" x2="258.82" y2="499.76"/>
  <line class="cls-1" x1="307.81" y1="453.75" x2="307.81" y2="454.94"/>
  <line class="cls-1" x1="307.81" y1="463.61" x2="307.81" y2="465.1"/>
  <line class="cls-1" x1="307.81" y1="473.47" x2="307.81" y2="474.96"/>
  <line class="cls-1" x1="307.81" y1="483.33" x2="307.81" y2="484.82"/>
  <line class="cls-1" x1="307.81" y1="493.18" x2="307.81" y2="494.68"/>
  <line class="cls-1" x1="307.81" y1="503.04" x2="307.81" y2="503.64"/>
  <line class="cls-1" x1="258.82" y1="458.53" x2="258.82" y2="460.02"/>
  <line class="cls-1" x1="258.82" y1="468.39" x2="258.82" y2="469.88"/>
  <line class="cls-1" x1="258.82" y1="478.25" x2="258.82" y2="479.74"/>
  <line class="cls-1" x1="258.82" y1="488.11" x2="258.82" y2="489.6"/>
  <line class="cls-1" x1="258.82" y1="498.26" x2="258.82" y2="499.46"/>
  <line class="cls-1" x1="306.62" y1="452.85" x2="307.81" y2="453.45"/>
  <line class="cls-1" x1="302.14" y1="460.02" x2="307.81" y2="463.31"/>
  <line class="cls-1" x1="302.14" y1="470.18" x2="307.81" y2="473.17"/>
  <line class="cls-1" x1="302.14" y1="480.04" x2="307.81" y2="483.03"/>
  <line class="cls-1" x1="302.14" y1="489.9" x2="307.81" y2="492.89"/>
  <line class="cls-1" x1="302.14" y1="499.76" x2="307.81" y2="503.04"/>
  <line class="cls-1" x1="261.51" y1="506.33" x2="264.49" y2="504.54"/>
  <line class="cls-1" x1="258.82" y1="458.53" x2="264.49" y2="455.24"/>
  <line class="cls-1" x1="258.82" y1="468.39" x2="264.49" y2="465.1"/>
  <line class="cls-1" x1="258.82" y1="478.25" x2="264.49" y2="474.96"/>
  <line class="cls-1" x1="258.82" y1="488.11" x2="264.49" y2="484.82"/>
  <line class="cls-1" x1="258.82" y1="497.96" x2="264.49" y2="494.68"/>
  <line class="cls-1" x1="302.14" y1="458.53" x2="302.14" y2="460.32"/>
  <line class="cls-1" x1="302.14" y1="468.39" x2="302.14" y2="470.18"/>
  <line class="cls-1" x1="302.14" y1="478.25" x2="302.14" y2="480.04"/>
  <line class="cls-1" x1="302.14" y1="488.11" x2="302.14" y2="489.9"/>
  <line class="cls-1" x1="302.14" y1="497.96" x2="302.14" y2="499.76"/>
  <line class="cls-1" x1="302.14" y1="507.82" x2="302.14" y2="509.32"/>
  <line class="cls-1" x1="264.49" y1="453.45" x2="264.49" y2="455.24"/>
  <line class="cls-1" x1="264.49" y1="463.31" x2="264.49" y2="465.1"/>
  <line class="cls-1" x1="264.49" y1="473.17" x2="264.49" y2="474.96"/>
  <line class="cls-1" x1="264.49" y1="483.03" x2="264.49" y2="484.82"/>
  <line class="cls-1" x1="264.49" y1="492.89" x2="264.49" y2="494.68"/>
  <line class="cls-1" x1="264.49" y1="502.74" x2="264.49" y2="504.54"/>
  <polyline class="cls-1" points="329.92 325.59 329.32 325.59 327.53 325.59 324.84 325.59 320.96 325.59 316.18 325.59 310.8 325.59 304.53 325.59 297.66 325.59 290.49 325.59 283.32 325.59 276.15 325.59 268.98 325.59 262.1 325.59 255.83 325.59 250.45 325.59 245.67 325.59 241.79 325.59 239.1 325.59 237.31 325.59 236.71 325.59"/>
  <polyline class="cls-1" points="234.02 328.58 234.62 328.58 236.41 328.58 239.4 328.58 243.28 328.58 248.36 328.58 254.34 328.58 260.91 328.58 268.08 328.58 275.55 328.58 283.32 328.58 291.08 328.58 298.55 328.58 305.72 328.58 312.29 328.58 318.27 328.58 323.35 328.58 327.23 328.58 330.22 328.58 332.01 328.58 332.61 328.58"/>
  <polyline class="cls-1" points="332.61 394.9 332.01 394.9 330.22 394.9 327.23 394.9 323.35 394.9 318.27 394.9 312.29 394.9 305.72 394.9 298.55 394.9 291.08 394.9 283.32 394.9 275.55 394.9 268.08 394.9 260.91 394.9 254.34 394.9 248.36 394.9 243.28 394.9 239.4 394.9 236.41 394.9 234.62 394.9 234.02 394.9"/>
  <polyline class="cls-1" points="324.54 402.96 323.94 402.96 322.15 402.96 319.16 402.96 314.98 402.96 309.9 402.96 303.93 402.96 297.36 402.96 290.49 402.96 283.32 402.96 276.15 402.96 269.27 402.96 262.7 402.96 256.73 402.96 251.65 402.96 247.76 402.96 244.48 402.96 242.69 402.96 242.09 402.96"/>
  <polyline class="cls-1" points="235.81 396.39 237.61 396.39 240.59 396.39 244.48 396.39 249.26 396.39 255.23 396.39 261.51 396.39 268.38 396.39 275.85 396.39 283.32 396.39 290.78 396.39 298.25 396.39 305.12 396.39 311.4 396.39 317.37 396.39 322.15 396.39 326.04 396.39 329.02 396.39 330.82 396.39"/>
  <polyline class="cls-1" points="284.51 403.86 290.78 403.86 297.06 403.86 302.73 403.86 307.81 403.86 312.59 403.86 316.18 403.86"/>
  <polyline class="cls-1" points="317.37 403.86 320.06 403.86 321.55 403.86 322.15 403.86"/>
  <polyline class="cls-1" points="244.48 403.86 245.08 403.86 246.57 403.86 249.26 403.86"/>
  <polyline class="cls-1" points="282.12 447.77 280.93 448.37 279.73 448.97 278.83 449.57 277.64 449.87 276.74 450.17 275.85 450.76 274.65 451.06 273.76 451.36 272.86 451.66 271.96 451.66 270.77 451.96 269.87 452.26 268.98 452.26 268.08 452.26 267.18 452.26 266.29 452.26 265.39 452.26 264.49 452.26 263.6 452.26 262.4 452.26 261.51 451.96 260.61 451.66 259.71 451.66 258.82 451.36 257.62 451.06 256.73 450.76 255.83 450.17 254.64 449.87 253.74 449.57 252.54 448.97 251.65 448.37 250.45 447.77 250.45 403.86 254.34 403.86 258.82 403.86 263.9 403.86 269.57 403.86 275.85 403.86 282.12 403.86 282.12 447.77"/>
  <polyline class="cls-1" points="249.26 403.86 249.26 447.77 249.26 448.37 249.26 448.97 249.26 449.57 249.26 449.87 249.26 450.17 249.26 450.76 249.26 451.06 249.26 451.36 249.26 451.66 249.26 451.96 249.26 452.26"/>
  <polyline class="cls-1" points="317.37 452.26 317.37 451.96 317.37 451.66 317.37 451.36 317.37 451.06 317.37 450.76 317.37 450.17 317.37 449.87 317.37 449.57 317.37 448.97 317.37 448.37 317.37 447.77 317.37 403.86"/>
  <polyline class="cls-1" points="316.18 403.86 316.18 447.77 314.98 448.37 314.09 448.97 312.89 449.57 311.99 449.87 310.8 450.17 309.9 450.76 309.01 451.06 307.81 451.36 306.92 451.66 306.02 451.66 305.12 451.96 304.23 452.26 303.33 452.26 302.14 452.26 301.24 452.26 300.34 452.26 299.45 452.26 298.55 452.26 297.66 452.26 296.76 452.26 295.86 451.96 294.67 451.66 293.77 451.66 292.88 451.36 291.98 451.06 290.78 450.76 289.89 450.17 288.99 449.87 287.8 449.57 286.9 448.97 285.71 448.37 284.51 447.77 284.51 403.86"/>
  <line class="cls-1" x1="284.51" y1="447.77" x2="282.12" y2="447.77"/>
  <line class="cls-1" x1="317.37" y1="447.77" x2="316.18" y2="447.77"/>
  <line class="cls-1" x1="250.45" y1="447.77" x2="249.26" y2="447.77"/>
  <polyline class="cls-1" points="249.56 452.85 250.15 452.85 251.65 452.85 254.04 452.85 257.32 452.85 261.51 452.85 266.29 452.85 271.66 452.85 277.34 452.85 283.32 452.85 289.29 452.85 294.97 452.85 300.34 452.85 305.12 452.85 309.31 452.85 312.59 452.85 314.98 452.85 316.48 452.85 317.07 452.85"/>
  <polyline class="cls-1" points="365.17 269.12 364.57 269.12 363.08 269.12 360.39 269.12 356.51 269.12 352.03 269.12 346.35 269.12 220.28 269.12 214.6 269.12 210.12 269.12 206.24 269.12 203.55 269.12 202.06 269.12 201.46 269.12"/>
  <polyline class="cls-1" points="201.46 233.87 202.06 233.87 203.55 233.87 206.24 233.87 210.12 233.87 214.6 233.87 220.28 233.87 346.35 233.87 352.03 233.87 356.51 233.87 360.39 233.87 363.08 233.87 364.57 233.87 365.17 233.87"/>
  <polyline class="cls-1" points="365.17 177.41 364.57 177.41 363.08 177.41 360.39 177.41 356.51 177.41 352.03 177.41 346.35 177.41 220.28 177.41 214.6 177.41 210.12 177.41 206.24 177.41 203.55 177.41 202.06 177.41 201.46 177.41"/>
  <polyline class="cls-1" points="201.46 142.16 202.06 142.16 203.55 142.16 206.24 142.16 210.12 142.16 214.6 142.16 220.28 142.16 346.35 142.16 352.03 142.16 356.51 142.16 360.39 142.16 363.08 142.16 364.57 142.16 365.17 142.16"/>
  <polyline class="cls-1" points="220.28 177.41 218.49 176.21 216.69 174.72"/>
  <polyline class="cls-1" points="346.35 142.16 348.14 143.65 349.94 145.14 349.94 174.72 348.14 176.21 346.35 177.41"/>
  <polyline class="cls-1" points="216.69 174.72 216.69 145.14 218.49 143.65 220.28 142.16"/>
  <polyline class="cls-1" points="220.28 269.12 218.49 267.93 216.69 266.44"/>
  <polyline class="cls-1" points="346.35 233.87 348.14 235.37 349.94 236.86 349.94 266.44 348.14 267.93 346.35 269.12"/>
  <polyline class="cls-1" points="216.69 266.44 216.69 236.86 218.49 235.37 220.28 233.87"/>
  <polyline class="cls-1" points="368.16 266.44 367.26 266.44 365.17 266.44 361.29 266.44 356.21 266.44 349.94 266.44"/>
  <polyline class="cls-1" points="216.69 266.44 210.42 266.44 205.34 266.44 201.76 266.44 199.37 266.44 198.77 266.44"/>
  <polyline class="cls-1" points="198.77 236.86 199.37 236.86 201.76 236.86 205.34 236.86 210.42 236.86 216.69 236.86"/>
  <polyline class="cls-1" points="349.94 236.86 356.21 236.86 361.29 236.86 365.17 236.86 367.26 236.86 368.16 236.86"/>
  <polyline class="cls-1" points="368.16 174.72 367.26 174.72 365.17 174.72 361.29 174.72 356.21 174.72 349.94 174.72"/>
  <polyline class="cls-1" points="216.69 174.72 210.42 174.72 205.34 174.72 201.76 174.72 199.37 174.72 198.77 174.72"/>
  <polyline class="cls-1" points="198.77 145.14 199.37 145.14 201.76 145.14 205.34 145.14 210.42 145.14 216.69 145.14"/>
  <polyline class="cls-1" points="349.94 145.14 356.21 145.14 361.29 145.14 365.17 145.14 367.26 145.14 368.16 145.14"/>
  <polyline class="cls-1" points="325.74 114.08 325.14 114.08 323.65 114.08 320.96 114.08 317.67 114.08 313.19 114.08 308.11 114.08 302.44 114.08 296.46 114.08 289.89 114.08 283.32 114.08 276.74 114.08 270.17 114.08 264.2 114.08 258.52 114.08 253.44 114.08 248.96 114.08 245.67 114.08 242.98 114.08 241.49 114.08 240.89 114.08"/>
  <polyline class="cls-1" points="238.2 116.76 238.8 116.76 240.3 116.76 242.98 116.76 246.87 116.76 251.35 116.76 256.73 116.76 262.7 116.76 269.27 116.76 276.15 116.76 283.32 116.76 290.49 116.76 297.36 116.76 303.93 116.76 309.9 116.76 315.28 116.76 319.76 116.76 323.65 116.76 326.33 116.76 327.83 116.76 328.43 116.76"/>
  <line class="cls-1" x1="329.92" y1="325.59" x2="332.61" y2="328.58"/>
  <line class="cls-1" x1="236.71" y1="325.59" x2="234.02" y2="328.58"/>
  <line class="cls-1" x1="332.61" y1="328.58" x2="332.61" y2="394.9"/>
  <line class="cls-1" x1="234.02" y1="328.58" x2="234.02" y2="394.9"/>
  <line class="cls-1" x1="242.09" y1="402.96" x2="235.22" y2="396.39"/>
  <line class="cls-1" x1="324.54" y1="402.96" x2="331.41" y2="396.39"/>
  <line class="cls-1" x1="322.15" y1="402.96" x2="322.15" y2="403.86"/>
  <line class="cls-1" x1="244.48" y1="402.96" x2="244.48" y2="403.86"/>
  <line class="cls-1" x1="249.56" y1="452.85" x2="249.26" y2="452.26"/>
  <line class="cls-1" x1="317.07" y1="452.85" x2="317.37" y2="452.26"/>
  <line class="cls-1" x1="235.22" y1="396.39" x2="234.02" y2="394.9"/>
  <line class="cls-1" x1="331.41" y1="396.39" x2="332.61" y2="394.9"/>
  <line class="cls-1" x1="365.17" y1="269.12" x2="368.16" y2="266.44"/>
  <line class="cls-1" x1="201.46" y1="269.12" x2="198.77" y2="266.44"/>
  <line class="cls-1" x1="201.46" y1="233.87" x2="198.77" y2="236.86"/>
  <polyline class="cls-1" points="365.17 233.87 368.16 236.86 368.16 266.44"/>
  <line class="cls-1" x1="198.77" y1="236.86" x2="198.77" y2="266.44"/>
  <line class="cls-1" x1="365.17" y1="177.41" x2="368.16" y2="174.72"/>
  <line class="cls-1" x1="201.46" y1="177.41" x2="198.77" y2="174.72"/>
  <line class="cls-1" x1="201.46" y1="142.16" x2="198.77" y2="145.14"/>
  <polyline class="cls-1" points="365.17 142.16 368.16 145.14 368.16 174.72"/>
  <line class="cls-1" x1="198.77" y1="145.14" x2="198.77" y2="174.72"/>
  <line class="cls-1" x1="325.74" y1="114.08" x2="328.43" y2="116.76"/>
  <line class="cls-1" x1="240.89" y1="114.08" x2="238.2" y2="116.76"/>
  <line class="cls-1" x1="328.43" y1="116.76" x2="328.43" y2="142.16"/>
  <line class="cls-1" x1="238.2" y1="116.76" x2="238.2" y2="142.16"/>
  <line class="cls-1" x1="328.43" y1="269.12" x2="328.43" y2="325.59"/>
  <line class="cls-1" x1="238.2" y1="269.12" x2="238.2" y2="325.59"/>
  <line class="cls-1" x1="328.43" y1="177.41" x2="328.43" y2="233.87"/>
  <line class="cls-1" x1="238.2" y1="177.41" x2="238.2" y2="233.87"/>
</svg>